<svg xmlns="http://www.w3.org/2000/svg" xmlns:xlink="http://www.w3.org/1999/xlink" width="500" zoomAndPan="magnify" viewBox="0 0 375 374.999991" height="500" preserveAspectRatio="xMidYMid meet" version="1.0"><defs><clipPath id="cfbcb56be7"><path d="M 0 23.164062 L 375 23.164062 L 375 351.664062 L 0 351.664062 Z M 0 23.164062 " clip-rule="nonzero"/></clipPath><clipPath id="5ed718d7b2"><path d="M 137 113 L 262.3125 113 L 262.3125 262.5 L 137 262.5 Z M 137 113 " clip-rule="nonzero"/></clipPath><clipPath id="292c075a2e"><path d="M 113.0625 113 L 156 113 L 156 262.5 L 113.0625 262.5 Z M 113.0625 113 " clip-rule="nonzero"/></clipPath></defs><g clip-path="url(#cfbcb56be7)"><path fill="#c59b64" d="M 280.683594 23.164062 L 94.316406 23.164062 L 0.00390625 187.414062 L 94.316406 351.664062 L 280.683594 351.664062 L 374.996094 187.414062 L 280.683594 23.164062 M 275.550781 342.765625 L 99.449219 342.765625 L 10.265625 187.414062 L 99.449219 32.0625 L 275.550781 32.0625 L 364.734375 187.414062 L 275.550781 342.765625 " fill-opacity="1" fill-rule="nonzero"/></g><g clip-path="url(#5ed718d7b2)"><path fill="#000000" d="M 249.484375 113.351562 C 248.640625 113.355469 247.804688 113.441406 246.976562 113.609375 C 246.148438 113.777344 245.34375 114.027344 244.566406 114.351562 C 243.789062 114.675781 243.046875 115.074219 242.347656 115.546875 C 241.644531 116.015625 240.996094 116.550781 240.402344 117.148438 C 239.808594 117.746094 239.277344 118.398438 238.808594 119.101562 C 238.339844 119.800781 237.949219 120.542969 237.625 121.324219 C 237.304688 122.101562 237.0625 122.90625 236.902344 123.730469 C 236.738281 124.558594 236.65625 125.394531 236.660156 126.238281 L 236.660156 129.636719 L 143.378906 129.636719 L 143.378906 134.289062 L 236.660156 134.289062 L 236.660156 250.597656 C 236.660156 250.910156 236.722656 251.214844 236.84375 251.503906 C 237.210938 253.777344 238.132812 255.800781 239.601562 257.574219 L 141.324219 257.574219 C 140.394531 259.328125 139.195312 260.878906 137.738281 262.226562 L 250.652344 262.226562 C 250.96875 262.230469 251.269531 262.167969 251.558594 262.046875 C 252.21875 261.9375 252.863281 261.777344 253.496094 261.570312 C 254.125 261.359375 254.738281 261.105469 255.332031 260.800781 C 255.925781 260.496094 256.488281 260.148438 257.027344 259.757812 C 257.566406 259.367188 258.070312 258.9375 258.542969 258.46875 C 259.011719 257.996094 259.445312 257.492188 259.835938 256.957031 C 260.230469 256.421875 260.578125 255.855469 260.882812 255.265625 C 261.1875 254.675781 261.441406 254.0625 261.652344 253.433594 C 261.863281 252.800781 262.019531 252.160156 262.128906 251.503906 C 262.25 251.214844 262.3125 250.910156 262.3125 250.597656 L 262.3125 126.238281 C 262.316406 125.394531 262.234375 124.558594 262.070312 123.730469 C 261.910156 122.90625 261.667969 122.101562 261.347656 121.324219 C 261.023438 120.542969 260.632812 119.800781 260.164062 119.101562 C 259.695312 118.398438 259.164062 117.746094 258.570312 117.148438 C 257.976562 116.550781 257.328125 116.015625 256.625 115.546875 C 255.925781 115.074219 255.183594 114.675781 254.40625 114.351562 C 253.625 114.027344 252.824219 113.777344 251.996094 113.609375 C 251.167969 113.441406 250.332031 113.355469 249.484375 113.351562 Z M 241.324219 126.238281 C 241.316406 125.699219 241.367188 125.164062 241.464844 124.636719 C 241.566406 124.105469 241.71875 123.59375 241.917969 123.09375 C 242.121094 122.59375 242.371094 122.121094 242.667969 121.671875 C 242.964844 121.222656 243.304688 120.804688 243.683594 120.421875 C 244.0625 120.039062 244.476562 119.699219 244.921875 119.394531 C 245.371094 119.09375 245.84375 118.839844 246.34375 118.632812 C 246.839844 118.425781 247.355469 118.269531 247.882812 118.164062 C 248.414062 118.058594 248.945312 118.003906 249.484375 118.003906 C 250.027344 118.003906 250.558594 118.058594 251.089844 118.164062 C 251.617188 118.269531 252.132812 118.425781 252.628906 118.632812 C 253.128906 118.839844 253.601562 119.09375 254.050781 119.394531 C 254.496094 119.699219 254.910156 120.039062 255.289062 120.421875 C 255.667969 120.804688 256.007812 121.222656 256.304688 121.671875 C 256.601562 122.121094 256.851562 122.59375 257.054688 123.09375 C 257.253906 123.59375 257.40625 124.105469 257.507812 124.636719 C 257.605469 125.164062 257.65625 125.699219 257.648438 126.238281 L 257.648438 239.574219 C 257.078125 239.101562 256.472656 238.683594 255.832031 238.320312 C 255.1875 237.953125 254.519531 237.644531 253.824219 237.394531 C 253.128906 237.144531 252.417969 236.957031 251.6875 236.832031 C 250.960938 236.703125 250.226562 236.640625 249.488281 236.640625 C 248.746094 236.640625 248.011719 236.703125 247.285156 236.832031 C 246.554688 236.957031 245.84375 237.144531 245.148438 237.394531 C 244.453125 237.644531 243.785156 237.953125 243.140625 238.320312 C 242.5 238.683594 241.894531 239.101562 241.324219 239.574219 Z M 249.484375 257.574219 C 248.949219 257.574219 248.417969 257.523438 247.894531 257.417969 C 247.367188 257.316406 246.859375 257.160156 246.363281 256.957031 C 245.867188 256.75 245.398438 256.5 244.953125 256.203125 C 244.507812 255.90625 244.09375 255.570312 243.714844 255.191406 C 243.335938 254.8125 242.996094 254.402344 242.699219 253.957031 C 242.402344 253.511719 242.152344 253.042969 241.945312 252.550781 C 241.742188 252.054688 241.585938 251.546875 241.480469 251.023438 C 241.375 250.5 241.324219 249.96875 241.324219 249.433594 C 241.324219 248.898438 241.375 248.371094 241.480469 247.847656 C 241.585938 247.320312 241.742188 246.8125 241.945312 246.320312 C 242.152344 245.824219 242.402344 245.355469 242.699219 244.910156 C 242.996094 244.464844 243.335938 244.054688 243.714844 243.675781 C 244.09375 243.300781 244.507812 242.960938 244.953125 242.664062 C 245.398438 242.367188 245.867188 242.117188 246.363281 241.914062 C 246.859375 241.707031 247.367188 241.554688 247.894531 241.449219 C 248.417969 241.34375 248.949219 241.292969 249.484375 241.292969 C 250.023438 241.292969 250.554688 241.34375 251.078125 241.449219 C 251.605469 241.554688 252.113281 241.707031 252.609375 241.914062 C 253.105469 242.117188 253.574219 242.367188 254.019531 242.664062 C 254.464844 242.960938 254.878906 243.300781 255.257812 243.675781 C 255.636719 244.054688 255.976562 244.464844 256.273438 244.910156 C 256.570312 245.355469 256.820312 245.824219 257.027344 246.320312 C 257.230469 246.8125 257.386719 247.320312 257.492188 247.847656 C 257.597656 248.371094 257.648438 248.898438 257.648438 249.433594 C 257.648438 249.96875 257.59375 250.496094 257.488281 251.023438 C 257.386719 251.546875 257.230469 252.054688 257.023438 252.546875 C 256.820312 253.042969 256.566406 253.511719 256.269531 253.957031 C 255.972656 254.398438 255.632812 254.8125 255.253906 255.1875 C 254.875 255.566406 254.464844 255.902344 254.019531 256.199219 C 253.574219 256.496094 253.101562 256.75 252.609375 256.953125 C 252.113281 257.160156 251.601562 257.3125 251.078125 257.417969 C 250.550781 257.523438 250.023438 257.574219 249.484375 257.574219 Z M 249.484375 257.574219 " fill-opacity="1" fill-rule="nonzero"/></g><path fill="#000000" d="M 156.203125 164.527344 L 150.375 164.527344 C 150.066406 164.527344 149.769531 164.589844 149.484375 164.707031 C 149.195312 164.824219 148.945312 164.992188 148.726562 165.210938 C 148.507812 165.429688 148.339844 165.679688 148.21875 165.964844 C 148.101562 166.25 148.042969 166.546875 148.042969 166.855469 C 148.042969 167.164062 148.101562 167.460938 148.21875 167.746094 C 148.339844 168.03125 148.507812 168.28125 148.726562 168.5 C 148.945312 168.71875 149.195312 168.886719 149.484375 169.003906 C 149.769531 169.121094 150.066406 169.179688 150.375 169.179688 L 166.699219 169.179688 C 167.007812 169.179688 167.304688 169.121094 167.589844 169.003906 C 167.878906 168.886719 168.128906 168.71875 168.347656 168.5 C 168.566406 168.28125 168.734375 168.03125 168.855469 167.746094 C 168.972656 167.460938 169.03125 167.164062 169.03125 166.855469 C 169.03125 166.546875 168.972656 166.25 168.855469 165.964844 C 168.734375 165.679688 168.566406 165.429688 168.347656 165.210938 C 168.128906 164.992188 167.878906 164.824219 167.589844 164.707031 C 167.304688 164.589844 167.007812 164.527344 166.699219 164.527344 L 160.867188 164.527344 L 160.867188 148.246094 L 178.359375 148.246094 L 178.359375 176.160156 C 178.359375 176.46875 178.417969 176.765625 178.535156 177.050781 C 178.65625 177.335938 178.824219 177.585938 179.042969 177.804688 C 179.261719 178.023438 179.511719 178.191406 179.800781 178.308594 C 180.085938 178.425781 180.382812 178.484375 180.691406 178.484375 L 192.351562 178.484375 L 192.351562 184.300781 C 192.351562 184.609375 192.410156 184.90625 192.527344 185.191406 C 192.648438 185.476562 192.816406 185.726562 193.035156 185.945312 C 193.253906 186.164062 193.503906 186.332031 193.792969 186.449219 C 194.078125 186.570312 194.375 186.628906 194.683594 186.628906 C 194.992188 186.628906 195.289062 186.570312 195.574219 186.449219 C 195.863281 186.332031 196.113281 186.164062 196.332031 185.945312 C 196.550781 185.726562 196.71875 185.476562 196.839844 185.191406 C 196.957031 184.90625 197.015625 184.609375 197.015625 184.300781 L 197.015625 168.019531 C 197.015625 167.710938 196.957031 167.414062 196.839844 167.128906 C 196.71875 166.84375 196.550781 166.589844 196.332031 166.375 C 196.113281 166.15625 195.863281 165.988281 195.574219 165.871094 C 195.289062 165.75 194.992188 165.691406 194.683594 165.691406 C 194.375 165.691406 194.078125 165.75 193.792969 165.871094 C 193.503906 165.988281 193.253906 166.15625 193.035156 166.375 C 192.816406 166.589844 192.648438 166.84375 192.527344 167.128906 C 192.410156 167.414062 192.351562 167.710938 192.351562 168.019531 L 192.351562 173.832031 L 183.023438 173.832031 L 183.023438 148.246094 L 222.667969 148.246094 L 222.667969 173.832031 L 211.007812 173.832031 L 211.007812 168.019531 C 211.007812 167.710938 210.949219 167.414062 210.832031 167.128906 C 210.710938 166.84375 210.542969 166.589844 210.324219 166.375 C 210.105469 166.15625 209.855469 165.988281 209.566406 165.871094 C 209.28125 165.75 208.984375 165.691406 208.675781 165.691406 C 208.367188 165.691406 208.070312 165.75 207.785156 165.871094 C 207.496094 165.988281 207.246094 166.15625 207.027344 166.375 C 206.808594 166.589844 206.640625 166.84375 206.519531 167.128906 C 206.402344 167.414062 206.34375 167.710938 206.34375 168.019531 L 206.34375 184.300781 C 206.34375 184.609375 206.402344 184.90625 206.519531 185.191406 C 206.640625 185.476562 206.808594 185.726562 207.027344 185.945312 C 207.246094 186.164062 207.496094 186.332031 207.785156 186.449219 C 208.070312 186.570312 208.367188 186.628906 208.675781 186.628906 C 208.984375 186.628906 209.28125 186.570312 209.566406 186.449219 C 209.855469 186.332031 210.105469 186.164062 210.324219 185.945312 C 210.542969 185.726562 210.710938 185.476562 210.832031 185.191406 C 210.949219 184.90625 211.007812 184.609375 211.007812 184.300781 L 211.007812 178.484375 L 222.667969 178.484375 L 222.667969 213.378906 L 211.007812 213.378906 L 211.007812 207.5625 C 211.007812 207.253906 210.949219 206.957031 210.832031 206.671875 C 210.710938 206.386719 210.542969 206.136719 210.324219 205.917969 C 210.105469 205.699219 209.855469 205.53125 209.566406 205.414062 C 209.28125 205.296875 208.984375 205.238281 208.675781 205.238281 C 208.367188 205.238281 208.070312 205.296875 207.785156 205.414062 C 207.496094 205.53125 207.246094 205.699219 207.027344 205.917969 C 206.808594 206.136719 206.640625 206.386719 206.519531 206.671875 C 206.402344 206.957031 206.34375 207.253906 206.34375 207.5625 L 206.34375 223.847656 C 206.34375 224.15625 206.402344 224.453125 206.519531 224.738281 C 206.640625 225.023438 206.808594 225.273438 207.027344 225.492188 C 207.246094 225.710938 207.496094 225.878906 207.785156 225.996094 C 208.070312 226.113281 208.367188 226.171875 208.675781 226.171875 C 208.984375 226.171875 209.28125 226.113281 209.566406 225.996094 C 209.855469 225.878906 210.105469 225.710938 210.324219 225.492188 C 210.542969 225.273438 210.710938 225.023438 210.832031 224.738281 C 210.949219 224.453125 211.007812 224.15625 211.007812 223.847656 L 211.007812 218.03125 L 222.667969 218.03125 L 222.667969 243.617188 L 183.023438 243.617188 L 183.023438 218.03125 L 192.351562 218.03125 L 192.351562 223.847656 C 192.351562 224.15625 192.410156 224.453125 192.527344 224.738281 C 192.648438 225.023438 192.816406 225.273438 193.035156 225.492188 C 193.253906 225.710938 193.503906 225.878906 193.792969 225.996094 C 194.078125 226.113281 194.375 226.171875 194.683594 226.171875 C 194.992188 226.171875 195.289062 226.113281 195.574219 225.996094 C 195.863281 225.878906 196.113281 225.710938 196.332031 225.492188 C 196.550781 225.273438 196.71875 225.023438 196.839844 224.738281 C 196.957031 224.453125 197.015625 224.15625 197.015625 223.847656 L 197.015625 207.5625 C 197.015625 207.253906 196.957031 206.957031 196.839844 206.671875 C 196.71875 206.386719 196.550781 206.136719 196.332031 205.917969 C 196.113281 205.699219 195.863281 205.53125 195.574219 205.414062 C 195.289062 205.296875 194.992188 205.238281 194.683594 205.238281 C 194.375 205.238281 194.078125 205.296875 193.792969 205.414062 C 193.503906 205.53125 193.253906 205.699219 193.035156 205.917969 C 192.816406 206.136719 192.648438 206.386719 192.527344 206.671875 C 192.410156 206.957031 192.351562 207.253906 192.351562 207.5625 L 192.351562 213.378906 L 169.03125 213.378906 L 169.03125 207.5625 C 169.03125 207.253906 168.972656 206.957031 168.855469 206.671875 C 168.734375 206.386719 168.566406 206.136719 168.347656 205.917969 C 168.128906 205.699219 167.878906 205.53125 167.589844 205.414062 C 167.304688 205.296875 167.007812 205.238281 166.699219 205.238281 C 166.390625 205.238281 166.09375 205.296875 165.808594 205.414062 C 165.519531 205.53125 165.269531 205.699219 165.050781 205.917969 C 164.832031 206.136719 164.664062 206.386719 164.542969 206.671875 C 164.425781 206.957031 164.367188 207.253906 164.367188 207.5625 L 164.367188 223.847656 C 164.367188 224.15625 164.425781 224.453125 164.542969 224.738281 C 164.664062 225.023438 164.832031 225.273438 165.050781 225.492188 C 165.269531 225.710938 165.519531 225.878906 165.808594 225.996094 C 166.09375 226.113281 166.390625 226.171875 166.699219 226.171875 C 167.007812 226.171875 167.304688 226.113281 167.589844 225.996094 C 167.878906 225.878906 168.128906 225.710938 168.347656 225.492188 C 168.566406 225.273438 168.734375 225.023438 168.855469 224.738281 C 168.972656 224.453125 169.03125 224.15625 169.03125 223.847656 L 169.03125 218.03125 L 178.359375 218.03125 L 178.359375 243.617188 L 143.378906 243.617188 L 143.378906 248.269531 L 225 248.269531 C 225.308594 248.269531 225.605469 248.210938 225.890625 248.09375 C 226.179688 247.976562 226.429688 247.808594 226.648438 247.589844 C 226.867188 247.371094 227.035156 247.121094 227.15625 246.835938 C 227.273438 246.550781 227.332031 246.253906 227.332031 245.945312 L 227.332031 145.917969 C 227.332031 145.609375 227.273438 145.316406 227.15625 145.03125 C 227.035156 144.746094 226.867188 144.492188 226.648438 144.273438 C 226.429688 144.058594 226.179688 143.886719 225.890625 143.769531 C 225.605469 143.652344 225.308594 143.59375 225 143.59375 L 143.378906 143.59375 L 143.378906 148.246094 L 156.203125 148.246094 Z M 156.203125 164.527344 " fill-opacity="1" fill-rule="nonzero"/><path fill="#000000" d="M 154.878906 190.117188 L 166.699219 190.117188 L 166.699219 195.933594 C 166.699219 196.242188 166.757812 196.539062 166.875 196.824219 C 166.996094 197.109375 167.164062 197.359375 167.382812 197.578125 C 167.601562 197.796875 167.851562 197.964844 168.140625 198.082031 C 168.425781 198.199219 168.722656 198.257812 169.03125 198.257812 C 169.339844 198.257812 169.636719 198.199219 169.921875 198.082031 C 170.210938 197.964844 170.460938 197.796875 170.679688 197.578125 C 170.898438 197.359375 171.066406 197.109375 171.1875 196.824219 C 171.304688 196.539062 171.363281 196.242188 171.363281 195.933594 L 171.363281 179.648438 C 171.363281 179.339844 171.304688 179.042969 171.1875 178.757812 C 171.066406 178.472656 170.898438 178.222656 170.679688 178.003906 C 170.460938 177.785156 170.210938 177.617188 169.921875 177.5 C 169.636719 177.382812 169.339844 177.324219 169.03125 177.324219 C 168.722656 177.324219 168.425781 177.382812 168.140625 177.5 C 167.851562 177.617188 167.601562 177.785156 167.382812 178.003906 C 167.164062 178.222656 166.996094 178.472656 166.875 178.757812 C 166.757812 179.042969 166.699219 179.339844 166.699219 179.648438 L 166.699219 185.464844 L 154.878906 185.464844 C 154.671875 183.824219 154.25 182.242188 153.617188 180.710938 C 152.984375 179.183594 152.164062 177.765625 151.152344 176.453125 C 150.144531 175.144531 148.976562 173.988281 147.660156 172.988281 C 146.339844 171.984375 144.914062 171.175781 143.378906 170.550781 L 143.378906 175.722656 C 144.265625 176.238281 145.089844 176.839844 145.84375 177.535156 C 146.597656 178.230469 147.269531 179 147.855469 179.839844 C 148.441406 180.683594 148.925781 181.578125 149.316406 182.527344 C 149.703125 183.476562 149.984375 184.453125 150.15625 185.464844 L 143.378906 185.464844 L 143.378906 190.117188 L 150.15625 190.117188 C 149.984375 191.128906 149.703125 192.105469 149.316406 193.054688 C 148.925781 194.003906 148.441406 194.898438 147.855469 195.742188 C 147.269531 196.582031 146.597656 197.351562 145.84375 198.046875 C 145.089844 198.738281 144.265625 199.34375 143.378906 199.859375 L 143.378906 205.03125 C 144.914062 204.40625 146.339844 203.59375 147.660156 202.59375 C 148.976562 201.59375 150.144531 200.4375 151.152344 199.125 C 152.164062 197.816406 152.984375 196.398438 153.617188 194.867188 C 154.25 193.339844 154.671875 191.757812 154.878906 190.117188 Z M 154.878906 190.117188 " fill-opacity="1" fill-rule="nonzero"/><g clip-path="url(#292c075a2e)"><path fill="#000000" d="M 138.714844 250.597656 L 138.714844 218.03125 L 150.375 218.03125 L 150.375 223.847656 C 150.375 224.15625 150.433594 224.453125 150.550781 224.738281 C 150.671875 225.023438 150.839844 225.273438 151.058594 225.492188 C 151.277344 225.710938 151.527344 225.878906 151.816406 225.996094 C 152.101562 226.113281 152.398438 226.171875 152.707031 226.171875 C 153.015625 226.171875 153.3125 226.113281 153.597656 225.996094 C 153.886719 225.878906 154.136719 225.710938 154.355469 225.492188 C 154.574219 225.273438 154.742188 225.023438 154.863281 224.738281 C 154.980469 224.453125 155.039062 224.15625 155.039062 223.847656 L 155.039062 207.5625 C 155.039062 207.253906 154.980469 206.957031 154.863281 206.671875 C 154.742188 206.386719 154.574219 206.136719 154.355469 205.917969 C 154.136719 205.699219 153.886719 205.53125 153.597656 205.414062 C 153.3125 205.296875 153.015625 205.238281 152.707031 205.238281 C 152.398438 205.238281 152.101562 205.296875 151.816406 205.414062 C 151.527344 205.53125 151.277344 205.699219 151.058594 205.917969 C 150.839844 206.136719 150.671875 206.386719 150.550781 206.671875 C 150.433594 206.957031 150.375 207.253906 150.375 207.5625 L 150.375 213.378906 L 138.714844 213.378906 L 138.714844 126.238281 C 138.722656 125.394531 138.644531 124.558594 138.484375 123.726562 C 138.324219 122.898438 138.085938 122.09375 137.765625 121.3125 C 137.445312 120.53125 137.050781 119.789062 136.585938 119.085938 C 136.117188 118.382812 135.585938 117.730469 134.988281 117.132812 C 134.394531 116.535156 133.746094 116 133.042969 115.527344 C 132.339844 115.058594 131.597656 114.660156 130.816406 114.335938 C 130.035156 114.011719 129.230469 113.765625 128.402344 113.601562 C 127.574219 113.4375 126.734375 113.351562 125.886719 113.351562 C 125.042969 113.351562 124.203125 113.4375 123.375 113.601562 C 122.546875 113.765625 121.742188 114.011719 120.960938 114.335938 C 120.179688 114.660156 119.4375 115.058594 118.734375 115.527344 C 118.03125 116 117.382812 116.535156 116.789062 117.132812 C 116.191406 117.730469 115.660156 118.382812 115.191406 119.085938 C 114.726562 119.789062 114.332031 120.53125 114.011719 121.3125 C 113.691406 122.09375 113.453125 122.898438 113.292969 123.726562 C 113.132812 124.558594 113.054688 125.394531 113.0625 126.238281 L 113.0625 250.597656 C 113.0625 250.910156 113.125 251.214844 113.246094 251.503906 C 113.367188 252.246094 113.550781 252.972656 113.800781 253.679688 C 114.050781 254.390625 114.363281 255.074219 114.734375 255.730469 C 115.101562 256.382812 115.527344 257.003906 116.007812 257.582031 C 116.488281 258.164062 117.015625 258.695312 117.589844 259.183594 C 118.164062 259.671875 118.777344 260.105469 119.429688 260.484375 C 120.082031 260.863281 120.761719 261.183594 121.46875 261.441406 C 122.175781 261.703125 122.902344 261.898438 123.644531 262.03125 C 124.386719 262.164062 125.132812 262.226562 125.890625 262.226562 C 126.644531 262.226562 127.390625 262.164062 128.132812 262.03125 C 128.875 261.898438 129.601562 261.703125 130.308594 261.441406 C 131.015625 261.183594 131.695312 260.863281 132.347656 260.484375 C 133 260.105469 133.613281 259.671875 134.1875 259.183594 C 134.761719 258.695312 135.289062 258.164062 135.769531 257.582031 C 136.25 257.003906 136.675781 256.382812 137.042969 255.730469 C 137.414062 255.074219 137.726562 254.390625 137.976562 253.679688 C 138.226562 252.972656 138.410156 252.246094 138.53125 251.503906 C 138.652344 251.214844 138.714844 250.910156 138.714844 250.597656 Z M 125.886719 118.003906 C 126.425781 118.007812 126.960938 118.066406 127.488281 118.171875 C 128.015625 118.28125 128.527344 118.441406 129.023438 118.648438 C 129.519531 118.855469 129.992188 119.113281 130.4375 119.414062 C 130.882812 119.714844 131.296875 120.054688 131.675781 120.4375 C 132.054688 120.820312 132.394531 121.234375 132.691406 121.683594 C 132.988281 122.132812 133.238281 122.605469 133.441406 123.101562 C 133.644531 123.601562 133.796875 124.113281 133.898438 124.640625 C 134.003906 125.167969 134.054688 125.699219 134.050781 126.238281 L 134.050781 239.574219 C 133.480469 239.101562 132.875 238.683594 132.234375 238.320312 C 131.589844 237.953125 130.921875 237.644531 130.226562 237.394531 C 129.53125 237.144531 128.820312 236.957031 128.089844 236.832031 C 127.363281 236.703125 126.628906 236.640625 125.886719 236.640625 C 125.148438 236.640625 124.414062 236.703125 123.6875 236.832031 C 122.957031 236.957031 122.246094 237.144531 121.550781 237.394531 C 120.855469 237.644531 120.1875 237.953125 119.542969 238.320312 C 118.902344 238.683594 118.296875 239.101562 117.726562 239.574219 L 117.726562 126.238281 C 117.722656 125.699219 117.773438 125.167969 117.878906 124.640625 C 117.980469 124.113281 118.132812 123.601562 118.335938 123.101562 C 118.539062 122.605469 118.789062 122.132812 119.085938 121.683594 C 119.382812 121.234375 119.722656 120.820312 120.101562 120.4375 C 120.480469 120.054688 120.894531 119.714844 121.339844 119.414062 C 121.785156 119.113281 122.257812 118.855469 122.753906 118.648438 C 123.25 118.441406 123.761719 118.28125 124.289062 118.171875 C 124.816406 118.066406 125.351562 118.007812 125.886719 118.003906 Z M 125.886719 257.574219 C 125.351562 257.574219 124.820312 257.523438 124.296875 257.417969 C 123.769531 257.316406 123.261719 257.160156 122.765625 256.957031 C 122.269531 256.75 121.800781 256.5 121.355469 256.203125 C 120.910156 255.90625 120.496094 255.570312 120.117188 255.191406 C 119.738281 254.8125 119.398438 254.402344 119.101562 253.957031 C 118.804688 253.511719 118.554688 253.042969 118.347656 252.550781 C 118.144531 252.054688 117.988281 251.546875 117.882812 251.023438 C 117.777344 250.5 117.726562 249.96875 117.726562 249.433594 C 117.726562 248.898438 117.777344 248.371094 117.882812 247.847656 C 117.988281 247.320312 118.144531 246.8125 118.347656 246.320312 C 118.554688 245.824219 118.804688 245.355469 119.101562 244.910156 C 119.398438 244.464844 119.738281 244.054688 120.117188 243.675781 C 120.496094 243.300781 120.910156 242.960938 121.355469 242.664062 C 121.800781 242.367188 122.269531 242.117188 122.765625 241.914062 C 123.261719 241.707031 123.769531 241.554688 124.296875 241.449219 C 124.820312 241.34375 125.351562 241.292969 125.886719 241.292969 C 126.425781 241.292969 126.957031 241.34375 127.480469 241.449219 C 128.007812 241.554688 128.515625 241.707031 129.011719 241.914062 C 129.507812 242.117188 129.976562 242.367188 130.421875 242.664062 C 130.867188 242.960938 131.28125 243.300781 131.660156 243.675781 C 132.039062 244.054688 132.378906 244.464844 132.675781 244.910156 C 132.972656 245.355469 133.222656 245.824219 133.429688 246.320312 C 133.632812 246.8125 133.789062 247.320312 133.894531 247.847656 C 134 248.371094 134.050781 248.898438 134.050781 249.433594 C 134.050781 249.96875 133.996094 250.496094 133.890625 251.023438 C 133.789062 251.546875 133.632812 252.054688 133.425781 252.546875 C 133.222656 253.042969 132.96875 253.511719 132.671875 253.957031 C 132.375 254.398438 132.035156 254.8125 131.65625 255.1875 C 131.277344 255.566406 130.867188 255.902344 130.421875 256.199219 C 129.976562 256.496094 129.503906 256.75 129.011719 256.953125 C 128.515625 257.160156 128.003906 257.3125 127.480469 257.417969 C 126.953125 257.523438 126.425781 257.574219 125.886719 257.574219 Z M 125.886719 257.574219 " fill-opacity="1" fill-rule="nonzero"/></g></svg>