<svg xmlns="http://www.w3.org/2000/svg" xmlns:xlink="http://www.w3.org/1999/xlink" width="500" zoomAndPan="magnify" viewBox="0 0 375 374.999991" height="500" preserveAspectRatio="xMidYMid meet" version="1.0"><defs><clipPath id="8f479a6e08"><path d="M 0 23.164062 L 375 23.164062 L 375 351.664062 L 0 351.664062 Z M 0 23.164062 " clip-rule="nonzero"/></clipPath><clipPath id="bc2ba6f4da"><path d="M 159 112.5 L 215 112.5 L 215 205 L 159 205 Z M 159 112.5 " clip-rule="nonzero"/></clipPath><clipPath id="afe60d26b3"><path d="M 207 169 L 262.5 169 L 262.5 262.5 L 207 262.5 Z M 207 169 " clip-rule="nonzero"/></clipPath><clipPath id="3069133a95"><path d="M 112.5 169 L 168 169 L 168 262.5 L 112.5 262.5 Z M 112.5 169 " clip-rule="nonzero"/></clipPath><clipPath id="5e948669cc"><path d="M 167 254 L 209 254 L 209 262.5 L 167 262.5 Z M 167 254 " clip-rule="nonzero"/></clipPath></defs><g clip-path="url(#8f479a6e08)"><path fill="#c59b64" d="M 280.683594 23.164062 L 94.316406 23.164062 L 0.00390625 187.414062 L 94.316406 351.664062 L 280.683594 351.664062 L 374.996094 187.414062 L 280.683594 23.164062 M 275.550781 342.765625 L 99.449219 342.765625 L 10.265625 187.414062 L 99.449219 32.0625 L 275.550781 32.0625 L 364.734375 187.414062 L 275.550781 342.765625 " fill-opacity="1" fill-rule="nonzero"/></g><path fill="#000000" d="M 187.375 189.871094 C 194.257812 189.871094 199.855469 184.273438 199.855469 177.390625 C 199.855469 170.511719 194.257812 164.914062 187.375 164.914062 C 180.496094 164.914062 174.894531 170.511719 174.894531 177.390625 C 174.894531 184.273438 180.496094 189.871094 187.375 189.871094 Z M 187.375 169.90625 C 191.503906 169.90625 194.863281 173.265625 194.863281 177.390625 C 194.863281 181.519531 191.503906 184.878906 187.375 184.878906 C 183.246094 184.878906 179.886719 181.519531 179.886719 177.390625 C 179.886719 173.265625 183.246094 169.90625 187.375 169.90625 Z M 187.375 169.90625 " fill-opacity="1" fill-rule="nonzero"/><g clip-path="url(#bc2ba6f4da)"><path fill="#000000" d="M 165.453125 169.363281 C 165.296875 169.808594 165.15625 170.269531 165.023438 170.742188 L 161.4375 172.269531 C 160.515625 172.664062 159.921875 173.566406 159.921875 174.566406 L 159.921875 180.21875 C 159.921875 181.21875 160.515625 182.121094 161.4375 182.511719 L 165.023438 184.039062 C 165.15625 184.515625 165.300781 184.972656 165.453125 185.417969 L 163.535156 188.726562 C 163.09375 189.488281 163.085938 190.425781 163.515625 191.195312 C 164.503906 192.972656 165.714844 194.660156 167.105469 196.21875 C 167.714844 196.894531 168.640625 197.191406 169.523438 196.988281 L 173.144531 196.15625 C 173.503906 196.433594 173.871094 196.703125 174.246094 196.964844 L 174.597656 200.8125 C 174.679688 201.699219 175.226562 202.476562 176.035156 202.847656 C 177.949219 203.734375 179.894531 204.390625 181.824219 204.792969 C 182.707031 204.976562 183.632812 204.667969 184.226562 203.980469 L 186.769531 201.03125 L 187.984375 201.03125 L 190.527344 203.980469 C 191.007812 204.535156 191.699219 204.847656 192.417969 204.847656 C 192.585938 204.847656 192.757812 204.828125 192.929688 204.792969 C 194.855469 204.390625 196.800781 203.734375 198.714844 202.847656 C 199.523438 202.476562 200.070312 201.699219 200.152344 200.8125 L 200.503906 196.964844 C 200.878906 196.707031 201.246094 196.433594 201.601562 196.15625 L 205.226562 196.988281 C 206.113281 197.191406 207.039062 196.894531 207.640625 196.21875 C 209.03125 194.664062 210.238281 192.976562 211.234375 191.199219 C 211.664062 190.429688 211.65625 189.492188 211.214844 188.730469 L 209.292969 185.421875 C 209.449219 184.96875 209.59375 184.503906 209.726562 184.019531 L 213.175781 182.5 C 214.078125 182.101562 214.664062 181.207031 214.664062 180.21875 L 214.664062 174.566406 C 214.664062 173.578125 214.078125 172.683594 213.175781 172.28125 L 209.726562 170.761719 C 209.59375 170.28125 209.449219 169.816406 209.292969 169.363281 L 211.214844 166.054688 C 211.65625 165.292969 211.664062 164.355469 211.234375 163.585938 C 210.246094 161.8125 209.035156 160.125 207.640625 158.566406 C 207.039062 157.890625 206.113281 157.59375 205.226562 157.796875 L 202.351562 158.457031 L 202.351562 142.449219 C 202.351562 136.808594 199.214844 131.894531 194.59375 129.339844 C 196.296875 127.546875 197.359375 125.140625 197.359375 122.484375 C 197.359375 116.976562 192.882812 112.5 187.375 112.5 C 181.871094 112.5 177.390625 116.976562 177.390625 122.484375 C 177.390625 125.140625 178.453125 127.546875 180.15625 129.339844 C 175.539062 131.894531 172.398438 136.808594 172.398438 142.449219 L 172.398438 158.457031 L 169.523438 157.796875 C 168.636719 157.59375 167.714844 157.890625 167.105469 158.5625 C 165.714844 160.117188 164.507812 161.804688 163.515625 163.582031 C 163.085938 164.351562 163.09375 165.289062 163.535156 166.050781 Z M 187.375 117.492188 C 190.128906 117.492188 192.367188 119.730469 192.367188 122.484375 C 192.367188 125.234375 190.128906 127.476562 187.375 127.476562 C 184.621094 127.476562 182.382812 125.234375 182.382812 122.484375 C 182.382812 119.730469 184.621094 117.492188 187.375 117.492188 Z M 177.390625 142.449219 C 177.390625 136.945312 181.871094 132.464844 187.375 132.464844 C 192.882812 132.464844 197.359375 136.945312 197.359375 142.449219 L 197.359375 151.394531 C 195.882812 150.796875 194.402344 150.300781 192.929688 149.988281 C 192.039062 149.804688 191.117188 150.117188 190.527344 150.804688 L 187.984375 153.753906 L 186.769531 153.753906 L 184.226562 150.804688 C 183.632812 150.117188 182.71875 149.804688 181.828125 149.988281 C 180.351562 150.300781 178.871094 150.796875 177.394531 151.394531 L 177.394531 142.449219 Z M 168.121094 174.847656 C 168.855469 174.535156 169.398438 173.886719 169.574219 173.105469 C 169.828125 171.992188 170.136719 171.003906 170.511719 170.089844 C 170.808594 169.371094 170.753906 168.558594 170.367188 167.886719 L 168.589844 164.824219 C 168.992188 164.199219 169.425781 163.589844 169.890625 163.003906 L 173.234375 163.769531 C 174.015625 163.945312 174.839844 163.738281 175.441406 163.207031 C 176.195312 162.542969 177.035156 161.921875 177.9375 161.367188 C 178.601562 160.953125 179.035156 160.25 179.105469 159.472656 L 179.433594 155.90625 C 180.105469 155.644531 180.777344 155.414062 181.445312 155.222656 L 183.734375 157.878906 C 184.207031 158.429688 184.898438 158.746094 185.625 158.746094 L 189.128906 158.746094 C 189.855469 158.746094 190.542969 158.429688 191.019531 157.878906 L 193.308594 155.222656 C 193.976562 155.414062 194.648438 155.644531 195.316406 155.90625 L 195.640625 159.472656 C 195.714844 160.253906 196.148438 160.957031 196.816406 161.367188 C 197.710938 161.921875 198.550781 162.542969 199.304688 163.210938 C 199.90625 163.742188 200.726562 163.949219 201.515625 163.773438 L 204.855469 163.003906 C 205.324219 163.59375 205.757812 164.203125 206.160156 164.824219 L 204.382812 167.886719 C 203.996094 168.558594 203.941406 169.375 204.238281 170.09375 C 204.613281 171.007812 204.921875 171.992188 205.175781 173.109375 C 205.351562 173.878906 205.878906 174.519531 206.601562 174.839844 L 209.671875 176.195312 L 209.671875 178.589844 L 206.601562 179.945312 C 205.878906 180.265625 205.351562 180.90625 205.175781 181.675781 C 204.921875 182.789062 204.613281 183.777344 204.238281 184.691406 C 203.941406 185.410156 203.996094 186.222656 204.382812 186.894531 L 206.160156 189.957031 C 205.757812 190.582031 205.324219 191.1875 204.855469 191.777344 L 201.515625 191.011719 C 200.730469 190.828125 199.90625 191.042969 199.304688 191.574219 C 198.550781 192.238281 197.714844 192.859375 196.8125 193.414062 C 196.144531 193.828125 195.710938 194.53125 195.640625 195.308594 L 195.316406 198.875 C 194.644531 199.136719 193.972656 199.363281 193.304688 199.554688 L 191.015625 196.898438 C 190.542969 196.351562 189.855469 196.035156 189.128906 196.035156 L 185.625 196.035156 C 184.898438 196.035156 184.207031 196.351562 183.734375 196.898438 L 181.445312 199.554688 C 180.777344 199.363281 180.105469 199.136719 179.4375 198.871094 L 179.113281 195.308594 C 179.039062 194.527344 178.605469 193.820312 177.9375 193.410156 C 177.042969 192.855469 176.203125 192.238281 175.449219 191.566406 C 174.847656 191.035156 174.019531 190.824219 173.238281 191.007812 L 169.898438 191.773438 C 169.429688 191.183594 168.996094 190.574219 168.59375 189.953125 L 170.367188 186.890625 C 170.757812 186.21875 170.8125 185.402344 170.515625 184.683594 C 170.140625 183.773438 169.832031 182.785156 169.578125 181.667969 C 169.398438 180.890625 168.859375 180.242188 168.121094 179.925781 L 164.914062 178.566406 L 164.914062 176.214844 Z M 168.121094 174.847656 " fill-opacity="1" fill-rule="nonzero"/></g><path fill="#000000" d="M 234.796875 222.316406 C 227.914062 222.316406 222.316406 227.914062 222.316406 234.796875 C 222.316406 241.675781 227.914062 247.273438 234.796875 247.273438 C 241.675781 247.273438 247.273438 241.675781 247.273438 234.796875 C 247.273438 227.914062 241.675781 222.316406 234.796875 222.316406 Z M 234.796875 242.285156 C 230.667969 242.285156 227.308594 238.925781 227.308594 234.796875 C 227.308594 230.667969 230.667969 227.308594 234.796875 227.308594 C 238.925781 227.308594 242.285156 230.667969 242.285156 234.796875 C 242.285156 238.925781 238.925781 242.285156 234.796875 242.285156 Z M 234.796875 242.285156 " fill-opacity="1" fill-rule="nonzero"/><g clip-path="url(#afe60d26b3)"><path fill="#000000" d="M 242.015625 186.742188 C 243.71875 184.953125 244.78125 182.546875 244.78125 179.886719 C 244.78125 174.382812 240.300781 169.90625 234.796875 169.90625 C 229.289062 169.90625 224.8125 174.382812 224.8125 179.886719 C 224.8125 182.546875 225.875 184.953125 227.574219 186.742188 C 222.957031 189.296875 219.820312 194.214844 219.820312 199.855469 L 219.820312 215.859375 L 216.945312 215.203125 C 216.058594 215 215.132812 215.292969 214.527344 215.96875 C 213.136719 217.519531 211.929688 219.207031 210.9375 220.988281 C 210.507812 221.753906 210.515625 222.695312 210.957031 223.453125 L 212.875 226.765625 C 212.71875 227.210938 212.578125 227.671875 212.445312 228.144531 L 208.859375 229.671875 C 207.9375 230.066406 207.34375 230.96875 207.34375 231.972656 L 207.34375 237.621094 C 207.34375 238.621094 207.9375 239.527344 208.859375 239.917969 L 212.445312 241.445312 C 212.578125 241.917969 212.71875 242.378906 212.875 242.824219 L 210.957031 246.132812 C 210.515625 246.894531 210.507812 247.832031 210.9375 248.601562 C 211.925781 250.375 213.136719 252.066406 214.527344 253.621094 C 215.132812 254.296875 216.0625 254.597656 216.945312 254.390625 L 220.566406 253.558594 C 220.925781 253.839844 221.292969 254.109375 221.664062 254.371094 L 222.015625 258.21875 C 222.101562 259.101562 222.644531 259.882812 223.453125 260.253906 C 225.371094 261.140625 227.316406 261.796875 229.246094 262.199219 C 230.132812 262.386719 231.054688 262.070312 231.644531 261.382812 L 234.191406 258.433594 L 235.40625 258.433594 L 237.949219 261.382812 C 238.425781 261.9375 239.117188 262.25 239.835938 262.25 C 240.007812 262.25 240.179688 262.234375 240.347656 262.199219 C 242.277344 261.792969 244.222656 261.140625 246.136719 260.253906 C 246.945312 259.878906 247.492188 259.101562 247.574219 258.21875 L 247.925781 254.371094 C 248.300781 254.113281 248.667969 253.839844 249.023438 253.558594 L 252.644531 254.390625 C 253.535156 254.597656 254.457031 254.296875 255.0625 253.621094 C 256.453125 252.066406 257.660156 250.378906 258.652344 248.601562 C 259.082031 247.835938 259.074219 246.894531 258.632812 246.136719 L 256.714844 242.824219 C 256.871094 242.375 257.015625 241.90625 257.148438 241.425781 L 260.59375 239.90625 C 261.5 239.503906 262.082031 238.609375 262.082031 237.621094 L 262.082031 231.972656 C 262.082031 230.984375 261.5 230.085938 260.59375 229.6875 L 257.148438 228.167969 C 257.015625 227.683594 256.871094 227.222656 256.714844 226.769531 L 258.632812 223.460938 C 259.074219 222.699219 259.082031 221.761719 258.652344 220.992188 C 257.664062 219.21875 256.453125 217.527344 255.0625 215.96875 C 254.457031 215.292969 253.539062 215 252.644531 215.203125 L 249.769531 215.859375 L 249.769531 199.855469 C 249.769531 194.214844 246.632812 189.296875 242.015625 186.742188 Z M 234.796875 174.894531 C 237.550781 174.894531 239.789062 177.132812 239.789062 179.886719 C 239.789062 182.640625 237.550781 184.878906 234.796875 184.878906 C 232.042969 184.878906 229.804688 182.640625 229.804688 179.886719 C 229.804688 177.132812 232.042969 174.894531 234.796875 174.894531 Z M 224.8125 199.855469 C 224.8125 194.347656 229.289062 189.871094 234.796875 189.871094 C 240.300781 189.871094 244.78125 194.347656 244.78125 199.855469 L 244.78125 208.796875 C 243.304688 208.203125 241.820312 207.703125 240.347656 207.394531 C 239.464844 207.210938 238.539062 207.523438 237.949219 208.207031 L 235.40625 211.15625 L 234.191406 211.15625 L 231.648438 208.207031 C 231.058594 207.523438 230.132812 207.210938 229.246094 207.394531 C 227.773438 207.703125 226.289062 208.203125 224.816406 208.796875 L 224.816406 199.855469 Z M 252.277344 220.40625 C 252.742188 220.996094 253.179688 221.605469 253.578125 222.226562 L 251.804688 225.289062 C 251.414062 225.960938 251.359375 226.777344 251.65625 227.496094 C 252.035156 228.410156 252.34375 229.394531 252.597656 230.511719 C 252.769531 231.28125 253.300781 231.921875 254.023438 232.242188 L 257.09375 233.59375 L 257.09375 235.992188 L 254.023438 237.347656 C 253.300781 237.667969 252.769531 238.308594 252.597656 239.078125 C 252.34375 240.191406 252.035156 241.179688 251.65625 242.089844 C 251.359375 242.808594 251.414062 243.625 251.804688 244.296875 L 253.578125 247.359375 C 253.179688 247.984375 252.742188 248.589844 252.277344 249.179688 L 248.933594 248.414062 C 248.152344 248.230469 247.328125 248.445312 246.726562 248.976562 C 245.972656 249.640625 245.132812 250.261719 244.234375 250.816406 C 243.566406 251.230469 243.132812 251.933594 243.0625 252.710938 L 242.734375 256.273438 C 242.0625 256.539062 241.394531 256.765625 240.726562 256.957031 L 238.4375 254.300781 C 237.964844 253.753906 237.273438 253.433594 236.546875 253.433594 L 233.042969 253.433594 C 232.316406 253.433594 231.628906 253.753906 231.15625 254.300781 L 228.867188 256.957031 C 228.195312 256.765625 227.527344 256.539062 226.855469 256.273438 L 226.53125 252.707031 C 226.460938 251.925781 226.027344 251.222656 225.359375 250.8125 C 224.464844 250.257812 223.625 249.640625 222.867188 248.96875 C 222.265625 248.4375 221.445312 248.222656 220.660156 248.410156 L 217.316406 249.175781 C 216.851562 248.585938 216.417969 247.976562 216.015625 247.355469 L 217.789062 244.292969 C 218.179688 243.621094 218.234375 242.804688 217.9375 242.085938 C 217.558594 241.175781 217.253906 240.1875 217 239.070312 C 216.820312 238.292969 216.28125 237.644531 215.542969 237.328125 L 212.332031 235.972656 L 212.332031 233.621094 L 215.539062 232.253906 C 216.277344 231.945312 216.820312 231.292969 216.996094 230.511719 C 217.25 229.398438 217.558594 228.410156 217.933594 227.5 C 218.230469 226.78125 218.175781 225.964844 217.785156 225.292969 L 216.011719 222.230469 C 216.414062 221.605469 216.847656 220.996094 217.3125 220.410156 L 220.65625 221.175781 C 221.4375 221.359375 222.261719 221.144531 222.863281 220.613281 C 223.617188 219.949219 224.457031 219.328125 225.355469 218.773438 C 226.023438 218.359375 226.457031 217.65625 226.527344 216.878906 L 226.855469 213.316406 C 227.527344 213.050781 228.195312 212.824219 228.867188 212.628906 L 231.15625 215.285156 C 231.628906 215.835938 232.320312 216.152344 233.046875 216.152344 L 236.550781 216.152344 C 237.277344 216.152344 237.964844 215.835938 238.441406 215.285156 L 240.730469 212.628906 C 241.398438 212.824219 242.070312 213.050781 242.738281 213.316406 L 243.0625 216.878906 C 243.136719 217.660156 243.570312 218.363281 244.234375 218.773438 C 245.132812 219.328125 245.96875 219.949219 246.726562 220.617188 C 247.328125 221.144531 248.152344 221.359375 248.933594 221.179688 Z M 252.277344 220.40625 " fill-opacity="1" fill-rule="nonzero"/></g><path fill="#000000" d="M 139.953125 247.273438 C 146.835938 247.273438 152.433594 241.675781 152.433594 234.796875 C 152.433594 227.914062 146.835938 222.316406 139.953125 222.316406 C 133.074219 222.316406 127.476562 227.914062 127.476562 234.796875 C 127.476562 241.675781 133.074219 247.273438 139.953125 247.273438 Z M 139.953125 227.308594 C 144.082031 227.308594 147.441406 230.667969 147.441406 234.796875 C 147.441406 238.925781 144.082031 242.285156 139.953125 242.285156 C 135.824219 242.285156 132.464844 238.925781 132.464844 234.796875 C 132.464844 230.667969 135.824219 227.308594 139.953125 227.308594 Z M 139.953125 227.308594 " fill-opacity="1" fill-rule="nonzero"/><g clip-path="url(#3069133a95)"><path fill="#000000" d="M 114.148438 239.90625 L 117.597656 241.425781 C 117.730469 241.90625 117.875 242.371094 118.03125 242.824219 L 116.113281 246.132812 C 115.667969 246.894531 115.664062 247.832031 116.089844 248.601562 C 117.082031 250.375 118.289062 252.066406 119.683594 253.621094 C 120.289062 254.296875 121.21875 254.597656 122.097656 254.390625 L 125.722656 253.558594 C 126.078125 253.839844 126.445312 254.109375 126.820312 254.371094 L 127.171875 258.21875 C 127.253906 259.101562 127.800781 259.882812 128.609375 260.253906 C 130.523438 261.140625 132.472656 261.796875 134.402344 262.199219 C 135.289062 262.386719 136.210938 262.070312 136.800781 261.382812 L 139.34375 258.433594 L 140.5625 258.433594 L 143.105469 261.382812 C 143.585938 261.9375 144.277344 262.25 144.996094 262.25 C 145.164062 262.25 145.335938 262.234375 145.507812 262.199219 C 147.433594 261.792969 149.382812 261.140625 151.296875 260.253906 C 152.105469 259.878906 152.652344 259.101562 152.730469 258.21875 L 153.082031 254.371094 C 153.460938 254.113281 153.824219 253.839844 154.179688 253.558594 L 157.804688 254.390625 C 158.691406 254.597656 159.617188 254.296875 160.21875 253.621094 C 161.609375 252.066406 162.820312 250.378906 163.8125 248.601562 C 164.242188 247.835938 164.234375 246.894531 163.792969 246.136719 L 161.871094 242.824219 C 162.027344 242.375 162.171875 241.90625 162.308594 241.425781 L 165.753906 239.90625 C 166.65625 239.503906 167.242188 238.609375 167.242188 237.621094 L 167.242188 231.972656 C 167.242188 230.984375 166.65625 230.085938 165.753906 229.6875 L 162.308594 228.167969 C 162.171875 227.683594 162.03125 227.222656 161.871094 226.769531 L 163.792969 223.460938 C 164.234375 222.699219 164.242188 221.761719 163.8125 220.992188 C 162.820312 219.21875 161.613281 217.527344 160.21875 215.96875 C 159.617188 215.292969 158.691406 215 157.804688 215.203125 L 154.929688 215.859375 L 154.929688 199.855469 C 154.929688 194.214844 151.792969 189.296875 147.175781 186.742188 C 148.875 184.953125 149.9375 182.546875 149.9375 179.886719 C 149.9375 174.382812 145.460938 169.90625 139.953125 169.90625 C 134.449219 169.90625 129.972656 174.382812 129.972656 179.886719 C 129.972656 182.546875 131.03125 184.953125 132.734375 186.742188 C 128.117188 189.296875 124.980469 194.214844 124.980469 199.855469 L 124.980469 215.859375 L 122.101562 215.203125 C 121.21875 215 120.292969 215.292969 119.683594 215.96875 C 118.296875 217.519531 117.085938 219.207031 116.09375 220.988281 C 115.664062 221.753906 115.671875 222.695312 116.113281 223.453125 L 118.035156 226.765625 C 117.878906 227.214844 117.734375 227.683594 117.597656 228.164062 L 114.152344 229.683594 C 113.25 230.085938 112.664062 230.980469 112.664062 231.96875 L 112.664062 237.617188 C 112.664062 238.609375 113.246094 239.503906 114.148438 239.90625 Z M 139.953125 174.894531 C 142.707031 174.894531 144.945312 177.132812 144.945312 179.886719 C 144.945312 182.640625 142.707031 184.878906 139.953125 184.878906 C 137.203125 184.878906 134.960938 182.640625 134.960938 179.886719 C 134.960938 177.132812 137.203125 174.894531 139.953125 174.894531 Z M 129.972656 199.855469 C 129.972656 194.347656 134.449219 189.871094 139.953125 189.871094 C 145.460938 189.871094 149.9375 194.347656 149.9375 199.855469 L 149.9375 208.796875 C 148.460938 208.203125 146.980469 207.703125 145.507812 207.394531 C 144.617188 207.210938 143.699219 207.523438 143.105469 208.207031 L 140.5625 211.15625 L 139.347656 211.15625 L 136.808594 208.207031 C 136.214844 207.523438 135.292969 207.210938 134.40625 207.394531 C 132.929688 207.703125 131.445312 208.203125 129.972656 208.796875 Z M 117.652344 233.597656 L 120.726562 232.242188 C 121.449219 231.921875 121.976562 231.28125 122.152344 230.511719 C 122.40625 229.398438 122.714844 228.410156 123.089844 227.5 C 123.386719 226.78125 123.332031 225.964844 122.941406 225.292969 L 121.167969 222.230469 C 121.570312 221.605469 122.003906 220.996094 122.46875 220.410156 L 125.808594 221.175781 C 126.589844 221.359375 127.414062 221.144531 128.019531 220.613281 C 128.773438 219.949219 129.613281 219.328125 130.511719 218.773438 C 131.179688 218.359375 131.613281 217.65625 131.683594 216.878906 L 132.011719 213.316406 C 132.679688 213.050781 133.351562 212.824219 134.023438 212.628906 L 136.308594 215.285156 C 136.785156 215.835938 137.476562 216.152344 138.203125 216.152344 L 141.707031 216.152344 C 142.433594 216.152344 143.121094 215.835938 143.59375 215.285156 L 145.882812 212.628906 C 146.554688 212.824219 147.226562 213.050781 147.894531 213.316406 L 148.21875 216.878906 C 148.289062 217.660156 148.726562 218.363281 149.390625 218.773438 C 150.285156 219.328125 151.125 219.949219 151.882812 220.617188 C 152.484375 221.144531 153.304688 221.359375 154.089844 221.179688 L 157.433594 220.414062 C 157.898438 221 158.332031 221.609375 158.734375 222.230469 L 156.960938 225.292969 C 156.570312 225.964844 156.515625 226.78125 156.8125 227.5 C 157.191406 228.414062 157.5 229.398438 157.753906 230.515625 C 157.925781 231.285156 158.457031 231.925781 159.175781 232.246094 L 162.25 233.601562 L 162.25 235.996094 L 159.175781 237.351562 C 158.457031 237.671875 157.925781 238.3125 157.753906 239.082031 C 157.496094 240.195312 157.191406 241.183594 156.8125 242.097656 C 156.515625 242.816406 156.570312 243.628906 156.960938 244.304688 L 158.734375 247.363281 C 158.332031 247.988281 157.898438 248.59375 157.433594 249.183594 L 154.089844 248.417969 C 153.304688 248.234375 152.484375 248.449219 151.882812 248.980469 C 151.128906 249.644531 150.289062 250.265625 149.386719 250.820312 C 148.722656 251.234375 148.289062 251.9375 148.21875 252.714844 L 147.890625 256.28125 C 147.21875 256.542969 146.546875 256.773438 145.882812 256.960938 L 143.59375 254.304688 C 143.117188 253.757812 142.429688 253.441406 141.703125 253.441406 L 138.199219 253.441406 C 137.472656 253.441406 136.785156 253.757812 136.308594 254.304688 L 134.023438 256.960938 C 133.351562 256.769531 132.679688 256.542969 132.011719 256.277344 L 131.6875 252.714844 C 131.617188 251.933594 131.179688 251.230469 130.515625 250.816406 C 129.617188 250.261719 128.78125 249.644531 128.023438 248.976562 C 127.421875 248.445312 126.597656 248.230469 125.816406 248.414062 L 122.472656 249.179688 C 122.007812 248.589844 121.574219 247.980469 121.171875 247.359375 L 122.945312 244.296875 C 123.335938 243.625 123.390625 242.808594 123.09375 242.089844 C 122.714844 241.179688 122.410156 240.191406 122.152344 239.078125 C 121.980469 238.308594 121.449219 237.667969 120.730469 237.347656 L 117.652344 235.996094 Z M 117.652344 233.597656 " fill-opacity="1" fill-rule="nonzero"/></g><path fill="#000000" d="M 163.089844 137.367188 L 161.144531 132.769531 C 146.023438 139.167969 133.765625 150.84375 126.632812 165.644531 L 131.132812 167.8125 C 137.734375 154.101562 149.085938 143.292969 163.089844 137.367188 Z M 163.089844 137.367188 " fill-opacity="1" fill-rule="nonzero"/><g clip-path="url(#5e948669cc)"><path fill="#000000" d="M 206.992188 254.113281 C 194.726562 258.167969 181.144531 258.285156 168.820312 254.453125 L 167.339844 259.21875 C 173.800781 261.230469 180.542969 262.25 187.375 262.25 C 194.617188 262.25 201.742188 261.105469 208.558594 258.855469 Z M 206.992188 254.113281 " fill-opacity="1" fill-rule="nonzero"/></g><path fill="#000000" d="M 243.929688 168.464844 L 248.449219 166.351562 C 241.253906 150.957031 228.640625 138.933594 212.933594 132.488281 L 211.039062 137.109375 C 225.585938 143.074219 237.265625 154.210938 243.929688 168.464844 Z M 243.929688 168.464844 " fill-opacity="1" fill-rule="nonzero"/></svg>