<svg xmlns="http://www.w3.org/2000/svg" xmlns:xlink="http://www.w3.org/1999/xlink" width="1920" zoomAndPan="magnify" viewBox="0 0 1440 809.999993" height="1080" preserveAspectRatio="xMidYMid meet" version="1.0"><defs><clipPath id="4da68d2af3"><path d="M 336.066406 102.917969 L 1033.195312 102.917969 L 1033.195312 707 L 336.066406 707 Z M 336.066406 102.917969 " clip-rule="nonzero"/></clipPath><clipPath id="d0c4570569"><path d="M 375.199219 103 L 1043 103 L 1043 707.417969 L 375.199219 707.417969 Z M 375.199219 103 " clip-rule="nonzero"/></clipPath><clipPath id="eec78d9e04"><path d="M 381 128 L 1060.730469 128 L 1060.730469 707 L 381 707 Z M 381 128 " clip-rule="nonzero"/></clipPath></defs><g clip-path="url(#4da68d2af3)"><path fill="#ffd700" d="M 1033.148438 706.90625 L 336.066406 706.90625 C 336.066406 706.90625 349.082031 578.054688 407.257812 515.625 C 465.441406 453.195312 428.898438 423.621094 468.542969 329.632812 C 489.894531 279.015625 690.660156 84.039062 835.847656 104.402344 C 935.351562 118.359375 943.109375 174.851562 926.527344 238.441406 C 933.167969 243.453125 938.261719 248.054688 939.539062 250.171875 C 942.582031 255.253906 937.914062 278.421875 937.914062 278.421875 L 939.742188 283.96875 L 931.210938 297.570312 C 931.210938 297.570312 930.800781 297.464844 930.066406 297.28125 L 928.269531 301.121094 C 928.269531 301.121094 928.011719 300.757812 927.4375 300.089844 C 926.613281 299.09375 925.183594 297.4375 923.363281 295.5625 C 922.914062 295.105469 922.441406 294.632812 921.945312 294.152344 C 921.867188 294.074219 921.789062 293.992188 921.703125 293.914062 C 921.222656 293.449219 920.730469 292.984375 920.21875 292.519531 C 920.179688 292.484375 920.152344 292.457031 920.113281 292.421875 C 919.558594 291.917969 918.980469 291.414062 918.386719 290.921875 C 918.3125 290.859375 918.238281 290.796875 918.164062 290.734375 C 917.667969 290.320312 917.15625 289.914062 916.636719 289.515625 C 916.496094 289.410156 916.359375 289.300781 916.21875 289.199219 C 915.65625 288.773438 915.085938 288.367188 914.507812 287.976562 C 914.460938 287.941406 914.417969 287.914062 914.371094 287.878906 C 913.753906 287.464844 913.125 287.078125 912.492188 286.710938 C 912.339844 286.621094 912.179688 286.535156 912.023438 286.449219 C 911.675781 286.253906 911.320312 286.082031 910.96875 285.902344 C 910.761719 286.457031 910.550781 287.011719 910.339844 287.566406 L 912.261719 290.042969 L 910.339844 287.566406 C 881.859375 362.792969 843.644531 435.503906 900.585938 450.570312 C 1019.121094 481.941406 1033.148438 706.90625 1033.148438 706.90625 " fill-opacity="1" fill-rule="nonzero"/></g><g clip-path="url(#d0c4570569)"><path fill="#f25624" d="M 529.417969 290.84375 C 529.417969 289.160156 528.050781 287.789062 526.371094 287.789062 L 508.945312 287.789062 C 507.261719 287.789062 505.898438 289.160156 505.898438 290.84375 C 505.898438 292.519531 507.261719 293.890625 508.945312 293.890625 L 526.371094 293.890625 C 528.050781 293.890625 529.417969 292.519531 529.417969 290.84375 Z M 508.945312 280.875 C 507.261719 280.875 505.898438 282.246094 505.898438 283.929688 C 505.898438 285.605469 507.261719 286.976562 508.945312 286.976562 L 532.65625 286.976562 C 534.335938 286.976562 535.707031 285.605469 535.707031 283.929688 C 535.707031 282.246094 534.335938 280.875 532.65625 280.875 Z M 477.964844 280.875 L 454.253906 280.875 C 452.574219 280.875 451.210938 282.246094 451.210938 283.929688 C 451.210938 285.605469 452.574219 286.976562 454.253906 286.976562 L 477.964844 286.976562 C 479.648438 286.976562 481.015625 285.605469 481.015625 283.929688 C 481.015625 282.246094 479.648438 280.875 477.964844 280.875 Z M 420.75 280.875 L 397.039062 280.875 C 395.359375 280.875 393.996094 282.246094 393.996094 283.929688 C 393.996094 285.605469 395.359375 286.976562 397.039062 286.976562 L 420.75 286.976562 C 422.433594 286.976562 423.796875 285.605469 423.796875 283.929688 C 423.796875 282.246094 422.433594 280.875 420.75 280.875 Z M 540.21875 376.035156 C 540.21875 374.359375 538.847656 372.988281 537.171875 372.988281 L 526.371094 372.988281 C 524.6875 372.988281 523.324219 374.359375 523.324219 376.035156 C 523.324219 377.71875 524.6875 379.089844 526.371094 379.089844 L 537.171875 379.089844 C 538.847656 379.089844 540.21875 377.71875 540.21875 376.035156 Z M 549.757812 362.210938 L 526.371094 362.210938 C 524.6875 362.210938 523.324219 363.582031 523.324219 365.261719 C 523.324219 366.945312 524.6875 368.3125 526.371094 368.3125 L 549.757812 368.3125 C 551.441406 368.3125 552.804688 366.945312 552.804688 365.261719 C 552.804688 363.582031 551.441406 362.210938 549.757812 362.210938 Z M 549.757812 351.4375 L 526.371094 351.4375 C 524.6875 351.4375 523.324219 352.800781 523.324219 354.484375 C 523.324219 356.167969 524.6875 357.535156 526.371094 357.535156 L 549.757812 357.535156 C 551.441406 357.535156 552.804688 356.167969 552.804688 354.484375 C 552.804688 352.800781 551.441406 351.4375 549.757812 351.4375 Z M 1041.710938 518.847656 C 1023.796875 516.078125 1016.335938 531.644531 1016.261719 531.804688 C 1015.90625 532.566406 1016.234375 533.46875 1016.992188 533.828125 C 1017.207031 533.929688 1017.421875 533.972656 1017.640625 533.972656 C 1018.214844 533.972656 1018.757812 533.644531 1019.023438 533.09375 C 1019.285156 532.539062 1025.625 519.464844 1041.246094 521.863281 C 1042.078125 521.992188 1042.851562 521.421875 1042.984375 520.589844 C 1043.109375 519.753906 1042.535156 518.980469 1041.710938 518.847656 Z M 908.082031 284.660156 L 912.261719 290.042969 C 916.613281 295.652344 919.128906 302.476562 919.457031 309.578125 L 919.660156 313.921875 C 919.699219 314.816406 920.804688 315.214844 921.410156 314.550781 L 925.882812 309.597656 C 926.613281 308.800781 927.09375 307.808594 927.28125 306.742188 L 928.269531 301.121094 C 928.269531 301.121094 918.164062 288.039062 908.082031 284.660156 Z M 966.101562 520.265625 L 951.425781 493.972656 C 951.425781 493.972656 951.125 493.585938 950.542969 493.027344 L 927.847656 493.027344 C 924.289062 495.292969 920.367188 498.664062 916.082031 503.53125 L 951.425781 548.671875 Z M 765.425781 473.011719 L 794.582031 473.011719 C 795.542969 409.65625 804.609375 389.09375 804.609375 389.09375 L 822.136719 383.917969 L 822.136719 383.023438 C 806.363281 383.023438 787.65625 383.007812 765.425781 382.972656 Z M 765.425781 366.75 L 765.425781 378.40625 C 770.453125 378.410156 775.421875 378.417969 780.332031 378.421875 L 780.332031 366.75 Z M 780.332031 326.71875 L 780.332031 306.964844 C 775.230469 306.957031 769.933594 306.953125 764.417969 306.945312 L 764.417969 326.71875 Z M 759.84375 306.941406 C 755.652344 306.9375 751.351562 306.929688 746.917969 306.925781 C 745.921875 306.925781 744.925781 306.917969 743.929688 306.917969 L 743.929688 326.71875 L 759.84375 326.71875 Z M 739.359375 306.914062 C 734.039062 306.902344 728.726562 306.894531 723.445312 306.886719 L 723.445312 326.71875 L 739.359375 326.71875 Z M 733.699219 366.75 L 723.445312 366.75 L 723.445312 378.335938 C 726.863281 378.347656 730.285156 378.355469 733.699219 378.355469 Z M 733.699219 382.925781 C 721.039062 382.902344 708.476562 382.882812 696.34375 382.859375 L 696.34375 473.011719 L 733.699219 473.011719 Z M 696.34375 378.285156 C 703.828125 378.300781 711.351562 378.320312 718.875 378.332031 L 718.875 366.75 L 696.34375 366.75 Z M 696.34375 326.71875 L 718.875 326.71875 L 718.875 306.875 C 711.257812 306.863281 703.722656 306.84375 696.34375 306.832031 Z M 784.902344 378.421875 C 790.300781 378.425781 795.605469 378.433594 800.816406 378.433594 L 800.816406 366.75 L 784.902344 366.75 Z M 784.902344 326.71875 L 794.164062 326.71875 L 794.164062 306.980469 C 791.15625 306.976562 788.066406 306.976562 784.902344 306.96875 Z M 805.390625 378.4375 C 810.828125 378.4375 816.140625 378.445312 821.304688 378.445312 L 821.304688 366.75 L 805.390625 366.75 Z M 836.554688 378.4375 C 837.953125 378.4375 839.328125 378.4375 840.707031 378.4375 L 841.785156 378.117188 L 841.785156 366.75 L 836.554688 366.75 Z M 681.929688 237.375 L 631.078125 237.375 L 631.078125 296.050781 L 646.324219 296.050781 C 648.007812 296.050781 649.375 297.414062 649.375 299.097656 C 649.375 300.769531 648.019531 302.136719 646.355469 302.148438 C 657.890625 302.175781 669.808594 302.203125 681.929688 302.234375 Z M 681.929688 306.800781 C 663.03125 306.761719 645.613281 306.71875 631.078125 306.679688 L 631.078125 306.828125 L 646.324219 306.828125 C 648.007812 306.828125 649.375 308.195312 649.375 309.875 C 649.375 311.558594 648.007812 312.925781 646.324219 312.925781 L 631.078125 312.925781 L 631.078125 317.605469 L 633.738281 317.605469 C 635.421875 317.605469 636.785156 318.972656 636.785156 320.65625 C 636.785156 322.339844 635.421875 323.703125 633.738281 323.703125 L 631.078125 323.703125 L 631.078125 326.71875 L 681.929688 326.71875 Z M 681.929688 366.75 L 629.679688 366.75 L 629.679688 378.132812 C 646.234375 378.171875 663.871094 378.21875 681.929688 378.257812 Z M 681.929688 382.824219 C 662.421875 382.785156 644.492188 382.738281 629.679688 382.707031 L 629.679688 473.011719 L 681.929688 473.011719 Z M 696.34375 217.363281 L 794.164062 217.363281 L 794.164062 201.570312 L 822.136719 201.570312 L 822.136719 156.800781 L 696.34375 156.800781 Z M 987.035156 507.644531 L 1015.15625 688.144531 L 933.226562 704.847656 C 933.226562 704.847656 906.707031 596.835938 906.351562 493.027344 L 855.707031 493.027344 C 858.625 558.238281 866.261719 639.429688 885.027344 707.445312 C 885.027344 707.445312 814.992188 708.546875 812.578125 692.136719 C 799.574219 603.480469 795.0625 539.066406 794.554688 493.027344 L 765.425781 493.027344 L 765.425781 706.90625 L 733.699219 706.90625 L 733.699219 493.027344 L 629.679688 493.027344 L 629.679688 706.90625 L 615.265625 706.90625 L 615.265625 493.027344 L 589.367188 493.027344 L 589.367188 473.011719 L 615.265625 473.011719 L 615.265625 382.667969 C 599.125 382.621094 589.195312 382.59375 588.917969 382.59375 L 588.929688 378.019531 C 597.179688 378.042969 606 378.070312 615.265625 378.09375 L 615.265625 366.75 L 589.367188 366.75 L 589.367188 326.71875 L 603.492188 326.71875 L 603.492188 306.605469 C 594.421875 306.585938 589.117188 306.566406 588.917969 306.566406 L 588.929688 301.988281 C 593.605469 302.003906 598.476562 302.015625 603.492188 302.035156 L 603.492188 237.375 L 589.367188 237.375 L 589.367188 217.363281 L 603.492188 217.363281 L 603.492188 192.09375 C 612.453125 185.40625 621.667969 178.863281 631.078125 172.539062 L 631.078125 217.363281 L 681.929688 217.363281 L 681.929688 156.800781 L 655.730469 156.800781 C 664.363281 151.582031 673.109375 146.601562 681.929688 141.925781 C 685.246094 140.167969 688.578125 138.453125 691.910156 136.785156 C 693.390625 136.050781 694.867188 135.320312 696.34375 134.605469 L 696.34375 136.785156 L 822.136719 136.785156 L 822.136719 103.113281 C 826.753906 103.339844 831.328125 103.765625 835.847656 104.402344 C 836.085938 104.433594 836.3125 104.476562 836.554688 104.507812 L 836.554688 136.785156 L 913.21875 136.785156 C 919.054688 142.859375 923.453125 149.570312 926.625 156.800781 L 836.554688 156.800781 L 836.554688 201.570312 L 862.234375 201.570312 L 862.234375 217.363281 L 931.097656 217.363281 C 929.996094 223.917969 928.535156 230.605469 926.804688 237.375 L 925.101562 237.375 C 916.019531 230.671875 904.5 223.5 895.832031 220.6875 C 880.15625 215.605469 853.199219 223.328125 853.199219 223.328125 L 846.859375 223.523438 C 842.347656 223.652344 838.304688 226.308594 836.390625 230.394531 L 829.15625 245.820312 C 826.3125 251.882812 820.738281 256.21875 814.164062 257.476562 L 794.164062 261.308594 L 794.164062 237.375 L 696.34375 237.375 L 696.34375 302.261719 C 729.542969 302.328125 763.511719 302.378906 794.164062 302.402344 L 794.164062 264.53125 L 824.519531 271.042969 C 824.730469 270.703125 824.945312 270.40625 825.164062 270.210938 C 830.910156 264.972656 845.722656 263.992188 855.867188 264.105469 C 855.871094 264.105469 855.878906 264.105469 855.882812 264.105469 C 856.925781 264.277344 857.96875 264.464844 859.007812 264.65625 C 859.078125 264.671875 859.148438 264.683594 859.21875 264.695312 C 860.210938 264.890625 861.195312 265.085938 862.191406 265.296875 C 862.203125 265.300781 862.21875 265.300781 862.234375 265.308594 L 862.234375 302.386719 C 885.40625 302.339844 901.136719 302.242188 904.734375 302.078125 C 904.140625 303.59375 903.546875 305.101562 902.953125 306.613281 C 898.027344 306.792969 887.089844 306.917969 862.234375 306.96875 L 862.234375 326.71875 L 894.988281 326.71875 C 889.496094 340.636719 884.320312 354.113281 880.207031 366.75 L 846.359375 366.75 L 846.359375 376.765625 L 854.78125 374.28125 C 854.78125 374.28125 854.722656 375.734375 854.636719 378.421875 C 862.796875 378.410156 870.195312 378.394531 876.671875 378.371094 C 876.238281 379.917969 875.828125 381.441406 875.445312 382.957031 C 869.625 382.976562 862.707031 382.996094 854.507812 383.007812 C 854.113281 397.984375 853.585938 431.070312 854.945312 473.011719 L 906.628906 473.011719 C 907.78125 436.257812 912.71875 400.964844 923.84375 372.269531 C 924.300781 371.089844 925.246094 368.761719 925.246094 368.761719 L 986.191406 379.972656 Z M 542.886719 229.722656 L 542.886719 223.5 C 542.886719 219.746094 539.84375 216.703125 536.097656 216.703125 L 532.597656 216.703125 C 531.550781 204.621094 524.390625 153.808594 477.511719 143.121094 L 476.738281 139.082031 C 476.628906 136.417969 474.4375 134.316406 471.777344 134.316406 L 447.695312 134.316406 C 445.0625 134.316406 442.882812 136.378906 442.738281 139.019531 L 442.066406 142.804688 C 394.5 152.660156 387.410156 203.644531 386.375 216.703125 L 382.269531 216.703125 C 378.523438 216.703125 375.488281 219.746094 375.488281 223.5 L 375.488281 229.722656 C 375.488281 233.472656 378.523438 236.507812 382.269531 236.507812 L 536.097656 236.507812 C 539.84375 236.507812 542.886719 233.472656 542.886719 229.722656 Z M 548.878906 525.433594 C 548.878906 529.898438 545.246094 533.539062 540.777344 533.539062 C 536.3125 533.539062 532.675781 529.898438 532.675781 525.433594 C 532.675781 520.957031 536.3125 517.320312 540.777344 517.320312 C 545.246094 517.320312 548.878906 520.957031 548.878906 525.433594 " fill-opacity="1" fill-rule="nonzero"/></g><path fill="#f6836b" d="M 904.464844 329.808594 L 903.03125 320.449219 C 903.203125 319.96875 903.371094 319.5 903.535156 319 C 905.019531 314.488281 906.695312 309.433594 908.179688 304.113281 C 910.144531 297.070312 909.394531 289.9375 906.609375 283.777344 C 900.144531 279.867188 892 275.609375 881.746094 271.320312 C 875.488281 268.703125 869.039062 266.785156 862.644531 265.398438 C 852.457031 265.980469 840.089844 267.902344 824.90625 271.761719 C 824.558594 271.851562 824.9375 275.453125 825.5 281.128906 C 826.128906 287.460938 826.980469 296.363281 827.304688 305.886719 C 827.34375 307.089844 827.363281 308.296875 827.355469 309.503906 C 823.992188 313.226562 819.859375 318.925781 822.566406 322.15625 C 824.066406 323.949219 825.554688 325.046875 826.851562 325.730469 C 826.609375 335.003906 827.101562 343.339844 831.773438 349.199219 C 835.730469 354.152344 844.339844 356.871094 852.621094 357.4375 C 856.761719 365.253906 858.195312 377.941406 859.285156 388.835938 C 859.285156 388.84375 844.53125 418.28125 866.894531 424.28125 C 884.59375 429.027344 921.007812 402.328125 921.007812 376.023438 C 913.566406 367.738281 908.703125 357.464844 907.019531 346.457031 Z M 722.539062 617.546875 C 719.800781 615.714844 711.875 615.921875 711.875 615.921875 C 711.875 615.921875 708.828125 613.273438 705.78125 613.273438 C 702.734375 613.273438 688.105469 614.113281 688.105469 614.113281 C 688.105469 614.113281 684.449219 618.765625 684.449219 620.59375 C 684.449219 622.425781 689.324219 624.257812 689.324219 624.257812 C 689.324219 624.257812 687.195312 627.917969 688.105469 629.746094 C 689.023438 631.570312 696.027344 634.933594 696.027344 634.933594 C 693.898438 637.980469 702.125 640.722656 707.0625 640.882812 C 711.992188 641.039062 718.582031 631.570312 719.800781 628.828125 C 721.015625 626.085938 724.675781 623.039062 724.675781 623.039062 C 724.675781 623.039062 725.285156 619.375 722.539062 617.546875 Z M 1036.578125 614.804688 C 1036.578125 614.796875 1036.578125 614.785156 1036.578125 614.777344 C 1036.550781 613.914062 1036.34375 613.105469 1035.867188 612.421875 L 1034.472656 606.191406 L 1033.964844 603.914062 C 1033.761719 602.984375 1033.484375 602.082031 1033.171875 601.203125 C 1032.878906 600.355469 1032.554688 599.527344 1032.167969 598.726562 C 1032.140625 598.664062 1032.109375 598.613281 1032.078125 598.550781 C 1031.738281 597.871094 1031.367188 597.207031 1030.96875 596.5625 C 1030.460938 595.730469 1029.910156 594.925781 1029.3125 594.171875 C 1028.9375 593.699219 1028.550781 593.253906 1028.148438 592.816406 C 1027.339844 591.945312 1026.46875 591.128906 1025.546875 590.386719 C 1025.074219 590.015625 1024.601562 589.660156 1024.109375 589.320312 C 1023.128906 588.644531 1022.097656 588.046875 1021.015625 587.519531 C 1018.859375 586.46875 1016.523438 585.734375 1014.070312 585.363281 L 1003.738281 579.636719 L 996.011719 575.339844 L 995.878906 575.273438 L 997.980469 579.425781 L 1001.796875 586.96875 C 1000.890625 587.207031 1000.019531 587.574219 999.230469 588.078125 C 999.214844 588.089844 999.199219 588.101562 999.175781 588.113281 C 998.839844 588.335938 998.523438 588.574219 998.222656 588.832031 C 998.144531 588.894531 998.070312 588.957031 997.996094 589.03125 C 997.6875 589.316406 997.386719 589.621094 997.113281 589.957031 C 996.90625 590.210938 996.710938 590.480469 996.523438 590.753906 L 996.269531 591.179688 L 996.128906 591.433594 L 995.671875 592.257812 L 994.792969 593.917969 C 994.203125 595.019531 993.644531 596.136719 993.09375 597.269531 C 991.996094 599.527344 990.941406 601.804688 990.042969 604.171875 C 989.464844 605.703125 989.90625 607.492188 991.25 608.566406 C 992.917969 609.886719 995.34375 609.609375 996.667969 607.941406 C 998.242188 605.957031 999.65625 603.882812 1001.03125 601.78125 C 1001.71875 600.734375 1002.390625 599.679688 1003.035156 598.601562 L 1004.429688 596.289062 L 1004.933594 596.289062 L 1006.488281 596.261719 L 1006.976562 597.214844 L 1007.84375 598.9375 C 1007.441406 598.992188 1007.042969 599.050781 1006.652344 599.152344 C 1004.546875 599.683594 1002.589844 601.097656 1001.410156 602.722656 L 991.210938 616.4375 C 990.359375 617.585938 990.53125 619.222656 991.640625 620.160156 C 992.789062 621.140625 994.519531 620.996094 995.496094 619.839844 L 1006.535156 606.800781 C 1007.078125 606.167969 1007.621094 605.90625 1008.285156 605.769531 C 1008.449219 605.75 1008.605469 605.726562 1008.765625 605.730469 L 1009.609375 605.75 L 1011.308594 605.792969 L 1011.988281 607.132812 L 1012.722656 608.585938 C 1012.382812 608.679688 1012.050781 608.769531 1011.71875 608.898438 C 1010.929688 609.210938 1010.191406 609.652344 1009.53125 610.191406 L 1008.703125 610.910156 L 1007.207031 612.253906 C 1005.238281 614.074219 1003.308594 615.9375 1001.433594 617.871094 C 999.582031 619.835938 997.753906 621.824219 996.09375 624.019531 C 995.414062 624.925781 995.25 626.164062 995.777344 627.253906 C 996.523438 628.796875 998.382812 629.433594 999.921875 628.6875 C 1002.394531 627.484375 1004.707031 626.082031 1006.992188 624.648438 C 1009.253906 623.183594 1011.453125 621.648438 1013.617188 620.066406 L 1015.226562 618.867188 L 1015.472656 618.675781 L 1016.25 618.566406 C 1016.71875 618.503906 1017.183594 618.417969 1017.652344 618.335938 L 1019.699219 622.375 L 1001.949219 629.878906 C 1000.675781 630.421875 999.988281 631.855469 1000.410156 633.199219 C 1000.855469 634.636719 1002.386719 635.4375 1003.816406 634.988281 L 1023.027344 628.96875 L 1023.070312 629.050781 L 1023.089844 629.089844 L 1023.582031 628.8125 L 1023.636719 628.777344 L 1025.476562 628.199219 C 1025.96875 628.042969 1026.445312 627.757812 1026.824219 627.355469 L 1026.9375 627.238281 L 1027.652344 626.484375 L 1027.707031 626.449219 L 1027.871094 626.351562 L 1033.375 623.277344 C 1033.375 623.277344 1033.601562 622.945312 1033.929688 622.414062 C 1034.03125 622.246094 1034.144531 622.050781 1034.269531 621.835938 C 1034.371094 621.65625 1034.480469 621.460938 1034.59375 621.253906 C 1034.796875 620.878906 1035 620.476562 1035.210938 620.039062 C 1035.542969 619.324219 1035.855469 618.542969 1036.105469 617.746094 C 1036.15625 617.574219 1036.199219 617.40625 1036.246094 617.234375 C 1036.464844 616.417969 1036.597656 615.589844 1036.578125 614.804688 Z M 696.59375 607.472656 C 696.59375 607.472656 688.847656 611.035156 684.121094 613.171875 C 679.386719 615.308594 676.550781 612.402344 675.742188 609.742188 C 674.925781 607.082031 683.992188 602.5625 686.398438 599.355469 C 688.804688 596.148438 705.652344 592.101562 705.652344 592.101562 L 702.265625 610.699219 L 696.59375 607.472656 " fill-opacity="1" fill-rule="nonzero"/><path fill="#f8e3c4" d="M 647.847656 299.097656 C 647.847656 298.253906 647.167969 297.574219 646.324219 297.574219 L 622.9375 297.574219 C 622.09375 297.574219 621.414062 298.253906 621.414062 299.097656 C 621.414062 299.941406 622.09375 300.625 622.9375 300.625 L 646.324219 300.625 C 647.167969 300.625 647.847656 299.941406 647.847656 299.097656 Z M 647.847656 309.875 C 647.847656 309.039062 647.167969 308.351562 646.324219 308.351562 L 622.9375 308.351562 C 622.09375 308.351562 621.414062 309.039062 621.414062 309.875 C 621.414062 310.722656 622.09375 311.402344 622.9375 311.402344 L 646.324219 311.402344 C 647.167969 311.402344 647.847656 310.722656 647.847656 309.875 Z M 635.261719 320.65625 C 635.261719 319.8125 634.578125 319.128906 633.738281 319.128906 L 622.9375 319.128906 C 622.09375 319.128906 621.414062 319.8125 621.414062 320.65625 C 621.414062 321.5 622.09375 322.179688 622.9375 322.179688 L 633.738281 322.179688 C 634.578125 322.179688 635.261719 321.5 635.261719 320.65625 Z M 551.28125 354.484375 C 551.28125 353.640625 550.601562 352.960938 549.757812 352.960938 L 526.371094 352.960938 C 525.527344 352.960938 524.847656 353.640625 524.847656 354.484375 C 524.847656 355.328125 525.527344 356.007812 526.371094 356.007812 L 549.757812 356.007812 C 550.601562 356.007812 551.28125 355.328125 551.28125 354.484375 Z M 551.28125 365.261719 C 551.28125 364.417969 550.601562 363.734375 549.757812 363.734375 L 526.371094 363.734375 C 525.527344 363.734375 524.847656 364.417969 524.847656 365.261719 C 524.847656 366.101562 525.527344 366.789062 526.371094 366.789062 L 549.757812 366.789062 C 550.601562 366.789062 551.28125 366.101562 551.28125 365.261719 Z M 538.695312 376.035156 C 538.695312 375.199219 538.011719 374.511719 537.171875 374.511719 L 526.371094 374.511719 C 525.527344 374.511719 524.847656 375.199219 524.847656 376.035156 C 524.847656 376.878906 525.527344 377.558594 526.371094 377.558594 L 537.171875 377.558594 C 538.011719 377.558594 538.695312 376.878906 538.695312 376.035156 Z M 508.945312 292.367188 L 526.371094 292.367188 C 527.214844 292.367188 527.894531 291.679688 527.894531 290.84375 C 527.894531 289.996094 527.214844 289.3125 526.371094 289.3125 L 508.945312 289.3125 C 508.105469 289.3125 507.421875 289.996094 507.421875 290.84375 C 507.421875 291.679688 508.105469 292.367188 508.945312 292.367188 Z M 479.492188 283.929688 C 479.492188 283.085938 478.808594 282.398438 477.964844 282.398438 L 454.253906 282.398438 C 453.410156 282.398438 452.730469 283.085938 452.730469 283.929688 C 452.730469 284.769531 453.410156 285.453125 454.253906 285.453125 L 477.964844 285.453125 C 478.808594 285.453125 479.492188 284.769531 479.492188 283.929688 Z M 422.273438 283.929688 C 422.273438 283.085938 421.59375 282.398438 420.75 282.398438 L 397.039062 282.398438 C 396.195312 282.398438 395.519531 283.085938 395.519531 283.929688 C 395.519531 284.769531 396.195312 285.453125 397.039062 285.453125 L 420.75 285.453125 C 421.59375 285.453125 422.273438 284.769531 422.273438 283.929688 Z M 507.421875 283.929688 C 507.421875 284.769531 508.105469 285.453125 508.945312 285.453125 L 532.65625 285.453125 C 533.5 285.453125 534.179688 284.769531 534.179688 283.929688 C 534.179688 283.085938 533.5 282.398438 532.65625 282.398438 L 508.945312 282.398438 C 508.105469 282.398438 507.421875 283.085938 507.421875 283.929688 Z M 668.550781 473.507812 L 362.402344 473.507812 L 362.402344 264.59375 L 668.550781 264.59375 Z M 854.707031 468.550781 L 794.71875 467.730469 L 794.457031 493.796875 L 855.742188 493.972656 Z M 853.929688 427.570312 L 796.917969 427.394531 L 794.976562 453.207031 L 854.835938 453.207031 Z M 1025.433594 628.210938 L 1023.636719 628.777344 L 1023.089844 629.089844 L 1023.027344 628.96875 L 1003.816406 634.988281 C 1002.386719 635.4375 1000.855469 634.636719 1000.410156 633.199219 C 999.988281 631.855469 1000.675781 630.421875 1001.949219 629.878906 L 1019.699219 622.375 L 1017.652344 618.335938 C 1017.183594 618.417969 1016.71875 618.503906 1016.25 618.566406 L 1015.472656 618.675781 L 1015.226562 618.867188 L 1013.617188 620.066406 C 1011.453125 621.648438 1009.253906 623.183594 1006.992188 624.648438 C 1004.707031 626.082031 1002.394531 627.484375 999.921875 628.6875 C 998.382812 629.433594 996.523438 628.796875 995.777344 627.253906 C 995.25 626.164062 995.414062 624.925781 996.09375 624.019531 C 997.753906 621.824219 999.582031 619.835938 1001.433594 617.871094 C 1003.308594 615.9375 1005.238281 614.074219 1007.207031 612.253906 L 1008.703125 610.910156 L 1009.53125 610.191406 C 1010.191406 609.652344 1010.929688 609.210938 1011.71875 608.898438 C 1012.050781 608.769531 1012.382812 608.679688 1012.722656 608.585938 L 1011.308594 605.792969 L 1009.609375 605.75 L 1008.765625 605.730469 C 1008.605469 605.726562 1008.449219 605.75 1008.285156 605.769531 C 1007.621094 605.90625 1007.078125 606.167969 1006.535156 606.800781 L 995.496094 619.839844 C 994.519531 620.996094 992.789062 621.140625 991.640625 620.160156 C 990.53125 619.222656 990.359375 617.585938 991.210938 616.4375 L 1001.410156 602.722656 C 1002.589844 601.097656 1004.546875 599.683594 1006.652344 599.152344 C 1007.042969 599.050781 1007.441406 598.992188 1007.84375 598.9375 L 1006.488281 596.261719 L 1004.933594 596.289062 L 1004.429688 596.289062 L 1003.035156 598.601562 C 1002.390625 599.679688 1001.71875 600.734375 1001.03125 601.78125 C 999.65625 603.882812 998.242188 605.957031 996.667969 607.941406 C 995.34375 609.609375 992.917969 609.886719 991.25 608.566406 C 989.90625 607.492188 989.464844 605.703125 990.042969 604.171875 C 990.941406 601.804688 991.996094 599.527344 993.09375 597.269531 C 993.644531 596.136719 994.203125 595.019531 994.792969 593.917969 L 995.671875 592.257812 L 996.128906 591.433594 L 996.269531 591.179688 L 996.523438 590.753906 C 996.710938 590.480469 996.90625 590.210938 997.113281 589.957031 C 998.296875 588.476562 999.972656 587.445312 1001.796875 586.96875 L 995.878906 575.273438 L 996.410156 575.566406 L 951.425781 493.972656 C 951.425781 493.972656 920.105469 552.820312 821.546875 544.015625 C 724.789062 535.367188 653.921875 565.832031 653.921875 565.832031 L 688.105469 614.113281 C 688.105469 614.113281 702.734375 613.273438 705.78125 613.273438 C 708.828125 613.273438 711.875 615.921875 711.875 615.921875 C 711.875 615.921875 719.800781 615.714844 722.539062 617.546875 C 725.285156 619.375 724.675781 623.039062 724.675781 623.039062 C 724.675781 623.039062 721.015625 626.085938 719.800781 628.828125 C 718.582031 631.570312 711.992188 641.039062 707.0625 640.882812 L 740.417969 688 C 740.417969 688 820.050781 646.933594 878.433594 659.515625 C 932.082031 671.074219 1030.375 637.175781 1030.375 637.175781 Z M 987.117188 496.335938 C 986.726562 489.863281 987.445312 480.546875 986.953125 470.683594 L 906.636719 471.175781 C 905.742188 479.410156 906.144531 488.492188 906.308594 497.808594 L 922 497.523438 C 941.003906 480.523438 951.425781 493.972656 951.425781 493.972656 L 953.097656 496.957031 Z M 986.625 424.28125 L 910.0625 425.75 C 908.953125 433.65625 908.433594 441.4375 907.941406 450.585938 L 986.789062 450.421875 C 986.460938 442.035156 986.789062 432.441406 986.625 424.28125 Z M 529.6875 196.28125 C 529.347656 194.285156 527.617188 192.832031 525.59375 192.835938 L 392.867188 193.1875 C 391.222656 193.191406 388.292969 194.390625 388.023438 196.019531 L 386.703125 213.359375 L 532.644531 213.359375 Z M 547.359375 525.433594 C 547.359375 521.796875 544.414062 518.84375 540.777344 518.84375 C 537.144531 518.84375 534.199219 521.796875 534.199219 525.433594 C 534.199219 529.066406 537.144531 532.011719 540.777344 532.011719 C 544.414062 532.011719 547.359375 529.066406 547.359375 525.433594 Z M 555.242188 525.433594 C 555.242188 533.425781 548.765625 539.90625 540.777344 539.90625 C 532.789062 539.90625 526.320312 533.425781 526.320312 525.433594 C 526.320312 517.433594 532.789062 510.949219 540.777344 510.949219 C 548.765625 510.949219 555.242188 517.433594 555.242188 525.433594 Z M 769.273438 229.070312 L 769.273438 222.976562 L 766.230469 222.976562 L 766.230469 229.070312 Z M 762.34375 229.070312 L 762.34375 222.976562 L 759.300781 222.976562 L 759.300781 229.070312 Z M 755.414062 229.070312 L 755.414062 222.976562 L 752.363281 222.976562 L 752.363281 229.070312 Z M 748.484375 229.070312 L 748.484375 222.976562 L 745.441406 222.976562 L 745.441406 229.070312 Z M 776.703125 229.070312 L 776.703125 215.746094 L 773.65625 215.746094 L 773.65625 229.070312 Z M 734.378906 229.070312 L 734.378906 222.976562 L 731.332031 222.976562 L 731.332031 229.070312 Z M 727.449219 229.070312 L 727.449219 222.976562 L 724.402344 222.976562 L 724.402344 229.070312 Z M 720.519531 229.070312 L 720.519531 222.976562 L 717.472656 222.976562 L 717.472656 229.070312 Z M 713.589844 229.070312 L 713.589844 222.976562 L 710.542969 222.976562 L 710.542969 229.070312 Z M 741.804688 229.070312 L 741.804688 215.746094 L 738.761719 215.746094 L 738.761719 229.070312 Z M 699.480469 229.070312 L 699.480469 222.976562 L 696.433594 222.976562 L 696.433594 229.070312 Z M 692.550781 229.070312 L 692.550781 222.976562 L 689.503906 222.976562 L 689.503906 229.070312 Z M 685.621094 229.070312 L 685.621094 222.976562 L 682.574219 222.976562 L 682.574219 229.070312 Z M 678.691406 229.070312 L 678.691406 222.976562 L 675.644531 222.976562 L 675.644531 229.070312 Z M 706.910156 229.070312 L 706.910156 215.746094 L 703.863281 215.746094 L 703.863281 229.070312 Z M 664.582031 229.070312 L 664.582031 222.976562 L 661.539062 222.976562 L 661.539062 229.070312 Z M 657.652344 229.070312 L 657.652344 222.976562 L 654.609375 222.976562 L 654.609375 229.070312 Z M 650.722656 229.070312 L 650.722656 222.976562 L 647.679688 222.976562 L 647.679688 229.070312 Z M 643.792969 229.070312 L 643.792969 222.976562 L 640.75 222.976562 L 640.75 229.070312 Z M 672.011719 229.070312 L 672.011719 215.746094 L 668.960938 215.746094 L 668.960938 229.070312 Z M 637.113281 229.070312 L 637.113281 215.746094 L 634.0625 215.746094 L 634.0625 229.070312 Z M 452.949219 542.988281 L 384.621094 542.988281 C 382.9375 542.988281 381.566406 544.355469 381.566406 546.039062 C 381.566406 547.722656 382.9375 549.085938 384.621094 549.085938 L 452.949219 549.085938 C 454.625 549.085938 455.992188 547.722656 455.992188 546.039062 C 455.992188 544.355469 454.625 542.988281 452.949219 542.988281 Z M 442.964844 572.195312 C 441.988281 571.707031 441.1875 570.890625 440.746094 569.882812 C 440.503906 570.875 439.878906 571.695312 439.042969 572.195312 C 439.878906 572.6875 440.507812 573.511719 440.753906 574.503906 C 441.195312 573.492188 441.988281 572.683594 442.964844 572.195312 Z M 442.964844 583.476562 C 441.988281 582.992188 441.1875 582.179688 440.746094 581.171875 C 440.503906 582.164062 439.878906 582.984375 439.042969 583.476562 C 439.878906 583.976562 440.507812 584.796875 440.753906 585.789062 C 441.195312 584.78125 441.988281 583.972656 442.964844 583.476562 Z M 440.355469 593.433594 C 440.035156 593.988281 439.585938 594.441406 439.042969 594.765625 C 439.585938 595.082031 440.035156 595.542969 440.355469 596.09375 Z M 430.886719 572.195312 C 430.175781 571.777344 429.617188 571.128906 429.316406 570.335938 C 429.011719 571.128906 428.449219 571.777344 427.742188 572.195312 C 428.449219 572.609375 429.011719 573.261719 429.316406 574.046875 C 429.617188 573.261719 430.175781 572.609375 430.886719 572.195312 Z M 430.886719 583.476562 C 430.175781 583.058594 429.617188 582.414062 429.316406 581.625 C 429.011719 582.414062 428.449219 583.058594 427.742188 583.476562 C 428.449219 583.898438 429.011719 584.542969 429.316406 585.335938 C 429.617188 584.542969 430.175781 583.898438 430.886719 583.476562 Z M 430.886719 594.765625 C 430.175781 594.347656 429.617188 593.699219 429.316406 592.90625 C 429.011719 593.699219 428.449219 594.347656 427.742188 594.765625 C 428.449219 595.1875 429.011719 595.832031 429.316406 596.621094 C 429.617188 595.832031 430.175781 595.1875 430.886719 594.765625 Z M 419.589844 572.195312 C 418.753906 571.695312 418.125 570.875 417.878906 569.882812 C 417.4375 570.890625 416.644531 571.707031 415.667969 572.195312 C 416.644531 572.683594 417.4375 573.492188 417.878906 574.503906 C 418.125 573.511719 418.746094 572.6875 419.589844 572.195312 Z M 419.589844 583.476562 C 418.753906 582.984375 418.125 582.15625 417.878906 581.171875 C 417.4375 582.179688 416.644531 582.992188 415.667969 583.476562 C 416.644531 583.972656 417.4375 584.78125 417.878906 585.789062 C 418.125 584.796875 418.746094 583.976562 419.589844 583.476562 Z M 419.589844 594.765625 C 418.746094 594.273438 418.125 593.445312 417.878906 592.460938 C 417.4375 593.46875 416.644531 594.277344 415.667969 594.765625 C 416.644531 595.253906 417.4375 596.0625 417.878906 597.074219 C 418.125 596.085938 418.746094 595.257812 419.589844 594.765625 Z M 452.171875 565.082031 L 452.171875 568.019531 C 452.171875 569.855469 451.097656 571.425781 449.554688 572.195312 C 451.097656 572.960938 452.171875 574.535156 452.171875 576.371094 L 452.171875 579.300781 C 452.171875 581.136719 451.097656 582.714844 449.554688 583.476562 C 451.097656 584.242188 452.171875 585.820312 452.171875 587.660156 L 452.171875 601.871094 C 452.171875 604.457031 450.070312 606.554688 447.496094 606.554688 L 445.03125 606.554688 C 443.121094 606.554688 441.472656 605.398438 440.746094 603.742188 C 440.355469 605.351562 438.945312 606.554688 437.265625 606.554688 L 432.664062 606.554688 C 431.140625 606.554688 429.84375 605.574219 429.316406 604.195312 C 428.785156 605.574219 427.488281 606.554688 425.96875 606.554688 L 421.363281 606.554688 C 419.679688 606.554688 418.277344 605.351562 417.878906 603.742188 C 417.160156 605.398438 415.515625 606.554688 413.601562 606.554688 L 411.136719 606.554688 C 408.5625 606.554688 406.460938 604.457031 406.460938 601.871094 L 406.460938 598.941406 C 406.460938 597.105469 407.53125 595.53125 409.070312 594.765625 C 407.53125 594 406.460938 592.425781 406.460938 590.589844 L 406.460938 587.660156 C 406.460938 585.820312 407.53125 584.242188 409.070312 583.476562 C 407.53125 582.714844 406.460938 581.136719 406.460938 579.300781 L 406.460938 576.371094 C 406.460938 574.535156 407.53125 572.960938 409.070312 572.195312 C 407.53125 571.425781 406.460938 569.855469 406.460938 568.019531 L 406.460938 565.082031 C 406.460938 562.503906 408.5625 560.402344 411.136719 560.402344 L 413.601562 560.402344 C 415.515625 560.402344 417.160156 561.566406 417.878906 563.214844 C 418.277344 561.605469 419.679688 560.402344 421.363281 560.402344 L 425.96875 560.402344 C 427.488281 560.402344 428.785156 561.382812 429.316406 562.765625 C 429.84375 561.382812 431.140625 560.402344 432.664062 560.402344 L 437.265625 560.402344 C 438.945312 560.402344 440.355469 561.605469 440.746094 563.214844 C 441.472656 561.566406 443.121094 560.402344 445.03125 560.402344 L 447.496094 560.402344 C 450.070312 560.402344 452.171875 562.503906 452.171875 565.082031 Z M 398.839844 552.679688 L 391.941406 552.679688 C 389.363281 552.679688 387.269531 554.78125 387.269531 557.359375 L 387.269531 562.023438 C 387.269531 564.03125 388.539062 565.722656 390.308594 566.394531 C 388.539062 567.0625 387.269531 568.761719 387.269531 570.761719 L 387.269531 575.425781 C 387.269531 577.425781 388.539062 579.125 390.308594 579.792969 C 388.539062 580.457031 387.269531 582.15625 387.269531 584.164062 L 387.269531 588.828125 C 387.269531 590.828125 388.539062 592.527344 390.308594 593.191406 C 388.539062 593.859375 387.269531 595.558594 387.269531 597.566406 L 387.269531 602.222656 C 387.269531 604.808594 389.363281 606.90625 391.941406 606.90625 L 398.839844 606.90625 C 401.421875 606.90625 403.515625 604.808594 403.515625 602.222656 L 403.515625 597.566406 C 403.515625 595.558594 402.242188 593.859375 400.472656 593.191406 C 402.242188 592.527344 403.515625 590.828125 403.515625 588.828125 L 403.515625 584.164062 C 403.515625 582.15625 402.25 580.457031 400.476562 579.792969 C 402.25 579.125 403.515625 577.425781 403.515625 575.425781 L 403.515625 570.761719 C 403.515625 568.761719 402.25 567.0625 400.476562 566.394531 C 402.25 565.722656 403.515625 564.03125 403.515625 562.023438 L 403.515625 557.359375 C 403.515625 554.78125 401.421875 552.679688 398.839844 552.679688 Z M 390.207031 541.976562 L 390.207031 521.683594 L 451.722656 521.683594 L 451.722656 541.976562 L 390.207031 541.976562 " fill-opacity="1" fill-rule="nonzero"/><g clip-path="url(#eec78d9e04)"><path fill="#141f35" d="M 410.621094 450.644531 L 406.046875 450.644531 C 405.210938 450.644531 404.523438 449.964844 404.523438 449.121094 C 404.523438 448.277344 405.210938 447.59375 406.046875 447.59375 L 410.621094 447.59375 C 411.460938 447.59375 412.144531 448.277344 412.144531 449.121094 C 412.144531 449.964844 411.460938 450.644531 410.621094 450.644531 Z M 428.210938 450.644531 L 419.414062 450.644531 C 418.570312 450.644531 417.890625 449.964844 417.890625 449.121094 C 417.890625 448.277344 418.570312 447.59375 419.414062 447.59375 L 428.210938 447.59375 C 429.054688 447.59375 429.734375 448.277344 429.734375 449.121094 C 429.734375 449.964844 429.054688 450.644531 428.210938 450.644531 Z M 445.808594 450.644531 L 437.011719 450.644531 C 436.167969 450.644531 435.488281 449.964844 435.488281 449.121094 C 435.488281 448.277344 436.167969 447.59375 437.011719 447.59375 L 445.808594 447.59375 C 446.644531 447.59375 447.332031 448.277344 447.332031 449.121094 C 447.332031 449.964844 446.644531 450.644531 445.808594 450.644531 Z M 463.398438 450.644531 L 454.601562 450.644531 C 453.761719 450.644531 453.078125 449.964844 453.078125 449.121094 C 453.078125 448.277344 453.761719 447.59375 454.601562 447.59375 L 463.398438 447.59375 C 464.242188 447.59375 464.921875 448.277344 464.921875 449.121094 C 464.921875 449.964844 464.242188 450.644531 463.398438 450.644531 Z M 480.996094 450.644531 L 472.195312 450.644531 C 471.351562 450.644531 470.671875 449.964844 470.671875 449.121094 C 470.671875 448.277344 471.351562 447.59375 472.195312 447.59375 L 480.996094 447.59375 C 481.832031 447.59375 482.515625 448.277344 482.515625 449.121094 C 482.515625 449.964844 481.832031 450.644531 480.996094 450.644531 Z M 498.585938 450.644531 L 489.785156 450.644531 C 488.949219 450.644531 488.261719 449.964844 488.261719 449.121094 C 488.261719 448.277344 488.949219 447.59375 489.785156 447.59375 L 498.585938 447.59375 C 499.429688 447.59375 500.105469 448.277344 500.105469 449.121094 C 500.105469 449.964844 499.429688 450.644531 498.585938 450.644531 Z M 516.179688 450.644531 L 507.382812 450.644531 C 506.539062 450.644531 505.859375 449.964844 505.859375 449.121094 C 505.859375 448.277344 506.539062 447.59375 507.382812 447.59375 L 516.179688 447.59375 C 517.019531 447.59375 517.703125 448.277344 517.703125 449.121094 C 517.703125 449.964844 517.019531 450.644531 516.179688 450.644531 Z M 533.769531 450.644531 L 524.976562 450.644531 C 524.132812 450.644531 523.449219 449.964844 523.449219 449.121094 C 523.449219 448.277344 524.132812 447.59375 524.976562 447.59375 L 533.769531 447.59375 C 534.613281 447.59375 535.296875 448.277344 535.296875 449.121094 C 535.296875 449.964844 534.613281 450.644531 533.769531 450.644531 Z M 551.367188 450.644531 L 542.566406 450.644531 C 541.722656 450.644531 541.046875 449.964844 541.046875 449.121094 C 541.046875 448.277344 541.722656 447.59375 542.566406 447.59375 L 551.367188 447.59375 C 552.210938 447.59375 552.890625 448.277344 552.890625 449.121094 C 552.890625 449.964844 552.210938 450.644531 551.367188 450.644531 Z M 568.957031 450.644531 L 560.164062 450.644531 C 559.320312 450.644531 558.636719 449.964844 558.636719 449.121094 C 558.636719 448.277344 559.320312 447.59375 560.164062 447.59375 L 568.957031 447.59375 C 569.800781 447.59375 570.484375 448.277344 570.484375 449.121094 C 570.484375 449.964844 569.800781 450.644531 568.957031 450.644531 Z M 586.550781 450.644531 L 577.753906 450.644531 C 576.917969 450.644531 576.230469 449.964844 576.230469 449.121094 C 576.230469 448.277344 576.917969 447.59375 577.753906 447.59375 L 586.550781 447.59375 C 587.394531 447.59375 588.074219 448.277344 588.074219 449.121094 C 588.074219 449.964844 587.394531 450.644531 586.550781 450.644531 Z M 599.917969 450.644531 L 595.351562 450.644531 C 594.507812 450.644531 593.828125 449.964844 593.828125 449.121094 C 593.828125 448.277344 594.507812 447.59375 595.351562 447.59375 L 599.917969 447.59375 C 600.761719 447.59375 601.441406 448.277344 601.441406 449.121094 C 601.441406 449.964844 600.761719 450.644531 599.917969 450.644531 Z M 610.585938 447.59375 L 644.800781 447.59375 L 644.800781 363.660156 L 610.585938 363.660156 Z M 646.324219 450.644531 L 609.0625 450.644531 C 608.21875 450.644531 607.539062 449.964844 607.539062 449.121094 L 607.539062 362.136719 C 607.539062 361.292969 608.21875 360.609375 609.0625 360.609375 L 646.324219 360.609375 C 647.167969 360.609375 647.847656 361.292969 647.847656 362.136719 L 647.847656 449.121094 C 647.847656 449.964844 647.167969 450.644531 646.324219 450.644531 Z M 609.0625 339.257812 C 608.21875 339.257812 607.539062 338.578125 607.539062 337.734375 L 607.539062 300.625 L 397.039062 300.625 C 396.195312 300.625 395.519531 299.941406 395.519531 299.097656 C 395.519531 298.253906 396.195312 297.574219 397.039062 297.574219 L 609.0625 297.574219 C 609.90625 297.574219 610.585938 298.253906 610.585938 299.097656 L 610.585938 337.734375 C 610.585938 338.578125 609.90625 339.257812 609.0625 339.257812 Z M 468.246094 420.910156 C 467.40625 420.910156 466.722656 420.230469 466.722656 419.386719 L 466.722656 380.085938 L 397.039062 380.085938 C 396.195312 380.085938 395.519531 379.402344 395.519531 378.558594 C 395.519531 377.71875 396.195312 377.039062 397.039062 377.039062 L 468.246094 377.039062 C 469.089844 377.039062 469.773438 377.71875 469.773438 378.558594 L 469.773438 419.386719 C 469.773438 420.230469 469.089844 420.910156 468.246094 420.910156 Z M 609.0625 420.910156 L 576.761719 420.910156 C 575.917969 420.910156 575.234375 420.230469 575.234375 419.386719 C 575.234375 418.542969 575.917969 417.863281 576.761719 417.863281 L 607.539062 417.863281 L 607.539062 339.257812 L 508.945312 339.257812 C 508.105469 339.257812 507.421875 338.578125 507.421875 337.734375 C 507.421875 336.890625 508.105469 336.210938 508.945312 336.210938 L 609.0625 336.210938 C 609.90625 336.210938 610.585938 336.890625 610.585938 337.734375 L 610.585938 419.386719 C 610.585938 420.230469 609.90625 420.910156 609.0625 420.910156 Z M 559.296875 420.910156 L 397.039062 420.910156 C 396.195312 420.910156 395.519531 420.230469 395.519531 419.386719 C 395.519531 418.542969 396.195312 417.863281 397.039062 417.863281 L 559.296875 417.863281 C 560.140625 417.863281 560.828125 418.542969 560.828125 419.386719 C 560.828125 420.230469 560.140625 420.910156 559.296875 420.910156 Z M 453.644531 360.457031 C 452.800781 360.457031 452.121094 359.773438 452.121094 358.933594 L 452.121094 311.136719 C 452.121094 310.289062 452.800781 309.609375 453.644531 309.609375 C 454.480469 309.609375 455.167969 310.289062 455.167969 311.136719 L 455.167969 358.933594 C 455.167969 359.773438 454.480469 360.457031 453.644531 360.457031 Z M 508.945312 360.457031 L 480.964844 360.457031 C 480.121094 360.457031 479.441406 359.773438 479.441406 358.933594 C 479.441406 358.089844 480.121094 357.410156 480.964844 357.410156 L 508.945312 357.410156 C 509.789062 357.410156 510.46875 358.089844 510.46875 358.933594 C 510.46875 359.773438 509.789062 360.457031 508.945312 360.457031 Z M 468.246094 360.457031 L 440.265625 360.457031 C 439.421875 360.457031 438.742188 359.773438 438.742188 358.933594 C 438.742188 358.089844 439.421875 357.410156 440.265625 357.410156 L 468.246094 357.410156 C 469.089844 357.410156 469.773438 358.089844 469.773438 358.933594 C 469.773438 359.773438 469.089844 360.457031 468.246094 360.457031 Z M 425.019531 360.457031 L 397.039062 360.457031 C 396.195312 360.457031 395.519531 359.773438 395.519531 358.933594 C 395.519531 358.089844 396.195312 357.410156 397.039062 357.410156 L 425.019531 357.410156 C 425.863281 357.410156 426.542969 358.089844 426.542969 358.933594 C 426.542969 359.773438 425.863281 360.457031 425.019531 360.457031 Z M 508.945312 360.457031 C 508.105469 360.457031 507.421875 359.773438 507.421875 358.933594 L 507.421875 312.660156 L 397.039062 312.660156 C 396.195312 312.660156 395.519531 311.972656 395.519531 311.136719 C 395.519531 310.289062 396.195312 309.609375 397.039062 309.609375 L 508.945312 309.609375 C 509.789062 309.609375 510.46875 310.289062 510.46875 311.136719 L 510.46875 358.933594 C 510.46875 359.773438 509.789062 360.457031 508.945312 360.457031 Z M 397.039062 450.644531 C 396.195312 450.644531 395.519531 449.964844 395.519531 449.121094 L 395.519531 294.542969 C 395.519531 293.699219 396.195312 293.019531 397.039062 293.019531 C 397.878906 293.019531 398.5625 293.699219 398.5625 294.542969 L 398.5625 449.121094 C 398.5625 449.964844 397.878906 450.644531 397.039062 450.644531 Z M 891.0625 290.253906 C 891.867188 289.992188 892.304688 289.132812 892.050781 288.332031 C 891.792969 287.527344 890.929688 287.097656 890.128906 287.347656 C 890.035156 287.378906 880.726562 290.523438 883.953125 301.546875 C 884.144531 302.214844 884.757812 302.644531 885.414062 302.644531 C 885.554688 302.644531 885.703125 302.625 885.84375 302.582031 C 886.652344 302.347656 887.117188 301.496094 886.878906 300.691406 C 884.535156 292.695312 890.394531 290.472656 891.0625 290.253906 Z M 845.902344 291.929688 C 845.054688 289.765625 843.460938 287.964844 841.425781 286.859375 C 839.386719 285.746094 837.007812 285.390625 834.726562 285.859375 C 833.90625 286.027344 833.375 286.832031 833.539062 287.65625 C 833.707031 288.484375 834.511719 289.011719 835.339844 288.847656 C 836.890625 288.53125 838.578125 288.785156 839.96875 289.539062 C 841.363281 290.292969 842.496094 291.574219 843.070312 293.046875 C 843.304688 293.648438 843.882812 294.015625 844.488281 294.015625 C 844.675781 294.015625 844.859375 293.980469 845.046875 293.90625 C 845.828125 293.601562 846.214844 292.71875 845.902344 291.929688 Z M 822.558594 255.664062 C 822.671875 255.664062 822.78125 255.652344 822.894531 255.625 L 835.785156 252.757812 C 838.050781 252.25 839.980469 250.6875 840.949219 248.574219 L 852.273438 223.792969 C 852.621094 223.027344 852.289062 222.121094 851.519531 221.769531 C 850.753906 221.417969 849.847656 221.757812 849.503906 222.523438 L 838.179688 247.304688 C 837.609375 248.558594 836.464844 249.480469 835.125 249.78125 L 822.230469 252.648438 C 821.410156 252.828125 820.894531 253.644531 821.078125 254.46875 C 821.234375 255.179688 821.863281 255.664062 822.558594 255.664062 Z M 830.871094 330.808594 C 830.042969 330.757812 829.304688 331.375 829.234375 332.214844 C 829.171875 333.054688 829.800781 333.789062 830.640625 333.851562 C 831.074219 333.886719 831.503906 333.902344 831.941406 333.902344 C 836.742188 333.902344 841.453125 331.871094 844.738281 328.328125 C 845.300781 327.710938 845.269531 326.746094 844.652344 326.175781 C 844.035156 325.601562 843.070312 325.636719 842.5 326.253906 C 839.589844 329.394531 835.152344 331.148438 830.871094 330.808594 Z M 935.519531 284.785156 C 935.804688 285.242188 936.300781 285.492188 936.804688 285.492188 C 937.085938 285.492188 937.363281 285.417969 937.617188 285.253906 C 938.332031 284.808594 938.539062 283.859375 938.085938 283.152344 L 929.792969 270.0625 L 929.792969 243.054688 C 929.792969 242.210938 929.113281 241.53125 928.269531 241.53125 C 927.425781 241.53125 926.746094 242.210938 926.746094 243.054688 L 926.746094 270.503906 C 926.746094 270.792969 926.828125 271.078125 926.984375 271.320312 Z M 805.230469 261.210938 C 804.410156 261.386719 803.882812 262.203125 804.066406 263.023438 C 804.246094 263.847656 805.054688 264.367188 805.875 264.191406 C 806.296875 264.101562 848.105469 255.179688 877.929688 265.535156 C 910.84375 276.957031 929.082031 297.359375 929.261719 297.5625 C 929.5625 297.902344 929.980469 298.078125 930.40625 298.078125 C 930.761719 298.078125 931.117188 297.953125 931.40625 297.699219 C 932.042969 297.136719 932.105469 296.179688 931.550781 295.546875 C 931.363281 295.335938 912.640625 274.359375 878.929688 262.648438 C 848.273438 252.007812 806.96875 260.824219 805.230469 261.210938 Z M 843.832031 300.757812 C 843.832031 298.4375 842.597656 296.554688 841.085938 296.554688 C 839.566406 296.554688 838.339844 298.4375 838.339844 300.757812 C 838.339844 303.078125 839.566406 304.957031 841.085938 304.957031 C 842.597656 304.957031 843.832031 303.078125 843.832031 300.757812 Z M 885.367188 347.972656 C 868.917969 359.410156 852.46875 357.613281 852.46875 357.613281 C 852.46875 357.613281 857.367188 370.890625 857.53125 370.851562 C 873.367188 366.84375 885.367188 347.972656 885.367188 347.972656 Z M 877.695312 277.433594 C 876.429688 287.121094 870.648438 299.644531 874.65625 306.363281 L 882.871094 308.046875 C 881.292969 303.304688 881.832031 293.851562 881.832031 293.851562 C 884.152344 282.207031 896.765625 281.320312 898.074219 291.449219 C 898.882812 297.738281 895.40625 303.683594 891.613281 307.257812 C 893.832031 314.949219 895.507812 331.171875 899.539062 329.132812 C 899.777344 329.007812 912.65625 335.058594 919.644531 313.640625 L 919.457031 309.578125 C 919.128906 302.476562 916.613281 295.652344 912.261719 290.042969 L 908.09375 284.671875 C 901.414062 280.527344 892.789062 275.9375 881.746094 271.320312 C 873.277344 267.777344 864.4375 265.511719 855.867188 264.105469 C 845.722656 263.992188 830.910156 264.972656 825.164062 270.210938 C 823.136719 272.050781 821.140625 280.953125 823.957031 281.101562 C 836.050781 281.746094 859.558594 275.453125 877.695312 277.433594 Z M 1060.714844 528.824219 C 1060.714844 528.824219 1048.363281 421.835938 992.261719 381.753906 C 992.261719 381.753906 990.601562 381.035156 986.191406 379.972656 L 986.296875 394.742188 L 986.90625 487.8125 C 1000.070312 508.324219 1013.414062 536.222656 1013.414062 536.222656 L 1012.847656 584.691406 L 1014.070312 585.363281 C 1023.894531 586.839844 1031.800781 594.210938 1033.964844 603.914062 L 1035.867188 612.421875 C 1036.425781 613.222656 1036.601562 614.203125 1036.5625 615.238281 C 1041.238281 608.339844 1061.378906 575.816406 1060.714844 528.824219 Z M 919.808594 374.589844 C 920.210938 375.066406 920.589844 375.558594 921.007812 376.023438 C 915.164062 403.0625 885 421.382812 867.027344 417.8125 C 849.054688 414.234375 859.285156 388.84375 859.285156 388.835938 C 859.007812 386.078125 858.707031 383.191406 858.351562 380.304688 C 857.074219 380.472656 855.816406 380.644531 854.566406 380.8125 C 853.980469 401.332031 852.796875 467.699219 858.855469 544.101562 C 878.699219 542.234375 894.761719 537.332031 907.589844 531.289062 C 904.378906 476.007812 906.820312 417.988281 923.027344 374.476562 C 921.957031 374.511719 920.886719 374.546875 919.808594 374.589844 Z M 986.191406 379.972656 C 982.773438 379.152344 977.695312 378.128906 970.441406 377.078125 Z M 986.191406 379.972656 Z M 933.226562 704.847656 C 933.226562 704.847656 929.0625 687.886719 924.019531 660.972656 C 907.539062 662.449219 891.628906 662.359375 878.433594 659.515625 C 876.886719 659.179688 875.324219 658.898438 873.757812 658.636719 C 876.945312 675.171875 880.617188 691.378906 884.882812 706.898438 L 1004.460938 706.832031 L 996.042969 692.042969 Z M 796.394531 542.59375 C 790.546875 445.226562 799.820312 404.300781 803.339844 392.757812 C 804.109375 390.230469 804.609375 389.09375 804.609375 389.09375 L 807.246094 388.316406 C 804.546875 388.808594 803.058594 389.09375 803.058594 389.09375 C 803.058594 389.09375 785.285156 392.46875 776.171875 422.039062 C 765.765625 455.800781 754.515625 506.105469 739.285156 545.308594 C 756.453125 543.253906 775.660156 542.082031 796.394531 542.59375 Z M 532.335938 213.140625 C 532.335938 212.296875 531.652344 211.617188 530.816406 211.617188 L 511.402344 211.617188 C 511.40625 211.535156 511.425781 211.457031 511.425781 211.378906 L 511.425781 193.238281 C 511.425781 191.792969 510.253906 190.625 508.808594 190.625 L 503.589844 190.625 C 502.144531 190.625 500.972656 191.792969 500.972656 193.238281 L 500.972656 211.378906 C 500.972656 211.457031 500.992188 211.535156 501 211.617188 L 500.148438 211.617188 C 499.304688 211.617188 498.617188 212.296875 498.617188 213.140625 C 498.617188 213.984375 499.304688 214.664062 500.148438 214.664062 L 530.816406 214.664062 C 531.652344 214.664062 532.335938 213.984375 532.335938 213.140625 Z M 490.648438 211.617188 L 418.425781 211.617188 C 418.492188 211.382812 418.539062 211.140625 418.539062 210.882812 L 418.539062 192.746094 C 418.539062 191.304688 417.367188 190.132812 415.925781 190.132812 L 410.703125 190.132812 C 409.257812 190.132812 408.09375 191.304688 408.09375 192.746094 L 408.09375 210.882812 C 408.09375 211.140625 408.136719 211.382812 408.203125 211.617188 L 390.921875 211.617188 C 390.078125 211.617188 389.398438 212.296875 389.398438 213.140625 C 389.398438 213.984375 390.078125 214.664062 390.921875 214.664062 L 490.648438 214.664062 C 491.484375 214.664062 492.171875 213.984375 492.171875 213.140625 C 492.171875 212.296875 491.484375 211.617188 490.648438 211.617188 Z M 435.738281 178.402344 C 435.828125 178.414062 435.917969 178.425781 436.007812 178.425781 C 436.734375 178.425781 437.371094 177.90625 437.503906 177.167969 L 440.816406 158.546875 C 440.960938 157.71875 440.40625 156.925781 439.582031 156.777344 C 438.742188 156.625 437.960938 157.179688 437.8125 158.015625 L 434.503906 176.636719 C 434.359375 177.460938 434.910156 178.25 435.738281 178.402344 Z M 440.25 153.03125 C 441.074219 153.179688 441.867188 152.628906 442.015625 151.796875 L 444.238281 139.285156 C 444.25 139.222656 444.257812 139.160156 444.261719 139.097656 C 444.359375 137.269531 445.871094 135.839844 447.695312 135.839844 L 450.582031 135.839844 L 450.582031 165.3125 C 450.582031 166.894531 451.859375 168.179688 453.445312 168.179688 L 466.109375 168.179688 C 467.695312 168.179688 468.980469 166.894531 468.980469 165.3125 L 468.980469 135.839844 L 471.777344 135.839844 C 473.628906 135.839844 475.140625 137.289062 475.214844 139.144531 C 475.21875 139.21875 475.226562 139.296875 475.242188 139.371094 L 482.828125 178.824219 C 482.96875 179.546875 483.609375 180.058594 484.324219 180.058594 C 484.417969 180.058594 484.515625 180.046875 484.613281 180.03125 C 485.4375 179.871094 485.980469 179.070312 485.824219 178.246094 L 478.253906 138.898438 C 478.050781 135.464844 475.230469 132.792969 471.777344 132.792969 L 468.980469 132.792969 L 468.980469 131.730469 C 468.980469 130.144531 467.695312 128.859375 466.109375 128.859375 L 453.445312 128.859375 C 451.859375 128.859375 450.582031 130.144531 450.582031 131.730469 L 450.582031 132.792969 L 447.695312 132.792969 C 444.28125 132.792969 441.460938 135.4375 441.222656 138.835938 L 439.015625 151.265625 C 438.867188 152.09375 439.417969 152.886719 440.25 153.03125 Z M 560.582031 641.246094 L 547.246094 539.667969 C 548.507812 538.769531 549.554688 537.601562 550.347656 536.269531 C 547.800781 538.523438 544.453125 539.90625 540.777344 539.90625 C 537.097656 539.90625 533.753906 538.519531 531.199219 536.257812 C 531.894531 537.4375 532.796875 538.480469 533.859375 539.328125 L 520.324219 639.714844 L 524.394531 656.449219 L 540.492188 564.21875 L 556.511719 657.972656 Z M 547.035156 512.390625 L 547.035156 509.59375 C 547.035156 508.746094 546.390625 508.070312 545.570312 507.964844 L 545.570312 488.332031 C 545.570312 486.34375 543.960938 484.734375 541.980469 484.734375 L 539.585938 484.734375 C 537.597656 484.734375 535.988281 486.34375 535.988281 488.332031 L 535.988281 507.964844 C 535.167969 508.070312 534.527344 508.746094 534.527344 509.59375 L 534.527344 512.390625 C 536.417969 511.476562 538.539062 510.949219 540.777344 510.949219 C 543.027344 510.949219 545.136719 511.476562 547.035156 512.390625 Z M 723.015625 207.671875 L 645.074219 175.574219 L 645.289062 207.246094 Z M 741.804688 215.746094 L 738.761719 215.746094 L 738.761719 229.070312 L 734.378906 229.070312 L 734.378906 222.976562 L 731.332031 222.976562 L 731.332031 229.070312 L 727.449219 229.070312 L 727.449219 222.976562 L 724.402344 222.976562 L 724.402344 229.070312 L 720.519531 229.070312 L 720.519531 222.976562 L 717.472656 222.976562 L 717.472656 229.070312 L 713.589844 229.070312 L 713.589844 222.976562 L 710.542969 222.976562 L 710.542969 229.070312 L 706.910156 229.070312 L 706.910156 215.746094 L 703.863281 215.746094 L 703.863281 229.070312 L 699.480469 229.070312 L 699.480469 222.976562 L 696.433594 222.976562 L 696.433594 229.070312 L 692.550781 229.070312 L 692.550781 222.976562 L 689.503906 222.976562 L 689.503906 229.070312 L 685.621094 229.070312 L 685.621094 222.976562 L 682.574219 222.976562 L 682.574219 229.070312 L 678.691406 229.070312 L 678.691406 222.976562 L 675.644531 222.976562 L 675.644531 229.070312 L 672.011719 229.070312 L 672.011719 215.746094 L 668.960938 215.746094 L 668.960938 229.070312 L 664.582031 229.070312 L 664.582031 222.976562 L 661.539062 222.976562 L 661.539062 229.070312 L 657.652344 229.070312 L 657.652344 222.976562 L 654.609375 222.976562 L 654.609375 229.070312 L 650.722656 229.070312 L 650.722656 222.976562 L 647.679688 222.976562 L 647.679688 229.070312 L 643.792969 229.070312 L 643.792969 222.976562 L 640.75 222.976562 L 640.75 229.070312 L 637.113281 229.070312 L 637.113281 215.746094 L 634.0625 215.746094 L 634.0625 229.070312 L 619.445312 229.070312 L 618.882812 136.671875 L 817.664062 229.070312 L 776.703125 229.070312 L 776.703125 215.746094 L 773.65625 215.746094 L 773.65625 229.070312 L 769.273438 229.070312 L 769.273438 222.976562 L 766.230469 222.976562 L 766.230469 229.070312 L 762.34375 229.070312 L 762.34375 222.976562 L 759.300781 222.976562 L 759.300781 229.070312 L 755.414062 229.070312 L 755.414062 222.976562 L 752.363281 222.976562 L 752.363281 229.070312 L 748.484375 229.070312 L 748.484375 222.976562 L 745.441406 222.976562 L 745.441406 229.070312 L 741.804688 229.070312 Z M 454.46875 546.039062 C 454.46875 545.199219 453.785156 544.511719 452.949219 544.511719 L 384.621094 544.511719 C 383.777344 544.511719 383.097656 545.199219 383.097656 546.039062 C 383.097656 546.882812 383.777344 547.5625 384.621094 547.5625 L 452.949219 547.5625 C 453.785156 547.5625 454.46875 546.882812 454.46875 546.039062 Z M 450.644531 565.082031 C 450.644531 563.34375 449.234375 561.925781 447.496094 561.925781 L 445.03125 561.925781 C 443.289062 561.925781 441.878906 563.34375 441.878906 565.082031 L 441.878906 568.019531 C 441.878906 569.757812 443.289062 571.171875 445.03125 571.171875 L 447.496094 571.171875 C 449.234375 571.171875 450.644531 569.757812 450.644531 568.019531 Z M 450.644531 576.371094 C 450.644531 574.625 449.234375 573.214844 447.496094 573.214844 L 445.03125 573.214844 C 443.289062 573.214844 441.878906 574.625 441.878906 576.371094 L 441.878906 579.300781 C 441.878906 581.042969 443.289062 582.457031 445.03125 582.457031 L 447.496094 582.457031 C 449.234375 582.457031 450.644531 581.042969 450.644531 579.300781 Z M 450.644531 587.65625 C 450.644531 585.914062 449.234375 584.503906 447.496094 584.503906 L 445.03125 584.503906 C 443.289062 584.503906 441.878906 585.914062 441.878906 587.65625 L 441.878906 601.871094 C 441.878906 603.617188 443.289062 605.027344 445.03125 605.027344 L 447.496094 605.027344 C 449.234375 605.027344 450.644531 603.617188 450.644531 601.871094 Z M 442.128906 557.257812 L 448.242188 557.257812 C 448.984375 557.257812 449.585938 556.65625 449.585938 555.914062 L 449.585938 555.199219 C 449.585938 554.457031 448.984375 553.851562 448.242188 553.851562 L 442.128906 553.851562 C 441.382812 553.851562 440.78125 554.457031 440.78125 555.199219 L 440.78125 555.914062 C 440.78125 556.65625 441.382812 557.257812 442.128906 557.257812 Z M 439.347656 564.125 C 439.347656 562.914062 438.414062 561.925781 437.265625 561.925781 L 432.664062 561.925781 C 431.511719 561.925781 430.578125 562.914062 430.578125 564.125 L 430.578125 568.976562 C 430.578125 570.191406 431.511719 571.171875 432.664062 571.171875 L 437.265625 571.171875 C 438.414062 571.171875 439.347656 570.191406 439.347656 568.976562 Z M 439.347656 575.410156 C 439.347656 574.195312 438.414062 573.214844 437.265625 573.214844 L 432.664062 573.214844 C 431.511719 573.214844 430.578125 574.195312 430.578125 575.410156 L 430.578125 580.265625 C 430.578125 581.476562 431.511719 582.457031 432.664062 582.457031 L 437.265625 582.457031 C 438.414062 582.457031 439.347656 581.476562 439.347656 580.265625 Z M 439.347656 586.695312 C 439.347656 585.484375 438.414062 584.503906 437.265625 584.503906 L 432.664062 584.503906 C 431.511719 584.503906 430.578125 585.484375 430.578125 586.695312 L 430.578125 591.546875 C 430.578125 592.761719 431.511719 593.742188 432.664062 593.742188 L 437.265625 593.742188 C 438.414062 593.742188 439.347656 592.761719 439.347656 591.546875 Z M 431.761719 557.257812 L 437.871094 557.257812 C 438.617188 557.257812 439.21875 556.65625 439.21875 555.914062 L 439.21875 555.199219 C 439.21875 554.457031 438.617188 553.851562 437.871094 553.851562 L 431.761719 553.851562 C 431.015625 553.851562 430.414062 554.457031 430.414062 555.199219 L 430.414062 555.914062 C 430.414062 556.65625 431.015625 557.257812 431.761719 557.257812 Z M 439.347656 597.984375 C 439.347656 596.773438 438.414062 595.785156 437.265625 595.785156 L 432.664062 595.785156 C 431.511719 595.785156 430.578125 596.773438 430.578125 597.984375 L 430.578125 602.835938 C 430.578125 604.046875 431.511719 605.027344 432.664062 605.027344 L 437.265625 605.027344 C 438.414062 605.027344 439.347656 604.046875 439.347656 602.835938 Z M 428.070312 555.199219 C 428.070312 554.457031 427.472656 553.851562 426.722656 553.851562 L 420.613281 553.851562 C 419.867188 553.851562 419.265625 554.457031 419.265625 555.199219 L 419.265625 555.914062 C 419.265625 556.65625 419.867188 557.257812 420.613281 557.257812 L 426.722656 557.257812 C 427.472656 557.257812 428.070312 556.65625 428.070312 555.914062 Z M 428.046875 564.125 C 428.046875 562.914062 427.121094 561.925781 425.96875 561.925781 L 421.363281 561.925781 C 420.214844 561.925781 419.285156 562.914062 419.285156 564.125 L 419.285156 568.976562 C 419.285156 570.191406 420.214844 571.171875 421.363281 571.171875 L 425.96875 571.171875 C 427.121094 571.171875 428.046875 570.191406 428.046875 568.976562 Z M 428.046875 575.410156 C 428.046875 574.195312 427.121094 573.214844 425.96875 573.214844 L 421.363281 573.214844 C 420.214844 573.214844 419.285156 574.195312 419.285156 575.410156 L 419.285156 580.265625 C 419.285156 581.476562 420.214844 582.457031 421.363281 582.457031 L 425.96875 582.457031 C 427.121094 582.457031 428.046875 581.476562 428.046875 580.265625 Z M 428.046875 586.695312 C 428.046875 585.484375 427.121094 584.503906 425.96875 584.503906 L 421.363281 584.503906 C 420.214844 584.503906 419.285156 585.484375 419.285156 586.695312 L 419.285156 591.546875 C 419.285156 592.761719 420.214844 593.742188 421.363281 593.742188 L 425.96875 593.742188 C 427.121094 593.742188 428.046875 592.761719 428.046875 591.546875 Z M 428.046875 597.984375 C 428.046875 596.773438 427.121094 595.785156 425.96875 595.785156 L 421.363281 595.785156 C 420.214844 595.785156 419.285156 596.773438 419.285156 597.984375 L 419.285156 602.835938 C 419.285156 604.046875 420.214844 605.027344 421.363281 605.027344 L 425.96875 605.027344 C 427.121094 605.027344 428.046875 604.046875 428.046875 602.835938 Z M 417.703125 555.199219 C 417.703125 554.457031 417.105469 553.851562 416.359375 553.851562 L 410.242188 553.851562 C 409.5 553.851562 408.902344 554.457031 408.902344 555.199219 L 408.902344 555.914062 C 408.902344 556.65625 409.5 557.257812 410.242188 557.257812 L 416.359375 557.257812 C 417.105469 557.257812 417.703125 556.65625 417.703125 555.914062 Z M 416.753906 565.082031 C 416.753906 563.34375 415.339844 561.925781 413.601562 561.925781 L 411.136719 561.925781 C 409.394531 561.925781 407.984375 563.34375 407.984375 565.082031 L 407.984375 568.019531 C 407.984375 569.757812 409.394531 571.171875 411.136719 571.171875 L 413.601562 571.171875 C 415.339844 571.171875 416.753906 569.757812 416.753906 568.019531 Z M 416.753906 576.371094 C 416.753906 574.625 415.339844 573.214844 413.601562 573.214844 L 411.136719 573.214844 C 409.394531 573.214844 407.984375 574.625 407.984375 576.371094 L 407.984375 579.300781 C 407.984375 581.042969 409.394531 582.457031 411.136719 582.457031 L 413.601562 582.457031 C 415.339844 582.457031 416.753906 581.042969 416.753906 579.300781 Z M 416.753906 587.65625 C 416.753906 585.914062 415.339844 584.503906 413.601562 584.503906 L 411.136719 584.503906 C 409.394531 584.503906 407.984375 585.914062 407.984375 587.65625 L 407.984375 590.589844 C 407.984375 592.328125 409.394531 593.742188 411.136719 593.742188 L 413.601562 593.742188 C 415.339844 593.742188 416.753906 592.328125 416.753906 590.589844 Z M 416.753906 598.941406 C 416.753906 597.203125 415.339844 595.785156 413.601562 595.785156 L 411.136719 595.785156 C 409.394531 595.785156 407.984375 597.203125 407.984375 598.941406 L 407.984375 601.871094 C 407.984375 603.617188 409.394531 605.027344 411.136719 605.027344 L 413.601562 605.027344 C 415.339844 605.027344 416.753906 603.617188 416.753906 601.871094 Z M 401.996094 557.359375 C 401.996094 555.621094 400.585938 554.203125 398.839844 554.203125 L 391.941406 554.203125 C 390.203125 554.203125 388.792969 555.621094 388.792969 557.359375 L 388.792969 562.023438 C 388.792969 563.769531 390.203125 565.179688 391.941406 565.179688 L 398.839844 565.179688 C 400.585938 565.179688 401.996094 563.769531 401.996094 562.023438 Z M 401.996094 570.761719 C 401.996094 569.015625 400.585938 567.605469 398.839844 567.605469 L 391.941406 567.605469 C 390.203125 567.605469 388.792969 569.015625 388.792969 570.761719 L 388.792969 575.425781 C 388.792969 577.164062 390.203125 578.582031 391.941406 578.582031 L 398.839844 578.582031 C 400.585938 578.582031 401.996094 577.164062 401.996094 575.425781 Z M 401.996094 584.164062 C 401.996094 582.417969 400.585938 581.007812 398.839844 581.007812 L 391.941406 581.007812 C 390.203125 581.007812 388.792969 582.417969 388.792969 584.164062 L 388.792969 588.828125 C 388.792969 590.566406 390.203125 591.976562 391.941406 591.976562 L 398.839844 591.976562 C 400.585938 591.976562 401.996094 590.566406 401.996094 588.828125 Z M 401.996094 597.566406 C 401.996094 595.820312 400.585938 594.410156 398.839844 594.410156 L 391.941406 594.410156 C 390.203125 594.410156 388.792969 595.820312 388.792969 597.566406 L 388.792969 602.230469 C 388.792969 603.96875 390.203125 605.378906 391.941406 605.378906 L 398.839844 605.378906 C 400.585938 605.378906 401.996094 603.96875 401.996094 602.230469 Z M 391.730469 540.449219 L 450.203125 540.449219 L 450.203125 523.207031 L 391.730469 523.207031 Z M 460.8125 516.867188 L 460.8125 605.363281 C 460.8125 610.417969 456.71875 614.515625 451.667969 614.515625 L 390.257812 614.515625 C 385.214844 614.515625 381.121094 610.417969 381.121094 605.363281 L 381.121094 516.867188 C 381.121094 511.816406 385.214844 507.71875 390.257812 507.71875 L 451.667969 507.71875 C 456.71875 507.71875 460.8125 511.816406 460.8125 516.867188 Z M 549.226562 706.90625 L 615.265625 706.90625 L 615.265625 682.328125 C 609.796875 683.558594 603.695312 684.46875 596.871094 684.882812 C 575.761719 686.148438 554.289062 702.757812 549.226562 706.90625 Z M 702.0625 644.042969 C 675.84375 641.25 652.710938 663.101562 644.585938 669.449219 C 641.042969 672.214844 636.113281 675.222656 629.679688 677.859375 L 629.679688 706.90625 L 733.699219 706.90625 L 733.699219 678.503906 L 710.289062 645.445312 C 707.566406 644.828125 704.824219 644.339844 702.0625 644.042969 Z M 859.785156 706.753906 C 860.683594 706.808594 861.578125 706.867188 862.457031 706.910156 L 837.863281 706.921875 L 837.859375 706.90625 L 765.425781 706.90625 L 765.425781 676.945312 C 775.519531 672.957031 788.003906 668.546875 801.613281 664.902344 C 803.910156 664.410156 806.222656 663.878906 808.535156 663.324219 C 809.789062 672.636719 811.125 682.222656 812.578125 692.136719 C 813.503906 698.417969 824.332031 702.128906 837.34375 704.320312 C 838.320312 704.484375 839.3125 704.644531 840.316406 704.792969 C 840.347656 704.796875 840.382812 704.804688 840.417969 704.808594 C 841.394531 704.949219 842.386719 705.09375 843.382812 705.214844 C 843.445312 705.226562 843.507812 705.234375 843.570312 705.246094 C 844.570312 705.375 845.578125 705.496094 846.585938 705.609375 C 846.695312 705.617188 846.804688 705.636719 846.914062 705.648438 C 847.878906 705.753906 848.839844 705.855469 849.804688 705.953125 C 849.855469 705.957031 849.90625 705.964844 849.960938 705.96875 C 850.9375 706.066406 851.914062 706.152344 852.882812 706.238281 C 853.074219 706.253906 853.261719 706.269531 853.449219 706.289062 C 854.359375 706.359375 855.273438 706.433594 856.171875 706.503906 C 856.222656 706.507812 856.273438 706.515625 856.324219 706.515625 C 857.25 706.589844 858.160156 706.648438 859.066406 706.707031 C 859.308594 706.722656 859.546875 706.734375 859.785156 706.753906 " fill-opacity="1" fill-rule="nonzero"/></g></svg>