<svg xmlns="http://www.w3.org/2000/svg" xmlns:xlink="http://www.w3.org/1999/xlink" width="500" zoomAndPan="magnify" viewBox="0 0 375 374.999991" height="500" preserveAspectRatio="xMidYMid meet" version="1.0"><defs><clipPath id="f4bf1b78fa"><path d="M 0 23.164062 L 375 23.164062 L 375 351.664062 L 0 351.664062 Z M 0 23.164062 " clip-rule="nonzero"/></clipPath><clipPath id="e7a1e255d4"><path d="M 156 153 L 219 153 L 219 262.5 L 156 262.5 Z M 156 153 " clip-rule="nonzero"/></clipPath><clipPath id="964501fcab"><path d="M 184 210 L 191 210 L 191 262.5 L 184 262.5 Z M 184 210 " clip-rule="nonzero"/></clipPath><clipPath id="e6b66d32d4"><path d="M 212 164 L 258 164 L 258 262.5 L 212 262.5 Z M 212 164 " clip-rule="nonzero"/></clipPath><clipPath id="549c518560"><path d="M 227 218 L 233 218 L 233 262.5 L 227 262.5 Z M 227 218 " clip-rule="nonzero"/></clipPath><clipPath id="75a11b5484"><path d="M 117 257 L 258 257 L 258 262.5 L 117 262.5 Z M 117 257 " clip-rule="nonzero"/></clipPath><clipPath id="57d8e4daed"><path d="M 117 164 L 163 164 L 163 262.5 L 117 262.5 Z M 117 164 " clip-rule="nonzero"/></clipPath><clipPath id="2caa83c50e"><path d="M 142 218 L 148 218 L 148 262.5 L 142 262.5 Z M 142 218 " clip-rule="nonzero"/></clipPath><clipPath id="5a4ad40f44"><path d="M 142 112.5 L 167 112.5 L 167 127 L 142 127 Z M 142 112.5 " clip-rule="nonzero"/></clipPath><clipPath id="57c512746a"><path d="M 208 112.5 L 233 112.5 L 233 127 L 208 127 Z M 208 112.5 " clip-rule="nonzero"/></clipPath></defs><g clip-path="url(#f4bf1b78fa)"><path fill="#c59b64" d="M 280.683594 23.164062 L 94.316406 23.164062 L 0.00390625 187.414062 L 94.316406 351.664062 L 280.683594 351.664062 L 374.996094 187.414062 L 280.683594 23.164062 M 275.550781 342.765625 L 99.449219 342.765625 L 10.265625 187.414062 L 99.449219 32.0625 L 275.550781 32.0625 L 364.734375 187.414062 L 275.550781 342.765625 " fill-opacity="1" fill-rule="nonzero"/></g><g clip-path="url(#e7a1e255d4)"><path fill="#000000" d="M 204.101562 262.5 L 170.898438 262.5 C 169.449219 262.5 168.300781 261.351562 168.300781 259.898438 L 168.300781 210.898438 L 158.800781 210.898438 C 157.351562 210.898438 156.199219 209.75 156.199219 208.300781 L 156.199219 171.898438 C 156.199219 161.898438 164.351562 153.75 174.351562 153.75 L 174.851562 153.75 C 176.300781 153.75 177.449219 154.898438 177.449219 156.351562 C 177.449219 157.800781 176.300781 158.949219 174.851562 158.949219 L 174.351562 158.949219 C 167.199219 158.949219 161.398438 164.75 161.398438 171.898438 L 161.398438 205.648438 L 170.851562 205.648438 C 172.300781 205.648438 173.449219 206.800781 173.449219 208.25 L 173.449219 257.25 L 201.449219 257.25 L 201.449219 208.25 C 201.449219 206.800781 202.601562 205.648438 204.050781 205.648438 L 213.5 205.648438 L 213.5 171.898438 C 213.5 164.75 207.699219 158.949219 200.550781 158.949219 L 200.050781 158.949219 C 198.601562 158.949219 197.449219 157.800781 197.449219 156.351562 C 197.449219 154.898438 198.601562 153.75 200.050781 153.75 L 200.550781 153.75 C 210.550781 153.75 218.699219 161.898438 218.699219 171.898438 L 218.699219 208.300781 C 218.699219 209.75 217.550781 210.898438 216.101562 210.898438 L 206.648438 210.898438 L 206.648438 259.898438 C 206.699219 261.351562 205.550781 262.5 204.101562 262.5 Z M 204.101562 262.5 " fill-opacity="1" fill-rule="nonzero"/></g><g clip-path="url(#964501fcab)"><path fill="#000000" d="M 187.5 262.5 C 186.050781 262.5 184.898438 261.351562 184.898438 259.898438 L 184.898438 213 C 184.898438 211.550781 186.050781 210.398438 187.5 210.398438 C 188.949219 210.398438 190.101562 211.550781 190.101562 213 L 190.101562 259.898438 C 190.101562 261.351562 188.949219 262.5 187.5 262.5 Z M 187.5 262.5 " fill-opacity="1" fill-rule="nonzero"/></g><path fill="#000000" d="M 170.898438 210.851562 C 169.449219 210.851562 168.300781 209.699219 168.300781 208.25 L 168.300781 175.800781 C 168.300781 174.351562 169.449219 173.199219 170.898438 173.199219 C 172.351562 173.199219 173.5 174.351562 173.5 175.800781 L 173.5 208.25 C 173.5 209.699219 172.351562 210.851562 170.898438 210.851562 Z M 170.898438 210.851562 " fill-opacity="1" fill-rule="nonzero"/><path fill="#000000" d="M 204.101562 210.851562 C 202.648438 210.851562 201.5 209.699219 201.5 208.25 L 201.5 175.800781 C 201.5 174.351562 202.648438 173.199219 204.101562 173.199219 C 205.550781 173.199219 206.699219 174.351562 206.699219 175.800781 L 206.699219 208.25 C 206.699219 209.699219 205.550781 210.851562 204.101562 210.851562 Z M 204.101562 210.851562 " fill-opacity="1" fill-rule="nonzero"/><g clip-path="url(#e6b66d32d4)"><path fill="#000000" d="M 244.5 262.5 L 214.851562 262.5 C 213.398438 262.5 212.25 261.351562 212.25 259.898438 L 212.25 219.449219 C 212.25 218 213.398438 216.851562 214.851562 216.851562 C 216.300781 216.851562 217.449219 218 217.449219 219.449219 L 217.449219 257.25 L 241.851562 257.25 L 241.851562 213.800781 C 241.851562 212.351562 243 211.199219 244.449219 211.199219 L 252.601562 211.199219 L 252.601562 181.351562 C 252.601562 175.148438 247.550781 170.101562 241.351562 170.101562 L 223.949219 170.101562 C 222.5 170.101562 221.351562 168.949219 221.351562 167.5 C 221.351562 166.050781 222.5 164.898438 223.949219 164.898438 L 241.351562 164.898438 C 250.449219 164.898438 257.851562 172.300781 257.851562 181.398438 L 257.851562 213.851562 C 257.851562 215.300781 256.699219 216.449219 255.25 216.449219 L 247.101562 216.449219 L 247.101562 259.898438 C 247.148438 261.351562 245.949219 262.5 244.5 262.5 Z M 244.5 262.5 " fill-opacity="1" fill-rule="nonzero"/></g><g clip-path="url(#549c518560)"><path fill="#000000" d="M 229.699219 262.5 C 228.25 262.5 227.101562 261.351562 227.101562 259.898438 L 227.101562 221.101562 C 227.101562 219.648438 228.25 218.5 229.699219 218.5 C 231.148438 218.5 232.300781 219.648438 232.300781 221.101562 L 232.300781 259.898438 C 232.300781 261.351562 231.148438 262.5 229.699219 262.5 Z M 229.699219 262.5 " fill-opacity="1" fill-rule="nonzero"/></g><path fill="#000000" d="M 244.5 216.449219 C 243.050781 216.449219 241.898438 215.300781 241.898438 213.851562 L 241.898438 184.898438 C 241.898438 183.449219 243.050781 182.300781 244.5 182.300781 C 245.949219 182.300781 247.101562 183.449219 247.101562 184.898438 L 247.101562 213.851562 C 247.148438 215.25 245.949219 216.449219 244.5 216.449219 Z M 244.5 216.449219 " fill-opacity="1" fill-rule="nonzero"/><g clip-path="url(#75a11b5484)"><path fill="#000000" d="M 255.300781 262.5 L 119.699219 262.5 C 118.25 262.5 117.101562 261.351562 117.101562 259.898438 C 117.101562 258.449219 118.25 257.300781 119.699219 257.300781 L 255.25 257.300781 C 256.699219 257.300781 257.851562 258.449219 257.851562 259.898438 C 257.898438 261.351562 256.75 262.5 255.300781 262.5 Z M 255.300781 262.5 " fill-opacity="1" fill-rule="nonzero"/></g><g clip-path="url(#57d8e4daed)"><path fill="#000000" d="M 160.101562 262.5 L 130.5 262.5 C 129.050781 262.5 127.898438 261.351562 127.898438 259.898438 L 127.898438 216.449219 L 119.699219 216.449219 C 118.25 216.449219 117.101562 215.300781 117.101562 213.851562 L 117.101562 181.398438 C 117.101562 172.300781 124.5 164.898438 133.601562 164.898438 L 151 164.898438 C 152.449219 164.898438 153.601562 166.050781 153.601562 167.5 C 153.601562 168.949219 152.449219 170.101562 151 170.101562 L 133.601562 170.101562 C 127.398438 170.101562 122.351562 175.148438 122.351562 181.351562 L 122.351562 211.199219 L 130.5 211.199219 C 131.949219 211.199219 133.101562 212.351562 133.101562 213.800781 L 133.101562 257.25 L 157.5 257.25 L 157.5 219.449219 C 157.5 218 158.648438 216.851562 160.101562 216.851562 C 161.550781 216.851562 162.699219 218 162.699219 219.449219 L 162.699219 259.898438 C 162.75 261.351562 161.550781 262.5 160.101562 262.5 Z M 160.101562 262.5 " fill-opacity="1" fill-rule="nonzero"/></g><g clip-path="url(#2caa83c50e)"><path fill="#000000" d="M 145.300781 262.5 C 143.851562 262.5 142.699219 261.351562 142.699219 259.898438 L 142.699219 221.101562 C 142.699219 219.648438 143.851562 218.5 145.300781 218.5 C 146.75 218.5 147.898438 219.648438 147.898438 221.101562 L 147.898438 259.898438 C 147.898438 261.351562 146.75 262.5 145.300781 262.5 Z M 145.300781 262.5 " fill-opacity="1" fill-rule="nonzero"/></g><path fill="#000000" d="M 130.5 216.449219 C 129.050781 216.449219 127.898438 215.300781 127.898438 213.851562 L 127.898438 184.898438 C 127.898438 183.449219 129.050781 182.300781 130.5 182.300781 C 131.949219 182.300781 133.101562 183.449219 133.101562 184.898438 L 133.101562 213.851562 C 133.101562 215.25 131.949219 216.449219 130.5 216.449219 Z M 130.5 216.449219 " fill-opacity="1" fill-rule="nonzero"/><path fill="#000000" d="M 187.5 148.351562 C 179.148438 148.351562 172.398438 141.550781 172.398438 133.25 C 172.398438 124.949219 179.199219 118.148438 187.5 118.148438 C 195.851562 118.148438 202.601562 124.949219 202.601562 133.25 C 202.601562 141.550781 195.851562 148.351562 187.5 148.351562 Z M 187.5 123.351562 C 182.050781 123.351562 177.601562 127.800781 177.601562 133.25 C 177.601562 138.699219 182.050781 143.148438 187.5 143.148438 C 192.949219 143.148438 197.398438 138.699219 197.398438 133.25 C 197.398438 127.75 192.949219 123.351562 187.5 123.351562 Z M 187.5 123.351562 " fill-opacity="1" fill-rule="nonzero"/><path fill="#000000" d="M 229.699219 157.648438 C 222.199219 157.648438 216.050781 151.550781 216.050781 144 C 216.050781 136.5 222.148438 130.351562 229.699219 130.351562 C 237.199219 130.351562 243.351562 136.449219 243.351562 144 C 243.351562 151.550781 237.199219 157.648438 229.699219 157.648438 Z M 229.699219 135.601562 C 225.050781 135.601562 221.300781 139.351562 221.300781 144 C 221.300781 148.648438 225.050781 152.398438 229.699219 152.398438 C 234.351562 152.398438 238.101562 148.648438 238.101562 144 C 238.101562 139.351562 234.351562 135.601562 229.699219 135.601562 Z M 229.699219 135.601562 " fill-opacity="1" fill-rule="nonzero"/><path fill="#000000" d="M 145.300781 157.648438 C 137.800781 157.648438 131.648438 151.550781 131.648438 144 C 131.648438 136.5 137.75 130.351562 145.300781 130.351562 C 152.800781 130.351562 158.949219 136.449219 158.949219 144 C 158.949219 151.550781 152.800781 157.648438 145.300781 157.648438 Z M 145.300781 135.601562 C 140.648438 135.601562 136.898438 139.351562 136.898438 144 C 136.898438 148.648438 140.648438 152.398438 145.300781 152.398438 C 149.949219 152.398438 153.699219 148.648438 153.699219 144 C 153.699219 139.351562 149.949219 135.601562 145.300781 135.601562 Z M 145.300781 135.601562 " fill-opacity="1" fill-rule="nonzero"/><path fill="#000000" d="M 191.199219 163.550781 L 183.851562 163.550781 C 182.601562 163.550781 181.550781 162.699219 181.300781 161.449219 L 180.351562 156.851562 C 180.050781 155.449219 180.949219 154.050781 182.351562 153.75 C 183.75 153.449219 185.148438 154.351562 185.449219 155.75 L 186 158.300781 L 189.101562 158.300781 L 189.648438 155.75 C 189.949219 154.351562 191.351562 153.398438 192.75 153.75 C 194.148438 154.050781 195.050781 155.449219 194.75 156.851562 L 193.800781 161.449219 C 193.5 162.699219 192.398438 163.550781 191.199219 163.550781 Z M 191.199219 163.550781 " fill-opacity="1" fill-rule="nonzero"/><path fill="#000000" d="M 187.5 193.949219 C 186.699219 193.949219 185.949219 193.601562 185.5 193 L 179.75 186 C 179.300781 185.449219 179.101562 184.800781 179.148438 184.101562 L 181.199219 160.699219 C 181.351562 159.25 182.601562 158.199219 184.050781 158.300781 C 185.5 158.449219 186.550781 159.699219 186.449219 161.148438 L 184.5 183.5 L 187.550781 187.199219 L 190.601562 183.5 L 188.601562 161.148438 C 188.449219 159.699219 189.550781 158.449219 191 158.300781 C 192.449219 158.199219 193.699219 159.25 193.851562 160.699219 L 195.898438 184.101562 C 195.949219 184.800781 195.75 185.449219 195.300781 186 L 189.550781 193 C 189.050781 193.601562 188.300781 193.949219 187.5 193.949219 Z M 187.5 193.949219 " fill-opacity="1" fill-rule="nonzero"/><g clip-path="url(#5a4ad40f44)"><path fill="#000000" d="M 145.300781 126.351562 C 143.851562 126.351562 142.699219 125.199219 142.699219 123.75 L 142.699219 115.101562 C 142.699219 113.648438 143.851562 112.5 145.300781 112.5 L 164.398438 112.5 C 165.851562 112.5 167 113.648438 167 115.101562 C 167 116.550781 165.851562 117.699219 164.398438 117.699219 L 147.898438 117.699219 L 147.898438 123.699219 C 147.898438 125.199219 146.75 126.351562 145.300781 126.351562 Z M 145.300781 126.351562 " fill-opacity="1" fill-rule="nonzero"/></g><g clip-path="url(#57c512746a)"><path fill="#000000" d="M 229.699219 126.351562 C 228.25 126.351562 227.101562 125.199219 227.101562 123.75 L 227.101562 117.75 L 210.601562 117.75 C 209.148438 117.75 208 116.601562 208 115.148438 C 208 113.699219 209.148438 112.550781 210.601562 112.550781 L 229.699219 112.550781 C 231.148438 112.550781 232.300781 113.699219 232.300781 115.148438 L 232.300781 123.800781 C 232.300781 125.199219 231.148438 126.351562 229.699219 126.351562 Z M 229.699219 126.351562 " fill-opacity="1" fill-rule="nonzero"/></g></svg>