<svg xmlns="http://www.w3.org/2000/svg" xmlns:xlink="http://www.w3.org/1999/xlink" width="1920" zoomAndPan="magnify" viewBox="0 0 1440 809.999993" height="1080" preserveAspectRatio="xMidYMid meet" version="1.0"><defs><clipPath id="346ec1d1fe"><path d="M 726 81 L 1042 81 L 1042 729 L 726 729 Z M 726 81 " clip-rule="nonzero"/></clipPath><clipPath id="d448a839ca"><path d="M 842 714 L 918 714 L 918 729 L 842 729 Z M 842 714 " clip-rule="nonzero"/></clipPath><clipPath id="0b8ec7f737"><path d="M 842 714 L 918 714 L 918 729 L 842 729 Z M 842 714 " clip-rule="nonzero"/></clipPath><clipPath id="b2378e020e"><path d="M 962 692 L 1016 692 L 1016 729 L 962 729 Z M 962 692 " clip-rule="nonzero"/></clipPath></defs><path fill="#eaeaea" d="M 816.957031 575.929688 C 816.925781 571.109375 816.515625 566.261719 815.777344 561.40625 L 846.621094 561.40625 C 850.96875 561.40625 854.492188 557.882812 854.492188 553.53125 L 854.492188 516.433594 C 852.136719 517.410156 849.566406 517.972656 846.855469 517.972656 C 835.808594 517.972656 826.851562 509.011719 826.851562 497.960938 C 826.851562 486.910156 835.808594 477.949219 846.855469 477.949219 C 849.566406 477.949219 852.136719 478.511719 854.492188 479.488281 L 854.492188 444.210938 C 854.492188 439.859375 850.96875 436.335938 846.621094 436.335938 L 808.851562 436.335938 C 810.355469 433.527344 811.214844 430.316406 811.214844 426.90625 C 811.214844 415.855469 802.257812 406.894531 791.207031 406.894531 C 780.160156 406.894531 771.203125 415.855469 771.203125 426.90625 C 771.203125 430.316406 772.0625 433.527344 773.566406 436.335938 L 737.335938 436.335938 C 732.988281 436.335938 729.460938 439.859375 729.460938 444.210938 L 729.460938 492.058594 C 725.96875 491.390625 722.425781 490.914062 718.839844 490.699219 L 712.6875 473.167969 C 708.699219 473.195312 704.691406 473.484375 700.675781 473.996094 L 700.675781 418.128906 C 700.675781 413.78125 697.152344 410.253906 692.804688 410.253906 L 655.035156 410.253906 C 656.539062 407.445312 657.394531 404.234375 657.394531 400.828125 C 657.394531 389.773438 648.4375 380.816406 637.390625 380.816406 C 626.339844 380.816406 617.386719 389.773438 617.386719 400.828125 C 617.386719 404.234375 618.242188 407.445312 619.746094 410.253906 L 583.515625 410.253906 C 579.167969 410.253906 575.644531 413.78125 575.644531 418.128906 L 575.644531 527.453125 C 575.644531 531.804688 579.167969 535.328125 583.515625 535.328125 L 618.644531 535.328125 C 617.746094 537.390625 616.890625 539.46875 616.128906 541.585938 L 630.585938 553.207031 C 628.90625 559.085938 627.855469 565.148438 627.484375 571.320312 L 609.960938 577.476562 C 609.996094 583.28125 610.558594 589.128906 611.613281 594.980469 L 629.925781 597.789062 C 630.671875 600.75 631.570312 603.671875 632.65625 606.601562 C 633.730469 609.511719 634.949219 612.316406 636.304688 615.054688 L 624.226562 629.105469 C 627.230469 634.230469 630.609375 639.039062 634.355469 643.472656 L 651.667969 636.742188 C 655.96875 641.191406 660.707031 645.109375 665.8125 648.496094 L 662.382812 666.714844 C 667.492188 669.609375 672.835938 672.070312 678.355469 674.066406 L 689.953125 659.609375 C 695.847656 661.285156 701.90625 662.335938 708.082031 662.707031 L 714.234375 680.234375 C 720.039062 680.199219 725.882812 679.636719 731.730469 678.582031 L 734.539062 660.265625 C 737.5 659.515625 740.421875 658.617188 743.332031 657.539062 C 746.257812 656.457031 749.0625 655.238281 751.796875 653.882812 L 765.84375 665.960938 C 770.96875 662.957031 775.773438 659.582031 780.207031 655.832031 L 773.476562 638.515625 C 777.925781 634.214844 781.84375 629.472656 785.210938 624.371094 L 803.441406 627.792969 C 806.335938 622.683594 808.792969 617.339844 810.789062 611.816406 L 796.335938 600.214844 C 797.996094 594.324219 799.0625 588.257812 799.433594 582.082031 Z M 728.902344 618.503906 C 705.835938 627.03125 680.203125 615.238281 671.675781 592.164062 C 663.144531 569.078125 674.9375 543.4375 698 534.90625 C 708.582031 530.992188 719.699219 531.363281 729.460938 535.128906 L 729.460938 553.53125 C 729.460938 557.882812 732.984375 561.40625 737.332031 561.40625 L 755.296875 561.40625 C 763.714844 584.4375 751.929688 609.984375 728.902344 618.503906 Z M 728.902344 618.503906 " fill-opacity="1" fill-rule="nonzero"/><g clip-path="url(#346ec1d1fe)"><path fill="#eaeaea" d="M 1041.824219 472.492188 C 1041.824219 472.476562 1041.828125 472.460938 1041.828125 472.445312 C 1041.785156 471.316406 1041.511719 468.339844 1041.140625 464.617188 L 1041.136719 464.617188 C 1040.160156 454.8125 1038.496094 439.847656 1038.496094 439.839844 L 1031.792969 379.796875 L 1034.378906 379.28125 C 1031.484375 350.59375 1030.589844 316.664062 1030.082031 309.949219 C 1029.398438 302.03125 1028.734375 294.109375 1027.746094 286.210938 C 1026.816406 278.765625 1022.066406 272.75 1015.722656 269.828125 C 1015.730469 269.769531 1015.734375 269.734375 1015.734375 269.734375 C 1001.03125 263.382812 986.65625 259.175781 972.417969 257.128906 L 972.652344 260.277344 L 970.613281 233.191406 L 970.667969 233.949219 C 974.707031 233.242188 990.613281 229.515625 988.808594 215.0625 C 988.808594 215.0625 1001.332031 200.679688 988.902344 189.476562 C 989.042969 176.480469 982.035156 170.167969 968.976562 169.539062 C 968.976562 169.539062 945.265625 167.519531 935.628906 166.8125 C 936.527344 164.140625 937.242188 161.398438 937.730469 158.59375 L 949.5625 155.867188 C 949.960938 152.09375 950.019531 148.25 949.761719 144.375 L 938.066406 141.214844 C 937.792969 139.238281 937.421875 137.273438 936.933594 135.300781 C 936.441406 133.320312 935.855469 131.410156 935.171875 129.535156 L 944.039062 121.28125 C 942.460938 117.730469 940.613281 114.359375 938.5 111.207031 L 926.761719 114.324219 C 924.292969 111.121094 921.484375 108.230469 918.425781 105.667969 L 921.976562 94.0625 C 918.867188 91.8125 915.574219 89.824219 912.128906 88.125 L 903.53125 96.679688 C 899.835938 95.171875 895.972656 94.039062 891.988281 93.347656 L 889.261719 81.507812 C 885.484375 81.113281 881.644531 81.050781 877.769531 81.3125 L 874.613281 93.011719 C 872.636719 93.285156 870.671875 93.65625 868.691406 94.148438 C 866.722656 94.636719 864.8125 95.222656 862.933594 95.90625 L 854.683594 87.035156 C 851.132812 88.613281 847.765625 90.460938 844.613281 92.574219 L 847.730469 104.316406 C 844.527344 106.789062 841.636719 109.597656 839.0625 112.65625 L 827.476562 109.105469 C 825.226562 112.214844 823.238281 115.511719 821.542969 118.953125 L 830.09375 127.554688 C 828.578125 131.253906 827.453125 135.117188 826.761719 139.101562 L 814.929688 141.828125 C 814.53125 145.605469 814.472656 149.449219 814.730469 153.324219 L 826.425781 156.484375 C 826.699219 158.460938 827.070312 160.425781 827.5625 162.40625 C 828.050781 164.378906 828.636719 166.289062 829.320312 168.164062 L 825.382812 171.832031 L 809.15625 171.832031 C 810.628906 174.597656 811.46875 177.75 811.46875 181.101562 C 811.46875 192.03125 802.613281 200.890625 791.6875 200.890625 C 780.761719 200.890625 771.90625 192.03125 771.90625 181.101562 C 771.90625 177.75 772.746094 174.597656 774.21875 171.832031 L 734.339844 171.832031 C 730.019531 171.832031 726.519531 175.332031 726.519531 179.65625 L 726.519531 215.714844 C 729.363281 214.589844 732.523438 214.085938 735.847656 214.445312 C 745.445312 215.488281 753.007812 223.609375 753.347656 233.257812 C 753.742188 244.429688 744.808594 253.609375 733.726562 253.609375 C 731.179688 253.609375 728.753906 253.109375 726.519531 252.226562 L 726.519531 288.285156 C 726.519531 292.605469 730.023438 296.109375 734.339844 296.109375 L 748.609375 296.109375 C 748.488281 297.554688 749.496094 298.882812 751.769531 299.222656 C 752.53125 299.335938 753.480469 299.445312 754.558594 299.546875 C 753.757812 301.160156 754.347656 302.847656 756.6875 303.117188 C 757.703125 303.234375 759.230469 303.398438 761.039062 303.589844 C 761.476562 304.199219 762.148438 304.710938 763.085938 304.992188 C 767.214844 306.238281 775.117188 307.988281 778.15625 308.652344 C 778.972656 308.828125 779.792969 308.949219 780.625 309.015625 C 780.625 309.015625 796.507812 310.339844 798.886719 310.460938 L 798.9375 310.46875 L 798.9375 310.464844 C 799.484375 310.492188 800.039062 310.503906 800.59375 310.515625 L 834.414062 371.734375 C 840.15625 381.171875 852.460938 384.167969 861.898438 378.425781 C 863.515625 377.441406 870.300781 370.492188 877.207031 363.21875 L 884.324219 373.195312 L 896.003906 346.816406 L 896.308594 350.085938 C 896.34375 350.480469 896.679688 350.777344 897.066406 350.777344 C 897.089844 350.777344 897.113281 350.777344 897.140625 350.773438 C 897.179688 350.769531 897.210938 350.75 897.25 350.742188 C 897.847656 358.824219 898.222656 365.582031 898.222656 369.738281 C 898.222656 385.304688 895.859375 412.722656 895.859375 424.117188 C 895.859375 426.074219 896.792969 427.828125 898.253906 428.960938 L 897.792969 441.472656 C 897.84375 441.464844 897.890625 441.445312 897.941406 441.445312 C 897.441406 441.445312 897.03125 441.851562 897.03125 442.355469 C 897.03125 442.855469 897.441406 443.265625 897.941406 443.265625 C 897.867188 443.265625 897.796875 443.238281 897.730469 443.222656 L 893.6875 553.214844 L 888.40625 677.246094 L 889.226562 677.246094 C 888.625 684.78125 887.523438 689.863281 885.847656 694.105469 C 894.085938 704.980469 904.867188 704.128906 912.046875 701.277344 C 904.867188 704.128906 894.082031 704.980469 885.84375 694.101562 C 880.472656 700.816406 866.402344 709.367188 855.492188 714.667969 L 860.230469 722.066406 L 917.070312 722.066406 C 917.210938 716.21875 916.871094 707.675781 914.445312 700.214844 C 914.410156 693.171875 915.394531 683.730469 916.199219 677.246094 L 919.304688 677.246094 C 926.03125 654.921875 941.644531 599.863281 934.023438 560.308594 L 950.683594 447.375 L 940.769531 446.75 L 954.8125 447.636719 C 954.832031 447.636719 954.847656 447.636719 954.867188 447.636719 C 954.878906 447.636719 954.886719 447.632812 954.894531 447.632812 L 961.902344 677.246094 L 963.632812 677.246094 C 963.621094 677.726562 963.597656 678.191406 963.597656 678.691406 C 963.597656 687.5 963.082031 694.234375 962.652344 703.621094 C 962.621094 704.320312 962.589844 705.042969 962.558594 705.777344 C 962.546875 706.050781 962.535156 706.335938 962.527344 706.613281 C 962.507812 707.03125 962.492188 707.445312 962.476562 707.875 C 962.460938 708.328125 962.441406 708.792969 962.425781 709.261719 C 962.417969 709.53125 962.40625 709.796875 962.398438 710.070312 C 962.378906 710.628906 962.363281 711.199219 962.34375 711.773438 C 962.339844 711.9375 962.335938 712.105469 962.328125 712.273438 C 962.210938 716.359375 962.121094 720.953125 962.097656 726.316406 C 962.09375 727.835938 963.320312 729.082031 964.839844 729.082031 L 1012.980469 729.082031 C 1014.65625 729.082031 1015.96875 727.582031 1015.695312 725.929688 C 1014.679688 719.691406 1010.671875 715.308594 1006.105469 711.140625 C 1006.105469 711.140625 1006.109375 711.144531 1006.113281 711.144531 C 1005.949219 710.992188 1005.777344 710.847656 1005.613281 710.699219 C 1004.234375 709.457031 1002.824219 708.222656 1001.425781 706.96875 C 1001.101562 706.675781 1000.777344 706.378906 1000.457031 706.082031 C 1000.113281 705.765625 999.769531 705.449219 999.429688 705.128906 C 999.085938 704.800781 998.746094 704.46875 998.410156 704.132812 C 998.105469 703.828125 997.800781 703.523438 997.5 703.210938 C 997.160156 702.855469 996.828125 702.484375 996.496094 702.117188 C 996.222656 701.8125 995.949219 701.507812 995.6875 701.195312 C 995.351562 700.792969 995.035156 700.375 994.714844 699.960938 C 994.484375 699.660156 994.25 699.363281 994.03125 699.050781 C 993.695312 698.574219 993.390625 698.070312 993.085938 697.570312 C 992.917969 697.296875 992.734375 697.035156 992.578125 696.753906 C 992.140625 695.96875 991.738281 695.15625 991.386719 694.304688 C 991.382812 694.292969 991.375 694.28125 991.371094 694.269531 C 991.226562 693.921875 991.109375 693.566406 990.976562 693.214844 C 989.035156 687.929688 988.71875 682.597656 988.910156 677.246094 L 992.742188 677.246094 C 995.324219 661.871094 1000.191406 632.367188 1002.527344 614.855469 C 1005.789062 590.375 1000.957031 554.398438 1000.957031 554.398438 L 1003.136719 443.261719 C 1003.144531 443.261719 1003.152344 443.261719 1003.15625 443.261719 C 1003.65625 443.261719 1004.066406 442.855469 1004.066406 442.351562 C 1004.066406 441.855469 1003.667969 441.457031 1003.171875 441.445312 L 1003.410156 429.261719 C 1005.082031 428.148438 1006.171875 426.277344 1006.171875 424.160156 C 1006.171875 419.003906 1005.6875 410.53125 1005.15625 401.355469 C 1009.613281 417.296875 1014.824219 435.878906 1016.699219 442.554688 L 1016.683594 442.558594 C 1016.277344 442.679688 1016.054688 443.105469 1016.175781 443.511719 C 1016.226562 443.6875 1016.34375 443.820312 1016.480469 443.914062 C 1016.34375 444.128906 1016.1875 444.351562 1016.070312 444.566406 C 1013.109375 450.03125 1012.539062 453.71875 1013.394531 461.558594 C 1013.125 461.722656 1012.976562 462.03125 1013.039062 462.347656 C 1012.894531 462.308594 1012.761719 462.246094 1012.609375 462.230469 C 1010.570312 461.980469 1008.800781 463.617188 1008.882812 465.667969 L 1009.316406 476.371094 C 1009.355469 477.367188 1009.839844 478.292969 1010.632812 478.890625 L 1018.132812 484.5625 C 1018.550781 485.292969 1019.050781 485.941406 1019.691406 486.441406 C 1020.179688 486.828125 1020.78125 487.03125 1021.394531 487.03125 C 1021.40625 487.03125 1021.417969 487.023438 1021.429688 487.023438 C 1022.605469 487.824219 1024.15625 487.816406 1025.300781 486.949219 L 1040.519531 475.460938 C 1041.390625 474.804688 1041.886719 473.761719 1041.839844 472.667969 Z M 964.75 704.058594 C 964.898438 704.0625 965.046875 704.070312 965.199219 704.0625 C 965.046875 704.066406 964.898438 704.0625 964.75 704.058594 Z M 969.851562 702.003906 C 970.203125 701.699219 970.554688 701.371094 970.914062 700.988281 C 971.371094 700.5 971.832031 700.035156 972.292969 699.585938 C 971.832031 700.035156 971.371094 700.5 970.917969 700.984375 C 970.558594 701.371094 970.203125 701.699219 969.851562 702.003906 Z M 965.625 704.027344 C 965.796875 704.011719 965.972656 703.980469 966.144531 703.945312 C 965.972656 703.980469 965.796875 704.011719 965.625 704.027344 Z M 966.535156 703.863281 C 966.835938 703.785156 967.140625 703.683594 967.449219 703.554688 C 967.140625 703.683594 966.835938 703.785156 966.535156 703.863281 Z M 967.675781 703.4375 C 967.929688 703.320312 968.191406 703.183594 968.453125 703.027344 C 968.191406 703.183594 967.933594 703.320312 967.675781 703.4375 Z M 968.796875 702.804688 C 969.039062 702.640625 969.28125 702.460938 969.527344 702.261719 C 969.28125 702.460938 969.039062 702.644531 968.796875 702.804688 Z M 985.875 692.515625 C 985.019531 692.558594 984.164062 692.683594 983.3125 692.882812 C 982.824219 692.996094 982.339844 693.140625 981.855469 693.304688 C 984.03125 692.574219 986.226562 692.320312 988.425781 692.621094 C 987.574219 692.507812 986.726562 692.472656 985.875 692.515625 Z M 972.710938 699.1875 C 973.039062 698.878906 973.367188 698.578125 973.695312 698.285156 C 973.367188 698.578125 973.039062 698.878906 972.710938 699.1875 Z M 974.179688 697.867188 C 974.507812 697.589844 974.835938 697.320312 975.167969 697.0625 C 974.835938 697.320312 974.507812 697.589844 974.179688 697.867188 Z M 975.601562 696.722656 C 976.542969 696.007812 977.492188 695.382812 978.445312 694.839844 C 977.492188 695.382812 976.542969 696.007812 975.601562 696.722656 Z M 978.878906 694.609375 C 979.21875 694.425781 979.558594 694.253906 979.898438 694.09375 C 979.558594 694.253906 979.21875 694.425781 978.878906 694.609375 Z M 980.390625 693.871094 C 980.734375 693.722656 981.078125 693.585938 981.421875 693.460938 C 981.078125 693.585938 980.734375 693.722656 980.390625 693.871094 Z M 989.699219 692.855469 C 989.316406 692.765625 988.933594 692.699219 988.554688 692.644531 C 988.933594 692.699219 989.316406 692.765625 989.699219 692.855469 Z M 991.207031 431.683594 C 990.695312 431.746094 990.191406 431.820312 989.683594 431.886719 C 990.941406 431.726562 992.195312 431.558594 993.441406 431.382812 C 992.699219 431.488281 991.957031 431.59375 991.207031 431.691406 C 991.207031 431.6875 991.207031 431.683594 991.207031 431.683594 Z M 995.394531 431.117188 C 997.285156 430.839844 999.164062 430.546875 1001.023438 430.230469 C 999.164062 430.546875 997.285156 430.839844 995.394531 431.117188 Z M 987.265625 432.167969 C 986.148438 432.296875 985.03125 432.425781 983.90625 432.539062 C 985.03125 432.421875 986.148438 432.296875 987.265625 432.167969 Z M 981.214844 432.800781 C 980.175781 432.898438 979.132812 432.992188 978.089844 433.078125 C 979.132812 432.992188 980.175781 432.898438 981.214844 432.800781 Z M 975.175781 433.304688 C 974.203125 433.375 973.226562 433.441406 972.246094 433.503906 C 973.226562 433.441406 974.203125 433.375 975.175781 433.304688 Z M 969.125 433.691406 C 968.234375 433.738281 967.339844 433.777344 966.445312 433.816406 C 967.339844 433.777344 968.234375 433.738281 969.125 433.691406 Z M 875.234375 120.5625 C 890.855469 116.691406 906.65625 126.222656 910.523438 141.84375 C 914.390625 157.457031 904.863281 173.265625 889.246094 177.136719 C 873.636719 181.003906 857.835938 171.472656 853.96875 155.859375 C 850.101562 140.238281 859.625 124.429688 875.234375 120.5625 Z M 893.84375 268.035156 C 893.820312 268.042969 893.800781 268.058594 893.78125 268.066406 C 888.808594 269.792969 884.519531 273.445312 882.144531 278.621094 L 853.179688 329.53125 L 872.09375 356.046875 L 854.554688 331.460938 L 853.171875 332.855469 L 824.867188 296.109375 L 842.9375 296.109375 C 847.257812 296.109375 850.761719 292.605469 850.761719 288.285156 L 850.761719 208.738281 C 851.292969 209.019531 851.820312 209.304688 852.359375 209.570312 L 860.949219 201.019531 C 864.65625 202.535156 868.519531 203.660156 872.503906 204.347656 L 875.230469 216.1875 C 879.003906 216.585938 882.84375 216.644531 886.722656 216.386719 L 889.878906 204.683594 C 891.855469 204.414062 893.820312 204.039062 895.789062 203.554688 C 897.769531 203.0625 899.679688 202.476562 901.554688 201.789062 L 909.808594 210.664062 C 913.355469 209.082031 916.726562 207.238281 919.878906 205.121094 L 916.761719 193.378906 C 919.964844 190.90625 922.855469 188.109375 925.414062 185.039062 L 925.988281 185.214844 C 926.148438 185.78125 926.363281 186.285156 926.613281 186.742188 C 924.9375 190.0625 923.847656 193.742188 923.523438 197.671875 C 923.105469 202.796875 924.007812 207.71875 925.953125 212.109375 C 925.917969 212.90625 925.910156 213.355469 925.910156 213.355469 L 926.191406 229.773438 C 926.316406 237.203125 930 243.90625 935.644531 247.992188 L 935.566406 256.699219 C 921.769531 258.386719 907.925781 262.15625 893.84375 268.035156 Z M 929.976562 189.363281 C 929.75 190.066406 929.539062 190.765625 929.335938 191.464844 C 929.539062 190.765625 929.75 190.066406 929.976562 189.363281 Z M 929.15625 192.117188 C 929.019531 192.601562 928.886719 193.082031 928.765625 193.5625 C 928.886719 193.082031 929.019531 192.601562 929.15625 192.117188 Z M 928.582031 194.28125 C 928.460938 194.753906 928.347656 195.222656 928.242188 195.6875 C 928.351562 195.222656 928.460938 194.753906 928.582031 194.28125 Z M 928.09375 196.328125 C 927.960938 196.921875 927.835938 197.511719 927.71875 198.089844 C 927.835938 197.511719 927.960938 196.921875 928.09375 196.328125 Z M 927.675781 198.292969 C 927.542969 198.945312 927.425781 199.585938 927.3125 200.210938 C 927.425781 199.585938 927.542969 198.945312 927.675781 198.292969 Z M 927.226562 200.730469 C 927.148438 201.179688 927.074219 201.625 927.003906 202.058594 C 927.074219 201.625 927.148438 201.179688 927.226562 200.730469 Z M 926.910156 202.660156 C 926.851562 203.066406 926.792969 203.464844 926.738281 203.855469 C 926.792969 203.464844 926.851562 203.066406 926.910156 202.660156 Z M 926.664062 204.390625 C 926.601562 204.851562 926.546875 205.300781 926.496094 205.734375 C 926.542969 205.300781 926.601562 204.851562 926.664062 204.390625 Z M 926.464844 205.980469 C 926.402344 206.496094 926.351562 206.988281 926.300781 207.460938 C 926.351562 206.988281 926.402344 206.496094 926.464844 205.980469 Z M 926.265625 207.847656 C 926.234375 208.175781 926.203125 208.492188 926.175781 208.796875 C 926.203125 208.492188 926.234375 208.175781 926.265625 207.847656 Z M 926.136719 209.269531 C 926.117188 209.519531 926.097656 209.761719 926.082031 209.988281 C 926.097656 209.757812 926.117188 209.519531 926.136719 209.269531 Z M 926.046875 210.433594 C 926.035156 210.644531 926.023438 210.835938 926.011719 211.023438 C 926.023438 210.832031 926.035156 210.644531 926.046875 210.433594 Z M 925.988281 211.40625 C 925.980469 211.519531 925.976562 211.605469 925.972656 211.710938 C 925.976562 211.605469 925.980469 211.515625 925.988281 211.40625 Z M 911.824219 431.714844 C 911.742188 431.703125 911.660156 431.691406 911.578125 431.679688 C 911.625 431.6875 911.667969 431.691406 911.714844 431.699219 C 911.75 431.703125 911.789062 431.707031 911.824219 431.714844 Z M 899.78125 429.820312 C 899.609375 429.753906 899.445312 429.679688 899.28125 429.59375 C 899.445312 429.675781 899.609375 429.757812 899.78125 429.820312 Z M 901.058594 430.1875 C 900.734375 430.136719 900.425781 430.050781 900.121094 429.949219 C 900.425781 430.050781 900.738281 430.136719 901.058594 430.1875 Z M 916.796875 432.285156 C 916.972656 432.300781 917.152344 432.324219 917.332031 432.34375 C 917.152344 432.324219 916.972656 432.300781 916.796875 432.285156 Z M 933.871094 433.660156 C 934.097656 433.671875 934.324219 433.683594 934.550781 433.695312 C 934.320312 433.683594 934.097656 433.671875 933.871094 433.660156 Z M 922.339844 432.828125 C 922.597656 432.851562 922.859375 432.875 923.117188 432.898438 C 922.859375 432.875 922.597656 432.855469 922.339844 432.828125 Z M 928.058594 433.292969 C 928.332031 433.3125 928.609375 433.332031 928.886719 433.351562 C 928.609375 433.332031 928.335938 433.3125 928.058594 433.292969 Z M 955.5 447.382812 C 955.515625 447.367188 955.519531 447.347656 955.535156 447.332031 C 955.523438 447.347656 955.515625 447.367188 955.5 447.382812 Z M 955.691406 447.117188 C 955.738281 447.015625 955.769531 446.90625 955.777344 446.785156 C 955.769531 446.90625 955.742188 447.019531 955.691406 447.117188 Z M 960.820312 434.019531 C 961.5625 434 962.308594 433.984375 963.050781 433.957031 C 962.308594 433.984375 961.5625 434 960.820312 434.019531 Z M 956.078125 434.117188 C 956.367188 434.117188 956.660156 434.117188 956.949219 434.109375 C 956.660156 434.117188 956.367188 434.117188 956.078125 434.117188 Z M 989.722656 432.832031 C 989.59375 432.527344 989.472656 432.222656 989.359375 431.929688 C 989.472656 432.222656 989.59375 432.527344 989.722656 432.832031 Z M 992.398438 437.582031 C 992.398438 437.578125 992.394531 437.574219 992.390625 437.574219 C 992.394531 437.574219 992.394531 437.578125 992.398438 437.582031 Z M 990.613281 434.722656 C 990.597656 434.691406 990.585938 434.664062 990.570312 434.632812 C 990.585938 434.664062 990.597656 434.691406 990.613281 434.722656 Z M 1002.257812 429.875 C 1002.289062 429.863281 1002.3125 429.847656 1002.34375 429.835938 C 1002.316406 429.847656 1002.289062 429.863281 1002.257812 429.875 Z M 1004.707031 393.457031 C 1004.769531 394.613281 1004.835938 395.769531 1004.902344 396.921875 C 1004.835938 395.769531 1004.769531 394.613281 1004.707031 393.457031 Z M 1004.277344 385.300781 C 1004.335938 386.472656 1004.394531 387.664062 1004.457031 388.855469 C 1004.394531 387.660156 1004.335938 386.472656 1004.277344 385.300781 Z M 1004.507812 389.871094 C 1004.5625 390.894531 1004.621094 391.914062 1004.675781 392.941406 C 1004.621094 391.914062 1004.566406 390.894531 1004.507812 389.871094 Z M 1005 398.667969 C 1005.023438 399.0625 1005.046875 399.460938 1005.070312 399.855469 C 1005.046875 399.460938 1005.023438 399.0625 1005 398.667969 Z M 1005 398.667969 " fill-opacity="1" fill-rule="nonzero"/></g><g clip-path="url(#d448a839ca)"><path fill="#eaeaea" d="M 842.269531 725.984375 C 842.050781 727.625 843.335938 729.085938 844.992188 729.085938 L 914.128906 729.085938 C 915.5625 729.085938 916.757812 727.980469 916.863281 726.550781 C 916.949219 725.378906 917.03125 723.839844 917.074219 722.066406 L 860.234375 722.066406 L 855.496094 714.667969 C 853.839844 715.472656 852.253906 716.207031 850.78125 716.84375 C 844.316406 719.644531 842.683594 722.875 842.269531 725.984375 Z M 842.269531 725.984375 " fill-opacity="1" fill-rule="nonzero"/></g><path fill="#eaeaea" d="M 574.300781 363.535156 C 574.300781 367.835938 577.785156 371.320312 582.085938 371.320312 L 616.492188 371.320312 C 615.566406 369.019531 615.046875 366.515625 615.046875 363.882812 C 615.046875 352.832031 624.003906 343.871094 635.050781 343.871094 C 646.101562 343.871094 655.058594 352.832031 655.058594 363.882812 C 655.058594 366.515625 654.535156 369.019531 653.609375 371.320312 L 690.152344 371.320312 C 694.449219 371.320312 697.933594 367.835938 697.933594 363.535156 L 697.933594 326.175781 C 700.710938 327.664062 703.882812 328.511719 707.253906 328.511719 C 718.179688 328.511719 727.035156 319.652344 727.035156 308.722656 C 727.035156 297.792969 718.179688 288.933594 707.253906 288.933594 C 703.882812 288.933594 700.710938 289.78125 697.933594 291.269531 L 697.933594 255.433594 C 697.933594 251.132812 694.449219 247.644531 690.152344 247.644531 L 620.660156 247.644531 C 620.703125 247.449219 620.75 247.242188 620.789062 247.046875 L 623.675781 241.84375 C 624.527344 239.980469 623.539062 237.796875 621.578125 237.203125 C 620.230469 236.792969 618.878906 237.285156 618.023438 238.304688 C 617.898438 236.761719 616.816406 235.375 615.195312 234.980469 C 613.355469 234.53125 611.59375 235.554688 610.871094 237.246094 C 610.945312 235.28125 609.476562 233.527344 607.433594 233.347656 C 605.304688 233.164062 603.546875 234.796875 603.335938 236.921875 C 603.324219 237.058594 603.308594 237.242188 603.296875 237.441406 L 600.847656 237.222656 C 600.230469 235.554688 598.496094 234.472656 596.640625 234.8125 C 595.515625 235.023438 594.640625 235.710938 594.117188 236.628906 L 593.683594 236.589844 C 593.683594 236.589844 592.984375 240.691406 592.101562 247.09375 C 591.394531 245.785156 590.527344 244.097656 589.679688 242.296875 C 588.648438 240.101562 587.488281 238.535156 586.351562 237.453125 C 587.265625 235.832031 588.152344 234.195312 588.976562 232.523438 L 581.742188 225.25 C 583.164062 217.929688 584.96875 211.449219 585.652344 201.53125 L 598.8125 198.5 C 599.402344 192.886719 599.492188 187.171875 599.105469 181.40625 L 581.710938 176.710938 C 581.308594 173.765625 580.757812 170.84375 580.03125 167.914062 C 579.300781 164.96875 578.425781 162.125 577.410156 159.335938 L 590.601562 147.058594 C 588.25 141.78125 585.507812 136.769531 582.363281 132.078125 L 564.90625 136.710938 C 561.230469 131.949219 557.058594 127.652344 552.507812 123.839844 L 557.785156 106.585938 C 553.164062 103.238281 548.261719 100.28125 543.144531 97.757812 L 530.355469 110.480469 C 524.863281 108.234375 519.113281 106.550781 513.1875 105.523438 L 509.136719 87.921875 C 503.523438 87.332031 497.808594 87.242188 492.046875 87.628906 L 487.351562 105.027344 C 484.410156 105.433594 481.488281 105.984375 478.542969 106.714844 C 475.613281 107.441406 472.773438 108.316406 469.980469 109.332031 L 457.710938 96.136719 C 452.433594 98.488281 447.421875 101.234375 442.734375 104.378906 L 447.367188 121.839844 C 442.605469 125.515625 438.308594 129.691406 434.480469 134.246094 L 417.25 128.964844 C 413.902344 133.589844 410.945312 138.492188 408.421875 143.609375 L 421.140625 156.40625 C 418.882812 161.902344 417.210938 167.648438 416.1875 173.578125 L 398.585938 177.628906 C 397.996094 183.246094 397.90625 188.957031 398.292969 194.722656 L 415.6875 199.417969 C 416.089844 202.363281 416.644531 205.285156 417.371094 208.230469 C 418.101562 211.160156 418.972656 214.003906 419.988281 216.792969 L 406.796875 229.070312 C 409.148438 234.347656 411.890625 239.359375 415.035156 244.050781 L 432.492188 239.417969 C 436.167969 244.179688 440.324219 248.484375 444.894531 252.308594 L 439.613281 269.542969 C 442.636719 271.734375 445.789062 273.738281 449.035156 275.582031 C 435.160156 300.773438 429.539062 334.171875 452.945312 356.027344 C 453.65625 355.339844 454.320312 354.71875 454.910156 354.175781 C 455.589844 354.773438 456.390625 355.257812 457.285156 355.585938 C 457.582031 355.695312 457.890625 355.796875 458.191406 355.902344 L 453.40625 356.480469 C 453.242188 356.332031 453.105469 356.175781 452.945312 356.027344 C 443.214844 365.421875 423.195312 388.171875 423.195312 416.332031 L 424.703125 496.144531 C 424.863281 507.167969 423.03125 518.128906 419.242188 528.476562 C 403.398438 571.722656 406.378906 641.328125 406.378906 671.515625 L 409.058594 671.515625 C 409.066406 675.488281 409.035156 679.902344 408.933594 684.480469 C 408.933594 684.480469 408.933594 684.484375 408.933594 684.488281 C 408.933594 684.484375 408.933594 684.480469 408.933594 684.480469 C 407.808594 692.90625 406.335938 699.160156 406.152344 707.164062 L 405.992188 707.164062 C 405.570312 707.164062 405.226562 707.503906 405.226562 707.925781 C 405.226562 708.347656 405.570312 708.691406 405.992188 708.691406 L 406.136719 708.691406 C 406.132812 710.441406 406.183594 712.273438 406.324219 714.242188 L 450.644531 714.242188 C 450.5625 711.777344 449.980469 709.738281 449.089844 707.96875 C 449.089844 707.953125 449.097656 707.941406 449.097656 707.925781 C 449.097656 707.652344 448.945312 707.425781 448.730469 707.289062 C 444.269531 699.433594 433.589844 696.929688 433.515625 684.859375 C 433.355469 683.894531 433.074219 683.113281 432.703125 682.480469 C 432.882812 682.785156 433.042969 683.125 433.175781 683.503906 C 433.25 679.742188 433.535156 675.554688 433.90625 671.515625 L 436.949219 671.515625 L 470.171875 527.859375 L 474.160156 500.597656 C 474.175781 500.761719 474.183594 500.925781 474.203125 501.089844 L 472.246094 515.902344 C 472.179688 516.402344 472.53125 516.859375 473.03125 516.925781 C 473.070312 516.929688 473.113281 516.933594 473.152344 516.933594 C 473.601562 516.933594 473.992188 516.597656 474.050781 516.140625 L 486.839844 419.230469 L 474.660156 511.527344 C 474.574219 517.296875 473.921875 522.972656 472.683594 528.476562 C 462.941406 571.722656 472.359375 641.328125 476.617188 671.515625 L 478.1875 671.515625 C 478.277344 676.902344 477.941406 682.160156 476.871094 686.832031 C 476.863281 686.851562 473.683594 695.140625 473.90625 707.164062 C 473.488281 707.167969 473.148438 707.507812 473.148438 707.925781 C 473.148438 708.347656 473.492188 708.691406 473.914062 708.691406 L 473.945312 708.691406 C 474.019531 710.476562 474.167969 712.332031 474.421875 714.25 L 549.328125 714.242188 C 549.328125 714.242188 549.917969 711.605469 548.496094 708.597656 C 548.742188 708.472656 548.914062 708.222656 548.914062 707.925781 C 548.914062 707.503906 548.574219 707.160156 548.152344 707.160156 L 547.652344 707.160156 C 546.40625 705.367188 544.347656 703.566406 540.90625 702.214844 C 531.6875 698.59375 519.886719 695.789062 506.539062 681.316406 C 495.195312 693.007812 478.59375 687.445312 477.007812 686.878906 C 478.589844 687.445312 495.105469 692.972656 506.445312 681.40625 C 506.234375 678.445312 506.179688 675.0625 506.214844 671.515625 L 507.1875 671.515625 L 520.355469 527.855469 L 517.277344 403.042969 L 517.277344 361.054688 C 518.273438 360.707031 519.164062 360.148438 519.917969 359.429688 C 524.652344 361.839844 530.5625 361.394531 534.933594 357.808594 L 589.148438 313.363281 L 574.300781 325.535156 Z M 431.730469 681.363281 C 431.597656 681.253906 431.472656 681.140625 431.332031 681.050781 C 431.472656 681.140625 431.597656 681.257812 431.730469 681.363281 Z M 430.917969 680.839844 C 430.769531 680.765625 430.625 680.691406 430.46875 680.632812 C 430.625 680.691406 430.769531 680.765625 430.917969 680.839844 Z M 430.003906 680.503906 C 429.84375 680.464844 429.679688 680.421875 429.511719 680.394531 C 429.679688 680.421875 429.84375 680.464844 430.003906 680.503906 Z M 429.007812 680.34375 C 428.832031 680.328125 428.652344 680.316406 428.46875 680.316406 C 428.652344 680.316406 428.828125 680.328125 429.007812 680.34375 Z M 427.933594 680.335938 C 427.746094 680.34375 427.554688 680.359375 427.363281 680.382812 C 427.554688 680.359375 427.746094 680.347656 427.933594 680.335938 Z M 426.800781 680.464844 C 426.601562 680.496094 426.402344 680.535156 426.199219 680.578125 C 426.402344 680.535156 426.601562 680.496094 426.800781 680.464844 Z M 425.625 680.714844 C 425.414062 680.765625 425.207031 680.824219 424.996094 680.886719 C 425.207031 680.828125 425.414062 680.765625 425.625 680.714844 Z M 424.414062 681.066406 C 424.199219 681.140625 423.984375 681.214844 423.765625 681.296875 C 423.984375 681.214844 424.199219 681.140625 424.414062 681.066406 Z M 423.191406 681.507812 C 422.96875 681.597656 422.746094 681.691406 422.523438 681.785156 C 422.746094 681.691406 422.96875 681.597656 423.191406 681.507812 Z M 421.964844 682.023438 C 421.738281 682.125 421.507812 682.234375 421.285156 682.339844 C 421.507812 682.234375 421.734375 682.125 421.964844 682.023438 Z M 420.753906 682.59375 C 420.515625 682.710938 420.277344 682.832031 420.042969 682.957031 C 420.277344 682.832031 420.515625 682.710938 420.753906 682.59375 Z M 419.566406 683.203125 C 419.304688 683.34375 419.046875 683.488281 418.789062 683.632812 C 419.046875 683.492188 419.300781 683.34375 419.566406 683.203125 Z M 418.425781 683.835938 C 418.050781 684.050781 417.6875 684.265625 417.335938 684.480469 C 417.6875 684.265625 418.050781 684.050781 418.425781 683.835938 Z M 432.078125 681.660156 C 432.207031 681.792969 432.320312 681.960938 432.433594 682.121094 C 432.320312 681.960938 432.207031 681.792969 432.078125 681.660156 Z M 582.027344 247.65625 C 581.265625 247.660156 580.546875 247.804688 579.855469 248.011719 C 579.847656 247.699219 579.84375 247.386719 579.835938 247.078125 L 580.148438 247.171875 C 580.675781 246.441406 581.179688 245.695312 581.6875 244.953125 C 581.796875 245.832031 581.90625 246.730469 582.027344 247.65625 Z M 528.324219 271.253906 C 528.222656 271.148438 528.121094 271.046875 528.019531 270.941406 C 528.121094 271.046875 528.222656 271.148438 528.324219 271.253906 Z M 475.085938 360.5 C 474.953125 360.476562 474.824219 360.453125 474.695312 360.425781 C 474.820312 360.453125 474.953125 360.476562 475.085938 360.5 Z M 471.460938 359.734375 C 471.375 359.714844 471.292969 359.699219 471.207031 359.679688 C 471.292969 359.699219 471.375 359.714844 471.460938 359.734375 Z M 467.929688 358.878906 C 467.890625 358.871094 467.851562 358.859375 467.816406 358.851562 C 467.855469 358.859375 467.890625 358.867188 467.929688 358.878906 Z M 478.820312 361.175781 C 478.628906 361.144531 478.4375 361.117188 478.25 361.085938 C 478.4375 361.117188 478.628906 361.144531 478.820312 361.175781 Z M 494.488281 362.746094 C 494.019531 362.730469 493.554688 362.722656 493.085938 362.703125 C 493.554688 362.722656 494.019531 362.730469 494.488281 362.746094 Z M 490.503906 362.539062 C 490.101562 362.511719 489.699219 362.492188 489.300781 362.460938 C 489.703125 362.492188 490.101562 362.511719 490.503906 362.539062 Z M 486.550781 362.203125 C 486.222656 362.171875 485.890625 362.144531 485.5625 362.109375 C 485.890625 362.144531 486.222656 362.171875 486.550781 362.203125 Z M 482.644531 361.746094 C 482.386719 361.710938 482.128906 361.683594 481.875 361.644531 C 482.132812 361.683594 482.386719 361.710938 482.644531 361.746094 Z M 496.898438 362.820312 C 497.4375 362.828125 497.980469 362.820312 498.519531 362.820312 C 497.980469 362.820312 497.441406 362.828125 496.898438 362.820312 Z M 529.875 272.933594 C 529.964844 273.035156 530.054688 273.132812 530.140625 273.238281 C 530.054688 273.132812 529.964844 273.035156 529.875 272.933594 Z M 531.796875 275.335938 C 532.210938 275.589844 532.625 275.855469 533.023438 276.148438 C 532.621094 275.855469 532.210938 275.59375 531.796875 275.335938 Z M 488.273438 146.003906 C 507.136719 141.328125 526.175781 149.796875 535.75 165.589844 C 535.339844 165.667969 534.933594 165.734375 534.515625 165.824219 C 510.089844 170.273438 495.941406 169.507812 491.058594 197.425781 C 488.265625 213.394531 489.023438 221.390625 485.683594 229.40625 C 471.773438 225.007812 460.414062 213.691406 456.648438 198.496094 C 450.894531 175.261719 465.0625 151.753906 488.273438 146.003906 Z M 452.535156 346.894531 C 452.441406 347.308594 452.394531 347.722656 452.371094 348.136719 C 452.394531 347.722656 452.441406 347.308594 452.535156 346.894531 Z M 452.363281 348.5 C 452.363281 348.800781 452.375 349.101562 452.410156 349.394531 C 452.375 349.101562 452.363281 348.800781 452.363281 348.5 Z M 452.726562 350.90625 C 452.601562 350.53125 452.515625 350.144531 452.453125 349.753906 C 452.515625 350.144531 452.605469 350.53125 452.726562 350.90625 Z M 452.765625 350.996094 C 452.886719 351.339844 453.035156 351.667969 453.203125 351.988281 C 453.035156 351.671875 452.886719 351.339844 452.765625 350.996094 Z M 454.101562 353.335938 C 454.351562 353.632812 454.617188 353.917969 454.910156 354.171875 C 454.613281 353.917969 454.351562 353.632812 454.101562 353.335938 Z M 453.398438 352.335938 C 453.539062 352.570312 453.691406 352.800781 453.859375 353.019531 C 453.691406 352.800781 453.539062 352.570312 453.398438 352.335938 Z M 464.550781 357.953125 C 464.535156 357.949219 464.519531 357.945312 464.503906 357.941406 C 464.519531 357.945312 464.535156 357.949219 464.550781 357.953125 Z M 504.589844 362.671875 C 505.28125 362.632812 505.972656 362.570312 506.664062 362.519531 C 505.972656 362.570312 505.28125 362.632812 504.589844 362.671875 Z M 500.742188 362.8125 C 501.351562 362.800781 501.964844 362.769531 502.578125 362.746094 C 501.964844 362.769531 501.351562 362.800781 500.742188 362.8125 Z M 512.285156 361.957031 C 513.5625 361.789062 514.839844 361.59375 516.109375 361.371094 C 514.835938 361.59375 513.5625 361.789062 512.285156 361.957031 Z M 508.445312 362.386719 C 509.261719 362.3125 510.074219 362.210938 510.886719 362.113281 C 510.074219 362.210938 509.261719 362.3125 508.445312 362.386719 Z M 532.101562 325 C 532.484375 323.664062 532.867188 322.328125 533.234375 320.992188 L 535.542969 322.703125 Z M 574.128906 296.996094 C 574.183594 296.613281 574.238281 296.230469 574.300781 295.851562 L 574.300781 296.882812 L 578.34375 294.1875 Z M 574.128906 296.996094 " fill-opacity="1" fill-rule="nonzero"/><path fill="#eaeaea" d="M 469.984375 109.332031 L 457.710938 96.136719 C 452.433594 98.488281 447.425781 101.234375 442.734375 104.375 L 447.371094 121.839844 C 442.609375 125.515625 438.3125 129.691406 434.484375 134.246094 L 417.253906 128.960938 C 413.902344 133.585938 410.949219 138.488281 408.425781 143.609375 L 421.144531 156.402344 C 418.882812 161.902344 417.214844 167.644531 416.1875 173.574219 L 398.585938 177.628906 C 397.996094 183.246094 397.90625 188.957031 398.292969 194.722656 L 415.6875 199.417969 C 416.089844 202.363281 416.644531 205.285156 417.371094 208.230469 C 418.097656 211.160156 418.972656 214.003906 419.988281 216.792969 L 406.796875 229.070312 C 409.148438 234.347656 411.890625 239.359375 415.035156 244.050781 L 432.492188 239.417969 C 436.167969 244.179688 440.324219 248.484375 444.894531 252.308594 L 439.613281 269.542969 C 444.234375 272.894531 449.132812 275.847656 454.253906 278.375 L 467.027344 265.65625 C 472.539062 267.914062 478.285156 269.585938 484.210938 270.609375 L 488.261719 288.214844 C 493.875 288.808594 499.585938 288.894531 505.351562 288.511719 L 510.046875 271.109375 C 512.988281 270.707031 515.910156 270.152344 518.839844 269.425781 C 521.785156 268.695312 524.625 267.820312 527.414062 266.804688 L 539.6875 280 C 544.964844 277.648438 549.972656 274.902344 554.660156 271.761719 L 550.03125 254.296875 C 554.792969 250.621094 559.09375 246.460938 562.898438 241.894531 L 580.148438 247.175781 C 583.496094 242.550781 586.449219 237.648438 588.976562 232.527344 L 576.261719 219.75 C 578.5 214.242188 580.1875 208.492188 581.210938 202.5625 L 598.8125 198.507812 C 599.402344 192.890625 599.492188 187.179688 599.105469 181.414062 L 581.710938 176.71875 C 581.308594 173.773438 580.753906 170.851562 580.03125 167.921875 C 579.300781 164.976562 578.425781 162.132812 577.410156 159.34375 L 590.601562 147.066406 C 588.25 141.789062 585.507812 136.777344 582.363281 132.085938 L 564.90625 136.71875 C 561.230469 131.957031 557.058594 127.660156 552.507812 123.847656 L 557.785156 106.59375 C 553.164062 103.242188 548.261719 100.289062 543.144531 97.761719 L 530.355469 110.484375 C 524.863281 108.242188 519.113281 106.554688 513.1875 105.527344 L 509.136719 87.921875 C 503.523438 87.332031 497.808594 87.242188 492.046875 87.628906 L 487.351562 105.027344 C 484.410156 105.433594 481.488281 105.984375 478.542969 106.714844 C 475.613281 107.441406 472.773438 108.316406 469.984375 109.332031 Z M 488.273438 146.003906 C 511.5 140.246094 535 154.417969 540.753906 177.65625 C 546.503906 200.875 532.335938 224.378906 509.109375 230.136719 C 485.898438 235.890625 462.402344 221.71875 456.648438 198.5 C 450.894531 175.261719 465.0625 151.753906 488.273438 146.003906 Z M 862.933594 95.902344 L 854.683594 87.03125 C 851.136719 88.613281 847.765625 90.457031 844.613281 92.570312 L 847.730469 104.3125 C 844.527344 106.785156 841.640625 109.59375 839.066406 112.65625 L 827.480469 109.101562 C 825.230469 112.210938 823.242188 115.507812 821.542969 118.953125 L 830.09375 127.554688 C 828.578125 131.25 827.453125 135.113281 826.761719 139.101562 L 814.929688 141.828125 C 814.53125 145.605469 814.472656 149.445312 814.730469 153.324219 L 826.425781 156.480469 C 826.699219 158.460938 827.070312 160.421875 827.5625 162.40625 C 828.050781 164.375 828.640625 166.285156 829.320312 168.164062 L 820.453125 176.417969 C 822.03125 179.96875 823.878906 183.335938 825.992188 186.492188 L 837.730469 183.375 C 840.199219 186.578125 842.996094 189.46875 846.070312 192.042969 L 842.515625 203.632812 C 845.625 205.882812 848.921875 207.871094 852.363281 209.570312 L 860.949219 201.019531 C 864.65625 202.535156 868.519531 203.65625 872.503906 204.347656 L 875.230469 216.1875 C 879.007812 216.582031 882.847656 216.644531 886.722656 216.382812 L 889.878906 204.683594 C 891.855469 204.410156 893.820312 204.039062 895.789062 203.550781 C 897.769531 203.0625 899.683594 202.472656 901.558594 201.789062 L 909.808594 210.660156 C 913.359375 209.082031 916.726562 207.234375 919.878906 205.121094 L 916.761719 193.378906 C 919.964844 190.90625 922.855469 188.109375 925.417969 185.039062 L 937.015625 188.589844 C 939.265625 185.480469 941.253906 182.183594 942.953125 178.742188 L 934.402344 170.148438 C 935.90625 166.445312 937.039062 162.578125 937.730469 158.589844 L 949.566406 155.863281 C 949.960938 152.085938 950.023438 148.246094 949.761719 144.367188 L 938.066406 141.210938 C 937.792969 139.234375 937.421875 137.269531 936.933594 135.296875 C 936.445312 133.316406 935.855469 131.40625 935.171875 129.527344 L 944.042969 121.273438 C 942.460938 117.722656 940.617188 114.351562 938.503906 111.199219 L 926.765625 114.316406 C 924.292969 111.113281 921.488281 108.222656 918.429688 105.660156 L 921.976562 94.058594 C 918.871094 91.804688 915.574219 89.820312 912.132812 88.121094 L 903.53125 96.675781 C 899.839844 95.164062 895.972656 94.03125 891.988281 93.339844 L 889.261719 81.503906 C 885.488281 81.105469 881.648438 81.046875 877.769531 81.304688 L 874.613281 93.003906 C 872.636719 93.277344 870.671875 93.648438 868.691406 94.140625 C 866.722656 94.632812 864.8125 95.21875 862.933594 95.902344 Z M 875.234375 120.5625 C 890.855469 116.691406 906.65625 126.222656 910.523438 141.84375 C 914.390625 157.457031 904.863281 173.265625 889.246094 177.136719 C 873.636719 181.003906 857.835938 171.472656 853.96875 155.859375 C 850.101562 140.238281 859.625 124.429688 875.234375 120.5625 Z M 675.121094 499.523438 L 661.070312 487.441406 C 655.945312 490.445312 651.140625 493.824219 646.707031 497.574219 L 653.4375 514.890625 C 648.988281 519.191406 645.074219 523.949219 641.6875 529.039062 L 623.472656 525.609375 C 620.578125 530.71875 618.121094 536.066406 616.125 541.585938 L 630.582031 553.207031 C 628.902344 559.085938 627.851562 565.148438 627.480469 571.320312 L 609.957031 577.476562 C 609.996094 583.28125 610.554688 589.128906 611.609375 594.980469 L 629.921875 597.789062 C 630.667969 600.75 631.570312 603.671875 632.652344 606.601562 C 633.726562 609.511719 634.945312 612.316406 636.304688 615.054688 L 624.226562 629.105469 C 627.230469 634.230469 630.605469 639.039062 634.355469 643.472656 L 651.664062 636.742188 C 655.964844 641.191406 660.703125 645.113281 665.8125 648.496094 L 662.382812 666.714844 C 667.488281 669.609375 672.832031 672.070312 678.351562 674.066406 L 689.953125 659.609375 C 695.84375 661.285156 701.90625 662.335938 708.078125 662.707031 L 714.230469 680.234375 C 720.035156 680.199219 725.882812 679.636719 731.730469 678.582031 L 734.539062 660.265625 C 737.496094 659.515625 740.417969 658.617188 743.332031 657.539062 C 746.257812 656.457031 749.0625 655.238281 751.796875 653.882812 L 765.84375 665.964844 C 770.96875 662.957031 775.773438 659.582031 780.207031 655.832031 L 773.476562 638.515625 C 777.925781 634.214844 781.84375 629.472656 785.210938 624.371094 L 803.441406 627.792969 C 806.335938 622.683594 808.792969 617.339844 810.789062 611.816406 L 796.335938 600.214844 C 797.996094 594.324219 799.0625 588.257812 799.433594 582.082031 L 816.957031 575.925781 C 816.921875 570.121094 816.359375 564.273438 815.304688 558.425781 L 796.992188 555.613281 C 796.246094 552.652344 795.34375 549.730469 794.269531 546.816406 C 793.1875 543.890625 791.96875 541.085938 790.613281 538.351562 L 802.6875 524.296875 C 799.683594 519.171875 796.308594 514.363281 792.558594 509.929688 L 775.25 516.664062 C 770.949219 512.214844 766.195312 508.300781 761.109375 504.925781 L 764.535156 486.691406 C 759.425781 483.796875 754.082031 481.335938 748.5625 479.339844 L 736.945312 493.804688 C 731.074219 492.136719 725.007812 491.070312 718.835938 490.699219 L 712.683594 473.167969 C 706.878906 473.207031 701.03125 473.769531 695.1875 474.824219 L 692.375 493.140625 C 689.417969 493.886719 686.496094 494.789062 683.566406 495.871094 C 680.660156 496.945312 677.851562 498.164062 675.121094 499.523438 Z M 698 534.90625 C 721.078125 526.371094 746.710938 538.167969 755.246094 561.253906 C 763.769531 584.324219 751.980469 609.964844 728.902344 618.503906 C 705.835938 627.03125 680.203125 615.238281 671.675781 592.164062 C 663.144531 569.078125 674.933594 543.4375 698 534.90625 Z M 473.152344 516.929688 C 473.113281 516.929688 473.070312 516.929688 473.03125 516.921875 C 472.535156 516.855469 472.183594 516.398438 472.25 515.902344 L 485.078125 418.671875 C 485.105469 418.464844 485.203125 418.273438 485.355469 418.128906 L 498.824219 405.324219 C 499.1875 404.976562 499.761719 404.988281 500.113281 405.359375 C 500.460938 405.722656 500.445312 406.296875 500.078125 406.644531 L 486.839844 419.226562 L 474.054688 516.136719 C 473.992188 516.597656 473.601562 516.929688 473.152344 516.929688 Z M 954.871094 447.640625 C 954.851562 447.640625 954.832031 447.640625 954.8125 447.636719 L 940.769531 446.75 C 940.269531 446.71875 939.886719 446.289062 939.917969 445.785156 C 939.949219 445.285156 940.371094 444.875 940.882812 444.933594 L 954.925781 445.820312 C 955.429688 445.851562 955.808594 446.285156 955.777344 446.785156 C 955.75 447.269531 955.347656 447.640625 954.871094 447.640625 Z M 911.824219 431.714844 C 910.058594 436.433594 906.09375 443.265625 897.945312 443.265625 C 897.445312 443.265625 897.035156 442.855469 897.035156 442.355469 C 897.035156 441.851562 897.445312 441.445312 897.945312 441.445312 C 904.816406 441.445312 908.320312 435.710938 909.976562 431.472656 C 910.589844 431.554688 911.207031 431.636719 911.824219 431.714844 Z M 1004.066406 442.355469 C 1004.066406 442.855469 1003.65625 443.265625 1003.15625 443.265625 C 995.128906 443.265625 991.164062 436.640625 989.359375 431.929688 C 989.976562 431.851562 990.585938 431.761719 991.203125 431.683594 C 992.894531 435.898438 996.398438 441.445312 1003.152344 441.445312 C 1003.65625 441.445312 1004.066406 441.851562 1004.066406 442.355469 Z M 1004.066406 442.355469 " fill-opacity="1" fill-rule="nonzero"/><path fill="#ffd700" d="M 408.9375 684.480469 C 408.9375 684.480469 412.121094 687.644531 417.335938 684.480469 C 423.148438 680.949219 432.214844 677.015625 433.515625 684.859375 C 433.609375 699.886719 450.152344 700.078125 450.648438 714.242188 L 406.324219 714.242188 C 405.492188 702.425781 407.5 695.226562 408.9375 684.480469 M 476.871094 686.828125 C 476.871094 686.828125 472.359375 698.492188 474.417969 714.25 L 549.328125 714.242188 C 549.328125 714.242188 551.15625 706.242188 540.902344 702.214844 C 531.6875 698.59375 519.882812 695.789062 506.539062 681.316406 C 494.617188 693.605469 476.871094 686.828125 476.871094 686.828125 M 572.765625 305.234375 L 533.726562 276.699219 C 533.511719 276.527344 533.242188 276.316406 533.019531 276.148438 C 532.621094 275.855469 532.210938 275.589844 531.796875 275.332031 C 525.117188 266.101562 513.945312 260.144531 501.5625 260.144531 C 484.289062 260.144531 469.378906 272.257812 465.84375 289.171875 L 452.535156 346.890625 C 451.6875 350.574219 453.738281 354.28125 457.285156 355.585938 C 473.609375 361.578125 495.625 364.945312 516.105469 361.371094 C 518.734375 360.914062 520.898438 359.066406 521.800781 356.554688 C 524.246094 349.746094 529.3125 335.199219 533.234375 320.992188 L 543.890625 328.890625 Z M 846.855469 517.972656 C 835.808594 517.972656 826.851562 509.011719 826.851562 497.960938 C 826.851562 486.910156 835.808594 477.949219 846.855469 477.949219 C 849.5625 477.949219 852.136719 478.511719 854.492188 479.488281 L 854.492188 444.210938 C 854.492188 439.859375 850.96875 436.335938 846.621094 436.335938 L 808.851562 436.335938 C 810.355469 433.527344 811.214844 430.316406 811.214844 426.90625 C 811.214844 415.855469 802.257812 406.894531 791.207031 406.894531 C 780.160156 406.894531 771.203125 415.855469 771.203125 426.90625 C 771.203125 430.316406 772.0625 433.527344 773.566406 436.335938 L 737.335938 436.335938 C 732.988281 436.335938 729.460938 439.859375 729.460938 444.210938 L 729.460938 553.535156 C 729.460938 557.882812 732.988281 561.410156 737.335938 561.410156 L 846.625 561.410156 C 850.972656 561.410156 854.496094 557.882812 854.496094 553.535156 L 854.496094 516.4375 C 852.136719 517.410156 849.566406 517.972656 846.855469 517.972656 Z M 1034.378906 379.277344 C 1031.484375 350.589844 1030.589844 316.660156 1030.082031 309.949219 C 1029.398438 302.027344 1028.734375 294.109375 1027.746094 286.207031 C 1026.816406 278.765625 1022.066406 272.746094 1015.722656 269.824219 C 1015.730469 269.769531 1015.734375 269.730469 1015.734375 269.730469 C 1001.03125 263.378906 986.65625 259.175781 972.417969 257.128906 L 972.652344 260.277344 C 973.339844 270.144531 966.25 278.875 955.757812 279.585938 C 945.261719 280.296875 936.195312 272.871094 935.511719 263.003906 L 935.566406 256.703125 C 921.769531 258.390625 907.921875 262.15625 893.84375 268.039062 C 893.820312 268.046875 893.800781 268.058594 893.777344 268.070312 C 888.808594 269.792969 884.519531 273.445312 882.140625 278.625 L 853.175781 329.535156 L 884.324219 373.195312 L 896.804688 345.007812 C 897.660156 355.605469 898.222656 364.632812 898.222656 369.738281 C 898.222656 385.304688 895.859375 412.726562 895.859375 424.117188 C 895.859375 427.148438 898.066406 429.707031 901.054688 430.191406 C 933.21875 435.398438 969.699219 435.554688 1001.019531 430.234375 C 1003.988281 429.730469 1006.167969 427.175781 1006.167969 424.164062 C 1006.167969 416.039062 1004.960938 399.671875 1004.273438 385.304688 Z M 570.238281 210.921875 C 566.863281 210.921875 563.925781 213.222656 562.425781 216.597656 C 561.070312 215.972656 559.675781 215.992188 558.320312 216.660156 C 556.828125 213.25 553.878906 210.925781 550.484375 210.925781 C 545.59375 210.925781 541.613281 215.757812 541.613281 221.699219 C 541.613281 227.644531 545.59375 232.480469 550.484375 232.480469 C 555.378906 232.480469 559.359375 227.644531 559.359375 221.699219 C 559.359375 220.460938 559.175781 219.273438 558.855469 218.164062 C 559.882812 217.601562 560.867188 217.582031 561.886719 218.101562 C 561.558594 219.230469 561.367188 220.4375 561.367188 221.699219 C 561.367188 227.644531 565.347656 232.480469 570.242188 232.480469 C 575.132812 232.480469 579.113281 227.644531 579.113281 221.699219 C 579.109375 215.757812 575.128906 210.921875 570.238281 210.921875 Z M 550.484375 230.921875 C 546.449219 230.921875 543.171875 226.785156 543.171875 221.699219 C 543.171875 216.617188 546.449219 212.480469 550.484375 212.480469 C 554.519531 212.480469 557.796875 216.617188 557.796875 221.699219 C 557.796875 226.785156 554.519531 230.921875 550.484375 230.921875 Z M 570.238281 230.921875 C 566.203125 230.921875 562.921875 226.785156 562.921875 221.699219 C 562.921875 216.617188 566.203125 212.480469 570.238281 212.480469 C 574.269531 212.480469 577.550781 216.617188 577.550781 221.699219 C 577.550781 226.785156 574.269531 230.921875 570.238281 230.921875 Z M 570.238281 230.921875 " fill-opacity="1" fill-rule="evenodd"/><path fill="#f5c0a2" d="M 623.675781 241.847656 L 620.789062 247.054688 C 619.660156 252.371094 618.199219 258.347656 617.015625 263.753906 C 615.640625 270.039062 609.65625 272.992188 601.441406 271.761719 C 592.09375 270.367188 589.707031 266.042969 589.699219 266.035156 C 581.261719 256.390625 582.554688 247.070312 580.886719 240.035156 C 580.15625 236.957031 579.957031 236.199219 581.425781 235.609375 C 583.0625 234.957031 586.859375 236.289062 589.679688 242.300781 C 590.527344 244.105469 591.398438 245.789062 592.101562 247.097656 C 592.984375 240.695312 593.683594 236.59375 593.683594 236.59375 L 594.117188 236.632812 C 594.640625 235.71875 595.515625 235.027344 596.640625 234.820312 C 598.496094 234.476562 600.234375 235.5625 600.847656 237.230469 L 603.296875 237.449219 C 603.308594 237.246094 603.324219 237.066406 603.335938 236.929688 C 603.546875 234.800781 605.304688 233.171875 607.433594 233.355469 C 609.472656 233.53125 610.945312 235.285156 610.871094 237.253906 C 611.59375 235.5625 613.355469 234.535156 615.195312 234.984375 C 616.816406 235.382812 617.898438 236.765625 618.023438 238.308594 C 618.878906 237.292969 620.230469 236.796875 621.578125 237.207031 C 623.539062 237.800781 624.527344 239.984375 623.675781 241.847656 Z M 988.90625 677.246094 L 963.632812 677.246094 C 963.621094 677.730469 963.597656 678.191406 963.597656 678.695312 C 963.597656 687.5 963.082031 694.238281 962.652344 703.621094 C 964.859375 704.496094 967.742188 704.375 970.914062 700.988281 C 977.289062 694.179688 984.148438 690.945312 990.976562 693.21875 C 989.03125 687.929688 988.714844 682.601562 988.90625 677.246094 Z M 408.9375 684.480469 C 408.9375 684.480469 412.121094 687.644531 417.335938 684.480469 C 422.78125 681.171875 431.074219 677.515625 433.175781 683.503906 C 433.25 679.742188 433.535156 675.554688 433.90625 671.515625 L 409.058594 671.515625 C 409.066406 675.488281 409.035156 679.902344 408.9375 684.480469 C 408.933594 684.480469 408.933594 684.484375 408.933594 684.484375 C 408.9375 684.484375 408.9375 684.480469 408.9375 684.480469 Z M 476.871094 686.828125 C 476.871094 686.828125 494.523438 693.566406 506.441406 681.40625 C 506.234375 678.445312 506.179688 675.0625 506.214844 671.515625 L 478.1875 671.515625 C 478.277344 676.898438 477.941406 682.160156 476.871094 686.828125 C 476.871094 686.828125 476.871094 686.832031 476.871094 686.832031 Z M 629.722656 288.839844 C 624.8125 288.839844 624.96875 288.933594 609.582031 288.867188 C 609.582031 288.867188 609.292969 288.863281 608.804688 288.863281 C 608.257812 288.859375 607.695312 288.859375 607.113281 288.855469 L 607.128906 288.878906 C 602.5 288.957031 592.160156 289.394531 583.34375 291.621094 C 581.699219 292.035156 580.191406 292.8125 578.917969 293.847656 C 578.726562 293.960938 578.53125 294.066406 578.34375 294.191406 L 531.105469 325.664062 L 523.480469 312.570312 L 497.917969 329.019531 L 514.035156 353.773438 L 514.621094 354.675781 C 514.890625 355.089844 515.1875 355.492188 515.503906 355.878906 C 520.335938 361.78125 529.039062 362.644531 534.933594 357.808594 L 589.148438 313.363281 C 592.539062 313.796875 596.902344 314.167969 601.222656 314.097656 L 604.292969 316.523438 C 604.914062 317.015625 605.707031 317.238281 606.492188 317.144531 L 611.769531 316.519531 C 612.75 316.40625 613.589844 315.769531 613.964844 314.851562 L 618.277344 304.445312 C 619.042969 302.601562 618.5625 300.472656 617.078125 299.132812 L 613.910156 296.269531 C 617.414062 295.867188 624.738281 294.996094 628.054688 294.367188 C 631.882812 293.640625 634.308594 288.839844 629.722656 288.839844 Z M 854.554688 331.464844 L 853.171875 332.859375 L 824.867188 296.109375 L 748.609375 296.109375 C 748.488281 297.554688 749.496094 298.882812 751.769531 299.222656 C 752.53125 299.335938 753.480469 299.445312 754.558594 299.546875 C 753.757812 301.15625 754.347656 302.847656 756.6875 303.117188 C 757.703125 303.234375 759.230469 303.398438 761.039062 303.589844 C 761.476562 304.199219 762.148438 304.710938 763.085938 304.992188 C 767.214844 306.238281 775.117188 307.988281 778.15625 308.652344 C 778.972656 308.828125 779.792969 308.949219 780.625 309.015625 C 780.625 309.015625 796.507812 310.339844 798.886719 310.460938 L 798.9375 310.46875 L 798.9375 310.464844 C 799.484375 310.492188 800.039062 310.503906 800.59375 310.515625 L 834.414062 371.734375 C 840.15625 381.171875 852.460938 384.167969 861.898438 378.425781 C 863.515625 377.441406 870.300781 370.492188 877.207031 363.21875 Z M 1041.824219 472.492188 C 1041.824219 472.476562 1041.828125 472.460938 1041.828125 472.445312 C 1041.785156 471.316406 1041.511719 468.339844 1041.140625 464.617188 L 1041.136719 464.617188 C 1040.160156 454.8125 1038.496094 439.847656 1038.496094 439.839844 L 1031.792969 379.796875 L 1004.277344 385.304688 C 1004.53125 390.554688 1004.851562 396.074219 1005.15625 401.359375 C 1009.773438 417.871094 1015.210938 437.25 1016.898438 443.261719 C 1016.585938 443.703125 1016.304688 444.144531 1016.074219 444.570312 C 1013 450.246094 1012.496094 453.996094 1013.5 462.480469 C 1013.21875 462.363281 1012.921875 462.273438 1012.609375 462.238281 C 1010.570312 461.988281 1008.800781 463.625 1008.882812 465.675781 L 1009.316406 476.378906 C 1009.355469 477.375 1009.839844 478.300781 1010.636719 478.898438 L 1019.089844 485.296875 C 1019.089844 485.296875 1019.089844 485.292969 1019.089844 485.292969 L 1021.289062 486.957031 C 1022.476562 487.855469 1024.113281 487.855469 1025.300781 486.960938 L 1040.519531 475.46875 C 1041.394531 474.8125 1041.886719 473.769531 1041.84375 472.679688 Z M 914.449219 700.207031 C 914.449219 700.207031 914.449219 700.210938 914.449219 700.214844 C 914.414062 693.171875 915.398438 683.730469 916.203125 677.246094 L 889.226562 677.246094 C 888.628906 684.78125 887.527344 689.863281 885.847656 694.105469 C 895.0625 706.261719 907.46875 703.769531 914.449219 700.207031 Z M 976.535156 213.035156 C 974.792969 212.890625 973.546875 216.667969 972.734375 220.441406 C 972.378906 220.230469 971.96875 220.097656 971.515625 220.089844 C 971.515625 220.089844 969.769531 206.339844 973.144531 192.359375 C 970.171875 195.296875 959.3125 196.265625 951.457031 194.324219 C 941.867188 191.953125 936.296875 188.605469 929.976562 189.363281 C 926.039062 201.578125 925.910156 213.359375 925.910156 213.359375 L 926.191406 229.777344 C 926.316406 237.207031 930 243.910156 935.644531 247.996094 L 935.511719 263.003906 C 936.195312 272.871094 945.261719 280.296875 955.757812 279.585938 C 966.25 278.875 973.339844 270.144531 972.652344 260.277344 L 970.613281 233.1875 L 971.824219 229.496094 C 972.339844 230.765625 973.5625 231.554688 974.882812 231.222656 C 978.832031 230.21875 981.644531 226.992188 981.984375 222.957031 C 982.425781 217.769531 979.984375 213.328125 976.535156 213.035156 Z M 570.238281 232.476562 C 565.34375 232.476562 561.363281 227.640625 561.363281 221.699219 C 561.363281 220.433594 561.554688 219.226562 561.886719 218.097656 C 560.863281 217.578125 559.878906 217.597656 558.855469 218.160156 C 559.171875 219.269531 559.355469 220.457031 559.355469 221.699219 C 559.355469 227.640625 555.375 232.476562 550.484375 232.476562 C 545.589844 232.476562 541.613281 227.640625 541.613281 221.699219 C 541.613281 215.753906 545.589844 210.921875 550.484375 210.921875 C 553.875 210.921875 556.824219 213.25 558.316406 216.65625 C 559.671875 215.988281 561.066406 215.96875 562.421875 216.597656 C 563.921875 213.21875 566.863281 210.917969 570.234375 210.917969 C 571.132812 210.917969 572.003906 211.085938 572.820312 211.390625 C 572.84375 208.472656 572.328125 205.652344 571.367188 203.023438 C 570.480469 202.953125 569.597656 202.863281 568.707031 202.738281 C 560.421875 201.5625 547.320312 197.210938 538.59375 191.9375 C 533.359375 200.601562 540.488281 218.019531 529.144531 221.714844 C 529.488281 217.679688 529.011719 212.898438 525.113281 211.941406 C 520.6875 210.855469 517.964844 214.105469 516.738281 219.011719 C 515.789062 222.828125 518.207031 226.890625 522.804688 229.375 C 524.375 230.222656 526.230469 229.960938 527.300781 228.953125 L 513.761719 262.148438 C 521.085938 264.625 527.394531 269.269531 531.78125 275.320312 C 532.199219 275.582031 532.617188 275.847656 533.019531 276.148438 C 533.242188 276.3125 533.507812 276.523438 533.722656 276.699219 L 537.335938 279.667969 L 546.808594 255.734375 C 549.132812 256.117188 551.554688 256.105469 553.996094 255.597656 C 562.375 253.847656 568.382812 246.949219 569.433594 238.914062 L 570.269531 232.472656 C 570.257812 232.476562 570.25 232.476562 570.238281 232.476562 Z M 570.238281 212.480469 C 566.203125 212.480469 562.921875 216.613281 562.921875 221.699219 C 562.921875 226.78125 566.203125 230.917969 570.238281 230.917969 C 570.316406 230.917969 570.394531 230.90625 570.476562 230.902344 L 572.628906 214.253906 C 572.679688 213.847656 572.714844 213.449219 572.746094 213.050781 C 571.964844 212.6875 571.121094 212.480469 570.238281 212.480469 Z M 550.484375 212.480469 C 546.449219 212.480469 543.171875 216.613281 543.171875 221.699219 C 543.171875 226.78125 546.449219 230.917969 550.484375 230.917969 C 554.519531 230.917969 557.796875 226.78125 557.796875 221.699219 C 557.796875 216.613281 554.519531 212.480469 550.484375 212.480469 Z M 550.484375 212.480469 " fill-opacity="1" fill-rule="evenodd"/><path fill="#293237" d="M 448.335938 707.160156 L 405.992188 707.160156 C 405.570312 707.160156 405.226562 707.503906 405.226562 707.925781 C 405.226562 708.347656 405.570312 708.6875 405.992188 708.6875 L 448.335938 708.6875 C 448.757812 708.6875 449.097656 708.347656 449.097656 707.925781 C 449.097656 707.503906 448.757812 707.160156 448.335938 707.160156 Z M 448.335938 707.160156 " fill-opacity="1" fill-rule="nonzero"/><path fill="#293237" d="M 609.894531 306.949219 L 615.839844 309.835938 C 615.945312 309.886719 616.0625 309.914062 616.171875 309.914062 C 616.457031 309.914062 616.726562 309.753906 616.859375 309.484375 C 617.042969 309.101562 616.886719 308.644531 616.507812 308.460938 L 610.5625 305.574219 C 610.183594 305.390625 609.726562 305.546875 609.542969 305.925781 C 609.359375 306.308594 609.515625 306.765625 609.894531 306.949219 Z M 609.894531 306.949219 " fill-opacity="1" fill-rule="nonzero"/><path fill="#293237" d="M 548.152344 707.160156 L 473.914062 707.160156 C 473.492188 707.160156 473.148438 707.503906 473.148438 707.925781 C 473.148438 708.347656 473.492188 708.6875 473.914062 708.6875 L 548.152344 708.6875 C 548.574219 708.6875 548.914062 708.347656 548.914062 707.925781 C 548.914062 707.503906 548.574219 707.160156 548.152344 707.160156 Z M 548.152344 707.160156 " fill-opacity="1" fill-rule="nonzero"/><path fill="#293237" d="M 423.195312 416.332031 L 424.703125 496.144531 C 424.867188 507.167969 423.03125 518.125 419.242188 528.476562 C 403.398438 571.722656 406.382812 641.324219 406.382812 671.515625 L 436.949219 671.515625 L 470.171875 527.855469 L 474.160156 500.597656 C 474.175781 500.761719 474.183594 500.925781 474.203125 501.089844 L 485.078125 418.667969 C 485.105469 418.460938 485.203125 418.273438 485.355469 418.128906 L 498.824219 405.324219 C 499.1875 404.972656 499.761719 404.988281 500.113281 405.355469 C 500.460938 405.71875 500.445312 406.296875 500.078125 406.640625 L 486.839844 419.226562 L 474.664062 511.523438 C 474.574219 517.292969 473.921875 522.96875 472.683594 528.472656 C 462.945312 571.71875 472.359375 641.324219 476.621094 671.511719 L 507.1875 671.511719 L 520.359375 527.855469 L 517.277344 403.042969 L 517.277344 361.054688 C 516.898438 361.1875 516.511719 361.300781 516.109375 361.371094 C 495.996094 364.878906 474.421875 361.6875 458.195312 355.898438 L 453.410156 356.476562 C 453.246094 356.328125 453.109375 356.171875 452.949219 356.023438 C 443.21875 365.417969 423.195312 388.171875 423.195312 416.332031 Z M 423.195312 416.332031 " fill-opacity="1" fill-rule="nonzero"/><path fill="#293237" d="M 524.890625 311.703125 L 508.027344 282.742188 C 507.8125 282.375 507.34375 282.25 506.980469 282.464844 C 506.617188 282.679688 506.496094 283.144531 506.707031 283.511719 L 523.570312 312.472656 C 523.710938 312.714844 523.96875 312.851562 524.230469 312.851562 C 524.363281 312.851562 524.496094 312.816406 524.613281 312.746094 C 524.980469 312.53125 525.105469 312.066406 524.890625 311.703125 Z M 524.890625 311.703125 " fill-opacity="1" fill-rule="nonzero"/><path fill="#293237" d="M 1016.90625 444.054688 C 1016.980469 444.054688 1017.054688 444.046875 1017.128906 444.023438 L 1020.199219 443.085938 C 1020.601562 442.960938 1020.828125 442.535156 1020.707031 442.132812 C 1020.582031 441.730469 1020.164062 441.503906 1019.75 441.625 L 1016.683594 442.5625 C 1016.277344 442.683594 1016.054688 443.113281 1016.175781 443.515625 C 1016.277344 443.84375 1016.578125 444.054688 1016.90625 444.054688 Z M 1016.90625 444.054688 " fill-opacity="1" fill-rule="nonzero"/><path fill="#293237" d="M 1004.832031 384.96875 C 1004.84375 384.96875 1004.855469 384.96875 1004.867188 384.96875 C 1005.285156 384.949219 1005.613281 384.59375 1005.597656 384.171875 L 1004.429688 357.652344 L 1012.425781 299.796875 C 1012.484375 299.378906 1012.191406 298.992188 1011.773438 298.9375 C 1011.359375 298.886719 1010.96875 299.167969 1010.914062 299.585938 L 1002.910156 357.582031 L 1004.070312 384.242188 C 1004.085938 384.648438 1004.425781 384.96875 1004.832031 384.96875 Z M 1004.832031 384.96875 " fill-opacity="1" fill-rule="nonzero"/><path fill="#293237" d="M 929.976562 189.363281 C 936.296875 188.605469 941.867188 191.949219 951.457031 194.320312 C 959.3125 196.265625 970.171875 195.296875 973.144531 192.359375 C 969.769531 206.339844 971.515625 220.089844 971.515625 220.089844 C 971.96875 220.09375 972.378906 220.230469 972.734375 220.441406 C 973.546875 216.664062 974.792969 212.886719 976.535156 213.035156 C 979.984375 213.328125 982.429688 217.769531 981.988281 222.957031 C 981.644531 226.988281 978.832031 230.21875 974.882812 231.21875 C 973.566406 231.554688 972.34375 230.761719 971.828125 229.496094 L 970.613281 233.1875 L 970.671875 233.949219 C 974.710938 233.238281 990.613281 229.511719 988.8125 215.058594 C 988.8125 215.058594 1001.335938 200.675781 988.90625 189.476562 C 989.046875 176.476562 982.039062 170.164062 968.980469 169.535156 C 968.980469 169.535156 939.464844 167.019531 932.902344 166.621094 C 923.554688 166.039062 923.175781 174.132812 925.949219 185.078125 C 926.105469 185.707031 926.347656 186.246094 926.617188 186.746094 C 924.941406 190.0625 923.851562 193.742188 923.527344 197.675781 C 923.105469 202.796875 924.011719 207.71875 925.957031 212.109375 C 926.101562 208.78125 926.800781 199.21875 929.976562 189.363281 Z M 929.976562 189.363281 " fill-opacity="1" fill-rule="nonzero"/><path fill="#293237" d="M 897.070312 350.777344 C 897.09375 350.777344 897.117188 350.777344 897.144531 350.773438 C 897.5625 350.734375 897.871094 350.363281 897.832031 349.941406 L 893.203125 300.269531 C 893.164062 299.851562 892.820312 299.554688 892.371094 299.582031 C 891.953125 299.621094 891.640625 299.996094 891.679688 300.414062 L 896.3125 350.085938 C 896.347656 350.480469 896.679688 350.777344 897.070312 350.777344 Z M 897.070312 350.777344 " fill-opacity="1" fill-rule="nonzero"/><path fill="#293237" d="M 897.945312 441.445312 C 904.816406 441.445312 908.320312 435.710938 909.972656 431.472656 C 906.976562 431.082031 903.996094 430.664062 901.058594 430.1875 C 900.003906 430.015625 899.054688 429.578125 898.257812 428.957031 L 897.796875 441.472656 C 897.847656 441.464844 897.894531 441.445312 897.945312 441.445312 Z M 897.945312 441.445312 " fill-opacity="1" fill-rule="nonzero"/><path fill="#293237" d="M 611.132812 301.9375 L 617.445312 305.753906 C 617.570312 305.828125 617.707031 305.863281 617.84375 305.863281 C 618.101562 305.863281 618.351562 305.734375 618.496094 305.496094 C 618.714844 305.136719 618.597656 304.664062 618.238281 304.445312 L 611.925781 300.628906 C 611.566406 300.414062 611.09375 300.527344 610.875 300.886719 C 610.660156 301.25 610.773438 301.71875 611.132812 301.9375 Z M 611.132812 301.9375 " fill-opacity="1" fill-rule="nonzero"/><g clip-path="url(#0b8ec7f737)"><path fill="#293237" d="M 842.269531 725.984375 C 842.050781 727.625 843.335938 729.085938 844.992188 729.085938 L 914.128906 729.085938 C 915.5625 729.085938 916.757812 727.980469 916.863281 726.550781 C 916.949219 725.378906 917.03125 723.839844 917.074219 722.066406 L 860.234375 722.066406 L 855.496094 714.667969 C 853.839844 715.472656 852.253906 716.207031 850.78125 716.84375 C 844.316406 719.644531 842.683594 722.875 842.269531 725.984375 Z M 842.269531 725.984375 " fill-opacity="1" fill-rule="nonzero"/></g><path fill="#293237" d="M 885.847656 694.101562 C 880.476562 700.816406 866.40625 709.367188 855.496094 714.667969 L 860.234375 722.066406 L 917.074219 722.066406 C 917.210938 716.214844 916.875 707.671875 914.445312 700.207031 C 907.46875 703.769531 895.0625 706.261719 885.847656 694.101562 Z M 885.847656 694.101562 " fill-opacity="1" fill-rule="nonzero"/><path fill="#293237" d="M 1002.527344 614.859375 C 1005.789062 590.378906 1000.957031 554.402344 1000.957031 554.402344 L 1003.136719 443.261719 C 995.121094 443.253906 991.160156 436.636719 989.359375 431.929688 C 989.976562 431.851562 990.585938 431.761719 991.203125 431.683594 C 992.894531 435.898438 996.398438 441.445312 1003.152344 441.445312 C 1003.160156 441.445312 1003.164062 441.449219 1003.171875 441.449219 L 1003.410156 429.261719 C 1002.703125 429.734375 1001.902344 430.082031 1001.019531 430.230469 C 973.070312 434.980469 941.011719 435.355469 911.574219 431.679688 C 911.660156 431.691406 911.738281 431.703125 911.820312 431.714844 C 910.054688 436.433594 906.089844 443.265625 897.945312 443.265625 C 897.867188 443.265625 897.800781 443.238281 897.730469 443.222656 L 893.691406 553.214844 L 888.410156 677.246094 L 919.304688 677.246094 C 926.03125 654.921875 941.648438 599.863281 934.027344 560.308594 L 950.6875 447.375 L 940.769531 446.75 C 940.265625 446.71875 939.886719 446.285156 939.917969 445.785156 C 939.949219 445.28125 940.371094 444.875 940.882812 444.933594 L 954.925781 445.820312 C 955.429688 445.851562 955.808594 446.28125 955.777344 446.785156 C 955.75 447.257812 955.359375 447.621094 954.894531 447.632812 L 961.90625 677.242188 L 992.742188 677.242188 C 995.324219 661.871094 1000.191406 632.371094 1002.527344 614.859375 Z M 1002.527344 614.859375 " fill-opacity="1" fill-rule="nonzero"/><path fill="#293237" d="M 1029.855469 455.421875 C 1029.457031 455.394531 1029.066406 455.695312 1029.027344 456.117188 L 1028.175781 465.996094 L 1022.65625 484.554688 C 1022.53125 484.976562 1022.203125 485.3125 1021.78125 485.445312 C 1021.371094 485.574219 1020.957031 485.503906 1020.628906 485.246094 C 1019.390625 484.277344 1018.675781 482.675781 1018.503906 480.496094 C 1018.035156 474.433594 1018.339844 467.230469 1018.34375 467.160156 C 1018.355469 466.847656 1018.175781 466.554688 1017.886719 466.425781 C 1017.792969 466.382812 1015.480469 465.308594 1014.511719 461.996094 C 1014.394531 461.59375 1013.972656 461.359375 1013.5625 461.476562 C 1013.160156 461.59375 1012.925781 462.019531 1013.046875 462.425781 C 1013.953125 465.527344 1015.894531 467.019531 1016.796875 467.570312 C 1016.738281 469.292969 1016.574219 475.367188 1016.984375 480.617188 C 1017.1875 483.242188 1018.097656 485.207031 1019.6875 486.449219 C 1020.179688 486.835938 1020.78125 487.035156 1021.390625 487.035156 C 1021.675781 487.035156 1021.964844 486.992188 1022.246094 486.902344 C 1023.152344 486.613281 1023.851562 485.898438 1024.121094 484.992188 L 1029.664062 466.355469 C 1029.679688 466.304688 1029.691406 466.257812 1029.695312 466.203125 L 1030.550781 456.246094 C 1030.585938 455.824219 1030.277344 455.457031 1029.855469 455.421875 Z M 1029.855469 455.421875 " fill-opacity="1" fill-rule="nonzero"/><g clip-path="url(#b2378e020e)"><path fill="#293237" d="M 1006.109375 711.144531 C 1006.109375 711.144531 1006.113281 711.144531 1006.117188 711.144531 C 1005.953125 710.996094 1005.785156 710.847656 1005.617188 710.703125 C 1004.242188 709.460938 1002.828125 708.226562 1001.429688 706.972656 C 1001.105469 706.679688 1000.78125 706.382812 1000.460938 706.085938 C 1000.117188 705.769531 999.777344 705.449219 999.433594 705.128906 C 999.089844 704.804688 998.753906 704.46875 998.417969 704.136719 C 998.109375 703.832031 997.804688 703.523438 997.507812 703.214844 C 997.164062 702.855469 996.832031 702.488281 996.5 702.121094 C 996.226562 701.816406 995.953125 701.511719 995.691406 701.199219 C 995.355469 700.796875 995.039062 700.378906 994.722656 699.960938 C 994.492188 699.660156 994.253906 699.363281 994.035156 699.054688 C 993.699219 698.578125 993.394531 698.074219 993.089844 697.574219 C 992.921875 697.300781 992.738281 697.035156 992.582031 696.757812 C 992.144531 695.972656 991.742188 695.15625 991.390625 694.308594 C 991.386719 694.296875 991.378906 694.285156 991.375 694.273438 C 991.230469 693.921875 991.113281 693.570312 990.984375 693.214844 C 989.28125 692.652344 987.578125 692.429688 985.882812 692.515625 C 985.023438 692.558594 984.167969 692.683594 983.316406 692.882812 C 979.078125 693.875 974.902344 696.730469 970.921875 700.984375 C 968.5 703.570312 966.25 704.246094 964.339844 704.035156 C 963.746094 703.972656 963.183594 703.824219 962.660156 703.617188 C 962.628906 704.320312 962.597656 705.042969 962.566406 705.777344 C 962.554688 706.050781 962.542969 706.335938 962.535156 706.613281 C 962.515625 707.03125 962.5 707.445312 962.484375 707.875 C 962.46875 708.328125 962.449219 708.792969 962.433594 709.261719 C 962.425781 709.53125 962.414062 709.796875 962.40625 710.070312 C 962.386719 710.628906 962.371094 711.199219 962.351562 711.773438 C 962.347656 711.9375 962.34375 712.105469 962.335938 712.273438 C 962.21875 716.359375 962.128906 720.953125 962.105469 726.316406 C 962.101562 727.835938 963.328125 729.082031 964.847656 729.082031 L 1012.988281 729.082031 C 1014.664062 729.082031 1015.976562 727.582031 1015.703125 725.929688 C 1014.683594 719.695312 1010.675781 715.308594 1006.109375 711.144531 Z M 1006.109375 711.144531 " fill-opacity="1" fill-rule="nonzero"/></g><path fill="#293237" d="M 479.230469 305.097656 C 478.878906 305.324219 478.777344 305.800781 479.007812 306.152344 L 495.085938 330.84375 C 495.230469 331.070312 495.476562 331.195312 495.722656 331.195312 C 495.867188 331.195312 496.011719 331.152344 496.140625 331.070312 C 496.492188 330.839844 496.59375 330.367188 496.363281 330.015625 L 480.285156 305.320312 C 480.054688 304.964844 479.582031 304.867188 479.230469 305.097656 Z M 479.230469 305.097656 " fill-opacity="1" fill-rule="nonzero"/><path fill="#293237" d="M 692.800781 410.253906 L 655.03125 410.253906 C 656.535156 407.445312 657.394531 404.234375 657.394531 400.828125 C 657.394531 389.773438 648.4375 380.816406 637.386719 380.816406 C 626.339844 380.816406 617.382812 389.773438 617.382812 400.828125 C 617.382812 404.234375 618.242188 407.445312 619.746094 410.253906 L 583.511719 410.253906 C 579.164062 410.253906 575.640625 413.78125 575.640625 418.128906 L 575.640625 527.453125 C 575.640625 531.804688 579.164062 535.328125 583.511719 535.328125 L 692.800781 535.328125 C 697.148438 535.328125 700.671875 531.804688 700.671875 527.453125 L 700.671875 418.128906 C 700.675781 413.78125 697.148438 410.253906 692.800781 410.253906 Z M 692.800781 410.253906 " fill-opacity="1" fill-rule="nonzero"/><path fill="#293237" d="M 580.554688 259.632812 C 577.597656 227.671875 584.394531 222.535156 585.714844 200.609375 C 587.039062 178.683594 564.425781 159.355469 534.515625 165.824219 C 510.089844 170.273438 495.941406 169.507812 491.058594 197.425781 C 486.175781 225.34375 492.164062 228.902344 468.09375 250.769531 C 444.140625 272.527344 420.277344 325.527344 452.945312 356.027344 C 453.65625 355.339844 454.320312 354.714844 454.910156 354.175781 C 452.886719 352.410156 451.902344 349.648438 452.535156 346.894531 L 465.84375 289.175781 C 469.378906 272.261719 484.289062 260.144531 501.5625 260.144531 C 505.894531 260.144531 510.074219 260.886719 513.96875 262.230469 C 513.898438 262.207031 513.832031 262.175781 513.761719 262.152344 L 527.300781 228.957031 C 526.230469 229.964844 524.375 230.226562 522.804688 229.378906 C 518.207031 226.894531 515.789062 222.832031 516.738281 219.015625 C 517.964844 214.109375 520.6875 210.855469 525.113281 211.941406 C 529.011719 212.902344 529.488281 217.683594 529.144531 221.714844 C 540.488281 218.023438 533.363281 200.605469 538.59375 191.941406 C 547.320312 197.210938 560.421875 201.566406 568.707031 202.742188 C 569.597656 202.867188 570.480469 202.953125 571.367188 203.027344 C 572.640625 206.503906 573.136719 210.324219 572.625 214.253906 L 569.433594 238.917969 C 568.382812 246.953125 562.375 253.851562 553.996094 255.597656 C 551.554688 256.109375 549.128906 256.121094 546.808594 255.738281 L 537.335938 279.667969 L 566.371094 302.25 L 574.042969 297.5625 C 575.53125 285.761719 581.9375 274.558594 580.554688 259.632812 Z M 580.554688 259.632812 " fill-opacity="1" fill-rule="nonzero"/><path fill="#293237" d="M 850.761719 288.285156 L 850.761719 179.65625 C 850.761719 175.332031 847.257812 171.828125 842.9375 171.828125 L 809.15625 171.828125 C 810.628906 174.59375 811.46875 177.746094 811.46875 181.101562 C 811.46875 192.03125 802.613281 200.890625 791.6875 200.890625 C 780.761719 200.890625 771.90625 192.03125 771.90625 181.101562 C 771.90625 177.75 772.746094 174.597656 774.21875 171.828125 L 734.339844 171.828125 C 730.019531 171.828125 726.519531 175.332031 726.519531 179.65625 L 726.519531 215.714844 C 729.363281 214.589844 732.523438 214.085938 735.847656 214.445312 C 745.445312 215.488281 753.007812 223.605469 753.347656 233.257812 C 753.742188 244.429688 744.804688 253.609375 733.726562 253.609375 C 731.179688 253.609375 728.753906 253.109375 726.519531 252.222656 L 726.519531 288.285156 C 726.519531 292.605469 730.019531 296.109375 734.339844 296.109375 L 842.9375 296.109375 C 847.257812 296.109375 850.761719 292.605469 850.761719 288.285156 Z M 850.761719 288.285156 " fill-opacity="1" fill-rule="nonzero"/><path fill="#293237" d="M 811.84375 309.902344 L 802.054688 309.902344 C 801.632812 309.902344 801.292969 310.246094 801.292969 310.664062 C 801.292969 311.085938 801.632812 311.429688 802.054688 311.429688 L 811.84375 311.429688 C 812.265625 311.429688 812.605469 311.085938 812.605469 310.664062 C 812.605469 310.246094 812.265625 309.902344 811.84375 309.902344 Z M 811.84375 309.902344 " fill-opacity="1" fill-rule="nonzero"/><path fill="#e0e0e0" d="M 707.253906 288.9375 C 703.886719 288.9375 700.714844 289.785156 697.9375 291.273438 L 697.9375 255.433594 C 697.9375 251.132812 694.449219 247.648438 690.152344 247.648438 L 620.492188 247.648438 C 619.382812 249.589844 616.917969 249.394531 616 247.648438 L 614.730469 247.648438 C 613.621094 250.277344 610.363281 250.066406 609.4375 247.648438 L 608.800781 247.648438 C 607.960938 250.601562 604.175781 250.628906 603.222656 247.648438 L 601.351562 247.648438 C 600.621094 250.109375 597.191406 250.558594 595.820312 247.648438 L 582.089844 247.648438 C 577.789062 247.648438 574.304688 251.132812 574.304688 255.433594 L 574.304688 296.878906 L 578.34375 294.1875 C 578.535156 294.0625 578.730469 293.957031 578.921875 293.84375 C 580.195312 292.808594 581.699219 292.03125 583.34375 291.617188 C 592.164062 289.394531 602.503906 288.957031 607.132812 288.875 L 607.117188 288.851562 C 607.699219 288.855469 608.261719 288.859375 608.804688 288.859375 C 609.296875 288.859375 609.585938 288.863281 609.585938 288.863281 C 624.972656 288.929688 624.816406 288.835938 629.726562 288.835938 C 634.3125 288.835938 631.886719 293.636719 628.0625 294.363281 C 624.742188 294.992188 617.421875 295.867188 613.917969 296.269531 L 617.085938 299.128906 C 618.570312 300.46875 619.046875 302.59375 618.285156 304.445312 L 613.972656 314.851562 C 613.597656 315.765625 612.753906 316.402344 611.773438 316.519531 L 606.496094 317.144531 C 605.710938 317.234375 604.917969 317.011719 604.300781 316.519531 L 601.230469 314.09375 C 596.90625 314.164062 592.546875 313.796875 589.15625 313.363281 L 574.308594 325.53125 L 574.308594 363.53125 C 574.308594 367.832031 577.792969 371.320312 582.09375 371.320312 L 616.5 371.320312 C 615.574219 369.015625 615.054688 366.511719 615.054688 363.878906 C 615.054688 352.828125 624.011719 343.867188 635.058594 343.867188 C 646.109375 343.867188 655.066406 352.828125 655.066406 363.878906 C 655.066406 366.511719 654.542969 369.019531 653.617188 371.320312 L 690.160156 371.320312 C 694.457031 371.320312 697.941406 367.832031 697.941406 363.53125 L 697.941406 326.171875 C 700.71875 327.660156 703.890625 328.507812 707.261719 328.507812 C 718.1875 328.507812 727.042969 319.648438 727.042969 308.71875 C 727.035156 297.796875 718.179688 288.9375 707.253906 288.9375 Z M 707.253906 288.9375 " fill-opacity="1" fill-rule="nonzero"/><path fill="#ffd700" d="M 570.03125 210.699219 C 566.667969 210.699219 563.761719 213.097656 562.316406 216.597656 C 560.71875 215.636719 559.148438 216.132812 558.171875 216.785156 C 556.722656 213.296875 553.820312 210.914062 550.464844 210.914062 C 545.667969 210.914062 541.777344 215.785156 541.777344 221.796875 C 541.777344 227.804688 545.667969 232.679688 550.464844 232.679688 C 555.261719 232.679688 559.152344 227.804688 559.152344 221.796875 C 559.152344 220.570312 558.984375 219.402344 558.6875 218.304688 C 558.90625 218.105469 560.277344 216.976562 561.800781 218.117188 C 561.507812 219.207031 561.34375 220.367188 561.34375 221.582031 C 561.34375 227.59375 565.234375 232.464844 570.03125 232.464844 C 574.832031 232.464844 578.71875 227.589844 578.71875 221.582031 C 578.71875 215.574219 574.832031 210.699219 570.03125 210.699219 Z M 550.464844 231.148438 C 546.515625 231.148438 543.304688 226.953125 543.304688 221.792969 C 543.304688 216.636719 546.515625 212.4375 550.464844 212.4375 C 554.414062 212.4375 557.625 216.636719 557.625 221.792969 C 557.625 226.953125 554.410156 231.148438 550.464844 231.148438 Z M 570.03125 230.9375 C 566.085938 230.9375 562.871094 226.742188 562.871094 221.582031 C 562.871094 216.421875 566.085938 212.226562 570.03125 212.226562 C 573.980469 212.226562 577.191406 216.421875 577.191406 221.582031 C 577.191406 226.742188 573.980469 230.9375 570.03125 230.9375 Z M 570.03125 230.9375 " fill-opacity="1" fill-rule="nonzero"/></svg>