<svg xmlns="http://www.w3.org/2000/svg" xmlns:xlink="http://www.w3.org/1999/xlink" width="500" zoomAndPan="magnify" viewBox="0 0 375 374.999991" height="500" preserveAspectRatio="xMidYMid meet" version="1.0"><defs><clipPath id="35f4379f6a"><path d="M 0 23.164062 L 375 23.164062 L 375 351.664062 L 0 351.664062 Z M 0 23.164062 " clip-rule="nonzero"/></clipPath><clipPath id="3dd6212bb2"><path d="M 112.5 133.226562 L 262.5 133.226562 L 262.5 241.976562 L 112.5 241.976562 Z M 112.5 133.226562 " clip-rule="nonzero"/></clipPath></defs><g clip-path="url(#35f4379f6a)"><path fill="#c59b64" d="M 280.683594 23.164062 L 94.316406 23.164062 L 0.00390625 187.414062 L 94.316406 351.664062 L 280.683594 351.664062 L 374.996094 187.414062 L 280.683594 23.164062 M 275.550781 342.765625 L 99.449219 342.765625 L 10.265625 187.414062 L 99.449219 32.0625 L 275.550781 32.0625 L 364.734375 187.414062 L 275.550781 342.765625 " fill-opacity="1" fill-rule="nonzero"/></g><g clip-path="url(#3dd6212bb2)"><path fill="#000000" d="M 259.394531 241.941406 L 115.605469 241.941406 C 113.917969 241.941406 112.5 240.519531 112.5 238.828125 C 112.5 237.136719 113.917969 235.714844 115.605469 235.714844 L 135.066406 235.714844 C 127.109375 224.683594 122.910156 211.6875 122.910156 197.976562 C 122.910156 162.316406 151.851562 133.261719 187.5 133.261719 C 223.148438 133.261719 252.089844 162.261719 252.089844 197.976562 C 252.089844 211.6875 247.890625 224.683594 239.933594 235.714844 L 259.394531 235.714844 C 261.082031 235.714844 262.5 237.136719 262.5 238.828125 C 262.5 240.574219 261.082031 241.941406 259.394531 241.941406 Z M 115.605469 238.007812 C 115.117188 238.007812 114.734375 238.390625 114.734375 238.882812 C 114.734375 239.375 115.117188 239.757812 115.605469 239.757812 L 259.339844 239.757812 C 259.828125 239.757812 260.210938 239.375 260.210938 238.882812 C 260.210938 238.390625 259.828125 238.007812 259.339844 238.007812 L 237.644531 238.007812 C 237.210938 238.007812 236.828125 237.789062 236.664062 237.40625 C 236.5 237.027344 236.5 236.589844 236.773438 236.207031 C 245.277344 225.175781 249.800781 212.015625 249.800781 198.03125 C 249.800781 163.574219 221.839844 135.558594 187.445312 135.558594 C 153.050781 135.558594 125.089844 163.574219 125.089844 198.03125 C 125.089844 211.960938 129.613281 225.175781 138.117188 236.207031 C 138.390625 236.535156 138.445312 237.027344 138.226562 237.40625 C 138.0625 237.789062 137.628906 238.007812 137.246094 238.007812 Z M 232.578125 238.007812 L 142.421875 238.007812 C 142.097656 238.007812 141.769531 237.84375 141.550781 237.625 C 132.066406 226.59375 126.890625 212.558594 126.890625 198.03125 C 126.890625 164.554688 154.089844 137.304688 187.5 137.304688 C 220.910156 137.304688 248.109375 164.554688 248.109375 198.03125 C 248.109375 212.558594 242.878906 226.59375 233.449219 237.625 C 233.230469 237.84375 232.902344 238.007812 232.578125 238.007812 Z M 142.96875 235.769531 L 232.085938 235.769531 C 240.96875 225.230469 245.875 211.851562 245.875 198.03125 C 245.875 165.8125 219.714844 139.542969 187.5 139.542969 C 155.285156 139.542969 129.125 165.757812 129.125 198.03125 C 129.125 211.851562 134.03125 225.230469 142.96875 235.769531 Z M 142.96875 235.769531 " fill-opacity="1" fill-rule="nonzero"/></g><path fill="#000000" d="M 203.253906 219.550781 L 181.339844 219.550781 C 177.472656 219.550781 174.253906 216.382812 174.253906 212.449219 C 174.253906 208.519531 177.417969 205.351562 181.339844 205.351562 L 203.253906 205.351562 C 207.121094 205.351562 210.339844 208.519531 210.339844 212.449219 C 210.339844 216.382812 207.121094 219.550781 203.253906 219.550781 Z M 181.339844 207.644531 C 178.671875 207.644531 176.488281 209.828125 176.488281 212.503906 C 176.488281 215.179688 178.671875 217.367188 181.339844 217.367188 L 203.253906 217.367188 C 205.921875 217.367188 208.101562 215.179688 208.101562 212.503906 C 208.101562 209.828125 205.921875 207.644531 203.253906 207.644531 Z M 181.339844 207.644531 " fill-opacity="1" fill-rule="nonzero"/><path fill="#000000" d="M 176.980469 237.953125 C 176.652344 237.953125 176.328125 237.898438 176 237.789062 C 175.234375 237.515625 174.582031 236.972656 174.199219 236.207031 C 173.820312 235.441406 173.765625 234.621094 174.035156 233.859375 L 179.324219 218.019531 C 179.488281 217.476562 180.03125 217.203125 180.578125 217.257812 C 180.796875 217.3125 181.066406 217.3125 181.339844 217.3125 L 184.558594 217.3125 C 184.9375 217.3125 185.265625 217.476562 185.484375 217.800781 C 185.703125 218.074219 185.753906 218.457031 185.648438 218.785156 L 179.976562 235.824219 C 179.542969 237.082031 178.34375 237.953125 176.980469 237.953125 Z M 181.175781 219.550781 L 176.164062 234.570312 C 176.109375 234.785156 176.109375 235.003906 176.21875 235.222656 C 176.328125 235.441406 176.488281 235.605469 176.707031 235.660156 C 177.144531 235.824219 177.632812 235.550781 177.796875 235.113281 L 182.976562 219.550781 L 181.285156 219.550781 C 181.285156 219.550781 181.230469 219.550781 181.175781 219.550781 Z M 181.175781 219.550781 " fill-opacity="1" fill-rule="nonzero"/><path fill="#000000" d="M 207.558594 237.953125 C 206.25 237.953125 205.050781 237.082031 204.613281 235.824219 L 198.945312 218.785156 C 198.835938 218.457031 198.890625 218.074219 199.109375 217.800781 C 199.328125 217.53125 199.65625 217.3125 200.035156 217.3125 L 203.253906 217.3125 C 203.523438 217.3125 203.742188 217.3125 204.015625 217.257812 C 204.558594 217.148438 205.105469 217.476562 205.269531 218.019531 L 210.554688 233.859375 C 210.828125 234.621094 210.773438 235.496094 210.390625 236.207031 C 210.011719 236.972656 209.410156 237.515625 208.59375 237.789062 C 208.210938 237.898438 207.886719 237.953125 207.558594 237.953125 Z M 201.5625 219.550781 L 206.742188 235.113281 C 206.902344 235.550781 207.394531 235.824219 207.832031 235.660156 C 208.046875 235.605469 208.210938 235.441406 208.320312 235.222656 C 208.429688 235.003906 208.429688 234.785156 208.375 234.570312 L 203.359375 219.550781 C 203.308594 219.550781 203.253906 219.550781 203.199219 219.550781 Z M 201.5625 219.550781 " fill-opacity="1" fill-rule="nonzero"/><path fill="#000000" d="M 206.359375 208.519531 C 206.140625 208.519531 205.976562 208.464844 205.757812 208.355469 C 204.996094 207.917969 204.125 207.644531 203.253906 207.644531 L 195.292969 207.644531 C 194.804688 207.644531 194.367188 207.316406 194.203125 206.824219 L 187.007812 179.246094 C 186.902344 178.917969 187.007812 178.535156 187.226562 178.265625 C 187.445312 177.992188 187.773438 177.828125 188.097656 177.828125 L 196.765625 177.828125 C 197.257812 177.828125 197.746094 178.15625 197.855469 178.644531 C 197.910156 178.808594 198.457031 180.613281 200.910156 180.613281 C 203.46875 180.613281 203.960938 178.644531 203.960938 178.644531 C 204.070312 178.15625 204.558594 177.828125 205.050781 177.828125 L 213.71875 177.828125 C 214.042969 177.828125 214.371094 177.992188 214.589844 178.265625 C 214.808594 178.535156 214.863281 178.917969 214.808594 179.246094 L 207.394531 207.644531 C 207.285156 207.972656 207.066406 208.246094 206.742188 208.410156 C 206.632812 208.464844 206.46875 208.519531 206.359375 208.519531 Z M 196.167969 205.40625 L 203.253906 205.40625 C 204.070312 205.40625 204.832031 205.515625 205.597656 205.789062 L 212.300781 180.121094 L 205.8125 180.121094 C 205.160156 181.375 203.632812 182.960938 200.910156 182.960938 C 198.183594 182.960938 196.65625 181.429688 196.003906 180.121094 L 189.515625 180.121094 Z M 196.167969 205.40625 " fill-opacity="1" fill-rule="nonzero"/><path fill="#000000" d="M 164.226562 226.320312 L 134.574219 226.320312 C 134.140625 226.320312 133.757812 226.105469 133.59375 225.722656 C 129.179688 217.09375 126.945312 207.808594 126.945312 198.03125 C 126.945312 197.433594 127.433594 196.886719 128.089844 196.886719 L 167.277344 196.886719 C 167.878906 196.886719 168.421875 197.378906 168.421875 198.03125 L 168.421875 222.171875 C 168.367188 224.464844 166.515625 226.320312 164.226562 226.320312 Z M 135.230469 224.027344 L 164.226562 224.027344 C 165.261719 224.027344 166.132812 223.210938 166.132812 222.117188 L 166.132812 199.070312 L 129.179688 199.070312 C 129.289062 207.917969 131.359375 216.273438 135.230469 224.027344 Z M 135.230469 224.027344 " fill-opacity="1" fill-rule="nonzero"/><path fill="#000000" d="M 154.089844 206.769531 L 128.742188 206.769531 C 128.144531 206.769531 127.597656 206.28125 127.597656 205.625 L 127.597656 198.03125 C 127.597656 197.433594 128.089844 196.886719 128.742188 196.886719 L 154.089844 196.886719 C 154.6875 196.886719 155.234375 197.378906 155.234375 198.03125 L 155.234375 205.625 C 155.234375 206.28125 154.6875 206.769531 154.089844 206.769531 Z M 129.886719 204.53125 L 152.996094 204.53125 L 152.996094 199.179688 L 129.886719 199.179688 Z M 129.886719 204.53125 " fill-opacity="1" fill-rule="nonzero"/><path fill="#000000" d="M 141.441406 202.566406 C 140.296875 202.566406 139.425781 201.636719 139.425781 200.546875 C 139.425781 199.398438 140.351562 198.523438 141.441406 198.523438 C 142.585938 198.523438 143.460938 199.453125 143.460938 200.546875 C 143.460938 201.636719 142.53125 202.566406 141.441406 202.566406 Z M 141.441406 200.273438 C 141.332031 200.273438 141.222656 200.382812 141.222656 200.492188 C 141.222656 200.601562 141.332031 200.710938 141.441406 200.710938 C 141.550781 200.710938 141.660156 200.601562 141.660156 200.492188 C 141.660156 200.382812 141.550781 200.273438 141.441406 200.273438 Z M 141.441406 200.273438 " fill-opacity="1" fill-rule="nonzero"/><path fill="#000000" d="M 148.308594 199.125 L 134.574219 199.125 C 133.976562 199.125 133.429688 198.632812 133.429688 197.980469 L 133.429688 197.816406 C 133.429688 193.390625 137.027344 189.839844 141.386719 189.839844 C 145.804688 189.839844 149.347656 193.445312 149.347656 197.816406 L 149.347656 198.03125 C 149.402344 198.632812 148.910156 199.125 148.308594 199.125 Z M 135.773438 196.886719 L 147.109375 196.886719 C 146.675781 194.15625 144.277344 192.082031 141.441406 192.082031 C 138.554688 192.082031 136.210938 194.15625 135.773438 196.886719 Z M 135.773438 196.886719 " fill-opacity="1" fill-rule="nonzero"/><path fill="#000000" d="M 151.035156 178.863281 C 150.761719 178.863281 150.4375 178.753906 150.21875 178.535156 L 150.054688 178.371094 C 146.949219 175.261719 146.949219 170.179688 150.054688 167.066406 C 151.582031 165.539062 153.542969 164.71875 155.667969 164.71875 C 157.792969 164.71875 159.8125 165.539062 161.28125 167.066406 L 161.445312 167.230469 C 161.882812 167.667969 161.882812 168.378906 161.445312 168.816406 L 151.746094 178.535156 C 151.636719 178.753906 151.308594 178.863281 151.035156 178.863281 Z M 155.777344 167.011719 C 154.25 167.011719 152.78125 167.613281 151.746094 168.707031 C 149.726562 170.726562 149.507812 173.894531 151.144531 176.132812 L 159.15625 168.105469 C 158.121094 167.339844 156.976562 167.011719 155.777344 167.011719 Z M 155.777344 167.011719 " fill-opacity="1" fill-rule="nonzero"/><path fill="#000000" d="M 159.375 177.5 C 159.101562 177.5 158.777344 177.390625 158.558594 177.171875 L 156.539062 175.152344 C 156.105469 174.714844 156.105469 174.003906 156.539062 173.566406 C 156.976562 173.128906 157.683594 173.128906 158.121094 173.566406 L 160.136719 175.585938 C 160.574219 176.023438 160.574219 176.734375 160.136719 177.171875 C 159.972656 177.390625 159.703125 177.5 159.375 177.5 Z M 159.375 177.5 " fill-opacity="1" fill-rule="nonzero"/><path fill="#000000" d="M 154.960938 181.921875 C 154.523438 181.921875 154.089844 181.648438 153.925781 181.210938 L 152.78125 178.316406 C 152.5625 177.773438 152.835938 177.117188 153.378906 176.84375 C 153.925781 176.625 154.578125 176.898438 154.851562 177.445312 L 155.996094 180.339844 C 156.214844 180.886719 155.941406 181.539062 155.394531 181.8125 C 155.234375 181.921875 155.125 181.921875 154.960938 181.921875 Z M 154.960938 181.921875 " fill-opacity="1" fill-rule="nonzero"/><path fill="#000000" d="M 163.789062 173.074219 C 163.625 173.074219 163.515625 173.074219 163.355469 172.964844 L 160.464844 171.820312 C 159.867188 171.601562 159.59375 170.945312 159.867188 170.34375 C 160.082031 169.746094 160.738281 169.472656 161.335938 169.746094 L 164.226562 170.890625 C 164.824219 171.109375 165.097656 171.765625 164.824219 172.367188 C 164.660156 172.800781 164.226562 173.074219 163.789062 173.074219 Z M 163.789062 173.074219 " fill-opacity="1" fill-rule="nonzero"/><path fill="#000000" d="M 141.441406 183.234375 C 139.699219 183.234375 138.28125 181.8125 138.28125 180.066406 C 138.28125 178.316406 139.699219 176.898438 141.441406 176.898438 C 143.1875 176.898438 144.605469 178.316406 144.605469 180.066406 C 144.605469 181.8125 143.1875 183.234375 141.441406 183.234375 Z M 141.441406 179.191406 C 140.953125 179.191406 140.515625 179.628906 140.515625 180.121094 C 140.515625 180.613281 140.953125 181.050781 141.441406 181.050781 C 141.933594 181.050781 142.371094 180.613281 142.371094 180.121094 C 142.371094 179.574219 141.933594 179.191406 141.441406 179.191406 Z M 141.441406 179.191406 " fill-opacity="1" fill-rule="nonzero"/><path fill="#000000" d="M 141.441406 179.191406 C 141.171875 179.191406 140.898438 179.082031 140.679688 178.863281 C 140.242188 178.425781 140.1875 177.71875 140.625 177.28125 L 150.109375 167.121094 C 150.546875 166.6875 151.253906 166.632812 151.691406 167.066406 C 152.125 167.503906 152.179688 168.214844 151.746094 168.652344 L 142.261719 178.808594 C 142.042969 179.027344 141.714844 179.191406 141.441406 179.191406 Z M 141.441406 179.191406 " fill-opacity="1" fill-rule="nonzero"/><path fill="#000000" d="M 141.441406 192.082031 C 140.84375 192.082031 140.296875 191.589844 140.296875 190.933594 L 140.296875 182.085938 C 140.296875 181.484375 140.789062 180.941406 141.441406 180.941406 C 142.042969 180.941406 142.585938 181.429688 142.585938 182.085938 L 142.585938 190.933594 C 142.53125 191.589844 142.042969 192.082031 141.441406 192.082031 Z M 141.441406 192.082031 " fill-opacity="1" fill-rule="nonzero"/><path fill="#000000" d="M 161.066406 237.953125 C 160.628906 237.953125 160.246094 237.734375 160.027344 237.300781 L 154.46875 225.667969 C 154.304688 225.339844 154.304688 224.902344 154.523438 224.574219 C 154.742188 224.246094 155.070312 224.027344 155.449219 224.027344 L 161.011719 224.027344 C 161.609375 224.027344 162.15625 224.519531 162.15625 225.175781 L 162.15625 236.808594 C 162.15625 237.355469 161.773438 237.789062 161.28125 237.898438 C 161.226562 237.953125 161.121094 237.953125 161.066406 237.953125 Z M 157.25 226.320312 L 159.921875 231.890625 L 159.921875 226.320312 Z M 157.25 226.320312 " fill-opacity="1" fill-rule="nonzero"/><path fill="#000000" d="M 245.820312 187.382812 L 220.039062 187.382812 C 218.351562 187.382812 216.933594 185.964844 216.933594 184.269531 L 216.933594 146.917969 C 216.933594 146.535156 217.152344 146.152344 217.476562 145.933594 C 217.804688 145.714844 218.242188 145.714844 218.621094 145.933594 C 219.984375 146.753906 221.347656 147.625 222.65625 148.609375 C 222.929688 148.828125 223.148438 149.15625 223.148438 149.539062 L 223.148438 181.210938 L 244.894531 181.210938 C 245.386719 181.210938 245.820312 181.539062 245.984375 182.03125 C 246.367188 183.34375 246.691406 184.707031 246.964844 186.074219 C 247.019531 186.402344 246.964844 186.726562 246.746094 187 C 246.476562 187.21875 246.148438 187.382812 245.820312 187.382812 Z M 219.167969 148.9375 L 219.167969 184.269531 C 219.167969 184.761719 219.550781 185.144531 220.039062 185.144531 L 244.402344 185.144531 C 244.296875 184.542969 244.132812 183.996094 243.96875 183.398438 L 222.058594 183.398438 C 221.457031 183.398438 220.910156 182.90625 220.910156 182.25 L 220.910156 150.085938 C 220.367188 149.703125 219.765625 149.320312 219.167969 148.9375 Z M 219.167969 148.9375 " fill-opacity="1" fill-rule="nonzero"/></svg>