<?xml version="1.0" encoding="utf-8"?>
<svg viewBox="1.537 2.311 491.529 278.942" xmlns="http://www.w3.org/2000/svg">
  <defs>
    <clipPath id="clippath7" transform="matrix(0.23999999 0 0 -0.23999999 0 817.91998)">
      <path d="M 1945.2631 507.37473 L 4054.6381 507.37473 L 4054.6381 2866.74973 L 1945.2631 2866.74973 Z" style="fill: none; clip-rule: evenodd;"/>
    </clipPath>
  </defs>
  <g transform="matrix(1, 0, 0, -1, -568.951056, 629.449711)">
    <g transform="matrix(0.341754, 0, 0, 0.341754, 570.250122, 347.800232)" style="">
      <g transform="matrix(0.23999999 0 0 -0.23999999 0 817.91998)">
        <path d="M 0 0 L 6000 0 L 6000 3406.25 L 0 3406.25 Z" style="fill: none;"/>
      </g>
      <g transform="matrix(0.23999999 0 0 -0.23999999 0 817.91998)">
        <path d="M 0 0 L 6000 0 L 6000 3375 L 0 3375 Z" style="fill: none;"/>
      </g>
      <g transform="matrix(0.23999999 0 0 -0.23999999 0 817.91998)">
        <path d="M 0 0 L 6000 0 L 6000 3375 L 0 3375 Z" style="fill: none;"/>
      </g>
      <g transform="matrix(0.23999999 0 0 -0.23999999 0 817.91998)">
        <path d="M 1945.2631 507.37473 L 4054.6381 507.37473 L 4054.6381 2866.74973 L 1945.2631 2866.74973 Z" style="fill: none;"/>
      </g>
      <g style="clip-path: url(#clippath7);">
        <g transform="matrix(0.3245790921 0 0 -0.3244799577 321.9729945845 810.9186203717)">
          <path d="M 1731.832 1566.69141 L 1633.90625 1616.57031 L 1590.92969 1632.35938 L 1590.92969 1639.5 L 1607.07813 1668.16016 L 1643.46875 1668.16016 L 1698.9961 1615.62109 L 1745.5352 1594.16016 L 1771.1914 1568.48828 L 1771.1914 1561.32031 L 1731.832 1566.69141" style="fill: rgb(243, 242, 244); fill-opacity: 1;"/>
          <path d="M 1793.1445 1616.57422 L 1769.4297 1651.46484 L 1707.4766 1712.9336 L 1707.4766 1720.125 L 1731.8164 1746.3711 L 1793.1445 1746.3711 L 1842.8477 1696.2227 L 1882.8633 1655.04297 L 1882.8633 1647.875 L 1793.1445 1616.57422" style="fill: rgb(243, 242, 244); fill-opacity: 1;"/>
          <path d="M 1675.81641 1539.33984 L 1647.67578 1566.69141 L 1590.92969 1605.48047 L 1590.92969 1632.35938 L 1607.07813 1660.98828 L 1643.46875 1660.98828 L 1698.9961 1608.44922 L 1745.5352 1586.98047 L 1771.1914 1561.32031 L 1766.4102 1521.87891 L 1675.81641 1539.33984" style="fill: rgb(231, 181, 101); fill-opacity: 1;"/>
          <path d="M 1793.1445 1609.38281 L 1769.4297 1644.3125 L 1714.5 1692.0547 L 1707.4766 1712.9336 L 1731.8164 1739.2031 L 1793.1445 1739.2031 L 1842.8477 1689.0742 L 1882.8633 1647.875 L 1882.8633 1597.60156 L 1793.1445 1609.38281" style="fill: rgb(231, 181, 101); fill-opacity: 1;"/>
          <path d="M 1643.47266 851.85156 L 1627.96094 1024.66797 L 1643.47266 1275.38281 L 1654.78516 1337.44531 L 1670.05859 1544.91016 L 1745.5313 1544 L 1775.3867 1512.33984 L 1767 1312.39453 L 1749.1406 1247.91797 L 1787.0508 956.02734 L 1719.2969 865.16016 L 1643.47266 851.85156" style="fill: rgb(55, 108, 142); fill-opacity: 1;"/>
          <path d="M 1643.46094 851.86719 L 1704.9336 979.32031 L 1750.6953 1011.58203 L 1762.2578 1313.58594 L 1790.9063 1381.64453 L 1796.8516 1577.42188 L 1790.9063 1608.45313 L 1855.3398 1627.57422 L 1887.5898 1594.45313 L 1903.7461 1381.64453 L 1874.4688 1296.89453 L 1930.5703 943.48047 L 1916.5234 870.58984 L 1643.46094 851.86719" style="fill: rgb(66, 129, 166); fill-opacity: 1;"/>
          <path d="M 1507.06641 782.76563 L 1600.20313 660.99219 L 1596.58984 552.19531 L 1534.82813 501.16016 L 1518.72656 522.18359 L 1506.19531 593.39063 L 1441.69141 736.65234 L 1507.06641 782.76563" style="fill: rgb(187, 220, 228); fill-opacity: 1;"/>
          <path d="M 1646.45313 827.08594 L 1643.47266 851.85156 L 1718.957 904.08594 L 1867.9492 924.69141 L 1867.9492 868.26172 L 1646.45313 827.08594" style="fill: rgb(31, 25, 25); fill-opacity: 1;"/>
          <path d="M 1562.44922 564.73047 L 1562.44922 646.21875 L 1594.82813 721.42188 L 1639.56641 789.48047 L 1646.44922 827.09375 L 1719.2969 880.82422 L 1860.7734 894.23047 L 1903.75 858.42578 L 1898.3281 641.13281 L 1866.1367 591.59375 L 1807.9336 542.05469 L 1727.0547 501.16016 L 1562.44922 564.73047" style="fill: rgb(138, 56, 43); fill-opacity: 1;"/>
          <path d="M 1617.81641 579.5 L 1630.30469 601.15234 L 1646.44922 606.22656 L 1666.16016 606.22656 L 1718.9531 554.28906 L 1713.3359 506.52344 L 1702.4961 487.40625 L 1656.89063 492.21484 L 1617.81641 579.5" style="fill: rgb(190, 143, 125); fill-opacity: 1;"/>
          <path d="M 1626.15625 579.5 L 1646.46094 606.22656 L 1618.98438 618.15625 L 1609.42578 592.32422 L 1626.15625 579.5" style="fill: rgb(187, 220, 228); fill-opacity: 1;"/>
          <path d="M 1523.05859 473.64453 L 1525.89453 509.22266 L 1544.09766 527.14063 L 1548.28516 550.71875 L 1583.75 610.40625 L 1614.25 610.40625 L 1676.88672 545.92578 L 1678.9805 526.84375 L 1696.3047 512.21875 L 1699.5703 494.01563 L 1704.9336 465.65625 L 1662.59375 434.00391 L 1545.25 438.79688 L 1523.05859 473.64453" style="fill: rgb(234, 174, 153); fill-opacity: 1;"/>
          <path d="M 1606.44922 353.71094 L 1555.71875 373.41406 L 1524.09375 413.40625 L 1515.17188 459.35938 L 1532.44922 490.41797 L 1587.66406 510.10547 L 1572.44141 492.78516 L 1618.98828 499.94531 L 1652.69922 497.28125 L 1658.40234 514.28906 L 1665.29297 508.3125 L 1667.92969 490.69922 L 1687.6328 473.70313 L 1699.582 480.26953 L 1699.582 493.99609 L 1713.332 462.9375 L 1700.1719 404.44531 L 1659.57422 361.47656 L 1606.44922 353.71094" style="fill: rgb(43, 32, 30); fill-opacity: 1;"/>
          <path d="M 1551.85156 542.05859 L 1550.33984 576.07031 L 1560.78516 579.35156 L 1574.54297 569.50781 L 1551.85156 542.05859" style="fill: rgb(234, 174, 153); fill-opacity: 1;"/>
          <path d="M 1702.4961 487.40625 L 1710.3086 550.71094 L 1646.44922 606.22656 L 1671.52344 632.47266 L 1737.1914 560.69141 L 1727.0547 501.16016 L 1702.4961 487.40625" style="fill: rgb(187, 220, 228); fill-opacity: 1;"/>
          <path d="M 837.8125 1392.01172 L 766.28906 1433.30859 L 766.28906 1078.05078 L 837.8125 1036.71875 L 837.8125 1392.01172 Z M 890.44922 1361.60938 L 890.44922 1006.32813 L 949.875 972.03125 L 972.55859 937.08984 L 949.875 923.96875 L 654.17969 1094.69141 L 654.17969 1142.75 L 676.86328 1155.83984 L 685.25391 1124.82813 L 713.60156 1108.44922 L 713.60156 1463.69922 L 573.19141 1544.80859 L 573.19141 1597.80859 L 595.87891 1610.89063 L 606.36719 1563.71094 L 997.73438 1337.78125 L 997.73438 1352.69922 L 1020.42188 1365.78906 L 1043.89063 1328.82813 L 1053.58984 1293.64063 L 1030.91016 1280.53125 L 890.44922 1361.60938" style="fill: rgb(208, 197, 174); fill-opacity: 1;"/>
          <path d="M 860.49609 1405.12891 L 788.92578 1446.42969 L 788.92578 1091.14844 L 860.49609 1049.82031 L 860.49609 1405.12891 Z M 913.13672 1374.71094 L 913.13672 1019.42969 L 972.55859 985.12891 L 972.55859 937.08984 L 676.86328 1107.80859 L 676.86328 1155.83984 L 736.28516 1121.55078 L 736.28516 1476.82031 L 595.87891 1557.91016 L 595.87891 1610.89063 L 629.05078 1591.76953 L 629.05078 1568.14844 L 1020.42188 1342.17188 L 1020.42188 1365.78906 L 1053.58984 1346.64063 L 1053.58984 1293.64063 L 913.13672 1374.71094" style="fill: rgb(152, 141, 129); fill-opacity: 1;"/>
          <path d="M 1740.9531 1762.418 L 890.94141 1271.68359 L 890.94141 1168.45703 L 1740.9531 1659.1875 L 1740.9531 1762.418" style="fill: rgb(152, 141, 129); fill-opacity: 1;"/>
          <path d="M 1721.1836 1773.8438 L 871.22656 1283.09766 L 871.22656 1179.87109 L 1721.1836 1670.60547 L 1721.1836 1773.8438" style="fill: rgb(208, 197, 174); fill-opacity: 1;"/>
          <path d="M 1617.80859 1833.5508 L 767.80078 1342.80859 L 767.80078 1239.57031 L 1617.80859 1730.3203 L 1617.80859 1833.5508" style="fill: rgb(152, 141, 129); fill-opacity: 1;"/>
          <path d="M 1598.05078 1844.9219 L 748.09375 1354.19141 L 748.09375 1250.94922 L 1598.05078 1741.6914 L 1598.05078 1844.9219" style="fill: rgb(208, 197, 174); fill-opacity: 1;"/>
          <path d="M 1682.832 1879.9023 L 1611.3125 1921.2031 L 1611.3125 1565.93359 L 1682.832 1524.61328 L 1682.832 1879.9023 Z M 1735.5273 1849.5 L 1735.5273 1494.19531 L 1794.9453 1459.90234 L 1817.6367 1424.96484 L 1794.9453 1411.84375 L 1499.26172 1582.57422 L 1499.26172 1630.62109 L 1521.9375 1643.72266 L 1530.28906 1612.69141 L 1558.62891 1596.33203 L 1558.62891 1951.6211 L 1418.22656 2032.6719 L 1418.22656 2085.6797 L 1440.90234 2098.7813 L 1451.39844 2051.6289 L 1842.7617 1825.6523 L 1842.7617 1840.582 L 1865.4375 1853.6836 L 1888.9102 1816.6719 L 1898.625 1781.5234 L 1875.9336 1768.4219 L 1735.5273 1849.5" style="fill: rgb(208, 197, 174); fill-opacity: 1;"/>
          <path d="M 1705.5234 1893.0234 L 1634.00391 1934.3203 L 1634.00391 1579.03125 L 1705.5234 1537.71094 L 1705.5234 1893.0234 Z M 1758.2188 1862.582 L 1758.2188 1507.32422 L 1817.6367 1473.02344 L 1817.6367 1424.96484 L 1521.9375 1595.69141 L 1521.9375 1643.72266 L 1581.36719 1609.43359 L 1581.36719 1964.6914 L 1440.90234 2045.7734 L 1440.90234 2098.7813 L 1474.08984 2079.6328 L 1474.08984 2056.0195 L 1865.4375 1830.043 L 1865.4375 1853.6836 L 1898.625 1834.5313 L 1898.625 1781.5234 L 1758.2188 1862.582" style="fill: rgb(152, 141, 129); fill-opacity: 1;"/>
          <path d="M 1011.33984 770.74219 L 1045.98047 770.74219 L 2005.5195 1324.10156 L 2005.5195 1344.10938 L 1441.15625 1669.94141 L 1406.42188 1669.94141 L 446.98047 1116.62891 L 446.98047 1096.55859 L 1011.33984 770.74219" style="fill: rgb(206, 164, 95); fill-opacity: 1;"/>
          <path d="M 1406.42188 1694.6094 L 1441.16016 1694.6094 L 1441.16016 1669.94141 L 1406.42188 1669.94141 L 1406.42188 1694.6094" style="fill: rgb(156, 108, 51); fill-opacity: 1;"/>
          <path d="M 446.98047 1141.26172 L 1406.42188 1694.6094 L 1406.42188 1669.94141 L 446.98047 1116.62891 L 446.98047 1141.26172" style="fill: rgb(173, 127, 64); fill-opacity: 1;"/>
          <path d="M 1441.15625 1694.6094 L 2005.5195 1368.76172 L 2005.5195 1344.10938 L 1441.15625 1669.94141 L 1441.15625 1694.6094" style="fill: rgb(150, 84, 38); fill-opacity: 1;"/>
          <path d="M 1354.21875 1588.20313 L 570.65234 1135.79297 L 1098.27734 831.19141 L 1881.8359 1283.58203 L 1354.21875 1588.20313" style="fill: rgb(243, 242, 244); fill-opacity: 1;"/>
          <path d="M 1149.51172 1041.89063 L 1046.62109 982.48828 L 1040.51953 986.01953 L 1143.41016 1045.42188 L 1149.51172 1041.89063" style="fill: rgb(74, 57, 52); fill-opacity: 1;"/>
          <path d="M 1164.14063 1033.42969 L 1061.25 974.03125 L 1055.14844 977.55078 L 1158.05078 1036.94922 L 1164.14063 1033.42969" style="fill: rgb(74, 57, 52); fill-opacity: 1;"/>
          <path d="M 1108.48047 1035.10938 L 1031.98047 990.94141 L 1025.87891 994.46875 L 1102.37891 1038.62891 L 1108.48047 1035.10938" style="fill: rgb(74, 57, 52); fill-opacity: 1;"/>
          <path d="M 746.77344 1108.03125 L 740.62891 1111.55859 L 1119.41016 1330.21875 L 1125.5 1326.69141 L 746.77344 1108.03125" style="fill: rgb(74, 57, 52); fill-opacity: 1;"/>
          <path d="M 725.99219 1120.01953 L 1242.64063 1418.28125 L 1248.73828 1414.76953 L 732.08984 1116.46875 L 725.99219 1120.01953" style="fill: rgb(74, 57, 52); fill-opacity: 1;"/>
          <path d="M 711.11328 1128.60938 L 1227.71094 1426.89063 L 1233.85938 1423.35156 L 717.21094 1125.07813 L 711.11328 1128.60938" style="fill: rgb(74, 57, 52); fill-opacity: 1;"/>
          <path d="M 1774.4688 1292.03125 L 1671.58203 1232.65625 L 1665.47266 1236.17188 L 1768.3828 1295.58203 L 1774.4688 1292.03125" style="fill: rgb(74, 57, 52); fill-opacity: 1;"/>
          <path d="M 1733.4219 1285.27734 L 1656.92969 1241.10156 L 1650.83594 1244.62109 L 1727.3281 1288.78906 L 1733.4219 1285.27734" style="fill: rgb(74, 57, 52); fill-opacity: 1;"/>
          <path d="M 1745.1445 1308.96094 L 1642.29688 1249.57031 L 1636.20703 1253.09375 L 1739.0938 1312.49219 L 1745.1445 1308.96094" style="fill: rgb(74, 57, 52); fill-opacity: 1;"/>
          <path d="M 1730.5547 1317.42578 L 1627.66797 1258.03516 L 1621.51953 1261.55078 L 1724.4492 1320.94922 L 1730.5547 1317.42578" style="fill: rgb(74, 57, 52); fill-opacity: 1;"/>
          <path d="M 1636.89453 1371.48828 L 1534.04297 1312.09766 L 1527.90625 1315.60938 L 1630.80078 1375.01172 L 1636.89453 1371.48828" style="fill: rgb(74, 57, 52); fill-opacity: 1;"/>
          <path d="M 1562.05078 1414.71875 L 1459.16016 1355.32031 L 1453.01172 1358.83984 L 1555.89844 1418.23047 L 1562.05078 1414.71875" style="fill: rgb(74, 57, 52); fill-opacity: 1;"/>
          <path d="M 1547.35938 1423.16016 L 1444.51953 1363.76172 L 1438.42188 1367.30078 L 1541.26953 1426.67188 L 1547.35938 1423.16016" style="fill: rgb(74, 57, 52); fill-opacity: 1;"/>
          <path d="M 1664.44141 1296.18359 L 1612.97656 1266.48828 L 1606.87109 1270.01172 L 1658.29297 1299.71484 L 1664.44141 1296.18359" style="fill: rgb(74, 57, 52); fill-opacity: 1;"/>
          <path d="M 1454.95703 1484.48047 L 1338.30859 1417.13281 L 1680.6016 1219.52344 L 1797.1953 1286.86719 L 1454.95703 1484.48047 Z M 1680.6016 1216.72656 L 1333.44141 1417.13281 L 1454.95703 1487.29297 L 1802.1289 1286.86719 L 1680.6016 1216.72656" style="fill: rgb(74, 57, 52); fill-opacity: 1;"/>
          <path d="M 1623.07813 1379.44922 L 1520.19141 1320.05859 L 1467.30078 1350.60938 L 1570.14844 1410.01172 L 1623.07813 1379.44922" style="fill: rgb(208, 197, 174); fill-opacity: 1;"/>
          <path d="M 1700.5938 1334.70703 L 1597.70313 1275.3125 L 1544.82031 1305.85156 L 1647.71875 1365.25781 L 1700.5938 1334.70703" style="fill: rgb(208, 197, 174); fill-opacity: 1;"/>
          <path d="M 1530.76953 1432.76953 L 1427.87891 1373.35156 L 1375 1403.89063 L 1477.83984 1463.30859 L 1530.76953 1432.76953" style="fill: rgb(208, 197, 174); fill-opacity: 1;"/>
          <path d="M 1400.96094 1263.53125 L 1490.37891 1211.91016 L 1428.57031 1176.23828 L 1444.57031 1166.98047 L 1523.07031 1212.26953 L 1401.58984 1282.39063 L 1323.14063 1237.10938 L 1339.14063 1227.85156 L 1400.96094 1263.53125 Z M 1373.82813 1207.83984 L 1426.12891 1177.64844 L 1485.5 1211.91016 L 1433.19922 1242.10156 L 1373.82813 1207.83984 Z M 1430.76172 1243.51953 L 1400.96094 1260.71875 L 1341.62891 1226.44141 L 1371.39063 1209.25 L 1430.76172 1243.51953 Z M 1312.83984 1377.05859 L 1196.28906 1309.75 L 1317.76953 1239.64063 L 1401.58984 1288.01953 L 1532.82031 1212.26953 L 1449.01172 1163.87109 L 1462.48047 1156.08984 L 1257.23047 1037.60156 L 1255.42188 1038.64844 L 1061.73828 926.85156 L 1095.64844 907.30078 L 1103.89063 914.64063 L 1105.64844 913.64063 L 1600.10156 1199.12109 L 1598.33984 1200.12109 L 1611.03125 1204.87891 L 1312.83984 1377.05859 Z M 1157.60938 1274.73828 L 1189.94922 1293.41016 L 1415.78125 1163.03906 L 1245.17969 1064.55859 L 1019.39063 1194.92969 L 1051.73828 1213.60938 L 1040.71094 1219.94141 L 995.97656 1194.10156 L 1122.28125 1121.16016 L 1257.23047 1043.25 L 1452.71875 1156.08984 L 1191.42188 1306.94922 L 1146.62891 1281.08984 L 1157.60938 1274.73828 Z M 1300.26172 1226.92969 L 1229.46875 1267.80859 L 1187.17188 1243.37891 L 1220.10156 1224.35156 L 1221.32031 1223.64063 L 1257.96094 1202.51172 L 1300.26172 1226.92969 Z M 1333.67969 1158.78906 L 1368.60938 1138.62109 L 1410.91016 1163.03906 L 1375.92969 1183.21094 L 1333.67969 1158.78906 Z M 1373.53906 1184.62109 L 1302.69922 1225.51172 L 1260.39844 1201.08984 L 1331.19141 1160.19922 L 1373.53906 1184.62109 Z M 1147.66016 1266.19141 L 1184.73047 1244.78906 L 1226.98047 1269.21094 L 1189.94922 1290.58984 L 1160.05078 1273.35156 L 1147.66016 1266.19141 Z M 1177.12109 1200.94922 L 1105.89063 1242.05859 L 1069.01172 1220.76953 L 1140.23828 1179.64844 L 1177.12109 1200.94922 Z M 1216.44141 1223.64063 L 1145.21094 1264.76953 L 1108.32813 1243.48047 L 1179.55859 1202.35156 L 1216.44141 1223.64063 Z M 1255.51953 1201.08984 L 1218.87891 1222.23047 L 1142.67969 1178.23828 L 1179.32031 1157.08984 L 1255.51953 1201.08984 Z M 1254.98047 1113.39063 L 1289.96094 1093.19922 L 1366.17188 1137.21094 L 1331.19141 1157.39063 L 1254.98047 1113.39063 Z M 1328.80078 1158.78906 L 1257.96094 1199.67969 L 1181.76172 1155.67969 L 1252.55078 1114.78125 L 1328.80078 1158.78906 Z M 1054.17969 1215.01953 L 1064.12891 1220.76953 L 1145.21094 1267.60156 L 1155.17188 1273.35156 L 1144.19141 1279.67969 L 1043.19922 1221.35156 L 1054.17969 1215.01953 Z M 1103.60156 1197.98047 L 1066.57031 1219.35156 L 1054.17969 1212.19141 L 1024.26953 1194.92969 L 1061.30078 1173.53906 L 1103.60156 1197.98047 Z M 1176.87891 1155.67969 L 1140.23828 1176.82031 L 1139.01953 1177.51953 L 1106.03906 1196.57031 L 1063.73828 1172.14844 L 1134.57813 1131.26172 L 1176.87891 1155.67969 Z M 1210.25 1087.55859 L 1245.17969 1067.37109 L 1287.48047 1091.78906 L 1252.55078 1111.96875 L 1210.25 1087.55859 Z M 1250.10938 1113.39063 L 1179.32031 1154.26172 L 1136.96875 1129.83984 L 1207.80859 1088.96875 L 1250.10938 1113.39063 Z M 1290.26172 1387.98047 L 778.48828 1092.51172 L 794.39063 1083.35156 L 830.73828 1104.33984 L 986.17188 1194.10156 L 991.05078 1196.91016 L 1191.42188 1312.57813 L 1306.10938 1378.80859 L 1290.26172 1387.98047 Z M 949.14063 1108.78906 L 917.13672 1127.28125 L 878.89063 1105.19141 L 910.89063 1086.69922 L 949.14063 1108.78906 Z M 913.33203 1085.28906 L 963.4375 1056.37891 L 1001.67969 1078.46875 L 951.57813 1107.39844 L 913.33203 1085.28906 Z M 963.4375 1053.57813 L 874.01172 1105.19141 L 1007.10156 1182.01953 L 991.05078 1191.28125 L 840.49219 1104.32813 L 961.92188 1034.19922 L 1112.53125 1121.16016 L 1096.53125 1130.39844 L 963.4375 1053.57813 Z M 1041.53906 1162.14063 L 1009.53906 1180.60156 L 919.57813 1128.69922 L 951.57813 1110.21875 L 1041.53906 1162.14063 Z M 954.01953 1108.78906 L 1004.12109 1079.87891 L 1094.08984 1131.82031 L 1043.98047 1160.71875 L 954.01953 1108.78906 Z M 771.80469 1090.75 L 738.96875 1071.80859 L 751.70313 1067.05078 L 749.94531 1066.05078 L 1014.71094 913.17969 L 1016.42188 914.19141 L 1024.66016 906.85938 L 1254.19922 1039.37109 L 1117.41016 1118.32813 L 961.92188 1028.55859 L 835.56641 1101.51953 L 794.39063 1077.71094 L 771.80469 1090.75 Z M 1612.39844 1205.51953 L 1611.76172 1205.17188 L 1603.03125 1197.39844 L 1601.32031 1198.41016 L 1106.82031 912.94141 L 1108.57813 911.92969 L 1095.16016 906.89063 L 1094.53125 906.53906 L 1060.57031 926.14063 L 1025.78906 906.07031 L 1025.14844 906.42969 L 1011.73828 911.48047 L 1013.48828 912.48047 L 748.72656 1065.32813 L 746.96875 1064.32813 L 738.23438 1072.10156 L 737.65234 1072.42969 L 770.58594 1091.46875 L 768.72656 1092.51172 L 1290.26172 1393.62109 L 1315.87109 1378.80859 L 1314.07031 1377.73828 L 1612.39844 1205.51953" style="fill: rgb(74, 57, 52); fill-opacity: 1;"/>
          <path d="M 1324.41016 934.51953 L 1282.30859 1004.37109 L 1287.67188 1033.91016 L 1259.46875 1089.42969 L 1270.69141 1092.12891 L 1302.01172 1060.80078 L 1324.41016 1060.80078 L 1340.51172 1040.19922 L 1362.89844 1030.33984 L 1367.82813 1002.14063 L 1360.21875 956.03125 L 1367.82813 930.05859 L 1350.35938 923.33984 L 1324.41016 934.51953" style="fill: rgb(234, 174, 153); fill-opacity: 1;"/>
          <path d="M 1441.68359 736.66406 L 1416.60156 759.92969 L 1324.41016 934.53125 L 1353.91797 943.47656 L 1360.21484 956.03516 L 1491.83984 814.5625 L 1507.05859 782.77344 L 1492.86328 730.99219 L 1441.68359 736.66406" style="fill: rgb(187, 220, 228); fill-opacity: 1;"/>
          <path d="M 1739.4844 1107.63281 L 1685.2383 1131.55469 L 1654.79297 1158.38281 L 1647.61719 1207.62891 L 1663.76953 1226.4375 L 1704.9375 1230.01953 L 1739.4844 1188.81641 L 1783.7266 1158.38281 L 1790.9141 1131.55469 L 1739.4844 1107.63281" style="fill: rgb(234, 174, 153); fill-opacity: 1;"/>
          <path d="M 1824.9609 598.76563 L 1784.6055 638.14453 L 1784.6055 700.82031 L 1832.957 911.26172 L 1737.1875 1104.66406 L 1755.0938 1127.9375 L 1790.9063 1131.55469 L 1912.6758 968.56641 L 1918.8672 911.26172 L 1903.7539 648.01172 L 1865.2109 598.76563 L 1824.9609 598.76563" style="fill: rgb(187, 220, 228); fill-opacity: 1;"/>
          <path d="M 848.49609 836.36719 L 862.89063 824.20313 L 924.55469 815.21484 L 919.23828 831.73828 L 856.49609 848.80469 L 848.49609 836.36719" style="fill: rgb(73, 43, 22); fill-opacity: 1;"/>
          <path d="M 845.95703 809.73828 L 871.03516 789.44531 L 899.33203 789.44531 L 899.33203 803.48438 L 856.49609 818.18359 L 845.95703 809.73828" style="fill: rgb(203, 200, 198); fill-opacity: 1;"/>
          <path d="M 845.95313 809.74609 L 817.17188 815.21875 L 763.55469 802.3125 L 771.45703 790.99219 L 804.73047 789.45313 L 785.60547 763.10547 L 755.70313 763.10547 L 743.50391 762.55859 L 743.50391 741.36719 L 782.875 734.03906 L 820.24609 735.84375 L 882.54688 768.71484 L 895.13281 792.66797 L 895.13281 807.26953 L 857.22656 820.19531 L 845.95313 809.74609" style="fill: rgb(234, 174, 153); fill-opacity: 1;"/>
          <path d="M 786.67969 734.03906 L 785.60547 756.61719 L 755.69922 763.11328 L 743.35547 770.60156 L 733.21094 770.60156 L 740.86719 734.03906 L 765.94531 725.53125 L 786.67969 734.03906" style="fill: rgb(190, 143, 125); fill-opacity: 1;"/>
          <path d="M 855.57031 849.67969 L 845.95703 809.73828 L 863.47266 807.87109 L 887.32813 798.55469 L 899.33203 789.44531 L 916.01563 830.51953 L 855.57031 849.67969" style="fill: rgb(243, 242, 244); fill-opacity: 1;"/>
          <path d="M 590.94922 1949.6094 L 590.94922 1954.9297 L 625.44141 1959.8086 L 655.10547 1923.5117 L 659.64063 1904.4414 L 689.40234 1883.2695 L 686.86328 1825.2813 L 590.94922 1949.6094" style="fill: rgb(240, 211, 140); fill-opacity: 1;"/>
          <path d="M 891.32813 1967.1289 L 891.32813 1972.3984 L 865.17969 1995.5703 L 782.53516 2004.6484 L 707.55078 2021.2813 L 689.40234 2004.6484 L 689.40234 1999.3516 L 891.32813 1967.1289" style="fill: rgb(240, 211, 140); fill-opacity: 1;"/>
          <path d="M 587.63281 1899.1211 L 590.94922 1949.6094 L 625.44141 1954.5195 L 655.10547 1918.25 L 659.64063 1899.1211 L 689.40234 1878.0508 L 686.86328 1820.0391 L 629.58984 1830.0586 L 587.63281 1899.1211" style="fill: rgb(173, 127, 64); fill-opacity: 1;"/>
          <path d="M 792.14453 1918.25 L 891.32813 1937.9102 L 891.32813 1967.1289 L 865.17969 1990.3008 L 782.53516 1999.3516 L 707.55078 2015.9688 L 689.40234 1999.3516 L 689.40234 1959.0781 L 742.77344 1918.25 L 792.14453 1918.25" style="fill: rgb(173, 127, 64); fill-opacity: 1;"/>
          <path d="M 561.92188 1302.28125 L 571.04688 1569.14844 L 556.16406 1662.89844 L 577.04688 1903.6602 L 632.46875 1903.6602 L 666.51953 1872.1406 L 676.51953 1841.0586 L 671.88672 1613.16016 L 696.96484 1497.69922 L 702.96484 1294.17188 L 584.12109 1266.92969 L 561.92188 1302.28125" style="fill: rgb(219, 210, 200); fill-opacity: 1;"/>
          <path d="M 587.14453 1312.30078 L 666.71875 1351.62891 L 682.81641 1630.67188 L 668.71484 1691.1211 L 682.81641 1961.1289 L 731.16016 1969.4688 L 779.55859 1957.0313 L 795.70703 1918.7305 L 795.70703 1599.42969 L 843.51953 1312.30078 L 788.58594 1168.21094 L 577.04688 1189.42188 L 587.14453 1312.30078" style="fill: rgb(243, 242, 244); fill-opacity: 1;"/>
          <path d="M 870.69531 1078.60156 L 893.37891 1031.89844 L 881.03516 999.01953 L 837.95703 1006.07031 L 834.49219 1065.21875 L 870.69531 1078.60156" style="fill: rgb(203, 200, 198); fill-opacity: 1;"/>
          <path d="M 874.98438 1006.07031 L 845.95703 1006.07031 L 845.95703 1057.71875 L 874.98438 1057.71875 L 874.98438 1006.07031" style="fill: rgb(190, 143, 125); fill-opacity: 1;"/>
          <path d="M 907.47656 1066.78906 L 865.17969 1070.94141 L 857.61719 1055.05859 L 865.17969 1014.23047 L 940.3125 1014.23047 L 932.65234 1044.42969 L 907.47656 1066.78906" style="fill: rgb(234, 174, 153); fill-opacity: 1;"/>
          <path d="M 857.61719 1018.67188 L 854.10547 1042.62109 L 870.69531 1078.60156 L 833.42188 1083.07031 L 818.34766 1031.21875 L 830.93359 1006.07031 L 857.61719 1018.67188" style="fill: rgb(243, 242, 244); fill-opacity: 1;"/>
          <path d="M 618.80859 777.90625 L 541.77344 772.10156 L 512.59766 819.55469 L 526.69922 879.16016 L 566.70313 901.29688 L 634.42188 844.61719 L 618.80859 777.90625" style="fill: rgb(43, 78, 114); fill-opacity: 1;"/>
          <path d="M 807.75781 874.86719 L 740.87109 819.55078 L 732.1875 809.63672 L 634.42188 783.39844 L 618.80859 777.90234 L 561.92188 788.38281 L 526.69922 879.16016 L 559.62891 1096.34375 L 546.36328 1308.89453 L 604.51172 1347.86328 L 629.44531 1228.44141 L 630.90625 1356.85156 L 695.21094 1369.68359 L 791.66016 1356.63672 L 851.76563 1305.29688 L 839.03125 1116.89063 L 845.95703 988.17188 L 807.75781 874.86719" style="fill: rgb(55, 108, 142); fill-opacity: 1;"/>
          <path d="M 750.72656 749.80469 L 737.99609 785.71094 L 737.99609 796.27344 L 707.21094 804.58984 L 644.17578 786.44531 L 634.42188 761.35547 L 640.12891 713.53906 L 652.13281 694.28516 L 751.21484 716.95703 L 750.72656 749.80469" style="fill: rgb(234, 174, 153); fill-opacity: 1;"/>
          <path d="M 772.97656 577.94141 L 801.66016 619.07813 L 801.66016 649.19141 L 798.6875 658.24219 L 801.66016 680.67969 L 783.95313 743.73438 L 766.97266 756.60547 L 713.55469 734.02734 L 700.86719 624.05469 L 736.67578 571.12109 L 772.97656 577.94141" style="fill: rgb(234, 174, 153); fill-opacity: 1;"/>
          <path d="M 636.03125 710.93359 L 662.71875 728.05078 L 713.55469 734.02734 L 738.23828 707.41406 L 746.33984 687.69922 L 758.39063 679.17578 L 767.95313 691.20313 L 782.53906 683.66797 L 785.60938 634.83984 L 773.51172 622.75 L 750.38672 613.21484 L 749.80078 594.52344 L 772.97656 577.9375 L 750.82422 554.25 L 694.42969 554.25 L 647.00781 586.45313 L 623.98047 629.28516 L 623.98047 676.63672 L 636.03125 710.93359" style="fill: rgb(119, 90, 87); fill-opacity: 1;"/>
          <path d="M 618.80859 777.91406 L 628.90625 756.61719 L 653.64063 777.91406 L 710.03516 790.99219 L 747.35938 783.9375 L 750.72266 819.64453 L 709.01172 820.19531 L 644.07813 808.58594 L 618.80859 777.91406" style="fill: rgb(243, 242, 244); fill-opacity: 1;"/>
          <path d="M 740.87109 948.09375 L 755.70313 889.95703 L 807.75781 874.87109 L 865.18359 912.62891 L 848.49609 836.36719 L 871.57031 835.59375 L 905.57813 825.71094 L 924.55469 815.21484 L 962.60938 1000.27734 L 924.84766 1037.33203 L 785.60938 1006.28516 L 740.87109 948.09375" style="fill: rgb(43, 78, 114); fill-opacity: 1;"/>
          <path d="M 865.17969 912.62891 L 932.65234 967.30078 L 917.57422 939.94922 L 865.17969 912.62891 Z" style="fill: rgb(29, 57, 83); fill-opacity: 1;"/>
          <path d="M 740.87109 718.76563 L 769.21484 741.37109 L 746.33594 731.55078 L 740.87109 718.76563" style="fill: rgb(190, 143, 125); fill-opacity: 1;"/>
          <path d="M 910.16016 1047.07031 L 916.01563 1023.67969 L 943.77344 988.17969 L 976.60938 1000.28125 L 962.60938 1037.32813 L 907.47656 1065.21875 L 910.16016 1047.07031" style="fill: rgb(234, 174, 153); fill-opacity: 1;"/>
        </g>
      </g>
    </g>
  </g>
</svg>