<svg xmlns="http://www.w3.org/2000/svg" xmlns:xlink="http://www.w3.org/1999/xlink" width="500" zoomAndPan="magnify" viewBox="0 0 375 374.999991" height="500" preserveAspectRatio="xMidYMid meet" version="1.0"><defs><clipPath id="1f83e17354"><path d="M 0 23.164062 L 375 23.164062 L 375 351.664062 L 0 351.664062 Z M 0 23.164062 " clip-rule="nonzero"/></clipPath><clipPath id="fb305d2edd"><path d="M 112.5 121.40625 L 262.5 121.40625 L 262.5 253.40625 L 112.5 253.40625 Z M 112.5 121.40625 " clip-rule="nonzero"/></clipPath></defs><g clip-path="url(#1f83e17354)"><path fill="#c59b64" d="M 280.683594 23.164062 L 94.316406 23.164062 L 0.00390625 187.414062 L 94.316406 351.664062 L 280.683594 351.664062 L 374.996094 187.414062 L 280.683594 23.164062 M 275.550781 342.765625 L 99.449219 342.765625 L 10.265625 187.414062 L 99.449219 32.0625 L 275.550781 32.0625 L 364.734375 187.414062 L 275.550781 342.765625 " fill-opacity="1" fill-rule="nonzero"/></g><path fill="#000000" d="M 155.285156 198.253906 L 153.453125 198.253906 L 153.453125 178.210938 L 144.078125 178.210938 L 144.078125 198.253906 L 142.277344 198.253906 L 142.277344 201.195312 L 155.285156 201.195312 Z M 150.539062 198.253906 L 147.023438 198.253906 L 147.023438 181.148438 L 150.539062 181.148438 Z M 150.539062 198.253906 " fill-opacity="1" fill-rule="nonzero"/><path fill="#000000" d="M 169.832031 178.238281 C 167.246094 178.238281 165.144531 180.339844 165.144531 182.921875 L 165.144531 201.195312 L 174.519531 201.195312 L 174.519531 182.921875 C 174.519531 180.339844 172.414062 178.238281 169.832031 178.238281 Z M 171.605469 198.253906 L 168.089844 198.253906 L 168.089844 182.921875 C 168.089844 181.960938 168.871094 181.148438 169.859375 181.148438 C 170.824219 181.148438 171.632812 181.929688 171.632812 182.921875 L 171.632812 198.253906 Z M 171.605469 198.253906 " fill-opacity="1" fill-rule="nonzero"/><path fill="#000000" d="M 209.855469 182.921875 C 209.855469 180.339844 207.753906 178.238281 205.167969 178.238281 C 202.585938 178.238281 200.480469 180.339844 200.480469 182.921875 L 200.480469 201.195312 L 209.855469 201.195312 Z M 206.910156 198.253906 L 203.394531 198.253906 L 203.394531 182.921875 C 203.394531 181.960938 204.175781 181.148438 205.167969 181.148438 C 206.128906 181.148438 206.941406 181.929688 206.941406 182.921875 L 206.941406 198.253906 Z M 206.910156 198.253906 " fill-opacity="1" fill-rule="nonzero"/><path fill="#000000" d="M 138.277344 178.238281 L 128.902344 178.238281 L 128.902344 198.285156 L 126.320312 198.285156 L 126.320312 201.222656 L 140.113281 201.222656 L 140.113281 198.285156 L 138.277344 198.285156 Z M 135.335938 198.253906 L 131.820312 198.253906 L 131.820312 181.148438 L 135.335938 181.148438 Z M 135.335938 198.253906 " fill-opacity="1" fill-rule="nonzero"/><path fill="#000000" d="M 230.890625 178.238281 L 221.515625 178.238281 L 221.515625 198.285156 L 219.683594 198.285156 L 219.683594 201.222656 L 232.722656 201.222656 L 232.722656 198.285156 L 230.890625 198.285156 Z M 227.976562 198.253906 L 224.460938 198.253906 L 224.460938 181.148438 L 227.976562 181.148438 Z M 227.976562 198.253906 " fill-opacity="1" fill-rule="nonzero"/><path fill="#000000" d="M 236.722656 178.238281 L 236.722656 198.285156 L 234.886719 198.285156 L 234.886719 201.222656 L 248.679688 201.222656 L 248.679688 198.285156 L 246.097656 198.285156 L 246.097656 178.238281 Z M 243.152344 198.253906 L 239.636719 198.253906 L 239.636719 181.148438 L 243.152344 181.148438 Z M 243.152344 198.253906 " fill-opacity="1" fill-rule="nonzero"/><path fill="#000000" d="M 148.285156 162.84375 C 148.285156 158.914062 145.101562 155.765625 141.195312 155.765625 C 137.289062 155.765625 134.101562 158.945312 134.101562 162.84375 L 134.101562 171.636719 L 148.285156 171.636719 C 148.285156 171.636719 148.285156 162.84375 148.285156 162.84375 Z M 145.339844 168.695312 L 136.988281 168.695312 L 136.988281 162.84375 C 136.988281 160.566406 138.851562 158.675781 141.164062 158.675781 C 143.476562 158.675781 145.339844 160.535156 145.339844 162.84375 Z M 145.339844 168.695312 " fill-opacity="1" fill-rule="nonzero"/><path fill="#000000" d="M 226.714844 162.84375 L 226.714844 171.636719 L 240.898438 171.636719 L 240.898438 162.84375 C 240.898438 158.914062 237.710938 155.765625 233.804688 155.765625 C 229.898438 155.765625 226.714844 158.914062 226.714844 162.84375 Z M 229.628906 162.84375 C 229.628906 160.566406 231.492188 158.675781 233.804688 158.675781 C 236.121094 158.675781 237.984375 160.535156 237.984375 162.84375 L 237.984375 168.695312 L 229.660156 168.695312 Z M 229.628906 162.84375 " fill-opacity="1" fill-rule="nonzero"/><path fill="#000000" d="M 206.730469 144.722656 C 206.730469 140.789062 203.546875 137.640625 199.640625 137.640625 C 195.734375 137.640625 192.546875 140.820312 192.546875 144.722656 L 192.546875 153.511719 L 206.730469 153.511719 Z M 203.785156 150.601562 L 195.464844 150.601562 L 195.464844 144.75 C 195.464844 142.472656 197.324219 140.582031 199.640625 140.582031 C 201.921875 140.582031 203.816406 142.441406 203.816406 144.75 L 203.816406 150.601562 Z M 203.785156 150.601562 " fill-opacity="1" fill-rule="nonzero"/><path fill="#000000" d="M 182.453125 144.722656 C 182.453125 140.789062 179.265625 137.640625 175.359375 137.640625 C 171.453125 137.640625 168.269531 140.820312 168.269531 144.722656 L 168.269531 153.511719 L 182.453125 153.511719 Z M 179.507812 150.601562 L 171.183594 150.601562 L 171.183594 144.75 C 171.183594 142.472656 173.046875 140.582031 175.359375 140.582031 C 177.671875 140.582031 179.535156 142.441406 179.535156 144.75 L 179.535156 150.601562 Z M 179.507812 150.601562 " fill-opacity="1" fill-rule="nonzero"/><path fill="#000000" d="M 179.054688 186.671875 L 179.054688 201.195312 L 186.027344 201.195312 L 186.027344 198.253906 L 181.972656 198.253906 L 181.972656 186.640625 C 181.972656 183.582031 184.433594 181.148438 187.46875 181.148438 C 190.535156 181.148438 192.96875 183.609375 192.96875 186.640625 L 192.96875 198.253906 L 188.914062 198.253906 L 188.914062 201.195312 L 195.882812 201.195312 L 195.882812 186.671875 C 195.882812 182.019531 192.097656 178.238281 187.441406 178.238281 C 182.84375 178.238281 179.054688 181.988281 179.054688 186.671875 Z M 179.054688 186.671875 " fill-opacity="1" fill-rule="nonzero"/><path fill="#000000" d="M 186.027344 210.078125 L 188.972656 210.078125 L 188.972656 213.015625 L 186.027344 213.015625 Z M 186.027344 210.078125 " fill-opacity="1" fill-rule="nonzero"/><g clip-path="url(#fb305d2edd)"><path fill="#000000" d="M 254.269531 241.195312 L 254.269531 169.71875 L 262.472656 169.71875 L 233.804688 129.207031 L 225.511719 140.941406 L 205.980469 121.40625 L 169.019531 121.40625 L 149.488281 140.910156 L 141.195312 129.207031 L 112.527344 169.71875 L 120.699219 169.71875 L 120.699219 250.464844 L 113.878906 250.464844 L 113.878906 253.40625 L 186.027344 253.40625 L 186.027344 250.464844 L 180.949219 250.464844 L 180.949219 228.980469 C 180.949219 227.148438 181.730469 225.378906 183.082031 224.148438 C 185.578125 221.898438 189.363281 221.898438 191.855469 224.148438 C 193.210938 225.378906 193.992188 227.148438 193.992188 228.980469 L 193.992188 250.464844 L 188.941406 250.464844 L 188.941406 253.40625 L 261.089844 253.40625 L 261.089844 250.464844 L 254.269531 250.464844 Z M 170.222656 124.347656 L 204.777344 124.347656 L 223.800781 143.339844 L 207.242188 166.746094 L 167.757812 166.746094 L 151.199219 143.339844 Z M 213.371094 175.597656 L 213.371094 203.804688 L 161.628906 203.804688 L 161.628906 175.597656 L 183.082031 175.597656 L 183.082031 172.65625 L 161.628906 172.65625 L 161.628906 169.65625 L 213.34375 169.65625 L 213.34375 172.65625 L 191.917969 172.65625 L 191.917969 175.597656 Z M 118.144531 166.804688 L 141.195312 134.25 L 164.179688 166.714844 L 160.90625 166.714844 L 141.195312 139.140625 L 121.421875 166.777344 L 118.144531 166.777344 Z M 123.644531 216.226562 L 135.335938 216.226562 L 135.335938 238.253906 L 123.644531 238.253906 Z M 153.363281 238.253906 L 147.023438 238.253906 L 147.023438 216.226562 L 153.363281 216.226562 Z M 153.363281 213.316406 L 144.078125 213.316406 L 144.078125 238.28125 L 142.277344 238.28125 L 142.277344 241.222656 L 153.363281 241.222656 L 153.363281 250.527344 L 123.644531 250.527344 L 123.644531 241.222656 L 140.113281 241.222656 L 140.113281 238.28125 L 138.277344 238.28125 L 138.277344 213.316406 L 123.644531 213.316406 L 123.644531 168.726562 L 141.195312 144.179688 L 158.742188 168.667969 L 158.742188 203.773438 L 149.90625 203.773438 L 149.90625 206.714844 L 153.363281 206.714844 Z M 158.683594 250.496094 L 156.25 250.496094 L 156.25 213.015625 L 158.683594 213.015625 Z M 165.683594 244.644531 L 163.191406 244.644531 L 163.191406 250.496094 L 161.628906 250.496094 L 161.628906 213.015625 L 165.683594 213.015625 Z M 173.375 250.496094 L 166.105469 250.496094 L 166.105469 247.554688 L 173.375 247.554688 Z M 168.597656 244.644531 L 168.597656 213.015625 L 171.03125 213.015625 L 171.03125 244.644531 Z M 208.863281 250.496094 L 201.59375 250.496094 L 201.59375 247.554688 L 208.863281 247.554688 Z M 203.9375 244.644531 L 203.9375 213.015625 L 206.371094 213.015625 L 206.371094 244.644531 Z M 213.371094 250.496094 L 211.808594 250.496094 L 211.808594 244.644531 L 209.316406 244.644531 L 209.316406 213.015625 L 213.371094 213.015625 Z M 218.691406 213.316406 L 218.691406 250.496094 L 216.257812 250.496094 L 216.257812 213.015625 L 218.691406 213.015625 Z M 218.691406 210.078125 L 191.886719 210.078125 L 191.886719 213.015625 L 201.023438 213.015625 L 201.023438 244.644531 L 198.679688 244.644531 L 198.679688 250.496094 L 196.964844 250.496094 L 196.964844 229.011719 C 196.964844 226.339844 195.824219 223.789062 193.871094 222.019531 C 190.234375 218.75 184.765625 218.75 181.128906 222.019531 C 179.175781 223.820312 178.035156 226.339844 178.035156 229.011719 L 178.035156 250.496094 L 176.320312 250.496094 L 176.320312 244.644531 L 173.976562 244.644531 L 173.976562 213.015625 L 183.113281 213.015625 L 183.113281 210.078125 L 156.308594 210.078125 L 156.308594 206.714844 L 218.75 206.714844 Z M 251.355469 238.253906 L 239.636719 238.253906 L 239.636719 216.226562 L 251.355469 216.226562 Z M 251.355469 213.316406 L 236.722656 213.316406 L 236.722656 238.28125 L 234.886719 238.28125 L 234.886719 241.222656 L 251.355469 241.222656 L 251.355469 250.527344 L 221.636719 250.527344 L 221.636719 241.222656 L 232.722656 241.222656 L 232.722656 238.28125 L 230.890625 238.28125 L 230.890625 213.316406 L 221.636719 213.316406 L 221.636719 206.714844 L 225.09375 206.714844 L 225.09375 203.773438 L 216.257812 203.773438 L 216.257812 168.667969 L 233.804688 144.179688 L 251.355469 168.726562 Z M 221.636719 238.253906 L 221.636719 216.226562 L 227.976562 216.226562 L 227.976562 238.253906 Z M 233.804688 139.140625 L 214.0625 166.714844 L 210.820312 166.714844 L 233.804688 134.25 L 256.792969 166.777344 L 253.546875 166.777344 Z M 233.804688 139.140625 " fill-opacity="1" fill-rule="nonzero"/></g><path fill="#000000" d="M 186.027344 172.65625 L 188.972656 172.65625 L 188.972656 175.597656 L 186.027344 175.597656 Z M 186.027344 172.65625 " fill-opacity="1" fill-rule="nonzero"/></svg>