<svg xmlns="http://www.w3.org/2000/svg" xmlns:xlink="http://www.w3.org/1999/xlink" width="500" zoomAndPan="magnify" viewBox="0 0 375 374.999991" height="500" preserveAspectRatio="xMidYMid meet" version="1.0"><defs><clipPath id="98eebe494b"><path d="M 0 23.164062 L 375 23.164062 L 375 351.664062 L 0 351.664062 Z M 0 23.164062 " clip-rule="nonzero"/></clipPath><clipPath id="e7d317e90c"><path d="M 112.5 147 L 262.5 147 L 262.5 262.5 L 112.5 262.5 Z M 112.5 147 " clip-rule="nonzero"/></clipPath><clipPath id="d4a426b965"><path d="M 227 112.5 L 253 112.5 L 253 230 L 227 230 Z M 227 112.5 " clip-rule="nonzero"/></clipPath><clipPath id="4be39d4a93"><path d="M 180 112.5 L 185 112.5 L 185 118 L 180 118 Z M 180 112.5 " clip-rule="nonzero"/></clipPath></defs><g clip-path="url(#98eebe494b)"><path fill="#c59b64" d="M 280.683594 23.164062 L 94.316406 23.164062 L 0.00390625 187.414062 L 94.316406 351.664062 L 280.683594 351.664062 L 374.996094 187.414062 L 280.683594 23.164062 M 275.550781 342.765625 L 99.449219 342.765625 L 10.265625 187.414062 L 99.449219 32.0625 L 275.550781 32.0625 L 364.734375 187.414062 L 275.550781 342.765625 " fill-opacity="1" fill-rule="nonzero"/></g><path fill="#100f0d" d="M 207.5 177.5 L 220 177.5 C 221.375 177.5 222.5 176.378906 222.5 175 C 222.5 173.625 221.375 172.5 220 172.5 L 207.5 172.5 C 206.121094 172.5 205 173.625 205 175 C 205 176.378906 206.121094 177.5 207.5 177.5 " fill-opacity="1" fill-rule="nonzero"/><g clip-path="url(#e7d317e90c)"><path fill="#100f0d" d="M 117.5 165 C 117.5 158.105469 123.105469 152.5 130 152.5 C 136.894531 152.5 142.5 158.105469 142.5 165 L 142.5 232.765625 C 139.316406 229.523438 134.890625 227.5 130 227.5 C 125.105469 227.5 120.671875 229.523438 117.5 232.765625 Z M 260 172.5 C 258.621094 172.5 257.5 173.625 257.5 175 L 257.5 257.5 L 130 257.5 C 123.105469 257.5 117.5 251.894531 117.5 245 C 117.5 238.105469 123.105469 232.5 130 232.5 C 136.894531 232.5 142.5 238.105469 142.5 245 C 142.5 246.378906 143.621094 247.5 145 247.5 C 146.375 247.5 147.5 246.378906 147.5 245 L 147.5 177.5 L 155 177.5 C 156.375 177.5 157.5 176.378906 157.5 175 C 157.5 173.625 156.375 172.5 155 172.5 L 147.5 172.5 L 147.5 165 C 147.5 155.351562 139.648438 147.5 130 147.5 C 120.351562 147.5 112.5 155.351562 112.5 165 L 112.5 245 C 112.5 254.648438 120.351562 262.5 130 262.5 L 260 262.5 C 261.375 262.5 262.5 261.378906 262.5 260 L 262.5 175 C 262.5 173.625 261.375 172.5 260 172.5 " fill-opacity="1" fill-rule="nonzero"/></g><g clip-path="url(#d4a426b965)"><path fill="#100f0d" d="M 232.5 125 C 232.5 120.859375 235.859375 117.5 240 117.5 C 244.140625 117.5 247.5 120.859375 247.5 125 L 247.5 127.5 L 232.5 127.5 Z M 232.5 137.5 L 232.5 132.5 L 247.5 132.5 L 247.5 137.5 Z M 237.5 200 L 232.5 200 L 232.5 142.5 L 237.5 142.5 Z M 244.304688 210 L 235.691406 210 L 233.691406 205 L 246.308594 205 Z M 237.695312 215 L 242.304688 215 L 240 220.773438 Z M 227.675781 203.429688 L 231.667969 213.417969 C 231.679688 213.429688 231.679688 213.429688 231.679688 213.429688 L 237.675781 228.429688 C 238.054688 229.375 238.972656 230 240 230 C 241.023438 230 241.941406 229.375 242.324219 228.429688 L 248.320312 213.429688 C 248.320312 213.429688 248.320312 213.429688 248.328125 213.417969 L 252.324219 203.429688 C 252.429688 203.164062 252.46875 202.882812 252.480469 202.597656 C 252.480469 202.558594 252.5 202.539062 252.5 202.5 L 252.5 160 C 252.5 158.625 251.375 157.5 250 157.5 C 248.621094 157.5 247.5 158.625 247.5 160 L 247.5 200 L 242.5 200 L 242.5 142.5 L 247.5 142.5 L 247.5 150 C 247.5 151.378906 248.621094 152.5 250 152.5 C 251.375 152.5 252.5 151.378906 252.5 150 L 252.5 125 C 252.5 118.105469 246.894531 112.5 240 112.5 C 233.105469 112.5 227.5 118.105469 227.5 125 L 227.5 202.5 C 227.5 202.539062 227.519531 202.558594 227.519531 202.597656 C 227.527344 202.882812 227.566406 203.164062 227.675781 203.429688 " fill-opacity="1" fill-rule="nonzero"/></g><path fill="#100f0d" d="M 177.5 167.5 L 195 167.5 C 196.375 167.5 197.5 168.625 197.5 170 C 197.5 171.378906 196.375 172.5 195 172.5 L 170 172.5 C 168.621094 172.5 167.5 171.378906 167.5 170 C 167.5 168.625 168.621094 167.5 170 167.5 Z M 177.917969 146.105469 L 181.707031 147.375 C 182.226562 147.539062 182.773438 147.539062 183.289062 147.375 L 187.078125 146.105469 L 185.261719 162.5 L 179.734375 162.5 Z M 182.5 187.5 C 176.980469 187.5 172.5 183.019531 172.5 177.5 L 192.5 177.5 C 192.5 183.019531 188.015625 187.5 182.5 187.5 Z M 167.5 161.757812 L 167.5 162.960938 C 164.597656 163.996094 162.5 166.75 162.5 170 C 162.5 173.253906 164.597656 176.007812 167.5 177.042969 L 167.5 177.5 C 167.5 184.140625 171.84375 189.785156 177.839844 191.75 C 175.195312 194.425781 171.855469 196.339844 168.144531 197.265625 L 164.335938 198.214844 C 158.835938 199.589844 155 204.503906 155 210.175781 C 155 216.972656 160.527344 222.5 167.324219 222.5 L 172.5 222.5 C 173.875 222.5 175 221.378906 175 220 C 175 218.625 173.875 217.5 172.5 217.5 L 167.324219 217.5 C 163.289062 217.5 160 214.210938 160 210.175781 C 160 206.808594 162.285156 203.878906 165.546875 203.066406 L 169.363281 202.109375 C 175.183594 200.65625 180.253906 197.226562 183.808594 192.433594 C 191.472656 191.769531 197.5 185.332031 197.5 177.5 L 197.5 177.042969 C 200.398438 176.007812 202.5 173.253906 202.5 170 C 202.5 166.75 200.398438 163.996094 197.5 162.960938 L 197.5 161.757812 C 202.273438 157.480469 205 151.445312 205 145 C 205 141.007812 203.914062 137.0625 201.863281 133.585938 C 201.171875 132.394531 199.636719 132.003906 198.445312 132.707031 C 197.253906 133.410156 196.855469 134.941406 197.558594 136.125 C 199.160156 138.828125 200 141.894531 200 145 C 200 150.324219 197.605469 155.304688 193.4375 158.652344 C 192.839844 159.121094 192.5 159.84375 192.5 160.597656 L 192.5 162.5 L 190.292969 162.5 L 192.480469 142.773438 C 192.578125 141.933594 192.234375 141.09375 191.570312 140.558594 C 190.90625 140.019531 190.019531 139.863281 189.207031 140.128906 L 182.5 142.363281 L 175.789062 140.128906 C 174.980469 139.863281 174.089844 140.019531 173.425781 140.558594 C 172.761719 141.09375 172.421875 141.933594 172.519531 142.773438 L 174.707031 162.5 L 172.5 162.5 L 172.5 160.597656 C 172.5 159.84375 172.15625 159.121094 171.5625 158.652344 C 167.390625 155.304688 165 150.324219 165 145 C 165 135.351562 172.851562 127.5 182.5 127.5 C 185.605469 127.5 188.671875 128.339844 191.367188 129.941406 C 192.566406 130.644531 194.101562 130.246094 194.792969 129.054688 C 195.496094 127.871094 195.105469 126.328125 193.914062 125.636719 C 190.4375 123.585938 186.492188 122.5 182.5 122.5 C 170.097656 122.5 160 132.597656 160 145 C 160 151.445312 162.714844 157.480469 167.5 161.757812 " fill-opacity="1" fill-rule="nonzero"/><path fill="#100f0d" d="M 152.5 147.5 C 153.875 147.5 155 146.378906 155 145 C 155 143.625 153.875 142.5 152.5 142.5 C 151.121094 142.5 150 143.625 150 145 C 150 146.378906 151.121094 147.5 152.5 147.5 " fill-opacity="1" fill-rule="nonzero"/><path fill="#100f0d" d="M 210 145 C 210 146.378906 211.121094 147.5 212.5 147.5 C 213.875 147.5 215 146.378906 215 145 C 215 143.625 213.875 142.5 212.5 142.5 C 211.121094 142.5 210 143.625 210 145 " fill-opacity="1" fill-rule="nonzero"/><g clip-path="url(#4be39d4a93)"><path fill="#100f0d" d="M 182.5 117.5 C 183.875 117.5 185 116.378906 185 115 C 185 113.625 183.875 112.5 182.5 112.5 C 181.121094 112.5 180 113.625 180 115 C 180 116.378906 181.121094 117.5 182.5 117.5 " fill-opacity="1" fill-rule="nonzero"/></g><path fill="#100f0d" d="M 155.261719 132.167969 C 156.464844 132.851562 157.996094 132.441406 158.679688 131.25 C 159.375 130.058594 158.964844 128.527344 157.761719 127.832031 C 156.570312 127.148438 155.046875 127.558594 154.355469 128.75 C 153.660156 129.941406 154.070312 131.476562 155.261719 132.167969 " fill-opacity="1" fill-rule="nonzero"/><path fill="#100f0d" d="M 207.234375 162.167969 C 208.425781 162.851562 209.949219 162.441406 210.644531 161.25 C 211.335938 160.058594 210.925781 158.527344 209.734375 157.832031 C 208.535156 157.148438 207 157.558594 206.316406 158.75 C 205.625 159.941406 206.035156 161.476562 207.234375 162.167969 " fill-opacity="1" fill-rule="nonzero"/><path fill="#100f0d" d="M 196.25 121.183594 C 197.441406 121.875 198.972656 121.464844 199.667969 120.265625 C 200.359375 119.074219 199.941406 117.550781 198.75 116.855469 C 197.558594 116.164062 196.023438 116.574219 195.332031 117.765625 C 194.636719 118.964844 195.058594 120.5 196.25 121.183594 " fill-opacity="1" fill-rule="nonzero"/><path fill="#100f0d" d="M 209.734375 132.167969 C 210.925781 131.476562 211.335938 129.941406 210.644531 128.75 C 209.949219 127.558594 208.425781 127.148438 207.234375 127.832031 C 206.035156 128.527344 205.625 130.058594 206.316406 131.25 C 207 132.441406 208.535156 132.851562 209.734375 132.167969 " fill-opacity="1" fill-rule="nonzero"/><path fill="#100f0d" d="M 158.679688 158.75 C 157.996094 157.558594 156.464844 157.148438 155.261719 157.832031 C 154.070312 158.527344 153.660156 160.058594 154.355469 161.25 C 155.046875 162.441406 156.570312 162.851562 157.761719 162.167969 C 158.964844 161.476562 159.375 159.941406 158.679688 158.75 " fill-opacity="1" fill-rule="nonzero"/><path fill="#100f0d" d="M 168.75 121.183594 C 169.941406 120.5 170.351562 118.964844 169.667969 117.765625 C 168.972656 116.574219 167.441406 116.164062 166.25 116.855469 C 165.058594 117.550781 164.648438 119.074219 165.332031 120.265625 C 166.023438 121.464844 167.558594 121.875 168.75 121.183594 " fill-opacity="1" fill-rule="nonzero"/><path fill="#100f0d" d="M 195 242.5 L 205 242.5 C 206.375 242.5 207.5 241.378906 207.5 240 L 207.5 235.800781 C 208.347656 235.402344 209.160156 234.933594 209.929688 234.394531 L 213.5625 236.496094 C 214.765625 237.1875 216.296875 236.777344 216.980469 235.578125 L 221.980469 226.925781 C 222.675781 225.722656 222.265625 224.199219 221.0625 223.507812 L 217.441406 221.40625 C 217.480469 220.9375 217.5 220.46875 217.5 220 C 217.5 219.53125 217.480469 219.0625 217.441406 218.59375 L 221.0625 216.496094 C 222.265625 215.800781 222.675781 214.277344 221.980469 213.078125 L 216.980469 204.425781 C 216.296875 203.222656 214.765625 202.8125 213.5625 203.507812 L 209.929688 205.605469 C 209.160156 205.070312 208.347656 204.601562 207.5 204.199219 L 207.5 200 C 207.5 198.625 206.375 197.5 205 197.5 L 195 197.5 C 193.621094 197.5 192.5 198.625 192.5 200 L 192.5 204.199219 C 191.648438 204.601562 190.839844 205.070312 190.066406 205.605469 L 186.425781 203.507812 C 185.234375 202.8125 183.699219 203.222656 183.015625 204.425781 L 178.015625 213.078125 C 177.324219 214.277344 177.734375 215.800781 178.925781 216.496094 L 182.558594 218.59375 C 182.519531 219.0625 182.5 219.53125 182.5 220 C 182.5 220.46875 182.519531 220.9375 182.558594 221.40625 L 178.925781 223.507812 C 177.734375 224.199219 177.324219 225.722656 178.015625 226.925781 C 178.699219 228.117188 180.234375 228.527344 181.425781 227.832031 L 186.511719 224.902344 C 187.429688 224.375 187.910156 223.320312 187.722656 222.285156 C 187.566406 221.484375 187.5 220.734375 187.5 220 C 187.5 219.269531 187.566406 218.515625 187.722656 217.714844 C 187.910156 216.679688 187.429688 215.625 186.511719 215.097656 L 183.59375 213.417969 L 186.09375 209.082031 L 189.011719 210.773438 C 189.929688 211.300781 191.074219 211.191406 191.882812 210.507812 C 193.046875 209.511719 194.375 208.742188 195.839844 208.222656 C 196.835938 207.871094 197.5 206.933594 197.5 205.871094 L 197.5 202.5 L 202.5 202.5 L 202.5 205.871094 C 202.5 206.933594 203.164062 207.871094 204.160156 208.222656 C 205.625 208.742188 206.953125 209.511719 208.113281 210.507812 C 208.925781 211.191406 210.078125 211.300781 210.984375 210.773438 L 213.90625 209.082031 L 216.40625 213.417969 L 213.484375 215.097656 C 212.578125 215.625 212.089844 216.679688 212.273438 217.714844 C 212.429688 218.515625 212.5 219.269531 212.5 220 C 212.5 220.734375 212.429688 221.484375 212.273438 222.285156 C 212.089844 223.320312 212.578125 224.375 213.484375 224.902344 L 216.40625 226.582031 L 213.90625 230.917969 L 210.984375 229.230469 C 210.078125 228.703125 208.925781 228.808594 208.113281 229.492188 C 206.953125 230.488281 205.625 231.261719 204.160156 231.777344 C 203.164062 232.128906 202.5 233.066406 202.5 234.132812 L 202.5 237.5 L 197.5 237.5 L 197.5 234.132812 C 197.5 233.066406 196.835938 232.128906 195.839844 231.777344 C 194.375 231.261719 193.046875 230.488281 191.882812 229.492188 C 191.074219 228.808594 189.929688 228.703125 189.011719 229.230469 L 183.925781 232.167969 C 182.734375 232.851562 182.324219 234.386719 183.015625 235.578125 C 183.699219 236.777344 185.234375 237.1875 186.425781 236.496094 L 190.066406 234.394531 C 190.839844 234.933594 191.648438 235.402344 192.5 235.800781 L 192.5 240 C 192.5 241.378906 193.621094 242.5 195 242.5 " fill-opacity="1" fill-rule="nonzero"/><path fill="#100f0d" d="M 197.5 220 C 197.5 218.625 198.621094 217.5 200 217.5 C 201.375 217.5 202.5 218.625 202.5 220 C 202.5 221.378906 201.375 222.5 200 222.5 C 198.621094 222.5 197.5 221.378906 197.5 220 Z M 207.5 220 C 207.5 215.859375 204.140625 212.5 200 212.5 C 195.859375 212.5 192.5 215.859375 192.5 220 C 192.5 224.140625 195.859375 227.5 200 227.5 C 204.140625 227.5 207.5 224.140625 207.5 220 " fill-opacity="1" fill-rule="nonzero"/><path fill="#100f0d" d="M 202.5 252.5 L 232.5 252.5 C 238.015625 252.5 242.5 248.019531 242.5 242.5 L 242.5 237.5 C 242.5 236.125 241.375 235 240 235 C 238.621094 235 237.5 236.125 237.5 237.5 L 237.5 242.5 C 237.5 245.253906 235.253906 247.5 232.5 247.5 L 202.5 247.5 C 201.121094 247.5 200 248.625 200 250 C 200 251.378906 201.121094 252.5 202.5 252.5 " fill-opacity="1" fill-rule="nonzero"/><path fill="#100f0d" d="M 167.5 242.5 C 167.5 243.878906 166.375 245 165 245 C 163.621094 245 162.5 243.878906 162.5 242.5 C 162.5 241.125 163.621094 240 165 240 C 166.375 240 167.5 241.125 167.5 242.5 Z M 157.5 242.5 C 157.5 246.640625 160.859375 250 165 250 C 169.140625 250 172.5 246.640625 172.5 242.5 C 172.5 238.359375 169.140625 235 165 235 C 160.859375 235 157.5 238.359375 157.5 242.5 " fill-opacity="1" fill-rule="nonzero"/></svg>