<svg xmlns="http://www.w3.org/2000/svg" xmlns:xlink="http://www.w3.org/1999/xlink" width="500" zoomAndPan="magnify" viewBox="0 0 375 374.999991" height="500" preserveAspectRatio="xMidYMid meet" version="1.0"><defs><clipPath id="4fd44df474"><path d="M 0 23.164062 L 375 23.164062 L 375 351.664062 L 0 351.664062 Z M 0 23.164062 " clip-rule="nonzero"/></clipPath><clipPath id="e53fe9273b"><path d="M 113 130.59375 L 262 130.59375 L 262 244.59375 L 113 244.59375 Z M 113 130.59375 " clip-rule="nonzero"/></clipPath></defs><g clip-path="url(#4fd44df474)"><path fill="#c59b64" d="M 280.683594 23.164062 L 94.316406 23.164062 L 0.00390625 187.414062 L 94.316406 351.664062 L 280.683594 351.664062 L 374.996094 187.414062 L 280.683594 23.164062 M 275.550781 342.765625 L 99.449219 342.765625 L 10.265625 187.414062 L 99.449219 32.0625 L 275.550781 32.0625 L 364.734375 187.414062 L 275.550781 342.765625 " fill-opacity="1" fill-rule="nonzero"/></g><path fill="#000000" d="M 221.96875 191.191406 C 213.171875 191.191406 205.988281 183.996094 205.988281 175.1875 C 205.988281 166.375 213.171875 159.183594 221.96875 159.183594 C 230.761719 159.183594 237.945312 166.375 237.945312 175.1875 C 237.945312 183.996094 230.761719 191.191406 221.96875 191.191406 Z M 221.96875 162.78125 C 215.144531 162.78125 209.582031 168.355469 209.582031 175.1875 C 209.582031 182.019531 215.144531 187.59375 221.96875 187.59375 C 228.789062 187.59375 234.351562 182.019531 234.351562 175.1875 C 234.351562 168.355469 228.789062 162.78125 221.96875 162.78125 Z M 221.96875 162.78125 " fill-opacity="1" fill-rule="nonzero"/><path fill="#000000" d="M 251.226562 214.027344 L 239.199219 192.449219 C 240.457031 192.089844 241.714844 191.550781 242.609375 190.289062 C 243.6875 188.671875 243.6875 186.695312 243.507812 184.898438 C 243.507812 183.816406 243.328125 182.917969 243.507812 182.199219 C 243.6875 181.660156 244.40625 180.761719 244.945312 180.042969 C 246.023438 178.601562 247.457031 177.164062 247.457031 175.007812 C 247.457031 172.847656 246.203125 171.410156 244.945312 169.972656 C 244.40625 169.253906 243.6875 168.535156 243.507812 167.816406 C 243.328125 167.09375 243.328125 166.195312 243.507812 165.117188 C 243.6875 163.320312 243.6875 161.339844 242.609375 159.722656 C 241.355469 158.105469 239.558594 157.566406 237.765625 157.207031 C 236.867188 157.027344 235.789062 156.667969 235.25 156.308594 C 234.710938 155.945312 234.175781 155.046875 233.636719 154.148438 C 232.738281 152.710938 231.660156 150.914062 229.6875 150.371094 C 227.890625 149.832031 226.097656 150.550781 224.480469 151.09375 C 223.582031 151.453125 222.503906 151.8125 221.789062 151.8125 C 221.070312 151.8125 220.171875 151.453125 219.09375 151.09375 C 217.480469 150.371094 215.683594 149.652344 213.890625 150.371094 C 211.914062 150.914062 210.835938 152.710938 209.9375 154.148438 C 209.402344 155.046875 208.863281 155.765625 208.324219 156.308594 C 207.785156 156.667969 206.707031 157.027344 205.808594 157.207031 C 204.015625 157.566406 202.21875 158.105469 200.964844 159.722656 C 199.886719 161.339844 199.886719 163.320312 200.066406 165.117188 C 200.066406 166.195312 200.246094 167.09375 200.066406 167.816406 C 199.886719 168.355469 199.167969 169.253906 198.628906 169.972656 C 197.554688 171.410156 196.117188 172.847656 196.117188 175.007812 C 196.117188 176.984375 197.375 178.601562 198.628906 180.042969 C 199.167969 180.761719 199.886719 181.480469 200.066406 182.199219 C 200.246094 182.917969 200.246094 183.816406 200.066406 184.898438 C 199.886719 186.695312 199.886719 188.671875 200.964844 190.289062 C 202.039062 191.730469 203.65625 192.269531 205.273438 192.628906 L 193.425781 214.027344 C 193.066406 214.566406 193.066406 215.285156 193.425781 215.824219 C 193.78125 216.363281 194.320312 216.722656 195.039062 216.722656 L 202.757812 216.183594 L 206.347656 223.015625 C 206.707031 223.554688 207.246094 223.914062 207.964844 223.914062 C 208.683594 223.914062 209.222656 223.554688 209.582031 223.015625 L 222.503906 200.179688 L 235.070312 222.835938 C 235.429688 223.375 235.96875 223.734375 236.6875 223.734375 C 237.40625 223.734375 237.945312 223.375 238.300781 222.835938 L 241.894531 216.003906 L 249.613281 216.542969 C 250.332031 216.542969 250.867188 216.183594 251.226562 215.644531 C 251.585938 215.285156 251.585938 214.566406 251.226562 214.027344 Z M 203.835938 185.078125 C 203.835938 183.816406 204.015625 182.378906 203.65625 181.121094 C 203.296875 179.863281 202.398438 178.78125 201.503906 177.882812 C 200.785156 176.984375 199.886719 175.90625 199.886719 175.1875 C 199.886719 174.46875 200.785156 173.390625 201.503906 172.488281 C 202.398438 171.410156 203.296875 170.511719 203.65625 169.253906 C 204.015625 167.996094 204.015625 166.554688 203.835938 165.296875 C 203.835938 164.039062 203.65625 162.78125 204.015625 162.242188 C 204.375 161.699219 205.632812 161.339844 206.707031 161.160156 C 207.964844 160.800781 209.402344 160.441406 210.476562 159.722656 C 211.554688 159.003906 212.273438 157.746094 212.992188 156.667969 C 213.710938 155.585938 214.246094 154.507812 214.964844 154.328125 C 215.144531 154.328125 215.144531 154.328125 215.324219 154.328125 C 216.042969 154.328125 216.941406 154.6875 217.839844 155.046875 C 219.09375 155.585938 220.351562 156.125 221.789062 156.125 C 223.222656 156.125 224.480469 155.585938 225.738281 155.046875 C 226.8125 154.6875 227.890625 154.148438 228.609375 154.328125 C 229.328125 154.507812 229.867188 155.585938 230.582031 156.667969 C 231.300781 157.746094 232.019531 159.003906 233.097656 159.722656 C 234.175781 160.441406 235.609375 160.800781 236.867188 161.160156 C 238.125 161.519531 239.199219 161.699219 239.558594 162.242188 C 239.917969 162.78125 239.917969 164.039062 239.738281 165.296875 C 239.738281 166.554688 239.558594 167.996094 239.917969 169.253906 C 240.277344 170.511719 241.175781 171.589844 242.074219 172.488281 C 242.789062 173.390625 243.6875 174.46875 243.6875 175.1875 C 243.6875 175.90625 242.789062 176.984375 242.074219 177.882812 C 241.175781 178.960938 240.277344 179.863281 239.917969 181.121094 C 239.558594 182.378906 239.558594 183.816406 239.738281 185.078125 C 239.738281 186.335938 239.917969 187.59375 239.558594 188.132812 C 239.199219 188.671875 237.945312 189.03125 236.867188 189.210938 C 235.609375 189.570312 234.175781 189.929688 233.097656 190.652344 C 232.019531 191.371094 231.300781 192.628906 230.582031 193.707031 C 229.867188 194.785156 229.328125 195.863281 228.609375 196.042969 C 228.070312 196.226562 226.8125 195.683594 225.738281 195.324219 C 224.839844 194.964844 223.761719 194.605469 222.863281 194.425781 C 222.503906 194.425781 222.144531 194.246094 221.789062 194.246094 C 220.351562 194.246094 219.09375 194.785156 217.839844 195.324219 C 216.761719 195.683594 215.683594 196.226562 214.964844 196.042969 C 214.246094 195.863281 213.710938 194.785156 212.992188 193.707031 C 212.273438 192.628906 211.554688 191.371094 210.476562 190.652344 C 209.402344 189.929688 207.964844 189.570312 206.707031 189.210938 C 205.453125 188.851562 204.375 188.671875 204.015625 188.132812 C 203.65625 187.59375 203.835938 186.335938 203.835938 185.078125 Z M 208.324219 218.339844 L 205.632812 213.488281 C 205.273438 212.945312 204.554688 212.585938 204.015625 212.585938 L 198.449219 212.765625 L 208.863281 193.886719 C 209.222656 194.246094 209.761719 194.964844 210.117188 195.683594 C 211.015625 197.125 212.09375 198.921875 214.066406 199.460938 C 214.605469 199.640625 214.964844 199.640625 215.503906 199.640625 C 216.761719 199.640625 218.195312 199.101562 219.273438 198.5625 Z M 240.996094 212.40625 C 240.277344 212.40625 239.558594 212.765625 239.378906 213.308594 L 236.6875 218.160156 L 226.273438 199.28125 C 227.351562 199.640625 228.609375 199.820312 229.867188 199.460938 C 231.839844 198.921875 232.917969 197.125 233.816406 195.683594 C 234.351562 194.785156 234.890625 194.066406 235.429688 193.527344 C 235.609375 193.347656 235.789062 193.347656 235.96875 193.347656 L 246.738281 212.765625 Z M 240.996094 212.40625 " fill-opacity="1" fill-rule="nonzero"/><g clip-path="url(#e53fe9273b)"><path fill="#000000" d="M 254.28125 244.59375 L 120.71875 244.59375 C 116.410156 244.59375 113 241.175781 113 236.863281 L 113 138.324219 C 113 134.011719 116.410156 130.59375 120.71875 130.59375 L 254.28125 130.59375 C 258.589844 130.59375 262 134.011719 262 138.324219 L 262 236.863281 C 262 240.996094 258.410156 244.59375 254.28125 244.59375 Z M 120.71875 134.191406 C 118.386719 134.191406 116.589844 135.988281 116.589844 138.324219 L 116.589844 236.863281 C 116.589844 239.199219 118.386719 240.996094 120.71875 240.996094 L 254.28125 240.996094 C 256.613281 240.996094 258.410156 239.199219 258.410156 236.863281 L 258.410156 138.324219 C 258.410156 135.988281 256.613281 134.191406 254.28125 134.191406 Z M 120.71875 134.191406 " fill-opacity="1" fill-rule="nonzero"/></g><path fill="#000000" d="M 247.996094 237.042969 L 127.542969 237.042969 C 123.773438 237.042969 120.71875 233.984375 120.71875 230.207031 L 120.71875 144.980469 C 120.71875 141.203125 123.773438 138.144531 127.542969 138.144531 L 247.996094 138.144531 C 251.765625 138.144531 254.816406 141.203125 254.816406 144.980469 L 254.816406 230.207031 C 254.816406 233.984375 251.765625 237.042969 247.996094 237.042969 Z M 127.542969 139.945312 C 124.847656 139.945312 122.515625 142.28125 122.515625 144.980469 L 122.515625 230.207031 C 122.515625 232.90625 124.847656 235.242188 127.542969 235.242188 L 247.996094 235.242188 C 250.6875 235.242188 253.023438 232.90625 253.023438 230.207031 L 253.023438 144.980469 C 253.023438 142.28125 250.6875 139.945312 247.996094 139.945312 Z M 127.542969 139.945312 " fill-opacity="1" fill-rule="nonzero"/><path fill="#000000" d="M 191.988281 157.386719 L 133.824219 157.386719 C 132.746094 157.386719 132.03125 156.667969 132.03125 155.585938 C 132.03125 154.507812 132.746094 153.789062 133.824219 153.789062 L 191.808594 153.789062 C 192.886719 153.789062 193.601562 154.507812 193.601562 155.585938 C 193.601562 156.667969 192.886719 157.386719 191.988281 157.386719 Z M 191.988281 157.386719 " fill-opacity="1" fill-rule="nonzero"/><path fill="#000000" d="M 185.347656 202.339844 L 133.824219 202.339844 C 132.746094 202.339844 132.03125 201.617188 132.03125 200.539062 C 132.03125 199.460938 132.746094 198.742188 133.824219 198.742188 L 185.347656 198.742188 C 186.421875 198.742188 187.140625 199.460938 187.140625 200.539062 C 187.140625 201.617188 186.421875 202.339844 185.347656 202.339844 Z M 185.347656 202.339844 " fill-opacity="1" fill-rule="nonzero"/><path fill="#000000" d="M 185.347656 181.660156 L 133.824219 181.660156 C 132.746094 181.660156 132.03125 180.941406 132.03125 179.863281 C 132.03125 178.78125 132.746094 178.0625 133.824219 178.0625 L 185.347656 178.0625 C 186.421875 178.0625 187.140625 178.78125 187.140625 179.863281 C 187.140625 180.941406 186.421875 181.660156 185.347656 181.660156 Z M 185.347656 181.660156 " fill-opacity="1" fill-rule="nonzero"/><path fill="#000000" d="M 161.109375 216.003906 L 133.824219 216.003906 C 132.746094 216.003906 132.03125 215.285156 132.03125 214.207031 C 132.03125 213.125 132.746094 212.40625 133.824219 212.40625 L 161.109375 212.40625 C 162.1875 212.40625 162.90625 213.125 162.90625 214.207031 C 162.90625 215.285156 162.1875 216.003906 161.109375 216.003906 Z M 161.109375 216.003906 " fill-opacity="1" fill-rule="nonzero"/></svg>