<svg xmlns="http://www.w3.org/2000/svg" xmlns:xlink="http://www.w3.org/1999/xlink" width="500" zoomAndPan="magnify" viewBox="0 0 375 374.999991" height="500" preserveAspectRatio="xMidYMid meet" version="1.0"><defs><clipPath id="af8437d1ee"><path d="M 0 23.164062 L 375 23.164062 L 375 351.664062 L 0 351.664062 Z M 0 23.164062 " clip-rule="nonzero"/></clipPath><clipPath id="fb21ff56a8"><path d="M 112.5 127.6875 L 139 127.6875 L 139 149 L 112.5 149 Z M 112.5 127.6875 " clip-rule="nonzero"/></clipPath><clipPath id="c1d330854e"><path d="M 236 127.6875 L 262.5 127.6875 L 262.5 149 L 236 149 Z M 236 127.6875 " clip-rule="nonzero"/></clipPath><clipPath id="09fc376487"><path d="M 112.601562 227 L 138.667969 227 L 138.667969 247.683594 L 112.601562 247.683594 Z M 112.601562 227 " clip-rule="nonzero"/></clipPath><clipPath id="6e523ac8b4"><path d="M 236.332031 227 L 262.398438 227 L 262.398438 247.683594 L 236.332031 247.683594 Z M 236.332031 227 " clip-rule="nonzero"/></clipPath></defs><g clip-path="url(#af8437d1ee)"><path fill="#c59b64" d="M 280.683594 23.164062 L 94.316406 23.164062 L 0.00390625 187.414062 L 94.316406 351.664062 L 280.683594 351.664062 L 374.996094 187.414062 L 280.683594 23.164062 M 275.550781 342.765625 L 99.449219 342.765625 L 10.265625 187.414062 L 99.449219 32.0625 L 275.550781 32.0625 L 364.734375 187.414062 L 275.550781 342.765625 " fill-opacity="1" fill-rule="nonzero"/></g><path fill="#151b2e" d="M 188.789062 171.714844 L 186.210938 171.714844 L 186.210938 186.390625 L 171.578125 186.390625 L 171.578125 188.980469 L 186.210938 188.980469 L 186.210938 203.660156 L 188.789062 203.660156 L 188.789062 188.980469 L 203.421875 188.980469 L 203.421875 186.390625 L 188.789062 186.390625 L 188.789062 171.714844 " fill-opacity="1" fill-rule="nonzero"/><path fill="#151b2e" d="M 187.5 228.316406 C 165.164062 228.316406 146.996094 210.089844 146.996094 187.6875 C 146.996094 165.28125 165.164062 147.054688 187.5 147.054688 C 209.835938 147.054688 228.003906 165.28125 228.003906 187.6875 C 228.003906 210.089844 209.835938 228.316406 187.5 228.316406 Z M 187.5 144.246094 C 163.621094 144.246094 144.195312 163.734375 144.195312 187.6875 C 144.195312 211.640625 163.621094 231.128906 187.5 231.128906 C 211.378906 231.128906 230.804688 211.640625 230.804688 187.6875 C 230.804688 163.734375 211.378906 144.246094 187.5 144.246094 " fill-opacity="1" fill-rule="nonzero"/><g clip-path="url(#fb21ff56a8)"><path fill="#151b2e" d="M 112.601562 148.371094 L 115.40625 148.371094 L 115.40625 130.496094 L 138.390625 130.496094 L 138.390625 127.6875 L 112.601562 127.6875 L 112.601562 148.371094 " fill-opacity="1" fill-rule="nonzero"/></g><g clip-path="url(#c1d330854e)"><path fill="#151b2e" d="M 236.609375 127.6875 L 236.609375 130.496094 L 259.59375 130.496094 L 259.59375 148.371094 L 262.398438 148.371094 L 262.398438 127.6875 L 236.609375 127.6875 " fill-opacity="1" fill-rule="nonzero"/></g><g clip-path="url(#09fc376487)"><path fill="#151b2e" d="M 115.40625 227 L 112.601562 227 L 112.601562 247.683594 L 138.390625 247.683594 L 138.390625 244.875 L 115.40625 244.875 L 115.40625 227 " fill-opacity="1" fill-rule="nonzero"/></g><g clip-path="url(#6e523ac8b4)"><path fill="#151b2e" d="M 259.59375 244.875 L 236.609375 244.875 L 236.609375 247.683594 L 262.398438 247.683594 L 262.398438 227 L 259.59375 227 L 259.59375 244.875 " fill-opacity="1" fill-rule="nonzero"/></g></svg>