<svg xmlns="http://www.w3.org/2000/svg" xmlns:xlink="http://www.w3.org/1999/xlink" width="500" zoomAndPan="magnify" viewBox="0 0 375 374.999991" height="500" preserveAspectRatio="xMidYMid meet" version="1.0"><defs><clipPath id="59165af88f"><path d="M 0 23.164062 L 375 23.164062 L 375 351.664062 L 0 351.664062 Z M 0 23.164062 " clip-rule="nonzero"/></clipPath><clipPath id="207bc92b99"><path d="M 112.5 119.046875 L 262.5 119.046875 L 262.5 256.296875 L 112.5 256.296875 Z M 112.5 119.046875 " clip-rule="nonzero"/></clipPath></defs><g clip-path="url(#59165af88f)"><path fill="#c59b64" d="M 280.683594 23.164062 L 94.316406 23.164062 L 0.00390625 187.414062 L 94.316406 351.664062 L 280.683594 351.664062 L 374.996094 187.414062 L 280.683594 23.164062 M 275.550781 342.765625 L 99.449219 342.765625 L 10.265625 187.414062 L 99.449219 32.0625 L 275.550781 32.0625 L 364.734375 187.414062 L 275.550781 342.765625 " fill-opacity="1" fill-rule="nonzero"/></g><g clip-path="url(#207bc92b99)"><path fill="#000000" d="M 254.261719 119.046875 L 120.738281 119.046875 C 116.234375 119.046875 112.570312 122.71875 112.570312 127.238281 L 112.570312 212.304688 C 112.570312 216.824219 116.234375 220.496094 120.738281 220.496094 L 203.953125 220.496094 C 204.71875 223.304688 205.980469 225.894531 207.648438 228.183594 C 203.175781 234.519531 199.648438 241.730469 197.175781 249.648438 C 197.027344 250.125 197.191406 250.644531 197.585938 250.949219 C 197.980469 251.253906 198.523438 251.28125 198.945312 251.015625 C 200.777344 249.859375 206.132812 247.007812 208.8125 247.671875 C 211.132812 248.246094 213.808594 252.789062 214.953125 255.519531 C 215.140625 255.964844 215.578125 256.25 216.050781 256.25 C 216.117188 256.25 216.183594 256.242188 216.25 256.234375 C 216.796875 256.140625 217.203125 255.683594 217.238281 255.128906 C 217.621094 248.839844 219.4375 242.941406 222.609375 237.566406 C 223.949219 237.804688 225.320312 237.949219 226.726562 237.949219 C 228.132812 237.949219 229.503906 237.804688 230.84375 237.566406 C 234.015625 242.9375 235.832031 248.839844 236.214844 255.128906 C 236.25 255.683594 236.660156 256.140625 237.203125 256.234375 C 237.269531 256.242188 237.335938 256.25 237.402344 256.25 C 237.875 256.25 238.3125 255.96875 238.5 255.519531 C 239.644531 252.789062 242.324219 248.246094 244.640625 247.671875 C 247.332031 247.007812 252.671875 249.859375 254.507812 251.015625 C 254.929688 251.28125 255.476562 251.257812 255.867188 250.949219 C 256.261719 250.644531 256.425781 250.125 256.277344 249.648438 C 253.800781 241.726562 250.273438 234.515625 245.804688 228.183594 C 247.472656 225.894531 248.734375 223.300781 249.5 220.496094 L 254.261719 220.496094 C 258.769531 220.496094 262.433594 216.820312 262.433594 212.304688 L 262.433594 127.238281 C 262.429688 122.71875 258.765625 119.046875 254.261719 119.046875 Z M 226.726562 190.566406 C 215.226562 190.566406 205.632812 198.84375 203.53125 209.765625 L 123.296875 209.765625 L 123.296875 129.777344 L 251.703125 129.777344 L 251.703125 209.765625 L 249.917969 209.765625 C 247.820312 198.84375 238.222656 190.566406 226.726562 190.566406 Z M 215.296875 250.972656 C 213.894531 248.640625 211.8125 245.960938 209.382812 245.355469 C 206.730469 244.699219 202.960938 246.191406 200.410156 247.46875 C 202.648438 241.140625 205.605469 235.320312 209.210938 230.105469 C 212.121094 233.339844 215.894531 235.765625 220.175781 237.003906 C 217.707031 241.363281 216.066406 246.039062 215.296875 250.972656 Z M 205.472656 214.257812 C 205.472656 202.507812 215.007812 192.949219 226.726562 192.949219 C 238.445312 192.949219 247.980469 202.507812 247.980469 214.257812 C 247.980469 226.007812 238.445312 235.566406 226.726562 235.566406 C 215.007812 235.566406 205.472656 226.007812 205.472656 214.257812 Z M 253.042969 247.472656 C 250.492188 246.191406 246.730469 244.699219 244.070312 245.359375 C 241.640625 245.960938 239.554688 248.640625 238.15625 250.972656 C 237.382812 246.039062 235.746094 241.363281 233.277344 237.007812 C 237.558594 235.765625 241.328125 233.339844 244.242188 230.109375 C 247.847656 235.320312 250.804688 241.136719 253.042969 247.472656 Z M 260.050781 212.304688 C 260.050781 215.507812 257.453125 218.113281 254.261719 218.113281 L 250.019531 218.113281 C 250.226562 216.855469 250.359375 215.574219 250.359375 214.257812 C 250.359375 213.546875 250.3125 212.84375 250.253906 212.148438 L 252.890625 212.148438 C 253.550781 212.148438 254.082031 211.617188 254.082031 210.957031 L 254.082031 128.585938 C 254.082031 127.925781 253.550781 127.390625 252.890625 127.390625 L 122.109375 127.390625 C 121.449219 127.390625 120.917969 127.925781 120.917969 128.585938 L 120.917969 210.957031 C 120.917969 211.617188 121.449219 212.148438 122.109375 212.148438 L 203.199219 212.148438 C 203.140625 212.847656 203.09375 213.546875 203.09375 214.257812 C 203.09375 215.574219 203.226562 216.855469 203.433594 218.113281 L 120.738281 218.113281 C 117.546875 218.113281 114.949219 215.507812 114.949219 212.304688 L 114.949219 127.238281 C 114.949219 124.035156 117.546875 121.429688 120.738281 121.429688 L 254.261719 121.429688 C 257.453125 121.429688 260.050781 124.035156 260.050781 127.238281 Z M 260.050781 212.304688 " fill-opacity="1" fill-rule="nonzero"/></g><path fill="#000000" d="M 150.257812 148.273438 L 224.152344 148.273438 C 224.8125 148.273438 225.34375 147.742188 225.34375 147.082031 L 225.34375 136.289062 C 225.34375 135.632812 224.8125 135.097656 224.152344 135.097656 L 150.257812 135.097656 C 149.601562 135.097656 149.070312 135.632812 149.070312 136.289062 L 149.070312 147.082031 C 149.070312 147.742188 149.601562 148.273438 150.257812 148.273438 Z M 151.449219 137.480469 L 222.964844 137.480469 L 222.964844 145.890625 L 151.449219 145.890625 Z M 151.449219 137.480469 " fill-opacity="1" fill-rule="nonzero"/><path fill="#000000" d="M 238.617188 160.953125 L 139.042969 160.953125 C 138.386719 160.953125 137.855469 161.488281 137.855469 162.148438 C 137.855469 162.804688 138.386719 163.339844 139.042969 163.339844 L 238.617188 163.339844 C 239.277344 163.339844 239.808594 162.804688 239.808594 162.148438 C 239.808594 161.488281 239.273438 160.953125 238.617188 160.953125 Z M 238.617188 160.953125 " fill-opacity="1" fill-rule="nonzero"/><path fill="#000000" d="M 173.695312 175.257812 C 174.351562 175.257812 174.882812 174.722656 174.882812 174.0625 C 174.882812 173.40625 174.351562 172.871094 173.695312 172.871094 L 147.789062 172.871094 C 147.132812 172.871094 146.601562 173.40625 146.601562 174.0625 C 146.601562 174.722656 147.132812 175.257812 147.789062 175.257812 Z M 173.695312 175.257812 " fill-opacity="1" fill-rule="nonzero"/><path fill="#000000" d="M 232.785156 172.871094 L 191.792969 172.871094 C 191.136719 172.871094 190.605469 173.40625 190.605469 174.0625 C 190.605469 174.722656 191.136719 175.257812 191.792969 175.257812 L 232.785156 175.257812 C 233.445312 175.257812 233.976562 174.722656 233.976562 174.0625 C 233.976562 173.40625 233.445312 172.871094 232.785156 172.871094 Z M 232.785156 172.871094 " fill-opacity="1" fill-rule="nonzero"/><path fill="#000000" d="M 182.390625 194.136719 C 179.359375 192.96875 175.191406 193.136719 170.726562 194.640625 C 171.675781 191.445312 170.398438 190.179688 169.542969 189.703125 C 168.796875 189.289062 167.265625 188.441406 157.351562 194.246094 C 159.042969 190.796875 158.835938 189.347656 158.511719 188.542969 C 158.234375 187.863281 157.710938 187.378906 156.996094 187.152344 C 151.667969 185.445312 140.109375 197.78125 137.847656 200.269531 C 137.40625 200.757812 137.441406 201.511719 137.925781 201.957031 C 138.152344 202.164062 138.441406 202.265625 138.726562 202.265625 C 139.050781 202.265625 139.371094 202.136719 139.605469 201.878906 C 144.808594 196.15625 153.417969 188.507812 156.296875 189.425781 C 156.300781 189.433594 156.757812 190.328125 154.800781 194.003906 C 154.355469 194.84375 154.515625 195.847656 155.199219 196.507812 C 155.886719 197.167969 156.898438 197.285156 157.71875 196.796875 C 164.855469 192.550781 167.828125 191.664062 168.390625 191.792969 C 168.855469 192.046875 168.703125 193.140625 168.410156 194.082031 C 168.15625 194.894531 168.375 195.769531 168.976562 196.363281 C 169.589844 196.96875 170.484375 197.175781 171.308594 196.910156 C 175.367188 195.574219 179 195.382812 181.535156 196.363281 C 182.152344 196.597656 182.835938 196.296875 183.074219 195.679688 C 183.308594 195.066406 183.003906 194.375 182.390625 194.136719 Z M 182.390625 194.136719 " fill-opacity="1" fill-rule="nonzero"/><path fill="#000000" d="M 226.726562 195.984375 C 216.675781 195.984375 208.496094 204.179688 208.496094 214.257812 C 208.496094 224.335938 216.675781 232.535156 226.726562 232.535156 C 236.777344 232.535156 244.953125 224.335938 244.953125 214.257812 C 244.957031 204.179688 236.777344 195.984375 226.726562 195.984375 Z M 226.726562 230.148438 C 217.988281 230.148438 210.875 223.019531 210.875 214.257812 C 210.875 205.496094 217.988281 198.367188 226.726562 198.367188 C 235.464844 198.367188 242.574219 205.496094 242.574219 214.257812 C 242.574219 223.019531 235.464844 230.148438 226.726562 230.148438 Z M 226.726562 230.148438 " fill-opacity="1" fill-rule="nonzero"/><path fill="#000000" d="M 238.488281 209.257812 C 238.300781 208.828125 237.871094 208.546875 237.402344 208.546875 L 230.558594 208.546875 L 227.785156 203.097656 C 227.378906 202.296875 226.074219 202.296875 225.667969 203.097656 L 222.894531 208.546875 L 216.050781 208.546875 C 215.582031 208.546875 215.152344 208.824219 214.964844 209.257812 C 214.773438 209.691406 214.855469 210.195312 215.175781 210.546875 L 220.003906 215.824219 L 217.328125 222.433594 C 217.144531 222.894531 217.261719 223.425781 217.632812 223.761719 C 218 224.097656 218.539062 224.167969 218.980469 223.9375 L 226.726562 219.890625 L 234.476562 223.9375 C 234.648438 224.027344 234.835938 224.074219 235.023438 224.074219 C 235.3125 224.074219 235.601562 223.96875 235.824219 223.761719 C 236.195312 223.425781 236.3125 222.894531 236.125 222.433594 L 233.449219 215.824219 L 238.28125 210.546875 C 238.597656 210.195312 238.679688 209.691406 238.488281 209.257812 Z M 231.1875 214.765625 C 230.875 215.105469 230.789062 215.59375 230.960938 216.019531 L 232.703125 220.324219 L 227.277344 217.488281 C 226.933594 217.308594 226.519531 217.308594 226.175781 217.488281 L 220.75 220.328125 L 222.492188 216.023438 C 222.664062 215.59375 222.578125 215.105469 222.265625 214.765625 L 218.757812 210.933594 L 223.625 210.933594 C 224.074219 210.933594 224.484375 210.679688 224.6875 210.28125 L 226.730469 206.265625 L 228.773438 210.28125 C 228.976562 210.679688 229.386719 210.933594 229.832031 210.933594 L 234.699219 210.933594 Z M 231.1875 214.765625 " fill-opacity="1" fill-rule="nonzero"/></svg>