<svg xmlns="http://www.w3.org/2000/svg" xmlns:xlink="http://www.w3.org/1999/xlink" width="1920" zoomAndPan="magnify" viewBox="0 0 1440 809.999993" height="1080" preserveAspectRatio="xMidYMid meet" version="1.0"><defs><clipPath id="b0db9f4f33"><path d="M 329.484375 122 L 1110 122 L 1110 687.949219 L 329.484375 687.949219 Z M 329.484375 122 " clip-rule="nonzero"/></clipPath></defs><path fill="#ffffff" d="M 1054.769531 572.765625 C 1046.183594 556.539062 1033.285156 475.40625 1025.65625 455.839844 C 1018.027344 436.277344 984.601562 414.316406 963.113281 406.6875 C 941.628906 399.042969 908.699219 395.230469 908.699219 395.230469 C 908.699219 395.230469 900.488281 436.242188 876.058594 456.746094 C 880.4375 452.25 882.9375 448.195312 882.9375 448.195312 L 849.988281 411.441406 L 822.789062 441.867188 C 817.09375 420.660156 819.4375 394.253906 819.4375 394.253906 C 819.4375 394.253906 819.285156 394.222656 819.011719 394.171875 C 825.714844 393.828125 831.992188 393.914062 837.570312 394.253906 L 839.484375 376.128906 C 839.484375 376.128906 816.101562 376.128906 806.539062 354.648438 L 702.464844 355.605469 L 702.464844 469.195312 L 707.628906 475.59375 C 705.441406 472.90625 688.332031 452.402344 677.625 453.292969 C 671.023438 453.839844 668.746094 452.386719 666.230469 451.410156 C 671.964844 451.855469 677.625 453.292969 677.625 453.292969 L 674.769531 152.296875 C 632.277344 146.085938 578.339844 179.503906 578.339844 179.503906 L 627.023438 292.617188 L 504.335938 258.261719 C 496.707031 264.945312 484.765625 295.730469 484.765625 295.730469 C 526.300781 305.992188 547.308594 363.265625 547.308594 391.894531 C 547.308594 420.523438 523.683594 429.125 523.683594 429.125 C 523.683594 429.125 523.855469 429.210938 524.128906 429.382812 C 515.371094 425.605469 505.074219 424.59375 505.074219 424.59375 C 505.074219 424.59375 501.738281 407.40625 494.570312 407.648438 C 491.816406 407.730469 488.855469 409.734375 486.253906 412.160156 L 488.617188 394.527344 C 488.617188 394.527344 495.785156 384.027344 495.066406 379.734375 C 494.347656 375.445312 485.757812 369.234375 485.757812 369.234375 C 485.757812 369.234375 486.957031 346.558594 480.269531 333.203125 C 473.578125 319.84375 470.484375 316.730469 470.484375 316.730469 C 470.484375 316.730469 472.878906 348.953125 446.621094 362.546875 C 446.621094 362.546875 427.769531 358.496094 422.515625 367.320312 C 417.265625 376.144531 433.738281 391.417969 433.738281 391.417969 C 433.738281 391.417969 435.65625 415.753906 423.714844 430.066406 L 456.183594 449.632812 L 456.183594 423.378906 L 466.207031 424.339844 C 466.207031 424.339844 467.386719 422.097656 469.082031 420.78125 C 467.882812 422.113281 468.34375 424.765625 470.019531 428.648438 C 472.417969 434.136719 475.273438 439.148438 476.230469 446.554688 C 477.1875 453.960938 484.339844 477.097656 484.339844 477.097656 L 540.175781 496.167969 C 542.636719 509.558594 545.921875 524.113281 545.921875 524.113281 L 555.125 563.191406 C 554.183594 563.753906 553.570312 564.046875 553.570312 564.046875 C 553.570312 564.046875 558.015625 584.414062 558.976562 602.234375 C 559.933594 620.054688 558.34375 637.550781 544.65625 649.964844 C 530.972656 662.382812 513.949219 658.722656 513.949219 658.722656 L 520.792969 685.605469 L 774.449219 683.058594 L 778.449219 681.621094 C 776.792969 682.785156 775.472656 683.023438 774.839844 683.058594 L 962.207031 683.539062 L 961.59375 682.21875 L 1082.996094 683.058594 C 1084.84375 670.128906 1063.359375 588.996094 1054.769531 572.765625 Z M 470.449219 419.976562 C 470.757812 419.875 471.082031 419.804688 471.40625 419.804688 C 471.046875 419.824219 470.738281 419.890625 470.449219 419.976562 Z M 532.152344 434.273438 C 534.613281 435.933594 536.992188 437.695312 538.242188 439.132812 C 541.578125 442.945312 541.097656 442.945312 540.15625 452.488281 C 539.96875 454.335938 539.714844 456.011719 539.4375 457.636719 C 539.867188 454.265625 540.261719 451.207031 540.398438 448.914062 C 540.84375 441.59375 539.96875 440.621094 532.152344 434.273438 Z M 938.601562 498.476562 C 936.15625 495.089844 934.582031 492.285156 932.921875 490.078125 C 938.480469 494.183594 938.601562 498.476562 938.601562 498.476562 Z M 882.183594 485.785156 C 878.558594 486.828125 875.90625 487.648438 875.90625 487.648438 C 875.90625 487.648438 875.359375 487.71875 874.382812 487.890625 C 876.8125 487.171875 879.429688 486.453125 882.183594 485.785156 Z M 706.125 478.585938 L 701.726562 478.636719 L 707.476562 476.054688 C 706.859375 477.199219 706.414062 478.054688 706.125 478.585938 Z M 821.386719 518.535156 C 819.179688 517.269531 819.164062 515.253906 820.191406 512.910156 C 820.054688 514.824219 820.277344 516.878906 821.386719 518.535156 Z M 826.589844 503.554688 C 831.359375 497.191406 849.820312 493.378906 849.820312 493.378906 C 849.820312 493.378906 849.972656 492.953125 850.160156 492.25 C 850.433594 492.574219 850.828125 492.847656 851.410156 493.070312 C 851.410156 493.070312 850.246094 493.277344 852.605469 493.003906 C 843.933594 495.621094 834.21875 499.332031 825.957031 504.410156 C 826.160156 504.121094 826.367188 503.828125 826.589844 503.554688 Z M 846.601562 467.949219 C 838.699219 467.417969 833.003906 463.023438 828.929688 456.628906 C 832.761719 461.519531 838.460938 466.222656 846.601562 467.949219 Z M 751.628906 417.171875 C 753.902344 415.34375 756.261719 413.648438 758.660156 412.074219 C 753.816406 416.265625 748.789062 421.140625 742.542969 426.714844 C 729.832031 438.089844 716.882812 459.3125 710.28125 470.976562 C 715.875 460.183594 730.808594 433.898438 751.628906 417.171875 Z M 626.460938 455.890625 C 624.902344 456.644531 623.585938 457.601562 622.578125 459.003906 C 623.621094 457.414062 624.988281 456.457031 626.460938 455.890625 Z M 619.085938 465.8125 C 618.417969 467.605469 618.128906 468.871094 618.128906 468.871094 C 618.128906 468.871094 616.023438 473.796875 613.851562 479.628906 C 614.449219 477.816406 616.605469 471.472656 619.085938 465.8125 Z M 613.648438 480.175781 C 612.980469 481.972656 612.3125 483.835938 611.695312 485.667969 C 612.089844 484.160156 612.398438 483.1875 612.398438 483.1875 L 610.449219 480.5 Z M 565.921875 514.054688 C 565.921875 514.054688 584.703125 501.964844 588.363281 509.285156 C 586.363281 505.554688 571.429688 511.644531 559.832031 517.101562 Z M 587.386719 517.734375 C 586.257812 519.800781 584.6875 521.871094 582.90625 523.820312 C 584.601562 521.445312 586.207031 519.496094 587.386719 517.734375 Z M 562.140625 557.410156 C 564.054688 554.433594 565.988281 550.414062 567.355469 545.078125 C 567.835938 543.199219 568.332031 541.675781 568.8125 540.410156 C 568.554688 542.121094 568.230469 544.34375 567.511719 547.472656 C 566.585938 551.542969 564.449219 554.84375 562.140625 557.410156 Z M 611.355469 500.441406 C 612.191406 501.023438 613.21875 501.433594 614.3125 501.65625 C 614.3125 501.65625 614.296875 501.65625 614.296875 501.65625 C 612.945312 501.757812 612.003906 501.28125 611.355469 500.441406 Z M 622.902344 499.109375 C 622.902344 499.109375 622.78125 499.433594 622.097656 499.859375 C 622.371094 499.621094 622.644531 499.382812 622.902344 499.109375 C 622.902344 499.109375 625.074219 505.164062 629.417969 508.15625 C 624.75 505.25 622.902344 499.109375 622.902344 499.109375 Z M 637.21875 509.285156 C 646.765625 506.101562 647.089844 503.554688 647.089844 503.554688 C 647.089844 503.554688 647.054688 503.761719 647.023438 504.066406 C 646.730469 505.058594 645.191406 507.351562 637.21875 509.285156 Z M 648.183594 507.984375 C 649.347656 509.320312 651.605469 510.277344 656.003906 509.609375 C 651.589844 510.429688 649.332031 509.402344 648.183594 507.984375 Z M 676.050781 508.019531 C 681.507812 505.882812 686.367188 495.378906 689.308594 487.566406 C 686.195312 495.960938 681.0625 507.421875 676.050781 508.019531 Z M 857.449219 520.109375 L 838.664062 522.023438 C 838.664062 522.023438 837.347656 521.871094 834.917969 521.476562 C 847.628906 520.863281 857.449219 520.109375 857.449219 520.109375 C 857.449219 520.109375 855.53125 532.832031 863.488281 534.75 C 852.675781 532.507812 857.449219 520.109375 857.449219 520.109375 Z M 880.78125 560.777344 C 882.421875 561.652344 884.542969 562.351562 887.367188 562.746094 C 895.234375 563.824219 903.226562 565.292969 908.683594 566.386719 C 905.191406 565.839844 900.144531 565.226562 892.925781 564.660156 C 887.128906 564.199219 883.296875 562.660156 880.78125 560.777344 Z M 915.695312 567.824219 L 922.058594 579.589844 Z M 774.378906 683.007812 L 774.773438 683.007812 C 774.53125 683.023438 774.378906 683.007812 774.378906 683.007812 Z M 838.03125 397.609375 L 839.46875 376.128906 C 784.09375 370.398438 801.75 284.015625 801.75 284.015625 C 826.570312 290.222656 871.921875 284.496094 871.921875 284.496094 L 881.464844 305.496094 C 881.464844 305.496094 895.785156 302.640625 897.21875 313.140625 C 899.617188 329.847656 888.152344 336.519531 888.152344 336.519531 L 896.261719 374.707031 C 896.261719 374.707031 875.253906 394.273438 859.023438 400.960938 C 842.804688 407.628906 838.03125 397.609375 838.03125 397.609375 Z M 714.867188 322.203125 L 714.386719 138.441406 C 842.324219 135.585938 879.085938 240.578125 879.085938 240.578125 C 879.085938 240.578125 874.316406 237.71875 851.390625 236.285156 C 828.46875 234.847656 821.320312 240.097656 811.292969 247.261719 C 801.269531 254.429688 800.792969 271.121094 800.792969 271.121094 C 800.792969 271.121094 788.851562 280.183594 787.894531 288.789062 C 786.933594 297.390625 796.960938 307.394531 796.960938 307.394531 L 798.394531 320.75 Z M 714.867188 322.203125 " fill-opacity="1" fill-rule="evenodd"/><path fill="#ffd700" d="M 553.519531 124.605469 L 627.042969 292.601562 L 450.398438 240.113281 C 472.363281 153.253906 553.519531 124.605469 553.519531 124.605469 Z M 484.289062 477.0625 L 486.203125 503.554688 L 462.820312 464.90625 L 464.257812 454.882812 L 423.664062 430.066406 L 404.332031 444.859375 C 404.332031 444.859375 401.714844 443.902344 389.296875 455.363281 C 376.875 466.820312 372.582031 485.90625 372.582031 485.90625 C 365.894531 509.285156 373.0625 549.867188 378.792969 572.765625 C 384.523438 595.683594 387.859375 627.167969 385.960938 646.273438 C 384.0625 665.375 374.5 685.402344 374.5 685.402344 L 519.628906 683.484375 L 513.898438 658.671875 L 526.320312 659.628906 C 544.929688 659.148438 560.207031 630.042969 560.683594 610.476562 C 561.164062 590.914062 541.59375 496.644531 541.59375 496.644531 Z M 600.613281 561.273438 C 592.589844 561.273438 586.089844 567.773438 586.089844 575.792969 C 586.089844 583.816406 592.589844 590.3125 600.613281 590.3125 C 608.636719 590.3125 615.136719 583.816406 615.136719 575.792969 C 615.136719 567.773438 608.636719 561.273438 600.613281 561.273438 Z M 703.730469 619.183594 C 695.707031 619.183594 689.207031 625.679688 689.207031 633.703125 C 689.207031 641.722656 695.707031 648.222656 703.730469 648.222656 C 711.753906 648.222656 718.253906 641.722656 718.253906 633.703125 C 718.253906 625.679688 711.753906 619.183594 703.730469 619.183594 Z M 761.839844 569.894531 C 755.527344 569.894531 750.394531 575.007812 750.394531 581.335938 C 750.394531 587.644531 755.511719 592.777344 761.839844 592.777344 C 768.152344 592.777344 773.285156 587.664062 773.285156 581.335938 C 773.285156 575.023438 768.152344 569.894531 761.839844 569.894531 Z M 732.058594 551.285156 L 783.136719 551.765625 L 796.019531 510.242188 L 747.796875 509.761719 Z M 896.28125 374.691406 C 896.28125 374.691406 870.019531 403.796875 851.410156 402.859375 C 832.796875 401.898438 837.570312 394.273438 837.570312 394.273438 L 819.4375 394.273438 C 819.4375 394.273438 814.664062 434.839844 821.832031 442.960938 L 850.007812 411.460938 L 882.953125 448.210938 C 882.953125 448.210938 901.566406 427.691406 908.734375 395.230469 Z M 896.28125 374.691406 " fill-opacity="1" fill-rule="evenodd"/><path fill="#000000" d="M 380.230469 399.285156 C 375.21875 387.105469 372.359375 361.09375 372.582031 349.414062 C 372.824219 337.714844 379.511719 315.296875 395.503906 305.035156 C 411.5 294.773438 449.441406 299.066406 459.003906 298.824219 C 468.566406 298.585938 472.125 293.335938 484.785156 295.730469 C 515.574219 299.066406 541.355469 350.609375 545.167969 366.601562 C 548.984375 382.59375 546.128906 405.96875 540.636719 416.230469 C 535.144531 426.492188 523.683594 429.109375 523.683594 429.109375 C 517.953125 426.714844 505.074219 424.578125 505.074219 424.578125 C 505.074219 424.578125 503.875 412.402344 498.144531 408.828125 C 492.414062 405.253906 486.203125 412.402344 486.203125 412.402344 L 488.597656 394.496094 C 488.597656 394.496094 494.089844 385.191406 495.046875 379.703125 C 496.007812 374.210938 485.742188 369.199219 485.742188 369.199219 C 485.742188 369.199219 483.125 355.367188 482.40625 343.1875 C 481.6875 331.011719 470.464844 316.699219 470.464844 316.699219 C 470.464844 316.699219 469.269531 313.363281 469.746094 328.636719 C 470.226562 343.90625 448.261719 362.515625 448.261719 362.515625 C 448.261719 362.515625 444.925781 362.515625 437.996094 361.554688 C 431.070312 360.597656 425.117188 362.035156 421.285156 370.859375 C 417.453125 379.683594 433.703125 391.382812 433.703125 391.382812 C 433.703125 391.382812 433.703125 408.570312 431.308594 419.773438 C 428.914062 430.992188 419.609375 436.960938 404.332031 444.828125 C 389.054688 452.695312 378.074219 470.597656 378.074219 470.597656 C 378.074219 470.597656 385.242188 411.441406 380.230469 399.285156 Z M 801.75 284.015625 C 838.03125 292.121094 871.921875 284.496094 871.921875 284.496094 L 881.464844 305.496094 C 881.464844 305.496094 895.304688 304.539062 897.21875 313.140625 C 900.078125 330.328125 888.152344 336.519531 888.152344 336.519531 L 895.800781 362.292969 C 895.800781 362.292969 912.511719 315.039062 916.328125 294.515625 C 920.144531 273.992188 908.683594 248.699219 883.382812 241.054688 C 858.082031 233.410156 828.964844 234.847656 816.066406 242.492188 C 803.1875 250.136719 800.792969 271.121094 800.792969 271.121094 C 800.792969 271.121094 791.726562 272.558594 786.953125 284.476562 C 782.179688 296.398438 796.976562 307.394531 796.976562 307.394531 Z M 801.75 284.015625 " fill-opacity="1" fill-rule="evenodd"/><g clip-path="url(#b0db9f4f33)"><path fill="#000000" d="M 1107.289062 680.765625 L 1084.074219 680.765625 C 1084.003906 638.011719 1068.113281 598.351562 1056.429688 569.246094 C 1055.371094 566.578125 1054.324219 563.992188 1053.332031 561.480469 C 1048.371094 548.945312 1045.480469 532.21875 1042.421875 514.5 C 1038.074219 489.410156 1033.59375 463.449219 1022.59375 445.269531 C 1011.421875 426.785156 988.6875 412.058594 955.023438 401.523438 C 933.65625 394.835938 914.429688 392.050781 909.332031 391.398438 L 898.707031 372.519531 L 897.066406 364.464844 C 900.828125 356.324219 928.851562 293.796875 914.773438 266.605469 C 906.765625 251.144531 894.792969 242.644531 881.378906 238.25 C 870.808594 211.28125 853.925781 189.132812 831.15625 172.425781 C 801.851562 150.925781 762.78125 138.476562 715.019531 135.414062 C 714.320312 135.382812 713.617188 135.621094 713.105469 136.101562 C 712.589844 136.578125 712.300781 137.261719 712.300781 137.964844 L 712.300781 321.230469 C 712.300781 322.648438 713.445312 323.796875 714.867188 323.796875 L 796.667969 323.796875 C 797.421875 334.671875 799.371094 344.011719 802.519531 351.757812 L 702.753906 351.757812 C 701.335938 351.757812 700.1875 352.902344 700.1875 354.324219 L 700.1875 465.605469 C 697.09375 462.648438 693.449219 459.277344 689.789062 456.113281 C 685.613281 452.488281 681.609375 451.035156 678.257812 450.605469 L 678.257812 150.378906 C 678.257812 149.679688 677.96875 149.011719 677.472656 148.53125 C 676.976562 148.054688 676.308594 147.78125 675.589844 147.816406 C 640.4375 149.21875 608.054688 158.792969 579.261719 176.222656 L 556.835938 123.597656 C 556.304688 122.367188 554.9375 121.75 553.671875 122.179688 C 552.832031 122.453125 469.011719 151.320312 446.980469 238.523438 C 446.636719 239.839844 447.40625 241.191406 448.707031 241.601562 L 500.503906 257.746094 C 489.949219 275.5 485.230469 288.632812 483.792969 293.113281 C 477.957031 292.976562 472.210938 294.15625 466.136719 295.421875 L 464.222656 295.816406 C 458.253906 297.046875 450.007812 296.773438 441.265625 296.484375 C 426.742188 295.988281 410.300781 295.441406 396.890625 301.238281 C 373.523438 311.328125 371.761719 335.203125 370.050781 358.289062 C 368.921875 373.425781 372.207031 384.214844 375.386719 394.648438 C 377.699219 402.242188 379.871094 409.40625 380.074219 417.71875 C 380.539062 437.285156 374.925781 470.34375 374.859375 470.683594 C 374.773438 471.199219 374.839844 471.695312 375.027344 472.121094 C 371.847656 478.980469 369.792969 486.46875 369.058594 494.269531 C 366.152344 525.460938 371.28125 550.484375 376.722656 576.957031 C 378.519531 585.664062 380.367188 594.675781 382.007812 604.234375 C 388.542969 642.253906 376.003906 675.328125 372.875 682.75 L 332.484375 682.835938 C 331.066406 682.835938 329.917969 684 329.917969 685.402344 C 329.917969 686.820312 331.066406 687.96875 332.484375 687.96875 L 373.796875 687.863281 C 374.019531 687.933594 374.257812 687.96875 374.480469 687.96875 C 374.738281 687.96875 374.976562 687.933594 375.21875 687.863281 L 519.628906 687.503906 L 771.898438 685.964844 C 772.429688 685.964844 772.941406 685.898438 773.457031 685.828125 C 773.644531 685.878906 773.847656 685.898438 774.054688 685.898438 L 1107.269531 685.898438 C 1108.691406 685.898438 1109.835938 684.75 1109.835938 683.332031 C 1109.835938 681.914062 1108.707031 680.765625 1107.289062 680.765625 Z M 1018.195312 447.9375 C 1028.683594 465.296875 1033.097656 490.761719 1037.355469 515.390625 C 1040.46875 533.363281 1043.414062 550.347656 1048.5625 563.378906 C 1049.554688 565.890625 1050.597656 568.472656 1051.675781 571.160156 C 1063.1875 599.875 1078.875 639.019531 1078.941406 680.785156 L 783.394531 680.785156 C 784.746094 679.277344 785.875 677.550781 786.574219 675.566406 L 840.496094 524.179688 C 846.5 523.855469 851.835938 523.207031 854.984375 522.777344 C 855.308594 527.054688 856.78125 534.542969 862.855469 537.039062 C 863.65625 540.90625 866.34375 550.433594 873.9375 552.996094 C 874.042969 554.878906 874.554688 557.5625 876.386719 560.078125 C 878.832031 563.429688 882.851562 565.515625 888.308594 566.269531 C 899.476562 567.789062 909.570312 568.507812 913.199219 568.75 L 918.433594 578.15625 L 913.625 580.515625 C 912.511719 581.0625 911.949219 582.328125 912.292969 583.523438 L 923.753906 623.613281 C 923.753906 623.628906 923.753906 623.628906 923.769531 623.644531 C 923.769531 623.664062 923.769531 623.664062 923.769531 623.679688 L 939.679688 674.59375 C 940.019531 675.6875 941.03125 676.390625 942.125 676.390625 C 942.382812 676.390625 942.636719 676.355469 942.894531 676.269531 C 944.246094 675.839844 945 674.40625 944.570312 673.054688 L 929.980469 626.347656 C 935.386719 627.425781 945.015625 629 954.628906 629 C 960.667969 629 966.691406 628.367188 971.652344 626.585938 C 985.371094 621.644531 1003.980469 604.507812 1010.070312 598.660156 L 1058.570312 655.746094 C 1059.082031 656.34375 1059.800781 656.652344 1060.519531 656.652344 C 1061.101562 656.652344 1061.699219 656.449219 1062.179688 656.039062 C 1063.253906 655.113281 1063.390625 653.507812 1062.46875 652.429688 L 1012.246094 593.308594 L 980.476562 550.105469 C 979.742188 549.113281 978.390625 548.773438 977.277344 549.320312 L 973.875 550.980469 C 973.804688 550.722656 973.703125 550.464844 973.550781 550.226562 C 970.574219 545.609375 967.75 541.195312 965.082031 536.972656 L 967.597656 469.625 C 967.648438 468.203125 966.535156 467.023438 965.132812 466.972656 C 963.765625 466.90625 962.53125 468.035156 962.480469 469.4375 L 960.242188 529.277344 C 951.277344 514.960938 944.144531 503.007812 938.636719 493.105469 C 933.210938 483.359375 927.738281 482.878906 919.441406 482.144531 C 916.757812 481.902344 913.695312 481.628906 910.101562 481.015625 C 895.921875 478.550781 883.621094 483.375 881.535156 484.265625 C 879.222656 484.707031 865.640625 487.34375 852.382812 490.796875 L 852.605469 490.179688 C 853.820312 486.777344 853.292969 482.980469 851.1875 480.039062 C 849.117188 477.132812 845.746094 475.40625 842.1875 475.40625 C 842.136719 475.40625 842.105469 475.40625 842.050781 475.40625 L 751.285156 476.464844 L 753.699219 456.507812 C 753.867188 455.105469 752.859375 453.820312 751.457031 453.652344 C 750.035156 453.496094 748.769531 454.488281 748.601562 455.890625 L 746.101562 476.535156 L 710.589844 476.945312 C 721.707031 456.300781 733.496094 439.492188 745.605469 426.972656 C 756.246094 415.976562 767.210938 408.195312 778.195312 403.867188 C 788.421875 399.832031 803.410156 398.292969 815.757812 397.761719 C 815.074219 406.535156 813.175781 444.46875 829.734375 461.792969 C 835.226562 467.539062 842.1875 470.445312 850.417969 470.445312 C 851.101562 470.445312 851.804688 470.429688 852.503906 470.378906 C 870.484375 469.351562 886.1875 455.738281 897.9375 431.042969 C 904.882812 416.417969 908.511719 402.191406 909.742188 396.703125 C 923.546875 398.53125 995.359375 410.144531 1018.195312 447.9375 Z M 521.683594 682.339844 L 517.167969 661.648438 C 527.738281 662.484375 538.226562 659.132812 546.300781 652.222656 C 556.855469 643.195312 562.515625 628.863281 562.292969 611.863281 C 562.121094 600.078125 559.949219 582.976562 557.128906 565.5 C 558.921875 564.796875 565.234375 561.820312 568.347656 553.101562 C 569.613281 549.558594 570.027344 546.308594 570.386719 543.4375 C 571.035156 538.359375 571.480469 536.492188 573.875 535.535156 C 573.996094 535.484375 574.113281 535.433594 574.234375 535.363281 C 587.355469 527.582031 591.5625 517.816406 591.167969 511.816406 C 590.964844 508.667969 589.5625 506.324219 587.304688 505.351562 C 584.976562 504.359375 578.714844 506.308594 571.035156 509.558594 L 579.640625 489.601562 C 581.230469 485.90625 584.855469 483.496094 588.875 483.441406 L 609.574219 483.1875 C 606.976562 490.8125 605.503906 497.414062 607.558594 501.28125 C 608.445312 502.9375 609.917969 504.050781 611.800781 504.480469 C 616.488281 505.554688 619.925781 504.410156 622.234375 502.664062 C 624.355469 506.941406 628.648438 511.320312 636.074219 510.890625 C 640.574219 510.636719 643.71875 509.234375 645.875 507.4375 C 646.304688 508.410156 646.886719 509.371094 647.6875 510.207031 C 648.871094 511.4375 650.9375 512.824219 654.292969 512.824219 C 654.582031 512.824219 654.890625 512.808594 655.199219 512.789062 C 661.082031 512.363281 665.035156 508.804688 667.378906 505.691406 C 668.164062 506.90625 669.226562 508.085938 670.628906 508.992188 C 672.871094 510.429688 675.589844 510.839844 678.496094 510.171875 C 685.273438 508.617188 690.214844 493.414062 692.96875 482.210938 L 842.070312 480.484375 C 844.070312 480.519531 845.832031 481.375 846.960938 482.964844 C 848.109375 484.570312 848.382812 486.539062 847.730469 488.402344 L 846.378906 492.183594 C 846.363281 492.25 846.347656 492.320312 846.328125 492.386719 C 838.066406 494.746094 830.695312 497.363281 827.253906 499.878906 C 820.15625 505.078125 816.324219 512.414062 817.914062 517.734375 C 818.597656 520.007812 820.910156 523.871094 828.640625 524.230469 C 830.710938 524.335938 832.832031 524.351562 834.917969 524.316406 L 781.683594 673.789062 C 780.195312 677.945312 776.242188 680.75 771.832031 680.785156 Z M 585.25 510.105469 C 585.300781 510.105469 585.335938 510.105469 585.386719 510.105469 C 585.644531 510.308594 585.984375 510.960938 586.070312 512.125 C 586.3125 515.78125 583.574219 523.804688 571.804688 530.832031 C 566.570312 533.039062 565.9375 537.980469 565.320312 542.769531 C 564.996094 545.386719 564.601562 548.34375 563.542969 551.355469 C 561.574219 556.878906 558.085938 559.324219 556.304688 560.25 C 554.253906 548.019531 551.976562 535.84375 549.910156 525.394531 C 564.414062 517.851562 581.519531 510.105469 585.25 510.105469 Z M 665.238281 499.449219 C 664.503906 500.988281 661.167969 507.230469 654.875 507.695312 C 653.316406 507.796875 652.203125 507.472656 651.453125 506.683594 C 649.894531 505.078125 649.84375 501.792969 649.964844 500.492188 C 649.964844 500.425781 649.980469 500.339844 649.980469 500.269531 C 649.980469 500.238281 649.980469 500.203125 649.980469 500.152344 C 649.980469 500.117188 650 500.082031 650 500.050781 C 650.117188 497.980469 653.710938 472.308594 656.105469 455.480469 C 656.121094 455.414062 656.105469 455.34375 656.105469 455.257812 C 658.3125 454.148438 663.804688 451.957031 667.71875 455.292969 Z M 644.867188 499.691406 C 644.867188 499.707031 644.847656 499.742188 644.847656 499.757812 C 644.847656 499.777344 644.847656 499.808594 644.832031 499.828125 C 644.746094 500.511719 643.839844 505.28125 635.78125 505.761719 C 628.394531 506.15625 626.324219 499.65625 625.84375 497.605469 L 637.597656 457.398438 C 638.84375 456.046875 643.515625 451.804688 650.921875 455.054688 C 647.160156 481.75 645.105469 496.714844 644.867188 499.691406 Z M 620.796875 496.644531 C 620.523438 497.246094 618.625 500.785156 612.960938 499.46875 C 612.449219 499.347656 612.246094 499.144531 612.089844 498.851562 C 610.277344 495.449219 614.742188 483.714844 617.992188 475.148438 C 619.085938 472.273438 620.214844 469.300781 621.171875 466.546875 C 622.609375 462.425781 624.679688 459.738281 627.347656 458.558594 C 629.078125 457.789062 630.804688 457.789062 632.105469 457.960938 Z M 969.238281 552.996094 C 969.273438 553.066406 969.324219 553.117188 969.375 553.167969 L 923.035156 575.878906 L 916.996094 565.003906 C 916.566406 564.234375 915.765625 563.738281 914.890625 563.6875 C 914.773438 563.6875 902.746094 563.035156 889.007812 561.15625 C 885.023438 560.609375 882.183594 559.238281 880.574219 557.085938 C 879.566406 555.734375 879.207031 554.261719 879.105469 553.167969 L 889.0625 551.59375 C 890.464844 551.371094 891.421875 550.054688 891.199219 548.652344 C 890.976562 547.25 889.675781 546.292969 888.257812 546.515625 L 876.640625 548.34375 C 871.40625 547.421875 869.046875 540.785156 868.15625 537.125 L 880.199219 535.039062 C 881.601562 534.800781 882.527344 533.464844 882.285156 532.082031 C 882.046875 530.679688 880.710938 529.738281 879.328125 529.996094 L 865.316406 532.421875 C 861.144531 531.089844 860.253906 524.761719 860.082031 521.648438 L 874.179688 517.132812 C 875.53125 516.707031 876.265625 515.253906 875.835938 513.902344 C 875.410156 512.550781 873.957031 511.816406 872.605469 512.242188 L 856.867188 517.269531 C 855.191406 517.527344 841.144531 519.699219 828.949219 519.117188 C 826.535156 519 823.542969 518.417969 822.894531 516.261719 C 822.070312 513.542969 824.636719 508.207031 830.351562 504.035156 C 837.792969 498.578125 870.722656 491.480469 882.78125 489.207031 C 882.988281 489.171875 883.175781 489.105469 883.363281 489.035156 C 883.484375 488.984375 895.59375 483.664062 909.246094 486.042969 C 913.0625 486.710938 916.226562 486.984375 919.015625 487.238281 C 926.847656 487.941406 930.082031 488.214844 934.171875 495.585938 C 942.191406 510.070312 953.671875 528.847656 969.238281 552.996094 Z M 928.25 620.703125 L 917.800781 584.140625 L 977.605469 554.84375 L 1006.839844 594.589844 C 1001.363281 599.855469 982.785156 617.097656 969.886719 621.730469 C 956.855469 626.417969 934.152344 622.003906 928.25 620.703125 Z M 835.980469 397.554688 C 837.398438 400.414062 841.195312 405.441406 850.28125 405.441406 C 852.367188 405.441406 854.710938 405.167969 857.398438 404.566406 C 871.476562 401.320312 889.316406 384.25 895.75 377.699219 L 905.039062 394.203125 C 903.890625 399.523438 897.410156 426.9375 883.003906 446.125 L 852.933594 408.878906 C 852.453125 408.28125 851.734375 407.9375 850.980469 407.921875 C 850.261719 407.921875 849.492188 408.226562 848.996094 408.808594 L 823.613281 438.140625 C 819.421875 421.378906 820.566406 402.226562 820.941406 397.539062 C 827.835938 397.367188 833.378906 397.488281 835.980469 397.554688 Z M 879.6875 450.195312 C 872.398438 458.523438 863.332031 464.5625 852.214844 465.195312 C 844.515625 465.621094 838.375 463.347656 833.449219 458.183594 C 829.855469 454.421875 827.238281 449.460938 825.320312 443.972656 L 850.863281 414.488281 Z M 717.433594 318.679688 L 717.433594 140.71875 C 762.953125 144 800.191406 156.058594 828.128906 176.5625 C 849.082031 191.9375 864.890625 212.085938 875.171875 236.507812 C 861.964844 233.410156 847.816406 233.648438 834.96875 234.675781 C 806.796875 236.96875 798.960938 257.40625 798.550781 269.582031 C 795.0625 270.746094 788.644531 274.421875 785.582031 285.898438 C 782.351562 298.023438 790.734375 307.308594 796.328125 311.070312 C 796.308594 311.789062 796.308594 312.492188 796.308594 313.207031 C 796.308594 315.074219 796.34375 316.886719 796.414062 318.664062 L 717.433594 318.664062 Z M 800.210938 280.800781 C 799.527344 281.160156 799.0625 281.828125 798.910156 282.578125 C 798.824219 283.039062 797.128906 292.140625 796.515625 304.640625 C 793.023438 301.425781 788.355469 295.386719 790.527344 287.214844 C 793.777344 275.035156 800.996094 274.183594 801.269531 274.164062 C 802.65625 274.0625 803.699219 272.882812 803.664062 271.515625 C 803.613281 270.335938 803 242.421875 835.363281 239.808594 C 852.589844 238.40625 866.683594 239.328125 878.113281 242.714844 C 878.523438 243.003906 879.019531 243.160156 879.53125 243.160156 C 893.664062 247.691406 903.601562 256.171875 910.222656 268.984375 C 921.117188 290.035156 903.019531 337.476562 895.289062 355.742188 L 891.421875 336.757812 C 894.328125 333.78125 901.875 324.957031 900.726562 313.976562 C 900.332031 310.25 898.742188 307.378906 896.003906 305.445312 C 891.730469 302.433594 885.757812 302.691406 882.578125 303.101562 L 874.453125 283.367188 C 874.023438 282.304688 872.945312 281.671875 871.800781 281.792969 C 871.269531 281.84375 818.789062 287.367188 802.382812 280.699219 C 801.699219 280.390625 800.894531 280.441406 800.210938 280.800781 Z M 803.476562 286.460938 C 821.335938 291.488281 861.109375 288 870.449219 287.09375 L 878.625 306.964844 C 879.105469 308.128906 880.371094 308.78125 881.585938 308.488281 C 883.636719 308.011719 889.695312 307.273438 893.046875 309.652344 C 894.535156 310.710938 895.390625 312.300781 895.613281 314.527344 C 896.722656 325.113281 887.007812 333.886719 886.921875 333.972656 C 886.238281 334.585938 885.929688 335.511719 886.101562 336.398438 L 891.796875 364.394531 C 891.816406 364.636719 891.847656 364.875 891.933594 365.097656 L 893.472656 372.636719 C 889.144531 377.152344 870.019531 396.394531 856.214844 399.574219 C 843.8125 402.449219 840.835938 396.375 840.289062 394.785156 L 841.539062 375.835938 C 841.589844 375.136719 841.351562 374.46875 840.890625 373.957031 C 840.425781 373.441406 839.777344 373.132812 839.074219 373.117188 C 828.351562 372.742188 819.796875 368.652344 813.65625 360.992188 C 811.824219 358.699219 810.25 356.136719 808.898438 353.398438 C 808.882812 353.363281 808.867188 353.332031 808.847656 353.277344 C 797.917969 330.976562 801.953125 296.621094 803.476562 286.460938 Z M 705.335938 470.15625 L 705.335938 356.90625 L 804.929688 356.90625 C 806.332031 359.554688 807.90625 361.984375 809.652344 364.15625 C 816.253906 372.417969 825.203125 377.085938 836.269531 378.058594 L 835.328125 392.410156 C 826.195312 392.136719 794.753906 391.777344 776.3125 399.042969 C 751.796875 408.707031 728.550781 433.386719 707.167969 472.414062 C 706.65625 471.898438 706.003906 471.25 705.304688 470.546875 C 705.320312 470.429688 705.335938 470.292969 705.335938 470.15625 Z M 702.34375 474.839844 L 697.726562 475.609375 L 694.800781 470.753906 C 694.253906 469.847656 693.191406 469.351562 692.148438 469.539062 C 691.105469 469.726562 690.285156 470.546875 690.078125 471.589844 C 687.152344 487.085938 681.355469 504.289062 677.386719 505.195312 C 675.828125 505.554688 674.546875 505.402344 673.46875 504.71875 C 671.636719 503.539062 670.664062 500.988281 670.355469 499.828125 L 672.785156 456.027344 C 675.109375 455.363281 680.394531 454.746094 686.453125 459.996094 C 692.679688 465.398438 698.871094 471.402344 702.34375 474.839844 Z M 553.074219 127.875 L 622.492188 290.410156 L 452.539062 237.429688 C 472.691406 162.609375 539.988281 132.988281 553.074219 127.875 Z M 505.515625 259.320312 L 626.273438 296.960938 C 626.527344 297.046875 626.785156 297.082031 627.042969 297.082031 C 627.761719 297.082031 628.445312 296.789062 628.941406 296.242188 C 629.605469 295.507812 629.796875 294.429688 629.402344 293.523438 L 581.351562 181.011719 C 608.824219 164.234375 639.683594 154.84375 673.175781 153.097656 L 673.175781 450.742188 C 672.289062 450.898438 671.535156 451.085938 670.917969 451.292969 C 665.410156 446.707031 657.988281 448.554688 653.726562 450.726562 C 645.003906 446.554688 638.007812 449.972656 634.550781 453.242188 C 632.515625 452.726562 628.992188 452.28125 625.382812 453.855469 C 621.328125 455.617188 618.28125 459.328125 616.351562 464.886719 C 615.410156 467.574219 614.347656 470.378906 613.21875 473.351562 C 612.621094 474.941406 612.023438 476.515625 611.441406 478.054688 L 588.824219 478.328125 C 582.785156 478.398438 577.328125 482.023438 574.933594 487.582031 L 564.210938 512.429688 C 564.175781 512.5 564.175781 512.566406 564.140625 512.636719 C 559.113281 514.980469 553.824219 517.613281 548.8125 520.195312 C 546.023438 506.359375 543.851562 496.527344 543.597656 495.378906 C 543.578125 495.277344 543.527344 495.175781 543.492188 495.074219 C 543.476562 495.039062 543.476562 495.003906 543.460938 494.96875 C 543.40625 494.851562 538.445312 482.46875 539.335938 470.839844 C 539.609375 467.28125 540.398438 463.554688 541.148438 459.960938 C 543.015625 451.101562 544.949219 441.9375 538.464844 436.257812 C 536.171875 434.257812 533.160156 432.050781 529.792969 430 C 539.421875 423.808594 549.855469 411.152344 549.855469 385.207031 C 549.855469 358.820312 530.75 325.898438 511.863281 307.035156 C 503.464844 298.636719 496.074219 294.910156 488.992188 293.644531 C 490.769531 288.480469 495.613281 275.773438 505.515625 259.320312 Z M 536.992188 491.789062 L 487.554688 474.738281 C 485.453125 470.460938 483.347656 464.375 481.601562 458.285156 C 480.335938 444.910156 482.664062 425.722656 483.003906 423.074219 C 484.542969 419.277344 489.402344 410.316406 495.167969 410.65625 C 500.625 410.949219 502.164062 422.335938 502.285156 426.304688 C 502.300781 427.125 502.730469 427.894531 503.414062 428.355469 C 504.097656 428.820312 504.96875 428.921875 505.738281 428.648438 C 513.574219 425.773438 527.925781 433.777344 535.144531 440.105469 C 539.371094 443.800781 537.898438 450.796875 536.1875 458.882812 C 535.402344 462.648438 534.582031 466.546875 534.273438 470.429688 C 533.625 478.535156 535.46875 486.710938 536.992188 491.789062 Z M 465.113281 452.214844 L 457.191406 447.304688 C 457.226562 447.167969 457.242188 447.015625 457.261719 446.863281 L 458.113281 425.210938 L 465.472656 425.84375 C 467.148438 427.605469 471.851562 432.957031 472.175781 438.328125 C 472.671875 446.160156 477.855469 466.941406 483.175781 477.457031 L 483.671875 495.105469 L 465.4375 466.613281 L 466.328125 454.574219 C 466.394531 453.632812 465.933594 452.726562 465.113281 452.214844 Z M 412.644531 443.390625 C 417.539062 440.429688 421.695312 437.128906 425.117188 433.453125 L 461.089844 455.753906 L 460.511719 463.535156 Z M 436.21875 391.007812 C 436.117188 390.375 435.792969 389.808594 435.296875 389.398438 C 435.140625 389.261719 419.660156 376.382812 425.269531 368.535156 C 431.105469 360.359375 443.96875 365.984375 444.089844 366.039062 C 444.773438 366.34375 445.558594 366.34375 446.226562 366.019531 C 446.550781 365.867188 454.214844 362.222656 461.195312 353.894531 C 466.582031 347.464844 472.363281 337.101562 472.3125 322.359375 C 476.691406 330.550781 482.40625 346.183594 482.679688 369.9375 C 482.695312 370.84375 483.175781 371.679688 483.964844 372.125 C 486.769531 373.75 491.507812 377.359375 492.242188 380.128906 C 492.429688 380.8125 492.277344 381.207031 492.105469 381.496094 C 488.785156 387.191406 485.417969 393.453125 485.382812 393.503906 C 485.210938 393.828125 485.109375 394.171875 485.074219 394.53125 C 485.074219 394.582031 484.957031 396.050781 484.800781 398.105469 C 484.355469 398.359375 483.878906 398.617188 483.414062 398.820312 C 482.542969 399.285156 481.621094 399.644531 480.695312 399.949219 C 478.847656 400.566406 476.949219 400.925781 475.050781 400.925781 C 473.152344 400.910156 471.234375 400.667969 469.371094 400.019531 C 468.414062 399.796875 467.539062 399.265625 466.601562 398.90625 C 465.675781 398.480469 464.820312 397.914062 463.863281 397.453125 L 463.640625 397.351562 C 463.042969 397.058594 462.289062 397.199219 461.828125 397.726562 C 461.261719 398.359375 461.332031 399.335938 461.964844 399.898438 C 462.835938 400.667969 463.726562 401.4375 464.703125 402.140625 C 465.726562 402.738281 466.703125 403.457031 467.847656 403.902344 C 470.019531 404.996094 472.554688 405.457031 475.035156 405.542969 C 477.53125 405.613281 480.027344 405.097656 482.285156 404.140625 C 483.023438 403.816406 483.707031 403.457031 484.375 403.082031 C 484.117188 406.160156 483.828125 409.21875 483.636719 410.589844 C 483.570312 411 483.636719 411.410156 483.757812 411.785156 C 481.824219 414.128906 480.335938 416.660156 479.378906 418.558594 C 477.410156 417.445312 474.621094 416.367188 471.613281 416.8125 C 469.867188 417.070312 467.457031 417.976562 465.351562 420.679688 L 455.839844 419.859375 C 455.140625 419.789062 454.453125 420.027344 453.925781 420.492188 C 453.394531 420.953125 453.085938 421.617188 453.050781 422.320312 L 452.195312 444.226562 L 428.402344 429.46875 C 435.996094 419.207031 438.578125 406.484375 436.21875 391.007812 Z M 470.003906 423.175781 C 470.722656 422.457031 471.507812 422.03125 472.382812 421.894531 C 474.265625 421.617188 476.402344 422.679688 477.734375 423.550781 C 477.480469 425.621094 477.035156 429.65625 476.660156 434.566406 C 475.289062 429.691406 472.003906 425.433594 470.003906 423.175781 Z M 385.171875 417.582031 C 384.949219 408.585938 382.675781 401.078125 380.265625 393.144531 C 377.234375 383.15625 374.089844 372.828125 375.132812 358.648438 C 377.097656 332.15625 379.800781 314.167969 398.894531 305.921875 C 411.242188 300.585938 427.101562 301.117188 441.058594 301.597656 C 450.109375 301.90625 458.644531 302.195312 465.230469 300.828125 L 467.148438 300.433594 C 481.996094 297.355469 492.722656 295.113281 508.253906 310.625 C 532.203125 334.570312 544.742188 366.257812 544.742188 385.175781 C 544.742188 410.65625 534.050781 421.894531 525.070312 426.835938 C 524.914062 426.921875 524.761719 427.023438 524.640625 427.144531 C 518.808594 424.304688 512.496094 422.40625 507.175781 423.054688 C 506.542969 417.308594 504.199219 405.988281 495.425781 405.527344 C 493.148438 405.40625 491.078125 406.023438 489.214844 407.082031 C 489.609375 402.859375 490.035156 397.25 490.171875 395.46875 C 491.011719 393.914062 493.800781 388.800781 496.554688 384.097656 C 497.476562 382.507812 497.714844 380.675781 497.21875 378.828125 C 496.007812 374.230469 490.414062 370.160156 487.8125 368.484375 C 487.042969 332.3125 473.714844 312.96875 470.3125 311.257812 C 469.457031 310.832031 468.3125 310.898438 467.539062 311.464844 C 466.769531 312.027344 466.359375 313.054688 466.515625 314.011719 C 471.355469 344.660156 449.972656 358.222656 445.046875 360.90625 C 441.058594 359.417969 428.230469 355.640625 421.132812 365.574219 C 413.554688 376.195312 427.71875 389.585938 431.328125 392.734375 C 434.542969 415.804688 425.425781 432.101562 403.496094 442.535156 C 399.96875 444.210938 396.496094 446.382812 393.195312 448.980469 C 388.78125 452.453125 384.882812 456.523438 381.546875 461.074219 C 383.1875 449.511719 385.5 430.835938 385.171875 417.582031 Z M 378.433594 682.714844 C 382.710938 672.078125 393.417969 640.390625 387.054688 603.347656 C 385.394531 593.71875 383.53125 584.671875 381.734375 575.914062 C 376.140625 548.6875 371.316406 525.171875 374.15625 494.730469 C 375.714844 478.054688 383.804688 462.851562 396.34375 453.019531 C 399.355469 450.660156 402.503906 448.691406 405.683594 447.167969 C 406.128906 446.964844 406.539062 446.726562 406.984375 446.503906 C 407.121094 446.589844 407.257812 446.671875 407.410156 446.742188 L 461.089844 469.332031 L 483.570312 504.460938 C 483.671875 504.632812 483.808594 504.785156 483.964844 504.921875 L 484.714844 531.636719 C 471.167969 502.992188 444.257812 471.589844 442.804688 469.914062 C 441.882812 468.835938 440.257812 468.71875 439.179688 469.640625 C 438.101562 470.566406 437.980469 472.191406 438.90625 473.265625 C 439.347656 473.78125 483.3125 525.050781 486.992188 554.945312 C 487.058594 555.546875 487.351562 556.109375 487.8125 556.519531 C 488.085938 556.777344 515.542969 582.054688 521.476562 600.746094 C 521.820312 601.839844 522.828125 602.542969 523.921875 602.542969 C 524.179688 602.542969 524.4375 602.507812 524.695312 602.421875 C 526.042969 601.996094 526.796875 600.558594 526.371094 599.207031 C 520.503906 580.71875 496.46875 557.597656 491.96875 553.390625 C 491.59375 550.808594 490.941406 548.105469 490.085938 545.316406 C 490.15625 545.078125 490.207031 544.824219 490.191406 544.546875 L 488.375 480.484375 L 538.890625 497.894531 C 541.269531 508.789062 556.699219 580.683594 557.144531 611.949219 C 557.351562 627.410156 552.320312 640.320312 542.945312 648.339844 C 535.09375 655.0625 524.640625 657.902344 514.308594 656.15625 C 514.035156 656.105469 513.78125 656.121094 513.523438 656.15625 C 458.507812 643.722656 398.652344 562.539062 398.039062 561.71875 C 397.199219 560.574219 395.589844 560.332031 394.445312 561.15625 C 393.300781 561.992188 393.042969 563.601562 393.878906 564.746094 C 394.035156 564.953125 409.773438 586.414062 432.335938 608.902344 C 461.519531 638.011719 488.222656 655.488281 511.742188 660.996094 L 516.414062 682.375 Z M 775.882812 582.15625 C 775.882812 574.664062 769.792969 568.578125 762.300781 568.578125 C 755.289062 568.578125 749.507812 573.914062 748.789062 580.738281 C 746.1875 582.53125 739.6875 587.59375 733.800781 596.367188 L 699.539062 560.660156 C 699.058594 560.164062 698.410156 559.871094 697.726562 559.871094 C 697.039062 559.871094 696.375 560.128906 695.894531 560.609375 L 636.363281 618.617188 C 635.441406 616.207031 634.621094 613.640625 633.988281 610.871094 C 629.128906 589.851562 620.335938 582.394531 616.964844 580.242188 C 617.289062 578.925781 617.496094 577.539062 617.496094 576.121094 C 617.496094 566.816406 609.917969 559.238281 600.613281 559.238281 C 591.304688 559.238281 583.726562 566.816406 583.726562 576.121094 C 583.726562 585.421875 591.304688 593 600.613281 593 C 606.652344 593 611.9375 589.816406 614.914062 585.046875 C 617.820312 587.203125 624.835938 594.078125 628.972656 612.015625 C 629.847656 615.761719 630.992188 619.25 632.394531 622.484375 L 622.027344 632.574219 L 601.535156 610.339844 C 601.074219 609.828125 600.40625 609.535156 599.722656 609.519531 C 599.003906 609.46875 598.371094 609.757812 597.859375 610.238281 L 562.839844 643.964844 C 561.816406 644.953125 561.796875 646.5625 562.773438 647.589844 C 563.269531 648.117188 563.953125 648.375 564.621094 648.375 C 565.269531 648.375 565.902344 648.136719 566.398438 647.65625 L 599.515625 615.746094 L 620.011719 637.996094 C 620.472656 638.507812 621.140625 638.796875 621.824219 638.816406 C 622.492188 638.847656 623.191406 638.574219 623.6875 638.097656 L 634.757812 627.304688 C 638.332031 633.597656 643.070312 638.574219 648.816406 641.996094 C 655.214844 645.792969 662.757812 647.691406 671.382812 647.691406 C 677.488281 647.691406 684.144531 646.734375 691.292969 644.816406 C 694.390625 648.171875 698.785156 650.289062 703.695312 650.289062 C 713 650.289062 720.578125 642.714844 720.578125 633.410156 C 720.578125 630.640625 719.894531 628.007812 718.699219 625.699219 C 721.898438 623.269531 728.484375 617.265625 734.316406 605.601562 C 734.453125 605.328125 734.605469 605.074219 734.742188 604.800781 L 740.988281 611.316406 C 741.960938 612.339844 743.605469 612.375 744.613281 611.382812 C 745.640625 610.410156 745.675781 608.785156 744.683594 607.757812 L 737.394531 600.183594 C 741.65625 593.582031 746.394531 589.117188 749.4375 586.671875 C 751.300781 591.957031 756.332031 595.769531 762.25 595.769531 C 769.777344 595.734375 775.882812 589.648438 775.882812 582.15625 Z M 600.613281 587.851562 C 594.128906 587.851562 588.859375 582.582031 588.859375 576.101562 C 588.859375 569.621094 594.128906 564.351562 600.613281 564.351562 C 607.09375 564.351562 612.363281 569.621094 612.363281 576.101562 C 612.363281 582.582031 607.09375 587.851562 600.613281 587.851562 Z M 703.730469 645.125 C 697.246094 645.125 691.976562 639.859375 691.976562 633.378906 C 691.976562 626.894531 697.246094 621.628906 703.730469 621.628906 C 710.210938 621.628906 715.480469 626.894531 715.480469 633.378906 C 715.480469 639.859375 710.210938 645.125 703.730469 645.125 Z M 729.765625 603.277344 C 724.429688 613.933594 718.457031 619.40625 715.722656 621.507812 C 712.660156 618.414062 708.417969 616.496094 703.730469 616.496094 C 694.421875 616.496094 686.84375 624.074219 686.84375 633.378906 C 686.84375 635.839844 687.394531 638.164062 688.332031 640.269531 C 673.230469 644.015625 660.84375 643.109375 651.488281 637.550781 C 646.082031 634.351562 641.785156 629.664062 638.589844 623.59375 L 697.621094 566.0625 L 731.03125 600.882812 C 730.605469 601.652344 730.175781 602.4375 729.765625 603.277344 Z M 762.285156 590.605469 C 757.632812 590.605469 753.835938 586.808594 753.835938 582.15625 C 753.835938 577.488281 757.632812 573.707031 762.285156 573.707031 C 766.9375 573.707031 770.734375 577.503906 770.734375 582.15625 C 770.753906 586.808594 766.953125 590.605469 762.285156 590.605469 Z M 781.050781 520.878906 L 760.675781 543.144531 C 760.179688 543.675781 759.496094 543.984375 758.777344 543.984375 C 758.589844 543.984375 758.402344 543.96875 758.214844 543.917969 C 757.324219 543.710938 756.589844 543.042969 756.332031 542.171875 L 751.234375 525.632812 C 750.824219 524.28125 751.578125 522.847656 752.925781 522.417969 C 754.277344 522.007812 755.714844 522.761719 756.144531 524.113281 L 759.925781 536.375 L 777.269531 517.40625 C 778.226562 516.363281 779.851562 516.296875 780.898438 517.238281 C 781.941406 518.210938 782.007812 519.835938 781.050781 520.878906 Z M 732.023438 553.527344 L 782.316406 554.160156 C 782.332031 554.160156 782.332031 554.160156 782.351562 554.160156 C 783.445312 554.160156 784.421875 553.457031 784.78125 552.433594 L 799.421875 509.796875 C 799.695312 509.011719 799.558594 508.136719 799.082031 507.453125 C 798.585938 506.789062 797.816406 506.460938 796.976562 506.394531 L 747.332031 507.027344 C 746.273438 507.042969 745.332031 507.710938 744.957031 508.703125 L 729.679688 550.074219 C 729.390625 550.859375 729.507812 551.730469 729.972656 552.414062 C 730.414062 553.101562 731.183594 553.527344 732.023438 553.527344 Z M 749.128906 512.140625 L 793.367188 511.574219 L 780.519531 549.011719 L 735.71875 548.449219 Z M 854.609375 320.167969 C 854.710938 323.574219 852.914062 326.378906 850.621094 326.445312 C 848.332031 326.515625 846.378906 323.8125 846.277344 320.410156 C 846.175781 317.003906 847.972656 314.199219 850.261719 314.132812 C 852.574219 314.0625 854.523438 316.765625 854.609375 320.167969 Z M 819.695312 327.078125 C 817.402344 327.148438 815.453125 324.445312 815.347656 321.042969 C 815.246094 317.636719 817.042969 314.832031 819.335938 314.765625 C 821.628906 314.695312 823.578125 317.398438 823.679688 320.800781 C 823.78125 324.207031 821.988281 327.011719 819.695312 327.078125 Z M 828.214844 332.140625 L 829.582031 332.484375 C 829.820312 332.550781 830.164062 332.824219 830.4375 332.960938 C 830.726562 333.117188 830.984375 333.253906 831.242188 333.355469 C 831.753906 333.558594 832.285156 333.714844 832.953125 333.714844 C 833.601562 333.765625 834.386719 333.613281 835.191406 333.457031 L 836.441406 333.132812 C 836.867188 332.996094 837.296875 332.84375 837.757812 332.738281 L 837.980469 332.6875 C 838.921875 332.464844 839.878906 333.046875 840.121094 334.003906 C 840.289062 334.707031 840.015625 335.390625 839.484375 335.800781 C 838.613281 336.484375 837.671875 337.082031 836.59375 337.5625 C 835.484375 337.988281 834.304688 338.347656 832.953125 338.347656 C 831.617188 338.367188 830.128906 338.058594 828.929688 337.203125 C 827.71875 336.332031 826.914062 335.238281 826.621094 333.679688 C 826.484375 332.960938 826.964844 332.277344 827.683594 332.140625 C 827.835938 332.089844 828.023438 332.105469 828.214844 332.140625 Z M 835.550781 348.832031 C 837.449219 348.816406 839.367188 348.574219 841.230469 347.925781 C 842.207031 347.703125 843.0625 347.171875 844.003906 346.816406 C 844.925781 346.386719 845.78125 345.824219 846.738281 345.359375 L 846.960938 345.257812 C 847.730469 344.898438 848.65625 345.222656 849.015625 345.992188 C 849.324219 346.625 849.152344 347.363281 848.636719 347.804688 C 847.765625 348.574219 846.859375 349.34375 845.902344 350.046875 C 844.875 350.644531 843.898438 351.363281 842.753906 351.808594 C 840.582031 352.902344 838.050781 353.363281 835.570312 353.449219 C 833.070312 353.519531 830.574219 353.003906 828.296875 352.046875 C 826.023438 351.054688 824.023438 349.808594 822.226562 347.925781 C 821.558594 347.226562 821.574219 346.097656 822.277344 345.429688 C 822.859375 344.863281 823.75 344.796875 824.414062 345.191406 L 824.65625 345.328125 C 825.390625 345.769531 826.296875 346.335938 827.1875 346.730469 C 828.058594 347.191406 828.984375 347.550781 829.90625 347.859375 C 831.769531 348.492188 833.652344 348.832031 835.550781 348.832031 Z M 811.125 307.71875 C 811.019531 307.34375 811.105469 306.964844 811.347656 306.691406 C 812.457031 305.375 813.773438 304.503906 815.296875 303.820312 C 816.804688 303.152344 818.53125 302.8125 820.257812 302.878906 C 821.988281 302.929688 823.75 303.390625 825.203125 304.265625 C 826.707031 305.101562 827.886719 306.300781 828.761719 307.652344 C 829.207031 308.351562 829.015625 309.277344 828.316406 309.738281 C 827.90625 309.992188 827.425781 310.046875 827 309.890625 L 826.726562 309.789062 C 826.058594 309.550781 825.511719 309.207031 824.945312 308.949219 C 824.363281 308.726562 823.832031 308.402344 823.269531 308.265625 C 822.191406 307.804688 821.097656 307.597656 819.96875 307.445312 C 818.839844 307.308594 817.675781 307.359375 816.445312 307.53125 C 815.230469 307.703125 813.929688 308.078125 812.699219 308.4375 L 812.507812 308.488281 C 811.910156 308.644531 811.292969 308.300781 811.125 307.71875 Z M 843.796875 308.164062 C 843.695312 307.789062 843.78125 307.410156 844.019531 307.136719 C 845.132812 305.820312 846.449219 304.949219 847.972656 304.265625 C 849.476562 303.597656 851.203125 303.253906 852.933594 303.324219 C 854.660156 303.375 856.421875 303.835938 857.875 304.710938 C 859.382812 305.546875 860.5625 306.746094 861.433594 308.09375 C 861.878906 308.796875 861.691406 309.71875 860.988281 310.183594 C 860.578125 310.4375 860.097656 310.488281 859.671875 310.335938 L 859.398438 310.234375 C 858.730469 309.992188 858.183594 309.652344 857.617188 309.394531 C 857.039062 309.171875 856.507812 308.847656 855.941406 308.710938 C 854.863281 308.25 853.769531 308.042969 852.640625 307.890625 C 851.511719 307.753906 850.347656 307.804688 849.117188 307.976562 C 847.902344 308.148438 846.601562 308.523438 845.371094 308.882812 L 845.183594 308.933594 C 844.582031 309.085938 843.96875 308.746094 843.796875 308.164062 Z M 476.4375 370.601562 C 476.332031 374.007812 474.402344 376.707031 472.089844 376.640625 C 469.78125 376.570312 468.003906 373.765625 468.105469 370.363281 C 468.207031 366.960938 470.140625 364.257812 472.449219 364.328125 C 474.761719 364.394531 476.523438 367.21875 476.4375 370.601562 Z M 461.144531 359.605469 C 460.988281 359.144531 461.058594 358.667969 461.296875 358.289062 C 462.167969 356.9375 463.351562 355.742188 464.855469 354.902344 C 466.308594 354.03125 468.070312 353.554688 469.800781 353.519531 C 471.527344 353.449219 473.253906 353.792969 474.761719 354.460938 C 476.28125 355.144531 477.597656 356.03125 478.710938 357.332031 C 479.105469 357.792969 479.054688 358.496094 478.574219 358.90625 C 478.285156 359.164062 477.890625 359.230469 477.546875 359.128906 L 477.359375 359.078125 C 476.144531 358.71875 474.828125 358.359375 473.613281 358.171875 C 472.382812 358 471.21875 357.949219 470.089844 358.085938 C 468.976562 358.238281 467.882812 358.445312 466.789062 358.90625 C 466.222656 359.058594 465.695312 359.382812 465.113281 359.589844 C 464.53125 359.847656 463.984375 360.1875 463.332031 360.429688 L 463.058594 360.53125 C 462.289062 360.804688 461.417969 360.394531 461.144531 359.605469 Z M 461.144531 359.605469 " fill-opacity="1" fill-rule="nonzero"/></g></svg>